<?xml version="1.0" encoding="UTF-8"?> <svg xmlns="http://www.w3.org/2000/svg" width="7686" height="200" viewBox="0 0 7686 200" fill="none"><g clip-path="url(#clip0_365_4544)"><path d="M0 200H1V2.62002C0.67 2.56002 0.336667 2.51002 0 2.46002V200Z" fill="#145FF5"></path><path d="M13 200H14V4.02003C13.67 3.87003 13.34 3.72003 13 3.59003V200.01V200Z" fill="#145FF5"></path><path d="M26 200H27V6.80002C26.6733 6.53002 26.34 6.27002 26 6.02002V200Z" fill="#145FF5"></path><path d="M39 200H40V11.23C39.6733 10.82 39.3367 10.43 39 10.05V200Z" fill="#145FF5"></path><path d="M52 200H53V17.52C52.67 16.97 52.3367 16.44 52 15.91V200Z" fill="#145FF5"></path><path d="M65 200H66V25.39C65.6667 24.75 65.3367 24.11 65 23.48V200Z" fill="#145FF5"></path><path d="M78 200H79V33.75C78.6633 33.12 78.33 32.49 78 31.85V199.99V200Z" fill="#145FF5"></path><path d="M91 200H92V41.21C91.6633 40.69 91.33 40.16 91 39.62V200Z" fill="#145FF5"></path><path d="M104 200H105V46.93C104.66 46.56 104.33 46.17 104 45.77V200Z" fill="#145FF5"></path><path d="M117 200H118V50.83C117.66 50.59 117.33 50.34 117 50.08V200Z" fill="#145FF5"></path><path d="M130 200H131V53.14C130.663 53.01 130.33 52.88 130 52.73V200Z" fill="#145FF5"></path><path d="M143 200H144V54.18C143.663 54.14 143.33 54.09 143 54.04V200.01V200Z" fill="#145FF5"></path><path d="M156 200H157V54.18C156.67 54.22 156.34 54.25 156 54.27V200.01V200Z" fill="#145FF5"></path><path d="M169 200H170V53.14C169.67 53.26 169.337 53.38 169 53.48V200Z" fill="#145FF5"></path><path d="M182 200H183V50.83C182.67 51.06 182.34 51.28 182 51.5V200.01V200Z" fill="#145FF5"></path><path d="M195 200H196V46.93C195.673 47.29 195.34 47.65 195 47.99V200Z" fill="#145FF5"></path><path d="M208 200H209V41.21C208.673 41.71 208.337 42.21 208 42.69V200Z" fill="#145FF5"></path><path d="M221 200H222V33.75C221.67 34.37 221.337 34.99 221 35.6V200Z" fill="#145FF5"></path><path d="M234 200H235V25.39C234.667 26.03 234.333 26.68 234 27.33V200.01V200Z" fill="#145FF5"></path><path d="M247 200H248V17.52C247.663 18.08 247.33 18.65 247 19.22V199.99V200Z" fill="#145FF5"></path><path d="M260 200H261V11.23C260.66 11.65 260.327 12.08 260 12.52V200Z" fill="#145FF5"></path><path d="M273 200H274V6.78998C273.66 7.06998 273.327 7.35998 273 7.64998V199.99V200Z" fill="#145FF5"></path><path d="M286 200H287V4.02002C286.66 4.18002 286.327 4.35002 286 4.53002V200.01V200Z" fill="#145FF5"></path><path d="M299 200H300V2.62C299.66 2.68 299.33 2.76 299 2.84V200Z" fill="#145FF5"></path><path d="M312 2.30999V200H313V2.32999C312.723 2.31999 312.447 2.29999 312.167 2.29999C312.11 2.29999 312.057 2.29999 312 2.29999V2.30999Z" fill="#145FF5"></path><path d="M325 200H326V3.02001C325.67 2.93001 325.337 2.84001 325 2.76001V200Z" fill="#145FF5"></path><path d="M338 200H339V4.90998C338.673 4.70998 338.34 4.52998 338 4.34998V199.99V200Z" fill="#145FF5"></path><path d="M351 200H352V8.28999C351.673 7.96999 351.34 7.65999 351 7.35999V200Z" fill="#145FF5"></path><path d="M364 200H365V13.43C364.673 12.97 364.337 12.52 364 12.08V200Z" fill="#145FF5"></path><path d="M377 200H378V20.41C377.67 19.82 377.337 19.23 377 18.65V200Z" fill="#145FF5"></path><path d="M390 200H391V28.63C390.667 27.98 390.333 27.33 390 26.68V200Z" fill="#145FF5"></path><path d="M403 200H404V36.79C403.663 36.19 403.33 35.59 403 34.99V200Z" fill="#145FF5"></path><path d="M416 200H417V43.63C416.663 43.17 416.327 42.7 416 42.21V200Z" fill="#145FF5"></path><path d="M429 200H430V48.64C429.66 48.32 429.33 47.99 429 47.65V200.01V200Z" fill="#145FF5"></path><path d="M442 200H443V51.88C442.66 51.69 442.327 51.48 442 51.27V200Z" fill="#145FF5"></path><path d="M455 200H456V53.68C455.663 53.59 455.327 53.49 455 53.38V200Z" fill="#145FF5"></path><path d="M468 200H469V54.29C468.663 54.29 468.33 54.27 468 54.24V200Z" fill="#145FF5"></path><path d="M481 200H482V53.91C481.67 53.98 481.337 54.03 481 54.09V200Z" fill="#145FF5"></path><path d="M494 200H495V52.41C494.673 52.57 494.337 52.72 494 52.87V200Z" fill="#145FF5"></path><path d="M507 200H508V49.53C507.673 49.81 507.337 50.07 507 50.33V200Z" fill="#145FF5"></path><path d="M520 200H521V44.95C520.67 45.37 520.34 45.78 520 46.18V200.01V200Z" fill="#145FF5"></path><path d="M533 200H534V38.51C533.67 39.07 533.337 39.62 533 40.16V200Z" fill="#145FF5"></path><path d="M546 200H547V30.57C546.667 31.21 546.333 31.85 546 32.49V200Z" fill="#145FF5"></path><path d="M559 200H560V22.22C559.663 22.84 559.33 23.47 559 24.1V199.99V200Z" fill="#145FF5"></path><path d="M572 200H573V14.89C572.663 15.4 572.33 15.91 572 16.44V200.01V200Z" fill="#145FF5"></path><path d="M585 200H586V9.31C585.663 9.67 585.327 10.04 585 10.42V200Z" fill="#145FF5"></path><path d="M598 200H599V5.54999C598.66 5.77999 598.327 6.01999 598 6.26999V200.01V200Z" fill="#145FF5"></path><path d="M611 200H612V3.34003C611.663 3.46003 611.33 3.59003 611 3.73003V200Z" fill="#145FF5"></path><path d="M624 200H625V2.39001C624.663 2.42001 624.33 2.46001 624 2.51001V200Z" fill="#145FF5"></path><path d="M637 200H638V2.45999C637.673 2.41999 637.337 2.38999 637 2.35999V200Z" fill="#145FF5"></path><path d="M650 200H651V3.57997C650.673 3.44997 650.337 3.32997 650 3.21997V200Z" fill="#145FF5"></path><path d="M663 200H664V6.02002C663.673 5.78002 663.34 5.55002 663 5.33002V200Z" fill="#145FF5"></path><path d="M676 200H677V10.05C676.673 9.68002 676.34 9.31002 676 8.96002V200Z" fill="#145FF5"></path><path d="M689 200H690V15.92C689.67 15.4 689.34 14.89 689 14.4V200.01V200Z" fill="#145FF5"></path><path d="M702 200H703V23.48C702.67 22.85 702.337 22.23 702 21.62V200Z" fill="#145FF5"></path><path d="M715 200H716V31.86C715.667 31.22 715.333 30.57 715 29.93V200Z" fill="#145FF5"></path><path d="M728 200H729V39.63C728.663 39.08 728.33 38.53 728 37.96V200Z" fill="#145FF5"></path><path d="M741 200H742V45.78C741.66 45.37 741.327 44.96 741 44.53V200.01V200Z" fill="#145FF5"></path><path d="M754 200H755V50.08C754.66 49.81 754.327 49.53 754 49.24V200Z" fill="#145FF5"></path><path d="M767 200H768V52.73C767.66 52.58 767.327 52.42 767 52.25V200Z" fill="#145FF5"></path><path d="M780 200H781V54.03C780.663 53.97 780.33 53.91 780 53.83V199.99V200Z" fill="#145FF5"></path><path d="M793 200H794V54.26C793.67 54.28 793.337 54.29 793 54.29V199.99V200Z" fill="#145FF5"></path><path d="M806 200H807V53.48C806.67 53.58 806.337 53.68 806 53.76V200Z" fill="#145FF5"></path><path d="M819 200H820V51.49C819.673 51.69 819.34 51.89 819 52.07V199.99V200Z" fill="#145FF5"></path><path d="M832 200H833V47.98C832.673 48.31 832.337 48.63 832 48.93V199.99V200Z" fill="#145FF5"></path><path d="M845 200H846V42.69C845.67 43.16 845.34 43.63 845 44.08V200Z" fill="#145FF5"></path><path d="M858 200H859V35.59C858.67 36.19 858.337 36.78 858 37.37V200Z" fill="#145FF5"></path><path d="M871 200H872V27.32C871.667 27.97 871.333 28.62 871 29.27V200Z" fill="#145FF5"></path><path d="M884 200H885V19.22C884.663 19.81 884.33 20.4 884 21V200Z" fill="#145FF5"></path><path d="M897 200H898V12.52C897.66 12.97 897.33 13.44 897 13.91V200Z" fill="#145FF5"></path><path d="M910 200H911V7.65997C910.663 7.96997 910.327 8.27997 910 8.60997V200Z" fill="#145FF5"></path><path d="M923 200H924V4.52002C923.66 4.70002 923.327 4.90002 923 5.10002V199.99V200Z" fill="#145FF5"></path><path d="M936 200H937V2.84003C936.663 2.92003 936.33 3.02003 936 3.12003V200Z" fill="#145FF5"></path><path d="M949 200H950V2.31C949.663 2.31 949.33 2.32 949 2.34V200Z" fill="#145FF5"></path><path d="M962 200H963V2.77001C962.67 2.70001 962.337 2.63001 962 2.57001V200Z" fill="#145FF5"></path><path d="M975 200H976V4.36C975.673 4.19 975.34 4.03 975 3.88V200.01V200Z" fill="#145FF5"></path><path d="M988 200H989V7.36002C988.673 7.07002 988.34 6.79002 988 6.52002V199.99V200Z" fill="#145FF5"></path><path d="M1001 200H1002V12.08C1001.67 11.65 1001.34 11.24 1001 10.83V200Z" fill="#145FF5"></path><path d="M1014 200H1015V18.65C1014.67 18.09 1014.34 17.53 1014 16.98V200Z" fill="#145FF5"></path><path d="M1027 200H1028V26.68C1027.67 26.03 1027.33 25.39 1027 24.75V200Z" fill="#145FF5"></path><path d="M1040 200H1041V34.99C1040.66 34.37 1040.33 33.75 1040 33.13V200Z" fill="#145FF5"></path><path d="M1053 200H1054V42.22C1053.66 41.72 1053.33 41.21 1053 40.7V200.01V200Z" fill="#145FF5"></path><path d="M1066 200H1067V47.64C1066.66 47.29 1066.33 46.93 1066 46.55V199.99V200Z" fill="#145FF5"></path><path d="M1079 200H1080V51.28C1079.66 51.06 1079.33 50.83 1079 50.59V200.01V200Z" fill="#145FF5"></path><path d="M1092 200H1093V53.38C1092.66 53.27 1092.33 53.15 1092 53.02V200Z" fill="#145FF5"></path><path d="M1105 200H1106V54.24C1105.66 54.21 1105.33 54.18 1105 54.14V200Z" fill="#145FF5"></path><path d="M1118 200H1119V54.09C1118.67 54.14 1118.34 54.18 1118 54.21V200Z" fill="#145FF5"></path><path d="M1131 200H1132V52.87C1131.67 53.01 1131.34 53.14 1131 53.26V200Z" fill="#145FF5"></path><path d="M1144 200H1145V50.33C1144.67 50.58 1144.34 50.82 1144 51.05V200Z" fill="#145FF5"></path><path d="M1157 200H1158V46.17C1157.67 46.55 1157.34 46.92 1157 47.28V199.99V200Z" fill="#145FF5"></path><path d="M1170 200H1171V40.16C1170.67 40.69 1170.34 41.2 1170 41.71V200Z" fill="#145FF5"></path><path d="M1183 200H1184V32.48C1183.67 33.11 1183.34 33.74 1183 34.36V199.99V200Z" fill="#145FF5"></path><path d="M1196 200H1197V24.1C1196.67 24.74 1196.33 25.38 1196 26.02V200Z" fill="#145FF5"></path><path d="M1209 200H1210V16.43C1209.66 16.97 1209.33 17.52 1209 18.08V200Z" fill="#145FF5"></path><path d="M1222 200H1223V10.42C1222.66 10.82 1222.33 11.23 1222 11.65V200Z" fill="#145FF5"></path><path d="M1235 200H1236V6.26001C1235.66 6.52001 1235.33 6.78001 1235 7.06001V200Z" fill="#145FF5"></path><path d="M1248 200H1249V3.72998C1248.66 3.86998 1248.33 4.01998 1248 4.18998V200.01V200Z" fill="#145FF5"></path><path d="M1261 200H1262V2.51001C1261.66 2.56001 1261.33 2.62001 1261 2.68001V199.99V200Z" fill="#145FF5"></path><path d="M1274 200H1275V2.36C1274.67 2.33 1274.34 2.32 1274 2.31V199.99V200Z" fill="#145FF5"></path><path d="M1287 200H1288V3.21998C1287.67 3.10998 1287.34 3.00998 1287 2.91998V200Z" fill="#145FF5"></path><path d="M1300 200H1301V5.32997C1300.67 5.11997 1300.34 4.90997 1300 4.71997V200Z" fill="#145FF5"></path><path d="M1313 200H1314V8.96998C1313.67 8.62998 1313.34 8.29998 1313 7.97998V200.01V200Z" fill="#145FF5"></path><path d="M1326 200H1327V14.39C1326.67 13.91 1326.34 13.44 1326 12.97V199.99V200Z" fill="#145FF5"></path><path d="M1339 200H1340V21.62C1339.67 21.01 1339.34 20.41 1339 19.81V199.99V200Z" fill="#145FF5"></path><path d="M1352 200H1353V29.93C1352.67 29.28 1352.33 28.63 1352 27.98V200Z" fill="#145FF5"></path><path d="M1365 200H1366V37.96C1365.66 37.38 1365.33 36.8 1365 36.2V200Z" fill="#145FF5"></path><path d="M1378 200H1379V44.53C1378.66 44.09 1378.33 43.64 1378 43.18V200Z" fill="#145FF5"></path><path d="M1391 200H1392V49.24C1391.66 48.94 1391.33 48.63 1391 48.31V200Z" fill="#145FF5"></path><path d="M1404 200H1405V52.25C1404.66 52.07 1404.33 51.89 1404 51.69V200Z" fill="#145FF5"></path><path d="M1417 200H1418V53.84C1417.66 53.76 1417.33 53.68 1417 53.58V200Z" fill="#145FF5"></path><path d="M1430 54.28V200H1431V54.3C1430.94 54.3 1430.89 54.3 1430.83 54.3C1430.55 54.3 1430.28 54.29 1430 54.27V54.28Z" fill="#145FF5"></path><path d="M1443 200H1444V53.76C1443.67 53.84 1443.34 53.92 1443 53.98V200Z" fill="#145FF5"></path><path d="M1456 200H1457V52.07C1456.67 52.25 1456.34 52.42 1456 52.58V200Z" fill="#145FF5"></path><path d="M1469 200H1470V48.94C1469.67 49.24 1469.34 49.53 1469 49.8V200Z" fill="#145FF5"></path><path d="M1482 200H1483V44.08C1482.67 44.52 1482.34 44.95 1482 45.37V200.01V200Z" fill="#145FF5"></path><path d="M1495 200H1496V37.37C1495.67 37.94 1495.34 38.51 1495 39.07V200Z" fill="#145FF5"></path><path d="M1508 200H1509V29.27C1508.67 29.92 1508.33 30.56 1508 31.21V200.01V200Z" fill="#145FF5"></path><path d="M1521 200H1522V21C1521.66 21.61 1521.33 22.23 1521 22.85V200.01V200Z" fill="#145FF5"></path><path d="M1534 200H1535V13.9C1534.66 14.39 1534.33 14.88 1534 15.38V200Z" fill="#145FF5"></path><path d="M1547 200H1548V8.60999C1547.66 8.94999 1547.33 9.29999 1547 9.66999V200Z" fill="#145FF5"></path><path d="M1560 200H1561V5.09998C1560.66 5.30998 1560.33 5.52998 1560 5.76998V200Z" fill="#145FF5"></path><path d="M1573 200H1574V3.12C1573.66 3.22 1573.33 3.34 1573 3.46V200Z" fill="#145FF5"></path><path d="M1586 200H1587V2.34003C1586.66 2.36003 1586.33 2.39003 1586 2.43003V200Z" fill="#145FF5"></path><path d="M1599 200H1600V2.56999C1599.67 2.50999 1599.34 2.46999 1599 2.42999V200Z" fill="#145FF5"></path><path d="M1612 200H1613V3.87002C1612.67 3.72002 1612.34 3.59002 1612 3.46002V200Z" fill="#145FF5"></path><path d="M1625 200H1626V6.53003C1625.67 6.27003 1625.34 6.02003 1625 5.78003V200Z" fill="#145FF5"></path><path d="M1638 200H1639V10.83C1638.67 10.43 1638.34 10.05 1638 9.66998V199.99V200Z" fill="#145FF5"></path><path d="M1651 200H1652V16.98C1651.67 16.44 1651.34 15.91 1651 15.39V199.99V200Z" fill="#145FF5"></path><path d="M1664 200H1665V24.75C1664.67 24.11 1664.34 23.48 1664 22.85V199.99V200Z" fill="#145FF5"></path><path d="M1677 200H1678V33.13C1677.66 32.5 1677.33 31.86 1677 31.22V200Z" fill="#145FF5"></path><path d="M1690 200H1691V40.69C1690.66 40.16 1690.33 39.63 1690 39.08V200Z" fill="#145FF5"></path><path d="M1703 200H1704V46.56C1703.66 46.18 1703.33 45.78 1703 45.38V200.01V200Z" fill="#145FF5"></path><path d="M1716 200H1717V50.58C1716.66 50.33 1716.33 50.07 1716 49.8V199.99V200Z" fill="#145FF5"></path><path d="M1729 200H1730V53.02C1729.66 52.89 1729.33 52.74 1729 52.59V200.01V200Z" fill="#145FF5"></path><path d="M1742 200H1743V54.14C1742.66 54.1 1742.33 54.04 1742 53.98V200Z" fill="#145FF5"></path><path d="M1755 200H1756V54.21C1755.67 54.24 1755.34 54.26 1755 54.28V200.01V200Z" fill="#145FF5"></path><path d="M1768 200H1769V53.26C1768.67 53.38 1768.34 53.48 1768 53.58V200Z" fill="#145FF5"></path><path d="M1781 200H1782V51.05C1781.67 51.27 1781.34 51.48 1781 51.69V200Z" fill="#145FF5"></path><path d="M1794 200H1795V47.29C1794.67 47.64 1794.34 47.98 1794 48.31V200Z" fill="#145FF5"></path><path d="M1807 200H1808V41.71C1807.67 42.2 1807.34 42.69 1807 43.17V200Z" fill="#145FF5"></path><path d="M1820 200H1821V34.37C1820.67 34.98 1820.34 35.59 1820 36.19V200Z" fill="#145FF5"></path><path d="M1833 200H1834V26.03C1833.67 26.68 1833.33 27.33 1833 27.97V200Z" fill="#145FF5"></path><path d="M1846 200H1847V18.08C1846.66 18.65 1846.33 19.22 1846 19.81V200Z" fill="#145FF5"></path><path d="M1859 200H1860V11.65C1859.66 12.08 1859.33 12.52 1859 12.97V200Z" fill="#145FF5"></path><path d="M1872 200H1873V7.07001C1872.66 7.36001 1872.33 7.66001 1872 7.97001V200Z" fill="#145FF5"></path><path d="M1885 200H1886V4.17999C1885.66 4.34999 1885.33 4.51999 1885 4.70999V199.99V200Z" fill="#145FF5"></path><path d="M1898 200H1899V2.69C1898.66 2.76 1898.33 2.84 1898 2.92V200Z" fill="#145FF5"></path><path d="M1911 2.31999V200H1912V2.31999C1911.83 2.31999 1911.67 2.29999 1911.5 2.29999C1911.33 2.29999 1911.17 2.30999 1911 2.31999Z" fill="#145FF5"></path><path d="M1924 200H1925V2.92C1924.67 2.83 1924.34 2.76 1924 2.69V200Z" fill="#145FF5"></path><path d="M1937 200H1938V4.72C1937.67 4.53 1937.34 4.36 1937 4.19V200Z" fill="#145FF5"></path><path d="M1950 200H1951V7.97001C1950.67 7.66001 1950.34 7.36001 1950 7.07001V200Z" fill="#145FF5"></path><path d="M1963 200H1964V12.97C1963.67 12.52 1963.34 12.08 1963 11.65V200Z" fill="#145FF5"></path><path d="M1976 200H1977V19.81C1976.67 19.23 1976.34 18.65 1976 18.08V200Z" fill="#145FF5"></path><path d="M1989 200H1990V27.98C1989.67 27.33 1989.33 26.68 1989 26.04V200.01V200Z" fill="#145FF5"></path><path d="M2002 200H2003V36.2C2002.66 35.6 2002.33 34.99 2002 34.38V200.01V200Z" fill="#145FF5"></path><path d="M2015 200H2016V43.17C2015.66 42.69 2015.33 42.21 2015 41.71V200Z" fill="#145FF5"></path><path d="M2028 200H2029V48.31C2028.66 47.98 2028.33 47.64 2028 47.29V200Z" fill="#145FF5"></path><path d="M2041 200H2042V51.69C2041.66 51.49 2041.33 51.28 2041 51.05V200Z" fill="#145FF5"></path><path d="M2054 200H2055V53.58C2054.66 53.48 2054.33 53.38 2054 53.26V200Z" fill="#145FF5"></path><path d="M2067 200H2068V54.27C2067.66 54.26 2067.33 54.23 2067 54.2V199.99V200Z" fill="#145FF5"></path><path d="M2080 200H2081V53.98C2080.67 54.04 2080.34 54.09 2080 54.14V200Z" fill="#145FF5"></path><path d="M2093 200H2094V52.58C2093.67 52.73 2093.34 52.88 2093 53.01V199.99V200Z" fill="#145FF5"></path><path d="M2106 200H2107V49.8C2106.67 50.07 2106.34 50.33 2106 50.58V200Z" fill="#145FF5"></path><path d="M2119 200H2120V45.37C2119.67 45.78 2119.34 46.17 2119 46.55V200Z" fill="#145FF5"></path><path d="M2132 200H2133V39.08C2132.67 39.63 2132.34 40.16 2132 40.69V200Z" fill="#145FF5"></path><path d="M2145 200H2146V31.21C2145.67 31.85 2145.34 32.49 2145 33.12V200Z" fill="#145FF5"></path><path d="M2158 200H2159V22.85C2158.66 23.48 2158.33 24.11 2158 24.75V200.01V200Z" fill="#145FF5"></path><path d="M2171 200H2172V15.39C2171.66 15.91 2171.33 16.44 2171 16.98V200Z" fill="#145FF5"></path><path d="M2184 200H2185V9.66998C2184.66 10.04 2184.33 10.43 2184 10.83V200Z" fill="#145FF5"></path><path d="M2197 200H2198V5.77002C2197.66 6.01002 2197.33 6.26002 2197 6.52002V200Z" fill="#145FF5"></path><path d="M2210 200H2211V3.46002C2210.66 3.59002 2210.33 3.72002 2210 3.87002V200Z" fill="#145FF5"></path><path d="M2223 200H2224V2.42999C2223.66 2.46999 2223.33 2.51999 2223 2.56999V200Z" fill="#145FF5"></path><path d="M2236 200H2237V2.43003C2236.67 2.39003 2236.34 2.36003 2236 2.34003V200Z" fill="#145FF5"></path><path d="M2249 200H2250V3.46C2249.67 3.34 2249.34 3.22 2249 3.12V200Z" fill="#145FF5"></path><path d="M2262 200H2263V5.76998C2262.67 5.53998 2262.34 5.30998 2262 5.09998V199.99V200Z" fill="#145FF5"></path><path d="M2275 200H2276V9.66999C2275.67 9.30999 2275.34 8.94999 2275 8.60999V199.99V200Z" fill="#145FF5"></path><path d="M2288 200H2289V15.39C2288.67 14.89 2288.34 14.39 2288 13.91V200Z" fill="#145FF5"></path><path d="M2301 200H2302V22.85C2301.67 22.23 2301.34 21.61 2301 21V199.99V200Z" fill="#145FF5"></path><path d="M2314 200H2315V31.22C2314.67 30.58 2314.33 29.93 2314 29.28V200Z" fill="#145FF5"></path><path d="M2327 200H2328V39.08C2327.66 38.52 2327.33 37.95 2327 37.38V200Z" fill="#145FF5"></path><path d="M2340 200H2341V45.37C2340.66 44.95 2340.33 44.52 2340 44.08V200Z" fill="#145FF5"></path><path d="M2353 200H2354V49.81C2353.66 49.53 2353.33 49.24 2353 48.95V200.01V200Z" fill="#145FF5"></path><path d="M2366 200H2367V52.58C2366.66 52.42 2366.33 52.25 2366 52.07V199.99V200Z" fill="#145FF5"></path><path d="M2379 200H2380V53.98C2379.66 53.92 2379.33 53.84 2379 53.76V200Z" fill="#145FF5"></path><path d="M2392 54.3V200H2393V54.27C2392.72 54.28 2392.45 54.3 2392.16 54.3C2392.11 54.3 2392.05 54.3 2392 54.3Z" fill="#145FF5"></path><path d="M2405 200H2406V53.58C2405.67 53.67 2405.34 53.76 2405 53.84V200Z" fill="#145FF5"></path><path d="M2418 200H2419V51.69C2418.67 51.89 2418.34 52.07 2418 52.25V200Z" fill="#145FF5"></path><path d="M2431 200H2432V48.31C2431.67 48.63 2431.34 48.94 2431 49.24V200Z" fill="#145FF5"></path><path d="M2444 200H2445V43.17C2444.67 43.63 2444.34 44.08 2444 44.52V200Z" fill="#145FF5"></path><path d="M2457 200H2458V36.19C2457.67 36.78 2457.34 37.37 2457 37.95V200Z" fill="#145FF5"></path><path d="M2470 200H2471V27.97C2470.67 28.62 2470.33 29.27 2470 29.92V200Z" fill="#145FF5"></path><path d="M2483 200H2484V19.81C2483.66 20.41 2483.33 21.01 2483 21.61V200Z" fill="#145FF5"></path><path d="M2496 200H2497V12.97C2496.66 13.43 2496.33 13.9 2496 14.39V200Z" fill="#145FF5"></path><path d="M2509 200H2510V7.96002C2509.66 8.28002 2509.33 8.61002 2509 8.95002V199.99V200Z" fill="#145FF5"></path><path d="M2522 200H2523V4.71997C2522.66 4.90997 2522.33 5.11997 2522 5.32997V200Z" fill="#145FF5"></path><path d="M2535 200H2536V2.91998C2535.66 3.00998 2535.33 3.10998 2535 3.21998V200Z" fill="#145FF5"></path><path d="M2548 200H2549V2.32001C2548.66 2.32001 2548.33 2.34001 2548 2.37001V200.01V200Z" fill="#145FF5"></path><path d="M2561 200H2562V2.69001C2561.67 2.62001 2561.34 2.57001 2561 2.51001V200Z" fill="#145FF5"></path><path d="M2574 200H2575V4.18998C2574.67 4.02998 2574.34 3.87998 2574 3.72998V200Z" fill="#145FF5"></path><path d="M2587 200H2588V7.07002C2587.67 6.79002 2587.34 6.53002 2587 6.27002V200Z" fill="#145FF5"></path><path d="M2600 200H2601V11.65C2600.67 11.23 2600.34 10.82 2600 10.42V199.99V200Z" fill="#145FF5"></path><path d="M2613 200H2614V18.09C2613.67 17.53 2613.34 16.98 2613 16.44V200Z" fill="#145FF5"></path><path d="M2626 200H2627V26.03C2626.67 25.39 2626.33 24.75 2626 24.11V200Z" fill="#145FF5"></path><path d="M2639 200H2640V34.38C2639.66 33.76 2639.33 33.13 2639 32.5V200.01V200Z" fill="#145FF5"></path><path d="M2652 200H2653V41.71C2652.66 41.2 2652.33 40.69 2652 40.16V199.99V200Z" fill="#145FF5"></path><path d="M2665 200H2666V47.29C2665.66 46.93 2665.33 46.56 2665 46.18V200Z" fill="#145FF5"></path><path d="M2678 200H2679V51.06C2678.66 50.83 2678.33 50.59 2678 50.34V200Z" fill="#145FF5"></path><path d="M2691 200H2692V53.26C2691.66 53.14 2691.33 53.01 2691 52.87V200Z" fill="#145FF5"></path><path d="M2704 200H2705V54.21C2704.66 54.18 2704.33 54.14 2704 54.09V200Z" fill="#145FF5"></path><path d="M2717 200H2718V54.14C2717.67 54.18 2717.34 54.21 2717 54.24V200Z" fill="#145FF5"></path><path d="M2730 200H2731V53.02C2730.67 53.15 2730.34 53.27 2730 53.38V200Z" fill="#145FF5"></path><path d="M2743 200H2744V50.58C2743.67 50.82 2743.34 51.05 2743 51.27V200Z" fill="#145FF5"></path><path d="M2756 200H2757V46.55C2756.67 46.92 2756.34 47.29 2756 47.64V200Z" fill="#145FF5"></path><path d="M2769 200H2770V40.68C2769.67 41.2 2769.34 41.71 2769 42.2V199.99V200Z" fill="#145FF5"></path><path d="M2782 200H2783V33.12C2782.67 33.75 2782.34 34.37 2782 34.98V200Z" fill="#145FF5"></path><path d="M2795 200H2796V24.74C2795.67 25.38 2795.33 26.03 2795 26.67V200Z" fill="#145FF5"></path><path d="M2808 200H2809V16.97C2808.66 17.52 2808.33 18.07 2808 18.64V200Z" fill="#145FF5"></path><path d="M2821 200H2822V10.83C2821.66 11.24 2821.33 11.65 2821 12.08V200Z" fill="#145FF5"></path><path d="M2834 200H2835V6.52002C2834.66 6.79002 2834.33 7.07002 2834 7.36002V200Z" fill="#145FF5"></path><path d="M2847 200H2848V3.87C2847.66 4.02 2847.33 4.18 2847 4.35V200Z" fill="#145FF5"></path><path d="M2860 200H2861V2.57001C2860.66 2.63001 2860.33 2.69001 2860 2.77001V200.01V200Z" fill="#145FF5"></path><path d="M2873 200H2874V2.34C2873.67 2.32 2873.34 2.31 2873 2.31V200Z" fill="#145FF5"></path><path d="M2886 200H2887V3.12003C2886.67 3.02003 2886.34 2.92003 2886 2.84003V200Z" fill="#145FF5"></path><path d="M2899 200H2900V5.11003C2899.67 4.91003 2899.34 4.71003 2899 4.53003V200Z" fill="#145FF5"></path><path d="M2912 200H2913V8.61997C2912.67 8.28997 2912.34 7.96997 2912 7.65997V200Z" fill="#145FF5"></path><path d="M2925 200H2926V13.91C2925.67 13.44 2925.34 12.97 2925 12.52V200Z" fill="#145FF5"></path><path d="M2938 200H2939V21.01C2938.67 20.41 2938.34 19.82 2938 19.23V200Z" fill="#145FF5"></path><path d="M2951 200H2952V29.28C2951.67 28.63 2951.33 27.98 2951 27.33V200Z" fill="#145FF5"></path><path d="M2964 200H2965V37.38C2964.66 36.79 2964.33 36.2 2964 35.6V200Z" fill="#145FF5"></path><path d="M2977 200H2978V44.09C2977.66 43.64 2977.33 43.17 2977 42.7V200Z" fill="#145FF5"></path><path d="M2990 200H2991V48.94C2990.66 48.63 2990.33 48.32 2990 47.99V200Z" fill="#145FF5"></path><path d="M3003 200H3004V52.08C3003.66 51.9 3003.33 51.7 3003 51.5V200Z" fill="#145FF5"></path><path d="M3016 200H3017V53.76C3016.66 53.68 3016.33 53.58 3016 53.48V200Z" fill="#145FF5"></path><path d="M3029 200H3030V54.3C3029.66 54.3 3029.33 54.29 3029 54.27V200.01V200Z" fill="#145FF5"></path><path d="M3042 200H3043V53.84C3042.67 53.91 3042.34 53.98 3042 54.04V200.01V200Z" fill="#145FF5"></path><path d="M3055 200H3056V52.24C3055.67 52.41 3055.34 52.57 3055 52.72V199.99V200Z" fill="#145FF5"></path><path d="M3068 200H3069V49.24C3068.67 49.53 3068.34 49.81 3068 50.08V200.01V200Z" fill="#145FF5"></path><path d="M3081 200H3082V44.52C3081.67 44.95 3081.34 45.36 3081 45.77V200Z" fill="#145FF5"></path><path d="M3094 200H3095V37.95C3094.67 38.51 3094.34 39.07 3094 39.62V200Z" fill="#145FF5"></path><path d="M3107 200H3108V29.91C3107.67 30.56 3107.33 31.2 3107 31.84V199.99V200Z" fill="#145FF5"></path><path d="M3120 200H3121V21.61C3120.66 22.23 3120.33 22.85 3120 23.47V200Z" fill="#145FF5"></path><path d="M3133 200H3134V14.38C3133.66 14.88 3133.33 15.39 3133 15.9V199.99V200Z" fill="#145FF5"></path><path d="M3146 200H3147V8.96002C3146.66 9.31002 3146.33 9.67002 3146 10.05V200.01V200Z" fill="#145FF5"></path><path d="M3159 200H3160V5.32001C3159.66 5.54001 3159.33 5.77001 3159 6.01001V199.99V200Z" fill="#145FF5"></path><path d="M3172 200H3173V3.21997C3172.66 3.32997 3172.33 3.44997 3172 3.57997V200Z" fill="#145FF5"></path><path d="M3185 200H3186V2.35999C3185.66 2.38999 3185.33 2.41999 3185 2.45999V200Z" fill="#145FF5"></path><path d="M3198 200H3199V2.52002C3198.67 2.47002 3198.34 2.43002 3198 2.40002V200.01V200Z" fill="#145FF5"></path><path d="M3211 200H3212V3.73003C3211.67 3.59003 3211.34 3.46003 3211 3.34003V200Z" fill="#145FF5"></path><path d="M3224 200H3225V6.26999C3224.67 6.01999 3224.34 5.77999 3224 5.54999V200Z" fill="#145FF5"></path><path d="M3237 200H3238V10.43C3237.67 10.05 3237.34 9.68001 3237 9.32001V200Z" fill="#145FF5"></path><path d="M3250 200H3251V16.44C3250.67 15.91 3250.34 15.4 3250 14.89V199.99V200Z" fill="#145FF5"></path><path d="M3263 200H3264V24.12C3263.67 23.49 3263.34 22.86 3263 22.24V200.01V200Z" fill="#145FF5"></path><path d="M3276 200H3277V32.5C3276.67 31.86 3276.33 31.22 3276 30.58V200Z" fill="#145FF5"></path><path d="M3289 200H3290V40.17C3289.66 39.63 3289.33 39.08 3289 38.52V200Z" fill="#145FF5"></path><path d="M3302 200H3303V46.18C3302.66 45.78 3302.33 45.37 3302 44.95V200Z" fill="#145FF5"></path><path d="M3315 200H3316V50.34C3315.66 50.08 3315.33 49.82 3315 49.54V200Z" fill="#145FF5"></path><path d="M3328 200H3329V52.88C3328.66 52.74 3328.33 52.59 3328 52.42V200Z" fill="#145FF5"></path><path d="M3341 200H3342V54.09C3341.66 54.04 3341.33 53.98 3341 53.92V200.01V200Z" fill="#145FF5"></path><path d="M3354 200H3355V54.24C3354.67 54.27 3354.34 54.28 3354 54.29V200.01V200Z" fill="#145FF5"></path><path d="M3367 200H3368V53.38C3367.67 53.49 3367.34 53.59 3367 53.68V200Z" fill="#145FF5"></path><path d="M3380 200H3381V51.27C3380.67 51.48 3380.34 51.69 3380 51.88V200Z" fill="#145FF5"></path><path d="M3393 200H3394V47.64C3393.67 47.98 3393.34 48.31 3393 48.63V200Z" fill="#145FF5"></path><path d="M3406 200H3407V42.21C3406.67 42.69 3406.34 43.16 3406 43.63V200.01V200Z" fill="#145FF5"></path><path d="M3419 200H3420V34.98C3419.67 35.59 3419.34 36.19 3419 36.79V200.01V200Z" fill="#145FF5"></path><path d="M3432 200H3433V26.67C3432.67 27.32 3432.33 27.97 3432 28.62V200Z" fill="#145FF5"></path><path d="M3445 200H3446V18.64C3445.66 19.22 3445.33 19.8 3445 20.4V200Z" fill="#145FF5"></path><path d="M3458 200H3459V12.07C3458.66 12.51 3458.33 12.96 3458 13.42V199.99V200Z" fill="#145FF5"></path><path d="M3471 200H3472V7.35999C3471.66 7.65999 3471.33 7.96999 3471 8.28999V200Z" fill="#145FF5"></path><path d="M3484 200H3485V4.34998C3484.66 4.52998 3484.33 4.70998 3484 4.90998V200Z" fill="#145FF5"></path><path d="M3497 200H3498V2.76001C3497.66 2.84001 3497.33 2.92001 3497 3.02001V200Z" fill="#145FF5"></path><path d="M3510 2.33V200H3511V2.31C3510.94 2.31 3510.89 2.31 3510.83 2.31C3510.55 2.31 3510.28 2.32 3510 2.34V2.33Z" fill="#145FF5"></path><path d="M3523 200H3524V2.84C3523.67 2.76 3523.34 2.68 3523 2.62V200Z" fill="#145FF5"></path><path d="M3536 200H3537V4.53002C3536.67 4.35002 3536.34 4.18002 3536 4.02002V200Z" fill="#145FF5"></path><path d="M3549 200H3550V7.65999C3549.67 7.35999 3549.34 7.06999 3549 6.79999V200Z" fill="#145FF5"></path><path d="M3562 200H3563V12.52C3562.67 12.08 3562.34 11.65 3562 11.23V199.99V200Z" fill="#145FF5"></path><path d="M3575 200H3576V19.23C3575.67 18.66 3575.34 18.09 3575 17.53V200Z" fill="#145FF5"></path><path d="M3588 200H3589V27.33C3588.67 26.68 3588.33 26.04 3588 25.39V200Z" fill="#145FF5"></path><path d="M3601 200H3602V35.6C3601.66 34.99 3601.33 34.37 3601 33.75V199.99V200Z" fill="#145FF5"></path><path d="M3614 200H3615V42.7C3614.66 42.21 3614.33 41.72 3614 41.22V200.01V200Z" fill="#145FF5"></path><path d="M3627 200H3628V47.99C3627.66 47.65 3627.33 47.3 3627 46.93V200Z" fill="#145FF5"></path><path d="M3640 200H3641V51.5C3640.66 51.29 3640.33 51.07 3640 50.83V200Z" fill="#145FF5"></path><path d="M3653 200H3654V53.48C3653.66 53.38 3653.33 53.26 3653 53.14V200Z" fill="#145FF5"></path><path d="M3666 200H3667V54.26C3666.66 54.24 3666.33 54.21 3666 54.17V199.99V200Z" fill="#145FF5"></path><path d="M3679 200H3680V54.03C3679.67 54.09 3679.34 54.13 3679 54.17V199.99V200Z" fill="#145FF5"></path><path d="M3692 200H3693V52.73C3692.67 52.88 3692.34 53.01 3692 53.14V200Z" fill="#145FF5"></path><path d="M3705 200H3706V50.08C3705.67 50.34 3705.34 50.59 3705 50.83V200Z" fill="#145FF5"></path><path d="M3718 200H3719V45.77C3718.67 46.17 3718.34 46.55 3718 46.93V200Z" fill="#145FF5"></path><path d="M3731 200H3732V39.62C3731.67 40.16 3731.34 40.69 3731 41.21V200Z" fill="#145FF5"></path><path d="M3744 200H3745V31.85C3744.67 32.49 3744.34 33.12 3744 33.75V200Z" fill="#145FF5"></path><path d="M3757 200H3758V23.47C3757.66 24.1 3757.33 24.74 3757 25.38V199.99V200Z" fill="#145FF5"></path><path d="M3770 200H3771V15.91C3770.66 16.44 3770.33 16.97 3770 17.52V200Z" fill="#145FF5"></path><path d="M3783 200H3784V10.05C3783.66 10.43 3783.33 10.83 3783 11.23V200Z" fill="#145FF5"></path><path d="M3796 200H3797V6.02002C3796.66 6.27002 3796.33 6.53002 3796 6.80002V200Z" fill="#145FF5"></path><path d="M3809 200H3810V3.58002C3809.66 3.71002 3809.33 3.86002 3809 4.01002V199.99V200Z" fill="#145FF5"></path><path d="M3822 200H3823V2.46002C3822.66 2.50002 3822.33 2.56002 3822 2.62002V200Z" fill="#145FF5"></path><path d="M3836 0H3835V200H3836V0Z" fill="#145FF5"></path></g><g clip-path="url(#clip1_365_4544)"><path d="M3848 200H3849V2.62002C3848.67 2.56002 3848.34 2.51002 3848 2.46002V200Z" fill="#145FF5"></path><path d="M3861 200H3862V4.02003C3861.67 3.87003 3861.34 3.72003 3861 3.59003V200.01V200Z" fill="#145FF5"></path><path d="M3874 200H3875V6.80002C3874.67 6.53002 3874.34 6.27002 3874 6.02002V200Z" fill="#145FF5"></path><path d="M3887 200H3888V11.23C3887.67 10.82 3887.34 10.43 3887 10.05V200Z" fill="#145FF5"></path><path d="M3900 200H3901V17.52C3900.67 16.97 3900.34 16.44 3900 15.91V200Z" fill="#145FF5"></path><path d="M3913 200H3914V25.39C3913.67 24.75 3913.34 24.11 3913 23.48V200Z" fill="#145FF5"></path><path d="M3926 200H3927V33.75C3926.66 33.12 3926.33 32.49 3926 31.85V199.99V200Z" fill="#145FF5"></path><path d="M3939 200H3940V41.21C3939.66 40.69 3939.33 40.16 3939 39.62V200Z" fill="#145FF5"></path><path d="M3952 200H3953V46.93C3952.66 46.56 3952.33 46.17 3952 45.77V200Z" fill="#145FF5"></path><path d="M3965 200H3966V50.83C3965.66 50.59 3965.33 50.34 3965 50.08V200Z" fill="#145FF5"></path><path d="M3978 200H3979V53.14C3978.66 53.01 3978.33 52.88 3978 52.73V200Z" fill="#145FF5"></path><path d="M3991 200H3992V54.18C3991.66 54.14 3991.33 54.09 3991 54.04V200.01V200Z" fill="#145FF5"></path><path d="M4004 200H4005V54.18C4004.67 54.22 4004.34 54.25 4004 54.27V200.01V200Z" fill="#145FF5"></path><path d="M4017 200H4018V53.14C4017.67 53.26 4017.34 53.38 4017 53.48V200Z" fill="#145FF5"></path><path d="M4030 200H4031V50.83C4030.67 51.06 4030.34 51.28 4030 51.5V200.01V200Z" fill="#145FF5"></path><path d="M4043 200H4044V46.93C4043.67 47.29 4043.34 47.65 4043 47.99V200Z" fill="#145FF5"></path><path d="M4056 200H4057V41.21C4056.67 41.71 4056.34 42.21 4056 42.69V200Z" fill="#145FF5"></path><path d="M4069 200H4070V33.75C4069.67 34.37 4069.34 34.99 4069 35.6V200Z" fill="#145FF5"></path><path d="M4082 200H4083V25.39C4082.67 26.03 4082.33 26.68 4082 27.33V200.01V200Z" fill="#145FF5"></path><path d="M4095 200H4096V17.52C4095.66 18.08 4095.33 18.65 4095 19.22V199.99V200Z" fill="#145FF5"></path><path d="M4108 200H4109V11.23C4108.66 11.65 4108.33 12.08 4108 12.52V200Z" fill="#145FF5"></path><path d="M4121 200H4122V6.78998C4121.66 7.06998 4121.33 7.35998 4121 7.64998V199.99V200Z" fill="#145FF5"></path><path d="M4134 200H4135V4.02002C4134.66 4.18002 4134.33 4.35002 4134 4.53002V200.01V200Z" fill="#145FF5"></path><path d="M4147 200H4148V2.62C4147.66 2.68 4147.33 2.76 4147 2.84V200Z" fill="#145FF5"></path><path d="M4160 2.30999V200H4161V2.32999C4160.72 2.31999 4160.45 2.29999 4160.17 2.29999C4160.11 2.29999 4160.06 2.29999 4160 2.29999V2.30999Z" fill="#145FF5"></path><path d="M4173 200H4174V3.02001C4173.67 2.93001 4173.34 2.84001 4173 2.76001V200Z" fill="#145FF5"></path><path d="M4186 200H4187V4.90998C4186.67 4.70998 4186.34 4.52998 4186 4.34998V199.99V200Z" fill="#145FF5"></path><path d="M4199 200H4200V8.28999C4199.67 7.96999 4199.34 7.65999 4199 7.35999V200Z" fill="#145FF5"></path><path d="M4212 200H4213V13.43C4212.67 12.97 4212.34 12.52 4212 12.08V200Z" fill="#145FF5"></path><path d="M4225 200H4226V20.41C4225.67 19.82 4225.34 19.23 4225 18.65V200Z" fill="#145FF5"></path><path d="M4238 200H4239V28.63C4238.67 27.98 4238.33 27.33 4238 26.68V200Z" fill="#145FF5"></path><path d="M4251 200H4252V36.79C4251.66 36.19 4251.33 35.59 4251 34.99V200Z" fill="#145FF5"></path><path d="M4264 200H4265V43.63C4264.66 43.17 4264.33 42.7 4264 42.21V200Z" fill="#145FF5"></path><path d="M4277 200H4278V48.64C4277.66 48.32 4277.33 47.99 4277 47.65V200.01V200Z" fill="#145FF5"></path><path d="M4290 200H4291V51.88C4290.66 51.69 4290.33 51.48 4290 51.27V200Z" fill="#145FF5"></path><path d="M4303 200H4304V53.68C4303.66 53.59 4303.33 53.49 4303 53.38V200Z" fill="#145FF5"></path><path d="M4316 200H4317V54.29C4316.66 54.29 4316.33 54.27 4316 54.24V200Z" fill="#145FF5"></path><path d="M4329 200H4330V53.91C4329.67 53.98 4329.34 54.03 4329 54.09V200Z" fill="#145FF5"></path><path d="M4342 200H4343V52.41C4342.67 52.57 4342.34 52.72 4342 52.87V200Z" fill="#145FF5"></path><path d="M4355 200H4356V49.53C4355.67 49.81 4355.34 50.07 4355 50.33V200Z" fill="#145FF5"></path><path d="M4368 200H4369V44.95C4368.67 45.37 4368.34 45.78 4368 46.18V200.01V200Z" fill="#145FF5"></path><path d="M4381 200H4382V38.51C4381.67 39.07 4381.34 39.62 4381 40.16V200Z" fill="#145FF5"></path><path d="M4394 200H4395V30.57C4394.67 31.21 4394.33 31.85 4394 32.49V200Z" fill="#145FF5"></path><path d="M4407 200H4408V22.22C4407.66 22.84 4407.33 23.47 4407 24.1V199.99V200Z" fill="#145FF5"></path><path d="M4420 200H4421V14.89C4420.66 15.4 4420.33 15.91 4420 16.44V200.01V200Z" fill="#145FF5"></path><path d="M4433 200H4434V9.31C4433.66 9.67 4433.33 10.04 4433 10.42V200Z" fill="#145FF5"></path><path d="M4446 200H4447V5.54999C4446.66 5.77999 4446.33 6.01999 4446 6.26999V200.01V200Z" fill="#145FF5"></path><path d="M4459 200H4460V3.34003C4459.66 3.46003 4459.33 3.59003 4459 3.73003V200Z" fill="#145FF5"></path><path d="M4472 200H4473V2.39001C4472.66 2.42001 4472.33 2.46001 4472 2.51001V200Z" fill="#145FF5"></path><path d="M4485 200H4486V2.45999C4485.67 2.41999 4485.34 2.38999 4485 2.35999V200Z" fill="#145FF5"></path><path d="M4498 200H4499V3.57997C4498.67 3.44997 4498.34 3.32997 4498 3.21997V200Z" fill="#145FF5"></path><path d="M4511 200H4512V6.02002C4511.67 5.78002 4511.34 5.55002 4511 5.33002V200Z" fill="#145FF5"></path><path d="M4524 200H4525V10.05C4524.67 9.68002 4524.34 9.31002 4524 8.96002V200Z" fill="#145FF5"></path><path d="M4537 200H4538V15.92C4537.67 15.4 4537.34 14.89 4537 14.4V200.01V200Z" fill="#145FF5"></path><path d="M4550 200H4551V23.48C4550.67 22.85 4550.34 22.23 4550 21.62V200Z" fill="#145FF5"></path><path d="M4563 200H4564V31.86C4563.67 31.22 4563.33 30.57 4563 29.93V200Z" fill="#145FF5"></path><path d="M4576 200H4577V39.63C4576.66 39.08 4576.33 38.53 4576 37.96V200Z" fill="#145FF5"></path><path d="M4589 200H4590V45.78C4589.66 45.37 4589.33 44.96 4589 44.53V200.01V200Z" fill="#145FF5"></path><path d="M4602 200H4603V50.08C4602.66 49.81 4602.33 49.53 4602 49.24V200Z" fill="#145FF5"></path><path d="M4615 200H4616V52.73C4615.66 52.58 4615.33 52.42 4615 52.25V200Z" fill="#145FF5"></path><path d="M4628 200H4629V54.03C4628.66 53.97 4628.33 53.91 4628 53.83V199.99V200Z" fill="#145FF5"></path><path d="M4641 200H4642V54.26C4641.67 54.28 4641.34 54.29 4641 54.29V199.99V200Z" fill="#145FF5"></path><path d="M4654 200H4655V53.48C4654.67 53.58 4654.34 53.68 4654 53.76V200Z" fill="#145FF5"></path><path d="M4667 200H4668V51.49C4667.67 51.69 4667.34 51.89 4667 52.07V199.99V200Z" fill="#145FF5"></path><path d="M4680 200H4681V47.98C4680.67 48.31 4680.34 48.63 4680 48.93V199.99V200Z" fill="#145FF5"></path><path d="M4693 200H4694V42.69C4693.67 43.16 4693.34 43.63 4693 44.08V200Z" fill="#145FF5"></path><path d="M4706 200H4707V35.59C4706.67 36.19 4706.34 36.78 4706 37.37V200Z" fill="#145FF5"></path><path d="M4719 200H4720V27.32C4719.67 27.97 4719.33 28.62 4719 29.27V200Z" fill="#145FF5"></path><path d="M4732 200H4733V19.22C4732.66 19.81 4732.33 20.4 4732 21V200Z" fill="#145FF5"></path><path d="M4745 200H4746V12.52C4745.66 12.97 4745.33 13.44 4745 13.91V200Z" fill="#145FF5"></path><path d="M4758 200H4759V7.65997C4758.66 7.96997 4758.33 8.27997 4758 8.60997V200Z" fill="#145FF5"></path><path d="M4771 200H4772V4.52002C4771.66 4.70002 4771.33 4.90002 4771 5.10002V199.99V200Z" fill="#145FF5"></path><path d="M4784 200H4785V2.84003C4784.66 2.92003 4784.33 3.02003 4784 3.12003V200Z" fill="#145FF5"></path><path d="M4797 200H4798V2.31C4797.66 2.31 4797.33 2.32 4797 2.34V200Z" fill="#145FF5"></path><path d="M4810 200H4811V2.77001C4810.67 2.70001 4810.34 2.63001 4810 2.57001V200Z" fill="#145FF5"></path><path d="M4823 200H4824V4.36C4823.67 4.19 4823.34 4.03 4823 3.88V200.01V200Z" fill="#145FF5"></path><path d="M4836 200H4837V7.36002C4836.67 7.07002 4836.34 6.79002 4836 6.52002V199.99V200Z" fill="#145FF5"></path><path d="M4849 200H4850V12.08C4849.67 11.65 4849.34 11.24 4849 10.83V200Z" fill="#145FF5"></path><path d="M4862 200H4863V18.65C4862.67 18.09 4862.34 17.53 4862 16.98V200Z" fill="#145FF5"></path><path d="M4875 200H4876V26.68C4875.67 26.03 4875.33 25.39 4875 24.75V200Z" fill="#145FF5"></path><path d="M4888 200H4889V34.99C4888.66 34.37 4888.33 33.75 4888 33.13V200Z" fill="#145FF5"></path><path d="M4901 200H4902V42.22C4901.66 41.72 4901.33 41.21 4901 40.7V200.01V200Z" fill="#145FF5"></path><path d="M4914 200H4915V47.64C4914.66 47.29 4914.33 46.93 4914 46.55V199.99V200Z" fill="#145FF5"></path><path d="M4927 200H4928V51.28C4927.66 51.06 4927.33 50.83 4927 50.59V200.01V200Z" fill="#145FF5"></path><path d="M4940 200H4941V53.38C4940.66 53.27 4940.33 53.15 4940 53.02V200Z" fill="#145FF5"></path><path d="M4953 200H4954V54.24C4953.66 54.21 4953.33 54.18 4953 54.14V200Z" fill="#145FF5"></path><path d="M4966 200H4967V54.09C4966.67 54.14 4966.34 54.18 4966 54.21V200Z" fill="#145FF5"></path><path d="M4979 200H4980V52.87C4979.67 53.01 4979.34 53.14 4979 53.26V200Z" fill="#145FF5"></path><path d="M4992 200H4993V50.33C4992.67 50.58 4992.34 50.82 4992 51.05V200Z" fill="#145FF5"></path><path d="M5005 200H5006V46.17C5005.67 46.55 5005.34 46.92 5005 47.28V199.99V200Z" fill="#145FF5"></path><path d="M5018 200H5019V40.16C5018.67 40.69 5018.34 41.2 5018 41.71V200Z" fill="#145FF5"></path><path d="M5031 200H5032V32.48C5031.67 33.11 5031.34 33.74 5031 34.36V199.99V200Z" fill="#145FF5"></path><path d="M5044 200H5045V24.1C5044.67 24.74 5044.33 25.38 5044 26.02V200Z" fill="#145FF5"></path><path d="M5057 200H5058V16.43C5057.66 16.97 5057.33 17.52 5057 18.08V200Z" fill="#145FF5"></path><path d="M5070 200H5071V10.42C5070.66 10.82 5070.33 11.23 5070 11.65V200Z" fill="#145FF5"></path><path d="M5083 200H5084V6.26001C5083.66 6.52001 5083.33 6.78001 5083 7.06001V200Z" fill="#145FF5"></path><path d="M5096 200H5097V3.72998C5096.66 3.86998 5096.33 4.01998 5096 4.18998V200.01V200Z" fill="#145FF5"></path><path d="M5109 200H5110V2.51001C5109.66 2.56001 5109.33 2.62001 5109 2.68001V199.99V200Z" fill="#145FF5"></path><path d="M5122 200H5123V2.36C5122.67 2.33 5122.34 2.32 5122 2.31V199.99V200Z" fill="#145FF5"></path><path d="M5135 200H5136V3.21998C5135.67 3.10998 5135.34 3.00998 5135 2.91998V200Z" fill="#145FF5"></path><path d="M5148 200H5149V5.32997C5148.67 5.11997 5148.34 4.90997 5148 4.71997V200Z" fill="#145FF5"></path><path d="M5161 200H5162V8.96998C5161.67 8.62998 5161.34 8.29998 5161 7.97998V200.01V200Z" fill="#145FF5"></path><path d="M5174 200H5175V14.39C5174.67 13.91 5174.34 13.44 5174 12.97V199.99V200Z" fill="#145FF5"></path><path d="M5187 200H5188V21.62C5187.67 21.01 5187.34 20.41 5187 19.81V199.99V200Z" fill="#145FF5"></path><path d="M5200 200H5201V29.93C5200.67 29.28 5200.33 28.63 5200 27.98V200Z" fill="#145FF5"></path><path d="M5213 200H5214V37.96C5213.66 37.38 5213.33 36.8 5213 36.2V200Z" fill="#145FF5"></path><path d="M5226 200H5227V44.53C5226.66 44.09 5226.33 43.64 5226 43.18V200Z" fill="#145FF5"></path><path d="M5239 200H5240V49.24C5239.66 48.94 5239.33 48.63 5239 48.31V200Z" fill="#145FF5"></path><path d="M5252 200H5253V52.25C5252.66 52.07 5252.33 51.89 5252 51.69V200Z" fill="#145FF5"></path><path d="M5265 200H5266V53.84C5265.66 53.76 5265.33 53.68 5265 53.58V200Z" fill="#145FF5"></path><path d="M5278 54.28V200H5279V54.3C5278.94 54.3 5278.89 54.3 5278.83 54.3C5278.55 54.3 5278.28 54.29 5278 54.27V54.28Z" fill="#145FF5"></path><path d="M5291 200H5292V53.76C5291.67 53.84 5291.34 53.92 5291 53.98V200Z" fill="#145FF5"></path><path d="M5304 200H5305V52.07C5304.67 52.25 5304.34 52.42 5304 52.58V200Z" fill="#145FF5"></path><path d="M5317 200H5318V48.94C5317.67 49.24 5317.34 49.53 5317 49.8V200Z" fill="#145FF5"></path><path d="M5330 200H5331V44.08C5330.67 44.52 5330.34 44.95 5330 45.37V200.01V200Z" fill="#145FF5"></path><path d="M5343 200H5344V37.37C5343.67 37.94 5343.34 38.51 5343 39.07V200Z" fill="#145FF5"></path><path d="M5356 200H5357V29.27C5356.67 29.92 5356.33 30.56 5356 31.21V200.01V200Z" fill="#145FF5"></path><path d="M5369 200H5370V21C5369.66 21.61 5369.33 22.23 5369 22.85V200.01V200Z" fill="#145FF5"></path><path d="M5382 200H5383V13.9C5382.66 14.39 5382.33 14.88 5382 15.38V200Z" fill="#145FF5"></path><path d="M5395 200H5396V8.60999C5395.66 8.94999 5395.33 9.29999 5395 9.66999V200Z" fill="#145FF5"></path><path d="M5408 200H5409V5.09998C5408.66 5.30998 5408.33 5.52998 5408 5.76998V200Z" fill="#145FF5"></path><path d="M5421 200H5422V3.12C5421.66 3.22 5421.33 3.34 5421 3.46V200Z" fill="#145FF5"></path><path d="M5434 200H5435V2.34003C5434.66 2.36003 5434.33 2.39003 5434 2.43003V200Z" fill="#145FF5"></path><path d="M5447 200H5448V2.56999C5447.67 2.50999 5447.34 2.46999 5447 2.42999V200Z" fill="#145FF5"></path><path d="M5460 200H5461V3.87002C5460.67 3.72002 5460.34 3.59002 5460 3.46002V200Z" fill="#145FF5"></path><path d="M5473 200H5474V6.53003C5473.67 6.27003 5473.34 6.02003 5473 5.78003V200Z" fill="#145FF5"></path><path d="M5486 200H5487V10.83C5486.67 10.43 5486.34 10.05 5486 9.66998V199.99V200Z" fill="#145FF5"></path><path d="M5499 200H5500V16.98C5499.67 16.44 5499.34 15.91 5499 15.39V199.99V200Z" fill="#145FF5"></path><path d="M5512 200H5513V24.75C5512.67 24.11 5512.34 23.48 5512 22.85V199.99V200Z" fill="#145FF5"></path><path d="M5525 200H5526V33.13C5525.66 32.5 5525.33 31.86 5525 31.22V200Z" fill="#145FF5"></path><path d="M5538 200H5539V40.69C5538.66 40.16 5538.33 39.63 5538 39.08V200Z" fill="#145FF5"></path><path d="M5551 200H5552V46.56C5551.66 46.18 5551.33 45.78 5551 45.38V200.01V200Z" fill="#145FF5"></path><path d="M5564 200H5565V50.58C5564.66 50.33 5564.33 50.07 5564 49.8V199.99V200Z" fill="#145FF5"></path><path d="M5577 200H5578V53.02C5577.66 52.89 5577.33 52.74 5577 52.59V200.01V200Z" fill="#145FF5"></path><path d="M5590 200H5591V54.14C5590.66 54.1 5590.33 54.04 5590 53.98V200Z" fill="#145FF5"></path><path d="M5603 200H5604V54.21C5603.67 54.24 5603.34 54.26 5603 54.28V200.01V200Z" fill="#145FF5"></path><path d="M5616 200H5617V53.26C5616.67 53.38 5616.34 53.48 5616 53.58V200Z" fill="#145FF5"></path><path d="M5629 200H5630V51.05C5629.67 51.27 5629.34 51.48 5629 51.69V200Z" fill="#145FF5"></path><path d="M5642 200H5643V47.29C5642.67 47.64 5642.34 47.98 5642 48.31V200Z" fill="#145FF5"></path><path d="M5655 200H5656V41.71C5655.67 42.2 5655.34 42.69 5655 43.17V200Z" fill="#145FF5"></path><path d="M5668 200H5669V34.37C5668.67 34.98 5668.34 35.59 5668 36.19V200Z" fill="#145FF5"></path><path d="M5681 200H5682V26.03C5681.67 26.68 5681.33 27.33 5681 27.97V200Z" fill="#145FF5"></path><path d="M5694 200H5695V18.08C5694.66 18.65 5694.33 19.22 5694 19.81V200Z" fill="#145FF5"></path><path d="M5707 200H5708V11.65C5707.66 12.08 5707.33 12.52 5707 12.97V200Z" fill="#145FF5"></path><path d="M5720 200H5721V7.07001C5720.66 7.36001 5720.33 7.66001 5720 7.97001V200Z" fill="#145FF5"></path><path d="M5733 200H5734V4.17999C5733.66 4.34999 5733.33 4.51999 5733 4.70999V199.99V200Z" fill="#145FF5"></path><path d="M5746 200H5747V2.69C5746.66 2.76 5746.33 2.84 5746 2.92V200Z" fill="#145FF5"></path><path d="M5759 2.31999V200H5760V2.31999C5759.83 2.31999 5759.67 2.29999 5759.5 2.29999C5759.33 2.29999 5759.17 2.30999 5759 2.31999Z" fill="#145FF5"></path><path d="M5772 200H5773V2.92C5772.67 2.83 5772.34 2.76 5772 2.69V200Z" fill="#145FF5"></path><path d="M5785 200H5786V4.72C5785.67 4.53 5785.34 4.36 5785 4.19V200Z" fill="#145FF5"></path><path d="M5798 200H5799V7.97001C5798.67 7.66001 5798.34 7.36001 5798 7.07001V200Z" fill="#145FF5"></path><path d="M5811 200H5812V12.97C5811.67 12.52 5811.34 12.08 5811 11.65V200Z" fill="#145FF5"></path><path d="M5824 200H5825V19.81C5824.67 19.23 5824.34 18.65 5824 18.08V200Z" fill="#145FF5"></path><path d="M5837 200H5838V27.98C5837.67 27.33 5837.33 26.68 5837 26.04V200.01V200Z" fill="#145FF5"></path><path d="M5850 200H5851V36.2C5850.66 35.6 5850.33 34.99 5850 34.38V200.01V200Z" fill="#145FF5"></path><path d="M5863 200H5864V43.17C5863.66 42.69 5863.33 42.21 5863 41.71V200Z" fill="#145FF5"></path><path d="M5876 200H5877V48.31C5876.66 47.98 5876.33 47.64 5876 47.29V200Z" fill="#145FF5"></path><path d="M5889 200H5890V51.69C5889.66 51.49 5889.33 51.28 5889 51.05V200Z" fill="#145FF5"></path><path d="M5902 200H5903V53.58C5902.66 53.48 5902.33 53.38 5902 53.26V200Z" fill="#145FF5"></path><path d="M5915 200H5916V54.27C5915.66 54.26 5915.33 54.23 5915 54.2V199.99V200Z" fill="#145FF5"></path><path d="M5928 200H5929V53.98C5928.67 54.04 5928.34 54.09 5928 54.14V200Z" fill="#145FF5"></path><path d="M5941 200H5942V52.58C5941.67 52.73 5941.34 52.88 5941 53.01V199.99V200Z" fill="#145FF5"></path><path d="M5954 200H5955V49.8C5954.67 50.07 5954.34 50.33 5954 50.58V200Z" fill="#145FF5"></path><path d="M5967 200H5968V45.37C5967.67 45.78 5967.34 46.17 5967 46.55V200Z" fill="#145FF5"></path><path d="M5980 200H5981V39.08C5980.67 39.63 5980.34 40.16 5980 40.69V200Z" fill="#145FF5"></path><path d="M5993 200H5994V31.21C5993.67 31.85 5993.34 32.49 5993 33.12V200Z" fill="#145FF5"></path><path d="M6006 200H6007V22.85C6006.66 23.48 6006.33 24.11 6006 24.75V200.01V200Z" fill="#145FF5"></path><path d="M6019 200H6020V15.39C6019.66 15.91 6019.33 16.44 6019 16.98V200Z" fill="#145FF5"></path><path d="M6032 200H6033V9.66998C6032.66 10.04 6032.33 10.43 6032 10.83V200Z" fill="#145FF5"></path><path d="M6045 200H6046V5.77002C6045.66 6.01002 6045.33 6.26002 6045 6.52002V200Z" fill="#145FF5"></path><path d="M6058 200H6059V3.46002C6058.66 3.59002 6058.33 3.72002 6058 3.87002V200Z" fill="#145FF5"></path><path d="M6071 200H6072V2.42999C6071.66 2.46999 6071.33 2.51999 6071 2.56999V200Z" fill="#145FF5"></path><path d="M6084 200H6085V2.43003C6084.67 2.39003 6084.34 2.36003 6084 2.34003V200Z" fill="#145FF5"></path><path d="M6097 200H6098V3.46C6097.67 3.34 6097.34 3.22 6097 3.12V200Z" fill="#145FF5"></path><path d="M6110 200H6111V5.76998C6110.67 5.53998 6110.34 5.30998 6110 5.09998V199.99V200Z" fill="#145FF5"></path><path d="M6123 200H6124V9.66999C6123.67 9.30999 6123.34 8.94999 6123 8.60999V199.99V200Z" fill="#145FF5"></path><path d="M6136 200H6137V15.39C6136.67 14.89 6136.34 14.39 6136 13.91V200Z" fill="#145FF5"></path><path d="M6149 200H6150V22.85C6149.67 22.23 6149.34 21.61 6149 21V199.99V200Z" fill="#145FF5"></path><path d="M6162 200H6163V31.22C6162.67 30.58 6162.33 29.93 6162 29.28V200Z" fill="#145FF5"></path><path d="M6175 200H6176V39.08C6175.66 38.52 6175.33 37.95 6175 37.38V200Z" fill="#145FF5"></path><path d="M6188 200H6189V45.37C6188.66 44.95 6188.33 44.52 6188 44.08V200Z" fill="#145FF5"></path><path d="M6201 200H6202V49.81C6201.66 49.53 6201.33 49.24 6201 48.95V200.01V200Z" fill="#145FF5"></path><path d="M6214 200H6215V52.58C6214.66 52.42 6214.33 52.25 6214 52.07V199.99V200Z" fill="#145FF5"></path><path d="M6227 200H6228V53.98C6227.66 53.92 6227.33 53.84 6227 53.76V200Z" fill="#145FF5"></path><path d="M6240 54.3V200H6241V54.27C6240.72 54.28 6240.45 54.3 6240.16 54.3C6240.11 54.3 6240.05 54.3 6240 54.3Z" fill="#145FF5"></path><path d="M6253 200H6254V53.58C6253.67 53.67 6253.34 53.76 6253 53.84V200Z" fill="#145FF5"></path><path d="M6266 200H6267V51.69C6266.67 51.89 6266.34 52.07 6266 52.25V200Z" fill="#145FF5"></path><path d="M6279 200H6280V48.31C6279.67 48.63 6279.34 48.94 6279 49.24V200Z" fill="#145FF5"></path><path d="M6292 200H6293V43.17C6292.67 43.63 6292.34 44.08 6292 44.52V200Z" fill="#145FF5"></path><path d="M6305 200H6306V36.19C6305.67 36.78 6305.34 37.37 6305 37.95V200Z" fill="#145FF5"></path><path d="M6318 200H6319V27.97C6318.67 28.62 6318.33 29.27 6318 29.92V200Z" fill="#145FF5"></path><path d="M6331 200H6332V19.81C6331.66 20.41 6331.33 21.01 6331 21.61V200Z" fill="#145FF5"></path><path d="M6344 200H6345V12.97C6344.66 13.43 6344.33 13.9 6344 14.39V200Z" fill="#145FF5"></path><path d="M6357 200H6358V7.96002C6357.66 8.28002 6357.33 8.61002 6357 8.95002V199.99V200Z" fill="#145FF5"></path><path d="M6370 200H6371V4.71997C6370.66 4.90997 6370.33 5.11997 6370 5.32997V200Z" fill="#145FF5"></path><path d="M6383 200H6384V2.91998C6383.66 3.00998 6383.33 3.10998 6383 3.21998V200Z" fill="#145FF5"></path><path d="M6396 200H6397V2.32001C6396.66 2.32001 6396.33 2.34001 6396 2.37001V200.01V200Z" fill="#145FF5"></path><path d="M6409 200H6410V2.69001C6409.67 2.62001 6409.34 2.57001 6409 2.51001V200Z" fill="#145FF5"></path><path d="M6422 200H6423V4.18998C6422.67 4.02998 6422.34 3.87998 6422 3.72998V200Z" fill="#145FF5"></path><path d="M6435 200H6436V7.07002C6435.67 6.79002 6435.34 6.53002 6435 6.27002V200Z" fill="#145FF5"></path><path d="M6448 200H6449V11.65C6448.67 11.23 6448.34 10.82 6448 10.42V199.99V200Z" fill="#145FF5"></path><path d="M6461 200H6462V18.09C6461.67 17.53 6461.34 16.98 6461 16.44V200Z" fill="#145FF5"></path><path d="M6474 200H6475V26.03C6474.67 25.39 6474.33 24.75 6474 24.11V200Z" fill="#145FF5"></path><path d="M6487 200H6488V34.38C6487.66 33.76 6487.33 33.13 6487 32.5V200.01V200Z" fill="#145FF5"></path><path d="M6500 200H6501V41.71C6500.66 41.2 6500.33 40.69 6500 40.16V199.99V200Z" fill="#145FF5"></path><path d="M6513 200H6514V47.29C6513.66 46.93 6513.33 46.56 6513 46.18V200Z" fill="#145FF5"></path><path d="M6526 200H6527V51.06C6526.66 50.83 6526.33 50.59 6526 50.34V200Z" fill="#145FF5"></path><path d="M6539 200H6540V53.26C6539.66 53.14 6539.33 53.01 6539 52.87V200Z" fill="#145FF5"></path><path d="M6552 200H6553V54.21C6552.66 54.18 6552.33 54.14 6552 54.09V200Z" fill="#145FF5"></path><path d="M6565 200H6566V54.14C6565.67 54.18 6565.34 54.21 6565 54.24V200Z" fill="#145FF5"></path><path d="M6578 200H6579V53.02C6578.67 53.15 6578.34 53.27 6578 53.38V200Z" fill="#145FF5"></path><path d="M6591 200H6592V50.58C6591.67 50.82 6591.34 51.05 6591 51.27V200Z" fill="#145FF5"></path><path d="M6604 200H6605V46.55C6604.67 46.92 6604.34 47.29 6604 47.64V200Z" fill="#145FF5"></path><path d="M6617 200H6618V40.68C6617.67 41.2 6617.34 41.71 6617 42.2V199.99V200Z" fill="#145FF5"></path><path d="M6630 200H6631V33.12C6630.67 33.75 6630.34 34.37 6630 34.98V200Z" fill="#145FF5"></path><path d="M6643 200H6644V24.74C6643.67 25.38 6643.33 26.03 6643 26.67V200Z" fill="#145FF5"></path><path d="M6656 200H6657V16.97C6656.66 17.52 6656.33 18.07 6656 18.64V200Z" fill="#145FF5"></path><path d="M6669 200H6670V10.83C6669.66 11.24 6669.33 11.65 6669 12.08V200Z" fill="#145FF5"></path><path d="M6682 200H6683V6.52002C6682.66 6.79002 6682.33 7.07002 6682 7.36002V200Z" fill="#145FF5"></path><path d="M6695 200H6696V3.87C6695.66 4.02 6695.33 4.18 6695 4.35V200Z" fill="#145FF5"></path><path d="M6708 200H6709V2.57001C6708.66 2.63001 6708.33 2.69001 6708 2.77001V200.01V200Z" fill="#145FF5"></path><path d="M6721 200H6722V2.34C6721.67 2.32 6721.34 2.31 6721 2.31V200Z" fill="#145FF5"></path><path d="M6734 200H6735V3.12003C6734.67 3.02003 6734.34 2.92003 6734 2.84003V200Z" fill="#145FF5"></path><path d="M6747 200H6748V5.11003C6747.67 4.91003 6747.34 4.71003 6747 4.53003V200Z" fill="#145FF5"></path><path d="M6760 200H6761V8.61997C6760.67 8.28997 6760.34 7.96997 6760 7.65997V200Z" fill="#145FF5"></path><path d="M6773 200H6774V13.91C6773.67 13.44 6773.34 12.97 6773 12.52V200Z" fill="#145FF5"></path><path d="M6786 200H6787V21.01C6786.67 20.41 6786.34 19.82 6786 19.23V200Z" fill="#145FF5"></path><path d="M6799 200H6800V29.28C6799.67 28.63 6799.33 27.98 6799 27.33V200Z" fill="#145FF5"></path><path d="M6812 200H6813V37.38C6812.66 36.79 6812.33 36.2 6812 35.6V200Z" fill="#145FF5"></path><path d="M6825 200H6826V44.09C6825.66 43.64 6825.33 43.17 6825 42.7V200Z" fill="#145FF5"></path><path d="M6838 200H6839V48.94C6838.66 48.63 6838.33 48.32 6838 47.99V200Z" fill="#145FF5"></path><path d="M6851 200H6852V52.08C6851.66 51.9 6851.33 51.7 6851 51.5V200Z" fill="#145FF5"></path><path d="M6864 200H6865V53.76C6864.66 53.68 6864.33 53.58 6864 53.48V200Z" fill="#145FF5"></path><path d="M6877 200H6878V54.3C6877.66 54.3 6877.33 54.29 6877 54.27V200.01V200Z" fill="#145FF5"></path><path d="M6890 200H6891V53.84C6890.67 53.91 6890.34 53.98 6890 54.04V200.01V200Z" fill="#145FF5"></path><path d="M6903 200H6904V52.24C6903.67 52.41 6903.34 52.57 6903 52.72V199.99V200Z" fill="#145FF5"></path><path d="M6916 200H6917V49.24C6916.67 49.53 6916.34 49.81 6916 50.08V200.01V200Z" fill="#145FF5"></path><path d="M6929 200H6930V44.52C6929.67 44.95 6929.34 45.36 6929 45.77V200Z" fill="#145FF5"></path><path d="M6942 200H6943V37.95C6942.67 38.51 6942.34 39.07 6942 39.62V200Z" fill="#145FF5"></path><path d="M6955 200H6956V29.91C6955.67 30.56 6955.33 31.2 6955 31.84V199.99V200Z" fill="#145FF5"></path><path d="M6968 200H6969V21.61C6968.66 22.23 6968.33 22.85 6968 23.47V200Z" fill="#145FF5"></path><path d="M6981 200H6982V14.38C6981.66 14.88 6981.33 15.39 6981 15.9V199.99V200Z" fill="#145FF5"></path><path d="M6994 200H6995V8.96002C6994.66 9.31002 6994.33 9.67002 6994 10.05V200.01V200Z" fill="#145FF5"></path><path d="M7007 200H7008V5.32001C7007.66 5.54001 7007.33 5.77001 7007 6.01001V199.99V200Z" fill="#145FF5"></path><path d="M7020 200H7021V3.21997C7020.66 3.32997 7020.33 3.44997 7020 3.57997V200Z" fill="#145FF5"></path><path d="M7033 200H7034V2.35999C7033.66 2.38999 7033.33 2.41999 7033 2.45999V200Z" fill="#145FF5"></path><path d="M7046 200H7047V2.52002C7046.67 2.47002 7046.34 2.43002 7046 2.40002V200.01V200Z" fill="#145FF5"></path><path d="M7059 200H7060V3.73003C7059.67 3.59003 7059.34 3.46003 7059 3.34003V200Z" fill="#145FF5"></path><path d="M7072 200H7073V6.26999C7072.67 6.01999 7072.34 5.77999 7072 5.54999V200Z" fill="#145FF5"></path><path d="M7085 200H7086V10.43C7085.67 10.05 7085.34 9.68001 7085 9.32001V200Z" fill="#145FF5"></path><path d="M7098 200H7099V16.44C7098.67 15.91 7098.34 15.4 7098 14.89V199.99V200Z" fill="#145FF5"></path><path d="M7111 200H7112V24.12C7111.67 23.49 7111.34 22.86 7111 22.24V200.01V200Z" fill="#145FF5"></path><path d="M7124 200H7125V32.5C7124.67 31.86 7124.33 31.22 7124 30.58V200Z" fill="#145FF5"></path><path d="M7137 200H7138V40.17C7137.66 39.63 7137.33 39.08 7137 38.52V200Z" fill="#145FF5"></path><path d="M7150 200H7151V46.18C7150.66 45.78 7150.33 45.37 7150 44.95V200Z" fill="#145FF5"></path><path d="M7163 200H7164V50.34C7163.66 50.08 7163.33 49.82 7163 49.54V200Z" fill="#145FF5"></path><path d="M7176 200H7177V52.88C7176.66 52.74 7176.33 52.59 7176 52.42V200Z" fill="#145FF5"></path><path d="M7189 200H7190V54.09C7189.66 54.04 7189.33 53.98 7189 53.92V200.01V200Z" fill="#145FF5"></path><path d="M7202 200H7203V54.24C7202.67 54.27 7202.34 54.28 7202 54.29V200.01V200Z" fill="#145FF5"></path><path d="M7215 200H7216V53.38C7215.67 53.49 7215.34 53.59 7215 53.68V200Z" fill="#145FF5"></path><path d="M7228 200H7229V51.27C7228.67 51.48 7228.34 51.69 7228 51.88V200Z" fill="#145FF5"></path><path d="M7241 200H7242V47.64C7241.67 47.98 7241.34 48.31 7241 48.63V200Z" fill="#145FF5"></path><path d="M7254 200H7255V42.21C7254.67 42.69 7254.34 43.16 7254 43.63V200.01V200Z" fill="#145FF5"></path><path d="M7267 200H7268V34.98C7267.67 35.59 7267.34 36.19 7267 36.79V200.01V200Z" fill="#145FF5"></path><path d="M7280 200H7281V26.67C7280.67 27.32 7280.33 27.97 7280 28.62V200Z" fill="#145FF5"></path><path d="M7293 200H7294V18.64C7293.66 19.22 7293.33 19.8 7293 20.4V200Z" fill="#145FF5"></path><path d="M7306 200H7307V12.07C7306.66 12.51 7306.33 12.96 7306 13.42V199.99V200Z" fill="#145FF5"></path><path d="M7319 200H7320V7.35999C7319.66 7.65999 7319.33 7.96999 7319 8.28999V200Z" fill="#145FF5"></path><path d="M7332 200H7333V4.34998C7332.66 4.52998 7332.33 4.70998 7332 4.90998V200Z" fill="#145FF5"></path><path d="M7345 200H7346V2.76001C7345.66 2.84001 7345.33 2.92001 7345 3.02001V200Z" fill="#145FF5"></path><path d="M7358 2.33V200H7359V2.31C7358.94 2.31 7358.89 2.31 7358.83 2.31C7358.55 2.31 7358.28 2.32 7358 2.34V2.33Z" fill="#145FF5"></path><path d="M7371 200H7372V2.84C7371.67 2.76 7371.34 2.68 7371 2.62V200Z" fill="#145FF5"></path><path d="M7384 200H7385V4.53002C7384.67 4.35002 7384.34 4.18002 7384 4.02002V200Z" fill="#145FF5"></path><path d="M7397 200H7398V7.65999C7397.67 7.35999 7397.34 7.06999 7397 6.79999V200Z" fill="#145FF5"></path><path d="M7410 200H7411V12.52C7410.67 12.08 7410.34 11.65 7410 11.23V199.99V200Z" fill="#145FF5"></path><path d="M7423 200H7424V19.23C7423.67 18.66 7423.34 18.09 7423 17.53V200Z" fill="#145FF5"></path><path d="M7436 200H7437V27.33C7436.67 26.68 7436.33 26.04 7436 25.39V200Z" fill="#145FF5"></path><path d="M7449 200H7450V35.6C7449.66 34.99 7449.33 34.37 7449 33.75V199.99V200Z" fill="#145FF5"></path><path d="M7462 200H7463V42.7C7462.66 42.21 7462.33 41.72 7462 41.22V200.01V200Z" fill="#145FF5"></path><path d="M7475 200H7476V47.99C7475.66 47.65 7475.33 47.3 7475 46.93V200Z" fill="#145FF5"></path><path d="M7488 200H7489V51.5C7488.66 51.29 7488.33 51.07 7488 50.83V200Z" fill="#145FF5"></path><path d="M7501 200H7502V53.48C7501.66 53.38 7501.33 53.26 7501 53.14V200Z" fill="#145FF5"></path><path d="M7514 200H7515V54.26C7514.66 54.24 7514.33 54.21 7514 54.17V199.99V200Z" fill="#145FF5"></path><path d="M7527 200H7528V54.03C7527.67 54.09 7527.34 54.13 7527 54.17V199.99V200Z" fill="#145FF5"></path><path d="M7540 200H7541V52.73C7540.67 52.88 7540.34 53.01 7540 53.14V200Z" fill="#145FF5"></path><path d="M7553 200H7554V50.08C7553.67 50.34 7553.34 50.59 7553 50.83V200Z" fill="#145FF5"></path><path d="M7566 200H7567V45.77C7566.67 46.17 7566.34 46.55 7566 46.93V200Z" fill="#145FF5"></path><path d="M7579 200H7580V39.62C7579.67 40.16 7579.34 40.69 7579 41.21V200Z" fill="#145FF5"></path><path d="M7592 200H7593V31.85C7592.67 32.49 7592.34 33.12 7592 33.75V200Z" fill="#145FF5"></path><path d="M7605 200H7606V23.47C7605.66 24.1 7605.33 24.74 7605 25.38V199.99V200Z" fill="#145FF5"></path><path d="M7618 200H7619V15.91C7618.66 16.44 7618.33 16.97 7618 17.52V200Z" fill="#145FF5"></path><path d="M7631 200H7632V10.05C7631.66 10.43 7631.33 10.83 7631 11.23V200Z" fill="#145FF5"></path><path d="M7644 200H7645V6.02002C7644.66 6.27002 7644.33 6.53002 7644 6.80002V200Z" fill="#145FF5"></path><path d="M7657 200H7658V3.58002C7657.66 3.71002 7657.33 3.86002 7657 4.01002V199.99V200Z" fill="#145FF5"></path><path d="M7670 200H7671V2.46002C7670.66 2.50002 7670.33 2.56002 7670 2.62002V200Z" fill="#145FF5"></path><path d="M7684 0H7683V200H7684V0Z" fill="#145FF5"></path></g><defs><clipPath id="clip0_365_4544"><rect width="3838" height="200" fill="white"></rect></clipPath><clipPath id="clip1_365_4544"><rect width="3838" height="200" fill="white" transform="translate(3848)"></rect></clipPath></defs></svg> 