<?xml version="1.0" encoding="UTF-8"?>
<svg xmlns="http://www.w3.org/2000/svg" width="132" height="58" viewBox="0 0 132 58" fill="none">
  <path fill-rule="evenodd" clip-rule="evenodd" d="M54.3291 57.5217L76.6957 4.99758C73.2951 2.6072 69.4153 1.035 65.3501 0.361206C61.2848 -0.312592 57.1423 -0.0398645 53.1853 1.1473C49.2283 2.33447 45.5804 4.38795 42.4889 7.19544C39.3975 10.0029 36.9244 13.4842 35.2704 17.3826C33.6165 21.281 32.7973 25.5163 32.8746 29.7837C32.9673 34.0511 33.9411 38.2383 35.7651 42.0725C37.589 45.9067 40.1858 49.2597 43.4009 51.9388C46.6005 54.602 50.3412 56.511 54.3291 57.5217ZM102.717 57.5217C118.602 57.5217 131.478 44.6451 131.478 28.7609C131.478 12.8767 118.602 6.11289e-06 102.717 6.11289e-06C86.8332 6.11289e-06 73.9566 12.8767 73.9566 28.7609C73.9566 44.6451 86.8332 57.5217 102.717 57.5217ZM35.6087 0.2734L11.3476 57.5217H11.2694C6.29842 53.2132 2.73429 47.4257 1.06165 40.963C-0.610986 34.5002 -0.298347 27.6677 1.93705 21.3818C4.17245 15.0959 8.25243 9.67814 13.583 5.85194C18.9136 2.02574 25.2758 -0.0159762 31.7788 0.000100327C33.0606 0.000100327 34.3425 0.0965592 35.6087 0.2734Z" fill="#145FF5"></path>
</svg>
