<?xml version="1.0" encoding="UTF-8"?>
<svg xmlns="http://www.w3.org/2000/svg" width="306" height="169" viewBox="0 0 306 169" fill="none">
  <g clip-path="url(#clip0_277_14)">
    <path d="M279.665 51.0185C293.754 51.0185 305.175 39.5976 305.175 25.5092C305.175 11.4209 293.754 0 279.665 0C265.577 0 254.156 11.4209 254.156 25.5092C254.156 39.5976 265.577 51.0185 279.665 51.0185Z" fill="#FF5A00"></path>
    <path d="M235.259 51.0394L255.795 4.56773C252.666 2.45689 249.111 1.0582 245.383 0.470257C241.654 -0.117683 237.842 0.119443 234.215 1.16492C230.588 2.21039 227.234 4.03876 224.391 6.52112C221.547 9.00349 219.282 12.0794 217.757 15.532C216.231 18.9847 215.481 22.7299 215.56 26.5038C215.639 30.2777 216.545 33.9883 218.214 37.374C219.883 40.7597 222.274 43.7381 225.22 46.0992C228.165 48.4603 231.592 50.1467 235.259 51.0394Z" fill="#2ED0FF"></path>
    <path d="M197.05 50.9547L219.079 0.405814C217.926 0.249695 216.764 0.171247 215.6 0.171001C209.693 0.155262 203.924 1.95793 199.077 5.33422C194.229 8.7105 190.539 13.4968 188.506 19.0431C186.473 24.5895 186.196 30.6272 187.713 36.3362C189.23 42.0453 192.468 47.1491 196.986 50.9547H197.05Z" fill="#145FF5"></path>
    <path d="M21.6882 103.68H12.2743C12.0366 103.708 11.7968 103.653 11.5948 103.524C11.3928 103.396 11.2409 103.203 11.1643 102.976C11.1327 102.77 11.1624 102.558 11.2497 102.369C11.337 102.179 11.478 102.019 11.6553 101.909C11.7833 101.781 38.7228 79.7295 39.1284 79.3025C40.4652 77.9571 41.4987 76.3413 42.1596 74.5636C42.6849 73.0973 42.9591 71.5529 42.9708 69.9954C42.965 68.7844 42.7706 67.5816 42.3944 66.4305C41.5537 64.4905 40.1641 62.8386 38.3967 61.678C36.6294 60.5175 34.5613 59.8989 32.4469 59.8984H1.2808V69.7819H30.6965C31.4009 69.7819 31.6998 70.0381 31.7638 70.4223C31.7674 70.6205 31.7272 70.8171 31.646 70.9979C31.5649 71.1787 31.4447 71.3394 31.2942 71.4683C31.038 71.7245 26.3631 75.5242 23.8869 77.5521L5.03781 92.9644C3.31999 94.3749 1.95344 96.1653 1.04599 98.1943C0.940699 98.3874 0.848004 98.587 0.768479 98.792C0.282392 100.031 0.0221225 101.347 0 102.677C0 105.564 1.147 108.334 3.18867 110.375C5.23033 112.417 7.99943 113.564 10.8868 113.564H44.4651V103.68H21.6882Z" fill="#FF5A00"></path>
    <path d="M284.938 59.877H274.457V113.564H284.938V59.877Z" fill="#FF5A00"></path>
    <path d="M82.0991 59.8777C82.0991 59.8777 82.0991 87.244 82.0991 92.2605C82.0715 95.3436 80.8473 98.2955 78.6849 100.493C76.5224 102.691 73.5908 103.963 70.5085 104.04C67.4263 104.118 64.4344 102.995 62.1642 100.909C59.8939 98.8226 58.5229 95.936 58.3403 92.8582C58.3403 84.9173 58.3403 59.7496 58.3403 59.8777H47.8164V90.0404C47.8164 107.246 59.2369 113.522 70.1877 113.522C81.1385 113.522 92.7511 106.435 92.559 90.7449C92.559 89.3147 92.559 59.835 92.559 59.835L82.0991 59.8777Z" fill="#FF5A00"></path>
    <path d="M118.323 59.877C107.372 59.877 95.7809 66.9854 95.9731 82.6538C95.9731 84.1054 95.9731 113.564 95.9731 113.564H106.454C106.454 113.564 106.454 86.2187 106.454 81.2022C106.586 78.188 107.857 75.3361 110.01 73.2226C112.164 71.1091 115.039 69.8914 118.055 69.8155C121.071 69.7396 124.004 70.8112 126.26 72.8138C128.517 74.8164 129.93 77.6007 130.213 80.6045C130.213 88.5455 130.213 113.713 130.213 113.564H140.694V83.4223C140.716 66.1742 129.295 59.877 118.323 59.877Z" fill="#FF5A00"></path>
    <path d="M248.667 59.8773C245.469 59.8235 242.296 60.4439 239.353 61.6981C236.411 62.9523 233.766 64.8121 231.59 67.1565C229.441 64.778 226.801 62.8951 223.852 61.6382C220.903 60.3813 217.716 59.7805 214.512 59.8773C203.562 59.8773 191.97 66.9857 192.163 82.6541C192.163 84.1057 192.163 113.564 192.163 113.564H202.644C202.644 113.564 202.644 86.219 202.644 81.2026C202.931 78.314 204.264 75.63 206.391 73.6547C208.518 71.6794 211.293 70.5488 214.195 70.4754C217.097 70.402 219.926 71.3909 222.15 73.2561C224.375 75.1213 225.841 77.7346 226.274 80.6049C226.274 81.8643 226.274 83.5507 226.274 85.5146C226.274 92.2601 226.274 108.761 226.274 112.71V113.564H236.756C236.756 113.564 236.756 86.219 236.756 81.2026C236.783 78.1194 238.007 75.1676 240.17 72.9698C242.332 70.7721 245.264 69.5003 248.346 69.4227C251.428 69.3452 254.42 70.468 256.691 72.5542C258.961 74.6405 260.332 77.527 260.514 80.6049C260.514 88.5458 260.514 113.713 260.514 113.564H271.102V83.4226C271.102 66.1745 259.618 59.8773 248.667 59.8773Z" fill="#FF5A00"></path>
    <path d="M166.228 59.877C156.344 59.877 145.991 65.6619 144.176 78.2991H154.743C155.49 75.6526 157.127 73.3446 159.377 71.7643C161.628 70.1839 164.355 69.4278 167.098 69.6233C169.841 69.8189 172.432 70.9542 174.436 72.8379C176.439 74.7216 177.732 77.2384 178.096 79.9641V80.5192L159.674 80.3697C155.392 80.5236 151.337 82.3328 148.362 85.4166C145.387 88.5003 143.725 92.6179 143.725 96.9027C143.725 101.187 145.387 105.305 148.362 108.389C151.337 111.473 155.392 113.282 159.674 113.436H161.809H173.165C175.011 113.282 176.756 112.533 178.139 111.301V113.564H188.599V83.4223C188.62 66.1742 177.178 59.877 166.228 59.877ZM178.267 98.3009C178.239 100.268 177.436 102.144 176.034 103.523C174.631 104.901 172.741 105.671 170.774 105.665H160.528C159.27 105.657 158.028 105.377 156.889 104.843C155.75 104.309 154.739 103.535 153.928 102.573C153.116 101.612 152.523 100.486 152.188 99.2727C151.854 98.0598 151.786 96.7888 151.989 95.5472C152.386 93.4813 153.497 91.6212 155.129 90.2938C156.761 88.9664 158.809 88.2567 160.912 88.2893H178.267V98.3009Z" fill="#FF5A00"></path>
    <path fill-rule="evenodd" clip-rule="evenodd" d="M123.976 127.333V122.419C122.586 122.584 121.018 122.693 119.201 122.82C117.151 122.964 114.783 123.129 111.992 123.422C101.513 124.475 96.6992 131.244 96.6992 142.626C96.6992 148.643 98.8553 153.807 101.262 156.314C102.816 157.919 106.025 160.426 111.19 160.426C115.251 160.426 119.313 158.771 121.87 156.164C124.427 153.556 125.781 149.696 125.781 146.186C125.781 142.074 124.076 138.665 121.77 136.458C119.413 134.202 116.003 132.748 112.092 132.748C109.585 132.748 107.279 133.4 105.123 134.703C103.268 135.857 102.064 137.21 101.061 138.965H100.861C101.663 131.695 106.677 128.536 112.343 127.985C113.444 127.874 115.328 127.803 117.311 127.728C119.845 127.632 122.541 127.53 123.976 127.333ZM118.159 140.269C119.363 141.472 120.566 143.478 120.566 146.336C120.566 148.943 119.463 151.4 117.859 153.055C116.455 154.509 114.299 155.662 111.591 155.662C109.385 155.662 107.028 154.86 105.273 153.205C103.518 151.551 102.566 149.044 102.566 146.587C102.566 144.381 103.418 141.823 105.123 140.069C106.376 138.765 108.382 137.511 111.19 137.511C113.647 137.511 116.304 138.364 118.159 140.269ZM130.994 169V131.946H135.757V136.208H135.857C138.415 132.598 142.125 131.194 145.735 131.194C155.162 131.194 160.125 138.765 160.125 146.186C160.125 153.205 154.911 160.426 146.086 160.426C140.27 160.426 137.362 157.467 136.309 155.712H136.208V169H130.994ZM154.911 145.885C154.911 140.921 151 135.957 145.384 135.957C139.919 135.957 136.108 140.72 136.108 145.785C136.108 151.4 140.27 155.662 145.534 155.662C150.448 155.662 154.911 151.751 154.911 145.885ZM178.909 160.426C188.336 160.426 193.902 152.503 193.902 145.734C193.902 137.812 187.333 131.194 178.909 131.194C170.285 131.194 163.917 138.063 163.917 145.634C163.917 152.654 169.533 160.426 178.909 160.426ZM178.909 135.957C184.776 135.957 188.687 140.77 188.687 145.734C188.687 150.999 184.525 155.662 178.909 155.662C173.093 155.662 169.132 150.799 169.132 145.785C169.132 140.77 173.043 135.957 178.909 135.957ZM227.499 148.091H250.514C250.564 147.74 250.664 146.386 250.664 145.434C250.664 137.261 243.995 131.194 236.524 131.194C228.702 131.194 222.284 137.461 222.284 145.785C222.284 153.657 228.552 160.426 236.424 160.426C240.736 160.426 247.104 158.169 249.761 150.999H244.547C243.293 153.406 240.485 155.662 236.625 155.662C233.115 155.662 228.853 153.406 227.499 148.091ZM245.449 144.08H227.499C227.75 140.018 231.46 135.957 236.474 135.957C241.488 135.957 245.199 140.018 245.449 144.08ZM255.86 131.946V169H261.074V155.712H261.175C262.228 157.467 265.136 160.426 270.952 160.426C279.777 160.426 284.992 153.205 284.992 146.186C284.992 138.765 280.028 131.194 270.601 131.194C266.991 131.194 263.281 132.598 260.723 136.208H260.623V131.946H255.86ZM270.25 135.957C275.866 135.957 279.777 140.921 279.777 145.885C279.777 151.751 275.314 155.662 270.401 155.662C265.136 155.662 260.974 151.4 260.974 145.785C260.974 140.72 264.785 135.957 270.25 135.957ZM214.701 131.946H220.868L210.289 145.233L222.072 159.724H215.554L204.422 145.534L214.701 131.946ZM204.322 159.724H199.107V131.946H204.322V159.724Z" fill="#145FF5"></path>
  </g>
  <defs>
    <clipPath id="clip0_277_14">
      <rect width="306" height="169" fill="white"></rect>
    </clipPath>
  </defs>
</svg>
