<?xml version="1.0" encoding="UTF-8"?>
<svg xmlns="http://www.w3.org/2000/svg" width="1000" height="400" viewBox="0 0 1000 400" fill="none">
  <g clip-path="url(#clip0_498_7113)">
    <path fill-rule="evenodd" clip-rule="evenodd" d="M100.513 209.31C94.7089 222.092 81.9602 230.949 67.1316 230.949C46.868 230.949 30.429 214.376 30.429 193.911C30.429 173.446 46.868 156.839 67.1316 156.839C81.9602 156.839 94.7089 165.73 100.513 178.478V135.1C90.683 129.396 79.3099 126.108 67.1316 126.108C30.0599 126.142 0 156.47 0 193.911C0 231.352 30.0599 261.68 67.1316 261.68C79.2763 261.68 90.683 258.392 100.513 252.689V209.276V209.31Z" fill="#3CB3E7"></path>
    <path fill-rule="evenodd" clip-rule="evenodd" d="M535.577 241.282C535.577 249.971 541.515 255.339 548.795 255.339C555.505 255.339 560.537 250.911 562.617 246.046V236.585C560.504 231.687 555.505 227.259 548.795 227.259C541.515 227.259 535.577 232.627 535.577 241.316V241.282ZM563.255 228.668V222.361H568.891V260.237H562.651V254.534C559.9 257.788 555.304 261.177 548.124 261.177C537.422 261.177 529.37 252.655 529.37 241.282C529.37 229.909 537.422 221.388 548.124 221.388C555.304 221.388 559.933 224.776 563.288 228.634L563.255 228.668Z" fill="#3CB3E7"></path>
    <path fill-rule="evenodd" clip-rule="evenodd" d="M443.384 222.327L429.628 240.712L444.155 260.204H436.976L426.005 245.208L415.001 260.204H407.788L422.415 240.712L408.593 222.327H415.773L426.005 236.317L436.204 222.327H443.384Z" fill="#3CB3E7"></path>
    <path fill-rule="evenodd" clip-rule="evenodd" d="M464.352 227.393C456.703 227.393 450.597 232.526 450.597 241.282C450.597 250.039 456.703 255.172 464.352 255.172C472.001 255.172 478.107 250.039 478.107 241.282C478.107 232.526 472.001 227.393 464.352 227.393ZM464.352 221.388C474.584 221.388 484.38 228.332 484.38 241.282C484.38 254.232 474.618 261.177 464.352 261.177C454.086 261.177 444.356 254.232 444.356 241.282C444.356 228.332 454.22 221.388 464.352 221.388Z" fill="#3CB3E7"></path>
    <path fill-rule="evenodd" clip-rule="evenodd" d="M497.633 254.702H511.723C515.615 254.702 518.433 253.527 518.433 249.334C518.433 244.838 515.078 243.798 511.925 243.798H497.633V254.702ZM497.633 238.363H511.321C514.608 238.363 517.192 237.088 517.192 233.23C517.192 228.969 513.971 227.862 511.321 227.862H497.633V238.363ZM491.393 260.237V222.36H511.958C518.534 222.36 523.533 225.917 523.533 232.626C523.533 236.585 521.352 239.739 518.534 240.98C521.587 242.02 524.707 245.006 524.707 249.736C524.707 255.976 520.714 260.237 512.596 260.237H491.426H491.393Z" fill="#3CB3E7"></path>
    <path fill-rule="evenodd" clip-rule="evenodd" d="M578.352 260.204V222.327H584.592V238.364H606.331V222.327H612.572V260.204H606.331V244.201H584.592V260.204H578.352Z" fill="#3CB3E7"></path>
    <path fill-rule="evenodd" clip-rule="evenodd" d="M621.395 260.204V222.327H627.635V250.039L650.616 222.327H655.916V260.204H649.676V232.492L626.695 260.204H621.395Z" fill="#3CB3E7"></path>
    <path fill-rule="evenodd" clip-rule="evenodd" d="M682.42 227.226C676.013 227.226 670.074 231.084 669.605 238.498H693.928C694.465 234.472 691.982 227.226 682.42 227.226ZM682.018 221.388C696.477 221.388 701.812 233.298 699.463 244.034H669.605C670.376 251.985 677.489 255.306 685.071 255.306C689.701 255.306 694.23 254.031 697.417 252.22V258.393C693.961 260.204 689.063 261.144 684.131 261.144C673.027 261.144 663.331 254.736 663.331 241.249C663.331 227.762 673.094 221.354 682.018 221.354V221.388Z" fill="#3CB3E7"></path>
    <path fill-rule="evenodd" clip-rule="evenodd" d="M550.405 184.517V154.726H537.958V145.164H574.023V154.726H561.61V184.517H550.405Z" fill="#1D4382"></path>
    <path fill-rule="evenodd" clip-rule="evenodd" d="M514.474 176.667C508.066 176.667 504.476 170.897 504.476 164.824C504.476 158.752 508.066 152.981 514.474 152.981C520.881 152.981 524.538 158.752 524.538 164.824C524.538 170.897 520.982 176.667 514.474 176.667ZM514.474 144.024C504.577 144.024 495.485 149.425 493.405 160.06H487.232V145.164H475.926V184.517H487.232V169.622H493.405C495.485 180.223 504.577 185.658 514.474 185.658C525.847 185.658 536.012 178.613 536.012 164.824C536.012 151.036 525.847 143.99 514.474 143.99V144.024Z" fill="#1D4382"></path>
    <path fill-rule="evenodd" clip-rule="evenodd" d="M455.495 145.164H436.07L431.742 170.057C431.138 173.446 428.756 175.459 425.569 174.888V184.651C425.771 184.685 425.938 184.752 426.14 184.785C435.198 186.396 441.203 181.464 442.814 172.137L445.833 154.793H455.495V184.551H466.801V145.164H455.495Z" fill="#1D4382"></path>
    <path d="M134.397 124.096H100.647V259.634H134.397V124.096Z" fill="#1D4382"></path>
    <path fill-rule="evenodd" clip-rule="evenodd" d="M192.337 241.853C192.337 252.689 183.614 261.479 172.912 261.479C162.21 261.479 153.487 252.689 153.487 241.853C153.487 231.016 162.176 222.227 172.912 222.227C183.647 222.227 192.337 231.016 192.337 241.853Z" fill="#1D4382"></path>
    <path fill-rule="evenodd" clip-rule="evenodd" d="M401.481 153.217C395.073 153.217 391.483 158.987 391.483 165.06C391.483 171.132 395.073 176.902 401.481 176.902C407.889 176.902 411.546 171.132 411.546 165.06C411.546 158.987 407.989 153.217 401.481 153.217ZM401.481 144.226C412.854 144.226 423.019 151.271 423.019 165.06C423.019 178.848 412.854 185.893 401.481 185.893C390.108 185.893 379.942 178.848 379.942 165.06C379.942 151.271 390.175 144.226 401.481 144.226Z" fill="#1D4382"></path>
    <path fill-rule="evenodd" clip-rule="evenodd" d="M260.273 202.097C265.742 202.097 271.076 203.372 275.672 205.787V212.43C271.68 209.746 266.513 208.404 261.347 208.404C250.007 208.404 238.198 215.281 238.131 231.049C238.064 245.811 250.242 252.923 261.581 252.923C267.218 252.923 272.284 251.581 276.041 248.898V255.54C271.512 257.922 266.044 259.264 260.172 259.264C246.417 259.264 231.421 249.468 231.488 231.083C231.555 211.893 246.015 202.13 260.273 202.13V202.097Z" fill="#3CB3E7"></path>
    <path fill-rule="evenodd" clip-rule="evenodd" d="M288.085 260.103V228.064H274.263V222.227H308.114V228.064H294.359V260.103H288.085Z" fill="#3CB3E7"></path>
    <path fill-rule="evenodd" clip-rule="evenodd" d="M337.134 225.547C330.424 225.547 325.425 229.976 323.311 234.874V244.335C325.425 249.233 330.424 253.662 337.134 253.662C344.414 253.662 350.352 248.294 350.352 239.605C350.352 230.915 344.414 225.547 337.134 225.547ZM337.838 219.71C348.54 219.71 356.592 228.231 356.592 239.605C356.592 250.978 348.54 259.499 337.838 259.499C330.659 259.499 326.029 256.111 323.311 252.856V275.905H317.071V220.649H322.708V226.957C326.062 223.098 330.692 219.71 337.872 219.71H337.838Z" fill="#3CB3E7"></path>
    <path fill-rule="evenodd" clip-rule="evenodd" d="M366.053 239.605C366.053 248.294 371.991 253.662 379.272 253.662C385.981 253.662 390.98 249.233 393.094 244.369V234.908C390.98 230.01 385.981 225.581 379.272 225.581C371.991 225.581 366.053 230.949 366.053 239.638V239.605ZM393.731 226.957V220.65H399.367V258.527H393.127V252.823C390.376 256.077 385.78 259.466 378.601 259.466C367.898 259.466 359.847 250.944 359.847 239.571C359.847 228.198 367.898 219.677 378.601 219.677C385.78 219.677 390.41 223.065 393.765 226.923L393.731 226.957Z" fill="#3CB3E7"></path>
    <path fill-rule="evenodd" clip-rule="evenodd" d="M315.193 176.332C308.685 176.332 305.095 171.635 305.095 166.032C305.095 160.43 308.718 155.263 315.193 155.263C321.668 155.263 325.392 160.463 325.392 166.032C325.392 171.602 321.769 176.332 315.193 176.332ZM315.596 146.876C311.838 146.876 308.181 147.983 304.961 149.761C306.068 146.742 308.416 143.823 312.945 142.179C320.024 139.629 331.498 139.16 333.175 136.308V126.612C329.351 130.37 314.723 129.464 305.497 135.436C298.788 139.797 293.755 149.929 294.426 164.556C294.426 177.976 304.055 185.222 315.562 185.222C327.069 185.222 336.463 178.714 336.463 166.032C336.463 153.351 326.6 146.876 315.562 146.876H315.596Z" fill="#1D4382"></path>
    <path fill-rule="evenodd" clip-rule="evenodd" d="M255.274 161.235C259.468 150.197 263.595 139.093 263.796 138.019C263.997 139.093 268.124 150.231 272.284 161.235H255.274ZM280.939 184.015H293.52L270.405 126.612H257.254L234.004 184.015H246.585C246.585 184.015 248.8 178.244 251.618 170.83H275.941C278.759 178.244 280.939 184.015 280.939 184.015Z" fill="#1D4382"></path>
    <path fill-rule="evenodd" clip-rule="evenodd" d="M364.208 144.226C368.502 144.226 372.327 145.199 375.849 147.111V156.37C373.065 154.391 369.576 153.317 365.852 153.317C359.679 153.317 353.741 157.209 353.741 165.16C353.741 173.111 359.612 177.003 365.684 177.003C369.844 177.003 373.434 175.896 376.252 174.017V183.377C372.461 185.021 368.435 185.994 363.503 185.994C352.868 185.994 342.233 179.754 342.233 165.73C342.233 150.633 353.439 144.226 364.242 144.226H364.208Z" fill="#1D4382"></path>
  </g>
  <defs>
    <clipPath id="clip0_498_7113">
      <rect width="700" height="151.809" fill="white" transform="translate(0 124.096)"></rect>
    </clipPath>
  </defs>
</svg>
