<?xml version="1.0" encoding="UTF-8"?>
<svg xmlns="http://www.w3.org/2000/svg" width="320" height="367" fill="none">
  <rect width="320" height="42" rx="8" fill="#F5F6FC"></rect>
  <path d="M74.2 29.22a7.143 7.143 0 0 1-2.42-.4 4.968 4.968 0 0 1-1.92-1.26c-.547-.573-.98-1.307-1.3-2.2-.307-.907-.46-1.993-.46-3.26v-.4c0-1.213.16-2.253.48-3.12.32-.88.753-1.6 1.3-2.16a5.254 5.254 0 0 1 1.94-1.24c.747-.267 1.54-.4 2.38-.4.773 0 1.493.1 2.16.3a4.948 4.948 0 0 1 1.74.86c.507.387.913.867 1.22 1.44.32.573.513 1.247.58 2.02h-2.52c-.173-.867-.547-1.5-1.12-1.9-.56-.4-1.247-.6-2.06-.6-.44 0-.873.08-1.3.24-.427.16-.813.427-1.16.8-.333.373-.607.867-.82 1.48-.2.613-.3 1.373-.3 2.28v.4c0 .96.107 1.76.32 2.4.227.64.513 1.153.86 1.54s.727.66 1.14.82c.427.16.847.24 1.26.24.96 0 1.7-.22 2.22-.66.533-.453.853-1.067.96-1.84h2.52c-.08.827-.28 1.533-.6 2.12a4.34 4.34 0 0 1-1.24 1.44 5.091 5.091 0 0 1-1.74.8c-.653.173-1.36.26-2.12.26zm12.609 0c-.734 0-1.42-.113-2.06-.34a4.779 4.779 0 0 1-1.64-1.04 4.78 4.78 0 0 1-1.1-1.68c-.267-.68-.4-1.467-.4-2.36v-.4c0-.84.133-1.58.4-2.22.266-.653.633-1.2 1.1-1.64a4.542 4.542 0 0 1 1.64-1.02 6.126 6.126 0 0 1 2.06-.34c.733 0 1.413.113 2.04.34a4.613 4.613 0 0 1 2.76 2.66c.266.64.4 1.38.4 2.22v.4c0 .893-.134 1.68-.4 2.36a4.78 4.78 0 0 1-1.1 1.68 4.74 4.74 0 0 1-1.66 1.04 5.954 5.954 0 0 1-2.04.34zm0-1.92c.386 0 .753-.067 1.1-.2.36-.133.673-.34.94-.62.28-.28.5-.64.66-1.08.173-.44.26-.973.26-1.6v-.4c0-.573-.087-1.067-.26-1.48a2.758 2.758 0 0 0-.66-1.02 2.58 2.58 0 0 0-.94-.6 3.2 3.2 0 0 0-2.22 0c-.347.133-.66.333-.94.6a3.136 3.136 0 0 0-.66 1.02c-.16.413-.24.907-.24 1.48v.4c0 .627.08 1.16.24 1.6.173.44.393.8.66 1.08.28.28.593.487.94.62.36.133.733.2 1.12.2zM98.8 29.22c-.72 0-1.394-.133-2.02-.4a4.525 4.525 0 0 1-1.62-1.16c-.454-.52-.814-1.153-1.08-1.9-.254-.76-.38-1.627-.38-2.6v-.4c0-1.2.086-2.267.26-3.2.173-.933.466-1.727.88-2.38a4.337 4.337 0 0 1 1.68-1.54c.706-.373 1.58-.587 2.62-.64.84-.04 1.6-.073 2.28-.1.68-.04 1.24-.173 1.68-.4v2.02c-.214.12-.607.22-1.18.3-.574.067-1.4.113-2.48.14-.627.013-1.174.087-1.64.22-.454.133-.84.347-1.16.64-.307.293-.554.68-.74 1.16-.174.467-.287 1.04-.34 1.72.306-.627.786-1.133 1.44-1.52.666-.4 1.466-.6 2.4-.6.653 0 1.253.113 1.8.34.56.213 1.04.533 1.44.96.4.413.706.927.92 1.54.226.6.34 1.28.34 2.04v.46c0 .827-.134 1.573-.4 2.24a4.745 4.745 0 0 1-1.06 1.66c-.454.453-.994.8-1.62 1.04-.614.24-1.287.36-2.02.36zm0-1.92c.866 0 1.56-.287 2.08-.86s.78-1.413.78-2.52v-.46c0-.933-.267-1.66-.8-2.18-.52-.52-1.207-.78-2.06-.78-.854 0-1.547.26-2.08.78-.52.507-.78 1.233-.78 2.18v.46c0 .533.073 1.013.22 1.44.146.413.346.767.6 1.06.266.28.573.5.92.66.346.147.72.22 1.12.22zm11.694 1.92c-.72 0-1.386-.107-2-.32a4.424 4.424 0 0 1-1.58-1.02c-.44-.453-.786-1.02-1.04-1.7-.253-.68-.38-1.473-.38-2.38v-.4c0-.853.134-1.607.4-2.26.267-.653.627-1.2 1.08-1.64.467-.44 1-.767 1.6-.98a5.5 5.5 0 0 1 1.92-.34c.694 0 1.307.093 1.84.28a3.962 3.962 0 0 1 1.38.78c.387.32.694.7.92 1.14.227.44.38.913.46 1.42h-2.24a2.506 2.506 0 0 0-.72-1.22c-.346-.32-.893-.48-1.64-.48-.373 0-.726.067-1.06.2-.333.12-.626.313-.88.58-.253.267-.453.613-.6 1.04-.146.413-.22.907-.22 1.48v.4c0 .627.074 1.167.22 1.62.147.44.347.8.6 1.08.254.28.547.487.88.62.334.12.687.18 1.06.18 1.24 0 2.027-.567 2.36-1.7h2.24a4.687 4.687 0 0 1-.56 1.52c-.253.44-.58.82-.98 1.14-.4.307-.86.547-1.38.72-.52.16-1.08.24-1.68.24zm9.194-8.94h-3.5V18.4h9.2v1.88h-3.5V29h-2.2v-8.72zm7.5-1.88h5c1.333 0 2.3.273 2.9.82.6.533.9 1.22.9 2.06 0 .467-.14.92-.42 1.36-.28.427-.673.713-1.18.86.653.16 1.147.467 1.48.92.347.44.52.96.52 1.56 0 .92-.307 1.653-.92 2.2-.613.547-1.573.82-2.88.82h-5.4V18.4zm5.1 8.72c.72 0 1.213-.113 1.48-.34.28-.24.42-.573.42-1 0-.427-.14-.747-.42-.96-.267-.227-.76-.34-1.48-.34h-2.9v2.64h2.9zm-.3-4.36c.667 0 1.133-.107 1.4-.32.267-.227.4-.533.4-.92s-.133-.687-.4-.9c-.267-.227-.733-.34-1.4-.34h-2.6v2.48h2.6zm11.206 6.46a6.17 6.17 0 0 1-2-.32 4.9 4.9 0 0 1-1.66-1c-.466-.453-.84-1.02-1.12-1.7-.28-.68-.42-1.48-.42-2.4v-.4c0-.88.134-1.647.4-2.3.267-.653.627-1.193 1.08-1.62.467-.44 1-.767 1.6-.98a5.69 5.69 0 0 1 1.92-.32c1.614 0 2.847.433 3.7 1.3.867.867 1.3 2.107 1.3 3.72v1.12h-7.76c.014.547.1 1.013.26 1.4.174.373.394.68.66.92.28.227.594.393.94.5.36.107.727.16 1.1.16.76 0 1.314-.12 1.66-.36.36-.24.607-.553.74-.94h2.2c-.213 1.053-.74 1.853-1.58 2.4-.826.547-1.833.82-3.02.82zm-.1-9.12c-.373 0-.733.047-1.08.14a2.513 2.513 0 0 0-.9.46c-.253.2-.46.467-.62.8-.16.32-.246.713-.26 1.18h5.56c-.013-.493-.093-.907-.24-1.24-.133-.333-.32-.6-.56-.8-.24-.2-.526-.34-.86-.42-.32-.08-.666-.12-1.04-.12zm7.102-1.7h2.2v4.26h5V18.4h2.2V29h-2.2v-4.46h-5V29h-2.2V18.4zm12.207 0h2.2v4.26h5V18.4h2.2V29h-2.2v-4.46h-5V29h-2.2V18.4zm12.207 0h2.2v3.72h2c1.36 0 2.367.293 3.02.88.653.573.98 1.427.98 2.56 0 1.067-.32 1.907-.96 2.52-.64.613-1.653.92-3.04.92h-4.2V18.4zm4 8.72c.733 0 1.247-.127 1.54-.38.307-.267.46-.66.46-1.18 0-.52-.153-.907-.46-1.16-.293-.267-.807-.4-1.54-.4h-1.8v3.12h1.8zm5.6-8.72h2.2V29h-2.2V18.4zm5.009 0h2.2v7.5l5.1-7.5h2.1V29h-2.2v-7.5l-5.1 7.5h-2.1V18.4zm4.7-1.2c-1.106 0-1.92-.24-2.44-.72-.506-.493-.76-1.187-.76-2.08h2.04c0 .48.094.827.28 1.04.2.213.494.32.88.32.387 0 .674-.107.86-.32.2-.213.3-.56.3-1.04h2.04c0 .893-.26 1.587-.78 2.08-.52.48-1.326.72-2.42.72zm17.107 12.02c-.733 0-1.42-.113-2.06-.34a4.788 4.788 0 0 1-1.64-1.04 4.793 4.793 0 0 1-1.1-1.68c-.266-.68-.4-1.467-.4-2.36v-.4c0-.84.134-1.58.4-2.22.267-.653.634-1.2 1.1-1.64a4.55 4.55 0 0 1 1.64-1.02 6.127 6.127 0 0 1 2.06-.34c.734 0 1.414.113 2.04.34.64.227 1.194.567 1.66 1.02a4.6 4.6 0 0 1 1.1 1.64c.267.64.4 1.38.4 2.22v.4c0 .893-.133 1.68-.4 2.36a4.766 4.766 0 0 1-1.1 1.68c-.466.453-1.02.8-1.66 1.04a5.948 5.948 0 0 1-2.04.34zm0-1.92c.387 0 .754-.067 1.1-.2.36-.133.674-.34.94-.62.28-.28.5-.64.66-1.08.174-.44.26-.973.26-1.6v-.4c0-.573-.086-1.067-.26-1.48a2.758 2.758 0 0 0-.66-1.02 2.573 2.573 0 0 0-.94-.6 3.034 3.034 0 0 0-1.1-.2c-.386 0-.76.067-1.12.2a2.83 2.83 0 0 0-.94.6 3.16 3.16 0 0 0-.66 1.02c-.16.413-.24.907-.24 1.48v.4c0 .627.08 1.16.24 1.6.174.44.394.8.66 1.08.28.28.594.487.94.62.36.133.734.2 1.12.2zm7.393-8.9h9.2V29h-2.2v-8.72h-4.8V29h-2.2V18.4zm11.992 0h2.2v3.72h2c1.36 0 2.366.293 3.02.88.653.573.98 1.427.98 2.56 0 1.067-.32 1.907-.96 2.52-.64.613-1.654.92-3.04.92h-4.2V18.4zm4 8.72c.733 0 1.246-.127 1.54-.38.306-.267.46-.66.46-1.18 0-.52-.154-.907-.46-1.16-.294-.267-.807-.4-1.54-.4h-1.8v3.12h1.8zm5.6-8.72h2.2V29h-2.2V18.4zm7.509 1.88h-3.5V18.4h9.2v1.88h-3.5V29h-2.2v-8.72z" fill="#145FF5"></path>
  <circle cx="5" cy="82" r="5" fill="#145FF5"></circle>
  <path d="M19.5 76.5h8.25V87h-1.41v-9.27h-5.43V87H19.5V76.5zm13.215 10.65c-.44 0-.83-.06-1.17-.18-.33-.13-.61-.305-.84-.525-.23-.22-.405-.48-.525-.78-.12-.3-.18-.63-.18-.99 0-.79.23-1.36.69-1.71.47-.35 1.14-.525 2.01-.525h2.58v-.54c0-.68-.155-1.15-.465-1.41-.3-.26-.755-.39-1.365-.39-.57 0-.985.11-1.245.33-.26.21-.405.45-.435.72h-1.32c.02-.32.105-.615.255-.885.16-.28.37-.52.63-.72.27-.2.59-.355.96-.465.37-.12.78-.18 1.23-.18.94 0 1.685.225 2.235.675.56.44.84 1.165.84 2.175v4.335c.01.31.035.615.075.915H35.52c-.03-.23-.05-.445-.06-.645-.01-.21-.015-.445-.015-.705-.21.42-.55.775-1.02 1.065-.47.29-1.04.435-1.71.435zm.285-1.2c.31 0 .6-.04.87-.12.28-.09.525-.215.735-.375.21-.17.375-.375.495-.615s.18-.52.18-.84v-.54h-2.355c-.49 0-.875.1-1.155.3-.28.19-.42.495-.42.915 0 .37.13.675.39.915.27.24.69.36 1.26.36zm5.931-6.9h1.32v3.33h1.05l2.97-3.33h1.56l-3.45 3.81 3.6 4.14h-1.68l-3-3.48h-1.05V87h-1.32v-7.95zm11.635 8.1c-.51 0-.995-.08-1.455-.24a3.359 3.359 0 0 1-1.215-.735c-.35-.34-.63-.765-.84-1.275-.21-.51-.315-1.11-.315-1.8v-.3c0-.66.1-1.23.3-1.71.2-.49.465-.895.795-1.215.34-.33.73-.575 1.17-.735.45-.16.92-.24 1.41-.24 1.17 0 2.075.32 2.715.96.64.64.96 1.545.96 2.715v.84h-6.03c0 .47.075.865.225 1.185a2.225 2.225 0 0 0 1.38 1.215c.3.09.6.135.9.135.6 0 1.06-.1 1.38-.3.33-.2.565-.475.705-.825h1.29c-.08.38-.225.715-.435 1.005-.2.29-.45.535-.75.735-.29.19-.625.335-1.005.435-.37.1-.765.15-1.185.15zm-.075-7.05c-.31 0-.61.045-.9.135a2.075 2.075 0 0 0-1.32 1.095c-.14.28-.21.615-.21 1.005h4.785c-.01-.41-.08-.755-.21-1.035-.12-.29-.285-.52-.495-.69-.21-.18-.46-.31-.75-.39-.28-.08-.58-.12-.9-.12zm7.145.12h-2.715v-1.17h6.75v1.17h-2.715V87h-1.32v-6.78zM70 87.15c-.51 0-.985-.08-1.425-.24-.44-.17-.82-.42-1.14-.75a3.736 3.736 0 0 1-.765-1.275c-.18-.51-.27-1.105-.27-1.785v-.3c0-.64.1-1.205.3-1.695.2-.49.465-.895.795-1.215.33-.33.71-.575 1.14-.735.44-.17.895-.255 1.365-.255s.89.065 1.26.195c.38.13.705.31.975.54.28.23.505.5.675.81.18.31.31.645.39 1.005h-1.35a2.931 2.931 0 0 0-.285-.525c-.1-.17-.23-.315-.39-.435-.15-.12-.33-.215-.54-.285A2.327 2.327 0 0 0 70 80.1c-.29 0-.57.055-.84.165-.27.1-.51.26-.72.48-.21.21-.38.485-.51.825-.12.34-.18.75-.18 1.23v.3c0 .51.06.95.18 1.32.13.36.3.655.51.885.21.22.45.385.72.495.27.1.55.15.84.15.49 0 .9-.12 1.23-.36.34-.24.58-.57.72-.99h1.35c-.19.79-.58 1.415-1.17 1.875-.59.45-1.3.675-2.13.675zm6.913-6.93h-2.715v-1.17h6.75v1.17h-2.715V87h-1.32v-6.78zm5.539-1.17h1.23v1.5c.27-.53.645-.935 1.125-1.215.49-.29 1.055-.435 1.695-.435 1 0 1.8.33 2.4.99.6.65.9 1.62.9 2.91v.3c0 .68-.08 1.275-.24 1.785-.16.5-.385.92-.675 1.26-.29.33-.64.58-1.05.75-.4.17-.845.255-1.335.255-.68 0-1.25-.15-1.71-.45-.45-.3-.79-.675-1.02-1.125V90h-1.32V79.05zm3.75 6.93c.32 0 .62-.06.9-.18.28-.13.52-.315.72-.555.21-.24.37-.54.48-.9.12-.36.18-.775.18-1.245v-.3c0-.43-.06-.815-.18-1.155-.11-.34-.27-.625-.48-.855-.2-.24-.44-.42-.72-.54a2.26 2.26 0 0 0-.9-.18c-.36 0-.69.06-.99.18-.3.11-.555.27-.765.48-.21.2-.375.44-.495.72-.12.28-.18.58-.18.9v1.2c0 .36.06.69.18.99.12.3.285.555.495.765.21.21.465.375.765.495s.63.18.99.18zm7.743 1.17c-.44 0-.83-.06-1.17-.18-.33-.13-.61-.305-.84-.525-.23-.22-.404-.48-.525-.78-.12-.3-.18-.63-.18-.99 0-.79.23-1.36.69-1.71.47-.35 1.14-.525 2.01-.525h2.58v-.54c0-.68-.154-1.15-.465-1.41-.3-.26-.755-.39-1.365-.39-.57 0-.985.11-1.245.33-.26.21-.404.45-.434.72h-1.32c.02-.32.105-.615.255-.885.16-.28.37-.52.63-.72.27-.2.59-.355.96-.465.37-.12.78-.18 1.23-.18.94 0 1.684.225 2.234.675.56.44.84 1.165.84 2.175v4.335c.01.31.035.615.076.915H96.75c-.03-.23-.05-.445-.06-.645-.01-.21-.014-.445-.014-.705-.21.42-.55.775-1.02 1.065-.47.29-1.04.435-1.71.435zm.286-1.2c.31 0 .6-.04.87-.12.28-.09.525-.215.734-.375.21-.17.376-.375.496-.615s.18-.52.18-.84v-.54h-2.355c-.49 0-.876.1-1.156.3-.28.19-.42.495-.42.915 0 .37.13.675.39.915.27.24.69.36 1.26.36zm8.091-2.985-2.835-3.915h1.53l2.1 2.895 2.1-2.895h1.47l-2.835 3.84 2.985 4.11h-1.56l-2.22-3.105-2.22 3.105h-1.5l2.985-4.035zm9.094 4.185c-.51 0-.995-.08-1.455-.24a3.54 3.54 0 0 1-1.215-.75c-.35-.34-.63-.765-.84-1.275-.21-.51-.315-1.105-.315-1.785v-.3c0-.64.105-1.205.315-1.695a3.47 3.47 0 0 1 2.055-1.95c.46-.17.945-.255 1.455-.255.51 0 .995.085 1.455.255a3.47 3.47 0 0 1 2.055 1.95c.21.49.315 1.055.315 1.695v.3c0 .68-.105 1.275-.315 1.785-.21.51-.49.935-.84 1.275-.35.33-.755.58-1.215.75-.46.16-.945.24-1.455.24zm0-1.2c.3 0 .6-.05.9-.15.3-.11.565-.275.795-.495.23-.23.415-.525.555-.885.15-.36.225-.8.225-1.32v-.3c0-.48-.075-.89-.225-1.23-.14-.34-.325-.62-.555-.84-.23-.22-.495-.38-.795-.48-.3-.1-.6-.15-.9-.15-.3 0-.6.05-.9.15-.3.1-.565.26-.795.48-.23.22-.42.5-.57.84-.14.34-.21.75-.21 1.23v.3c0 .52.07.96.21 1.32.15.36.34.655.57.885.23.22.495.385.795.495.3.1.6.15.9.15zm5.694-6.9h3.45c.98 0 1.7.205 2.16.615.46.4.69.92.69 1.56 0 .17-.03.345-.09.525-.06.17-.145.33-.255.48-.1.15-.225.28-.375.39-.14.11-.3.195-.48.255.49.12.86.35 1.11.69.26.33.39.72.39 1.17 0 .69-.23 1.24-.69 1.65-.46.41-1.18.615-2.16.615h-3.75v-7.95zm3.75 6.78c.56 0 .955-.1 1.185-.3.23-.2.345-.485.345-.855 0-.38-.115-.67-.345-.87-.23-.21-.625-.315-1.185-.315h-2.43v2.34h2.43zm-.3-3.42c.57 0 .965-.1 1.185-.3.23-.2.345-.475.345-.825 0-.33-.115-.59-.345-.78-.22-.19-.615-.285-1.185-.285h-2.13v2.19h2.13zm5.032-3.36h1.32v3h1.605c1 0 1.735.22 2.205.66.48.44.72 1.05.72 1.83 0 .76-.24 1.36-.72 1.8-.47.44-1.205.66-2.205.66h-2.925v-7.95zm2.85 6.78c.62 0 1.055-.11 1.305-.33.25-.22.375-.545.375-.975 0-.43-.125-.755-.375-.975-.25-.22-.685-.33-1.305-.33h-1.53v2.61h1.53zm4.23-6.78h1.32V87h-1.32v-7.95zm5.876 3.915-2.835-3.915h1.53l2.1 2.895 2.1-2.895h1.47l-2.835 3.84 2.985 4.11h-1.56l-2.22-3.105L137.062 87h-1.499l2.985-4.035zM21.015 98.22H18.3v-1.17h6.75v1.17h-2.715V105h-1.32v-6.78zm7.51 6.93c-.44 0-.83-.06-1.17-.18-.33-.13-.61-.305-.84-.525-.23-.22-.405-.48-.524-.78-.12-.3-.18-.63-.18-.99 0-.79.23-1.36.69-1.71.47-.35 1.14-.525 2.01-.525h2.58v-.54c0-.68-.155-1.15-.466-1.41-.3-.26-.755-.39-1.364-.39-.57 0-.985.11-1.245.33-.26.21-.405.45-.435.72h-1.32c.02-.32.105-.615.255-.885.16-.28.37-.52.63-.72.27-.2.59-.355.96-.465.37-.12.78-.18 1.23-.18.94 0 1.684.225 2.235.675.56.44.84 1.165.84 2.175v4.335c.01.31.035.615.075.915H31.33c-.03-.23-.05-.445-.06-.645-.01-.21-.015-.445-.015-.705-.21.42-.55.775-1.02 1.065-.47.29-1.04.435-1.71.435zm.286-1.2c.31 0 .6-.04.87-.12.28-.09.524-.215.735-.375.21-.17.375-.375.494-.615.12-.24.18-.52.18-.84v-.54h-2.355c-.49 0-.875.1-1.154.3-.28.19-.42.495-.42.915 0 .37.13.675.39.915.27.24.69.36 1.26.36zm5.931-6.9h1.23v1.5c.27-.53.645-.935 1.125-1.215.49-.29 1.055-.435 1.695-.435 1 0 1.8.33 2.4.99.6.65.9 1.62.9 2.91v.3c0 .68-.08 1.275-.24 1.785-.16.5-.385.92-.675 1.26-.29.33-.64.58-1.05.75-.4.17-.845.255-1.335.255-.68 0-1.25-.15-1.71-.45-.45-.3-.79-.675-1.02-1.125V108h-1.32V97.05zm3.75 6.93c.32 0 .62-.06.9-.18.28-.13.52-.315.72-.555.21-.24.37-.54.48-.9.12-.36.18-.775.18-1.245v-.3c0-.43-.06-.815-.18-1.155-.11-.34-.27-.625-.48-.855-.2-.24-.44-.42-.72-.54a2.26 2.26 0 0 0-.9-.18c-.36 0-.69.06-.99.18-.3.11-.555.27-.765.48-.21.2-.375.44-.495.72-.12.28-.18.58-.18.9v1.2c0 .36.06.69.18.99.12.3.285.555.495.765.21.21.465.375.765.495s.63.18.99.18zm5.479-6.93h1.32v6l4.11-6h1.32V105H49.4v-6l-4.11 6h-1.32v-7.95zm12.845 8.1c-1.38 0-2.43-.35-3.15-1.05-.71-.7-1.065-1.695-1.065-2.985v-.3c0-1.23.355-2.19 1.065-2.88.72-.69 1.77-1.035 3.15-1.035v-2.4h1.32v2.4c1.38 0 2.425.345 3.135 1.035.72.69 1.08 1.65 1.08 2.88v.3c0 1.29-.36 2.285-1.08 2.985-.71.7-1.755 1.05-3.135 1.05V108h-1.32v-2.85zM61 100.815c0-.91-.235-1.59-.705-2.04-.46-.45-1.185-.675-2.175-.675v5.85c.99 0 1.715-.23 2.175-.69.47-.46.705-1.175.705-2.145v-.3zm-7.05.3c0 .97.23 1.685.69 2.145.47.46 1.2.69 2.19.69V98.1c-.99 0-1.72.225-2.19.675-.46.45-.69 1.13-.69 2.04v.3zm13.578 4.035c-.51 0-.995-.08-1.455-.24a3.54 3.54 0 0 1-1.215-.75c-.35-.34-.63-.765-.84-1.275-.21-.51-.315-1.105-.315-1.785v-.3c0-.64.105-1.205.315-1.695a3.47 3.47 0 0 1 2.055-1.95c.46-.17.945-.255 1.455-.255.51 0 .995.085 1.455.255a3.47 3.47 0 0 1 2.055 1.95c.21.49.315 1.055.315 1.695v.3c0 .68-.105 1.275-.315 1.785-.21.51-.49.935-.84 1.275-.35.33-.755.58-1.215.75-.46.16-.945.24-1.455.24zm0-1.2c.3 0 .6-.05.9-.15.3-.11.565-.275.795-.495.23-.23.415-.525.555-.885.15-.36.225-.8.225-1.32v-.3c0-.48-.075-.89-.225-1.23-.14-.34-.325-.62-.555-.84-.23-.22-.495-.38-.795-.48-.3-.1-.6-.15-.9-.15-.3 0-.6.05-.9.15-.3.1-.565.26-.795.48-.23.22-.42.5-.57.84-.14.34-.21.75-.21 1.23v.3c0 .52.07.96.21 1.32.15.36.34.655.57.885.23.22.495.385.795.495.3.1.6.15.9.15zm5.694-6.9h3.45c.98 0 1.7.205 2.16.615.46.4.69.92.69 1.56 0 .17-.03.345-.09.525-.06.17-.145.33-.255.48-.1.15-.225.28-.375.39-.14.11-.3.195-.48.255.49.12.86.35 1.11.69.26.33.39.72.39 1.17 0 .69-.23 1.24-.69 1.65-.46.41-1.18.615-2.16.615h-3.75v-7.95zm3.75 6.78c.56 0 .955-.1 1.185-.3.23-.2.345-.485.345-.855 0-.38-.115-.67-.345-.87-.23-.21-.625-.315-1.185-.315h-2.43v2.34h2.43zm-.3-3.42c.57 0 .965-.1 1.185-.3.23-.2.345-.475.345-.825 0-.33-.115-.59-.345-.78-.22-.19-.615-.285-1.185-.285h-2.13v2.19h2.13zm8.182-.225h9.75v1.23h-9.75v-1.23zm19.747 2.28h-5.34v-1.08l5.19-6.885h1.56v6.735h1.35v1.23h-1.35V105h-1.41v-2.535zm0-1.23V96.15l-3.84 5.085h3.84zm8.465-4.185h3.45c.98 0 1.7.205 2.16.615.46.4.69.92.69 1.56 0 .17-.03.345-.09.525-.06.17-.145.33-.255.48-.1.15-.225.28-.375.39-.14.11-.3.195-.48.255.49.12.86.35 1.11.69.26.33.39.72.39 1.17 0 .69-.23 1.24-.69 1.65-.46.41-1.18.615-2.16.615h-3.75v-7.95zm3.75 6.78c.56 0 .955-.1 1.185-.3.23-.2.345-.485.345-.855 0-.38-.115-.67-.345-.87-.23-.21-.625-.315-1.185-.315h-2.43v2.34h2.43zm-.3-3.42c.57 0 .965-.1 1.185-.3.23-.2.345-.475.345-.825 0-.33-.115-.59-.345-.78-.22-.19-.615-.285-1.185-.285h-2.13v2.19h2.13zm7.297 4.74c-.44 0-.83-.06-1.17-.18-.33-.13-.61-.305-.84-.525-.23-.22-.405-.48-.525-.78-.12-.3-.18-.63-.18-.99 0-.79.23-1.36.69-1.71.47-.35 1.14-.525 2.01-.525h2.58v-.54c0-.68-.155-1.15-.465-1.41-.3-.26-.755-.39-1.365-.39-.57 0-.985.11-1.245.33-.26.21-.405.45-.435.72h-1.32c.02-.32.105-.615.255-.885.16-.28.37-.52.63-.72.27-.2.59-.355.96-.465.37-.12.78-.18 1.23-.18.94 0 1.685.225 2.235.675.56.44.84 1.165.84 2.175v4.335c.01.31.035.615.075.915h-1.155c-.03-.23-.05-.445-.06-.645-.01-.21-.015-.445-.015-.705-.21.42-.55.775-1.02 1.065-.47.29-1.04.435-1.71.435zm.285-1.2c.31 0 .6-.04.87-.12.28-.09.525-.215.735-.375.21-.17.375-.375.495-.615s.18-.52.18-.84v-.54h-2.355c-.49 0-.875.1-1.155.3-.28.19-.42.495-.42.915 0 .37.13.675.39.915.27.24.69.36 1.26.36zm5.931-6.9h1.23v1.5c.27-.53.645-.935 1.125-1.215.49-.29 1.055-.435 1.695-.435 1 0 1.8.33 2.4.99.6.65.9 1.62.9 2.91v.3c0 .68-.08 1.275-.24 1.785-.16.5-.385.92-.675 1.26-.29.33-.64.58-1.05.75-.4.17-.845.255-1.335.255-.68 0-1.25-.15-1.71-.45-.45-.3-.79-.675-1.02-1.125V108h-1.32V97.05zm3.75 6.93c.32 0 .62-.06.9-.18.28-.13.52-.315.72-.555.21-.24.37-.54.48-.9.12-.36.18-.775.18-1.245v-.3c0-.43-.06-.815-.18-1.155-.11-.34-.27-.625-.48-.855-.2-.24-.44-.42-.72-.54a2.26 2.26 0 0 0-.9-.18c-.36 0-.69.06-.99.18-.3.11-.555.27-.765.48-.21.2-.375.44-.495.72-.12.28-.18.58-.18.9v1.2c0 .36.06.69.18.99.12.3.285.555.495.765.21.21.465.375.765.495s.63.18.99.18zm5.479-6.93h1.32v6l4.11-6h1.32V105h-1.32v-6l-4.11 6h-1.32v-7.95zm11.42 8.1c-.44 0-.83-.06-1.17-.18-.33-.13-.61-.305-.84-.525-.23-.22-.405-.48-.525-.78-.12-.3-.18-.63-.18-.99 0-.79.23-1.36.69-1.71.47-.35 1.14-.525 2.01-.525h2.58v-.54c0-.68-.155-1.15-.465-1.41-.3-.26-.755-.39-1.365-.39-.57 0-.985.11-1.245.33-.26.21-.405.45-.435.72h-1.32c.02-.32.105-.615.255-.885.16-.28.37-.52.63-.72.27-.2.59-.355.96-.465.37-.12.78-.18 1.23-.18.94 0 1.685.225 2.235.675.56.44.84 1.165.84 2.175v4.335c.01.31.035.615.075.915h-1.155c-.03-.23-.05-.445-.06-.645-.01-.21-.015-.445-.015-.705-.21.42-.55.775-1.02 1.065-.47.29-1.04.435-1.71.435zm.285-1.2c.31 0 .6-.04.87-.12.28-.09.525-.215.735-.375.21-.17.375-.375.495-.615s.18-.52.18-.84v-.54h-2.355c-.49 0-.875.1-1.155.3-.28.19-.42.495-.42.915 0 .37.13.675.39.915.27.24.69.36 1.26.36zm5.931-6.9h1.32v3.315h4.11V97.05h1.32V105h-1.32v-3.465h-4.11V105h-1.32v-7.95zm10.971 1.17h-2.715v-1.17h6.75v1.17h-2.715V105h-1.32v-6.78zm7.51 6.93c-.44 0-.83-.06-1.17-.18-.33-.13-.61-.305-.84-.525-.23-.22-.405-.48-.525-.78-.12-.3-.18-.63-.18-.99 0-.79.23-1.36.69-1.71.47-.35 1.14-.525 2.01-.525h2.58v-.54c0-.68-.155-1.15-.465-1.41-.3-.26-.755-.39-1.365-.39-.57 0-.985.11-1.245.33-.26.21-.405.45-.435.72h-1.32c.02-.32.105-.615.255-.885.16-.28.37-.52.63-.72.27-.2.59-.355.96-.465.37-.12.78-.18 1.23-.18.94 0 1.685.225 2.235.675.56.44.84 1.165.84 2.175v4.335c.01.31.035.615.075.915h-1.155c-.03-.23-.05-.445-.06-.645-.01-.21-.015-.445-.015-.705-.21.42-.55.775-1.02 1.065-.47.29-1.04.435-1.71.435zm.285-1.2c.31 0 .6-.04.87-.12.28-.09.525-.215.735-.375.21-.17.375-.375.495-.615s.18-.52.18-.84v-.54h-2.355c-.49 0-.875.1-1.155.3-.28.19-.42.495-.42.915 0 .37.13.675.39.915.27.24.69.36 1.26.36z" fill="#000"></path>
  <circle cx="5" cy="142" r="5" fill="#145FF5"></circle>
  <path d="M23.55 147.15c-.6 0-1.18-.1-1.74-.3a4.13 4.13 0 0 1-1.485-.96c-.43-.43-.775-.98-1.035-1.65-.26-.67-.39-1.475-.39-2.415v-.3c0-.9.13-1.675.39-2.325.26-.65.605-1.185 1.035-1.605.43-.43.925-.745 1.485-.945.56-.2 1.14-.3 1.74-.3.6 0 1.18.1 1.74.3.56.2 1.055.515 1.485.945.43.42.775.955 1.035 1.605.26.65.39 1.425.39 2.325v.3c0 .94-.13 1.745-.39 2.415-.26.67-.605 1.22-1.035 1.65-.43.43-.925.75-1.485.96-.56.2-1.14.3-1.74.3zm0-1.26c.41 0 .805-.075 1.185-.225.38-.15.715-.385 1.005-.705.29-.33.52-.75.69-1.26.18-.52.27-1.145.27-1.875v-.3c0-.69-.09-1.28-.27-1.77-.17-.5-.4-.905-.69-1.215a2.667 2.667 0 0 0-1.005-.705 3.199 3.199 0 0 0-1.185-.225c-.41 0-.805.075-1.185.225-.38.15-.715.385-1.005.705-.29.31-.525.715-.705 1.215-.17.49-.255 1.08-.255 1.77v.3c0 .73.085 1.355.255 1.875.18.51.415.93.705 1.26.29.32.625.555 1.005.705.38.15.775.225 1.185.225zm8.568-5.67h-2.715v-1.17h6.75v1.17h-2.715V147h-1.32v-6.78zm5.539-1.17h3.45c.98 0 1.7.205 2.16.615.46.4.69.92.69 1.56 0 .17-.03.345-.09.525-.06.17-.145.33-.255.48-.1.15-.225.28-.375.39-.14.11-.3.195-.48.255.49.12.86.35 1.11.69.26.33.39.72.39 1.17 0 .69-.23 1.24-.69 1.65-.46.41-1.18.615-2.16.615h-3.75v-7.95zm3.75 6.78c.56 0 .955-.1 1.185-.3.23-.2.345-.485.345-.855 0-.38-.115-.67-.345-.87-.23-.21-.625-.315-1.185-.315h-2.43v2.34h2.43zm-.3-3.42c.57 0 .965-.1 1.185-.3.23-.2.345-.475.345-.825 0-.33-.115-.59-.345-.78-.22-.19-.615-.285-1.185-.285h-2.13v2.19h2.13zm8.331 4.74c-.51 0-.995-.08-1.455-.24a3.359 3.359 0 0 1-1.214-.735c-.35-.34-.63-.765-.84-1.275-.21-.51-.316-1.11-.316-1.8v-.3c0-.66.1-1.23.3-1.71.2-.49.466-.895.796-1.215.34-.33.73-.575 1.17-.735.45-.16.92-.24 1.41-.24 1.17 0 2.075.32 2.715.96.64.64.96 1.545.96 2.715v.84h-6.03c0 .47.075.865.224 1.185a2.225 2.225 0 0 0 1.38 1.215c.3.09.6.135.9.135.6 0 1.06-.1 1.38-.3.33-.2.566-.475.706-.825h1.29c-.08.38-.225.715-.435 1.005-.2.29-.45.535-.75.735-.29.19-.625.335-1.005.435-.37.1-.766.15-1.186.15zm-.075-7.05c-.31 0-.61.045-.9.135a2.075 2.075 0 0 0-1.32 1.095c-.14.28-.21.615-.21 1.005h4.785c-.01-.41-.08-.755-.21-1.035-.12-.29-.285-.52-.495-.69-.21-.18-.46-.31-.75-.39-.28-.08-.58-.12-.9-.12zm7.145.12h-2.715v-1.17h6.75v1.17h-2.715V147h-1.32v-6.78zm8.467 6.93c-.51 0-.985-.08-1.425-.24-.44-.17-.82-.42-1.14-.75a3.736 3.736 0 0 1-.765-1.275c-.18-.51-.27-1.105-.27-1.785v-.3c0-.64.1-1.205.3-1.695.2-.49.465-.895.795-1.215.33-.33.71-.575 1.14-.735.44-.17.895-.255 1.365-.255s.89.065 1.26.195c.38.13.705.31.975.54.28.23.505.5.675.81.18.31.31.645.39 1.005h-1.35a2.931 2.931 0 0 0-.285-.525c-.1-.17-.23-.315-.39-.435-.15-.12-.33-.215-.54-.285a2.327 2.327 0 0 0-.735-.105c-.29 0-.57.055-.84.165-.27.1-.51.26-.72.48-.21.21-.38.485-.51.825-.12.34-.18.75-.18 1.23v.3c0 .51.06.95.18 1.32.13.36.3.655.51.885.21.22.45.385.72.495.27.1.55.15.84.15.49 0 .9-.12 1.23-.36.34-.24.58-.57.72-.99h1.35c-.19.79-.58 1.415-1.17 1.875-.59.45-1.3.675-2.13.675zm6.914-6.93h-2.715v-1.17h6.75v1.17h-2.715V147h-1.32v-6.78zm5.538-1.17h3.45c.98 0 1.7.205 2.16.615.46.4.69.92.69 1.56 0 .17-.03.345-.09.525-.06.17-.144.33-.255.48-.1.15-.225.28-.375.39-.14.11-.3.195-.48.255.49.12.86.35 1.11.69.26.33.39.72.39 1.17 0 .69-.23 1.24-.69 1.65-.46.41-1.18.615-2.16.615h-3.75v-7.95zm3.75 6.78c.56 0 .955-.1 1.185-.3.23-.2.346-.485.346-.855 0-.38-.115-.67-.346-.87-.23-.21-.624-.315-1.184-.315h-2.43v2.34h2.43zm-.3-3.42c.57 0 .966-.1 1.186-.3.23-.2.344-.475.344-.825 0-.33-.114-.59-.344-.78-.22-.19-.615-.285-1.186-.285h-2.13v2.19h2.13zm8.332 4.74c-.51 0-.995-.08-1.455-.24a3.359 3.359 0 0 1-1.215-.735c-.35-.34-.63-.765-.84-1.275-.21-.51-.315-1.11-.315-1.8v-.3c0-.66.1-1.23.3-1.71.2-.49.465-.895.795-1.215.34-.33.73-.575 1.17-.735.45-.16.92-.24 1.41-.24 1.17 0 2.075.32 2.715.96.64.64.96 1.545.96 2.715v.84h-6.03c0 .47.075.865.225 1.185a2.225 2.225 0 0 0 1.38 1.215c.3.09.6.135.9.135.6 0 1.06-.1 1.38-.3.33-.2.565-.475.705-.825h1.29c-.08.38-.225.715-.435 1.005-.2.29-.45.535-.75.735-.29.19-.625.335-1.005.435-.37.1-.765.15-1.185.15zm-.075-7.05c-.31 0-.61.045-.9.135a2.075 2.075 0 0 0-1.32 1.095c-.14.28-.21.615-.21 1.005h4.785c-.01-.41-.08-.755-.21-1.035-.12-.29-.285-.52-.495-.69-.21-.18-.46-.31-.75-.39-.28-.08-.58-.12-.9-.12zm5.476-1.05h1.32v3.315h4.11v-3.315h1.32V147h-1.32v-3.465h-4.11V147h-1.32v-7.95zm9.155 0h1.32v3.315h4.11v-3.315h1.32V147h-1.32v-3.465h-4.11V147h-1.32v-7.95zm12.456 8.1c-.51 0-.995-.08-1.455-.24a3.54 3.54 0 0 1-1.215-.75c-.35-.34-.63-.765-.84-1.275-.21-.51-.315-1.105-.315-1.785v-.3c0-.64.105-1.205.315-1.695a3.47 3.47 0 0 1 2.055-1.95c.46-.17.945-.255 1.455-.255.51 0 .995.085 1.455.255a3.47 3.47 0 0 1 2.055 1.95c.21.49.315 1.055.315 1.695v.3c0 .68-.105 1.275-.315 1.785-.21.51-.49.935-.84 1.275-.35.33-.755.58-1.215.75-.46.16-.945.24-1.455.24zm0-1.2c.3 0 .6-.05.9-.15.3-.11.565-.275.795-.495.23-.23.415-.525.555-.885.15-.36.225-.8.225-1.32v-.3c0-.48-.075-.89-.225-1.23-.14-.34-.325-.62-.555-.84-.23-.22-.495-.38-.795-.48-.3-.1-.6-.15-.9-.15-.3 0-.6.05-.9.15-.3.1-.565.26-.795.48-.23.22-.42.5-.57.84-.14.34-.21.75-.21 1.23v.3c0 .52.07.96.21 1.32.15.36.34.655.57.885.23.22.495.385.795.495.3.1.6.15.9.15zm8.769 1.2c-.51 0-.985-.08-1.425-.24-.44-.17-.82-.42-1.14-.75a3.736 3.736 0 0 1-.765-1.275c-.18-.51-.27-1.105-.27-1.785v-.3c0-.64.1-1.205.3-1.695.2-.49.465-.895.795-1.215.33-.33.71-.575 1.14-.735.44-.17.895-.255 1.365-.255s.89.065 1.26.195c.38.13.705.31.975.54.28.23.505.5.675.81.18.31.31.645.39 1.005h-1.35a2.931 2.931 0 0 0-.285-.525c-.1-.17-.23-.315-.39-.435-.15-.12-.33-.215-.54-.285a2.327 2.327 0 0 0-.735-.105c-.29 0-.57.055-.84.165-.27.1-.51.26-.72.48-.21.21-.38.485-.51.825-.12.34-.18.75-.18 1.23v.3c0 .51.06.95.18 1.32.13.36.3.655.51.885.21.22.45.385.72.495.27.1.55.15.84.15.49 0 .9-.12 1.23-.36.34-.24.58-.57.72-.99h1.35c-.19.79-.58 1.415-1.17 1.875-.59.45-1.3.675-2.13.675zm6.914-6.93h-2.715v-1.17h6.75v1.17h-2.715V147h-1.32v-6.78zm5.538-1.17h1.32v3h1.905c1 0 1.735.22 2.205.66.48.44.72 1.05.72 1.83 0 .76-.24 1.36-.72 1.8-.47.44-1.205.66-2.205.66h-3.225v-7.95zm3.15 6.78c.62 0 1.055-.11 1.305-.33.25-.22.375-.545.375-.975 0-.43-.125-.755-.375-.975-.25-.22-.685-.33-1.305-.33h-1.83v2.61h1.83zm11.181 1.32c-1 0-1.785-.21-2.355-.63-.57-.42-.885-1.01-.945-1.77h1.32c.07.39.275.69.615.9.35.2.805.3 1.365.3.69 0 1.19-.115 1.5-.345.32-.24.48-.525.48-.855 0-.39-.13-.695-.39-.915-.26-.23-.71-.345-1.35-.345h-1.365v-1.08h1.275c.55 0 .94-.105 1.17-.315.24-.21.36-.505.36-.885 0-.3-.14-.56-.42-.78-.28-.22-.7-.33-1.26-.33-.61 0-1.055.1-1.335.3-.27.19-.435.465-.495.825h-1.32c.03-.33.12-.635.27-.915.16-.29.375-.54.645-.75.27-.21.59-.37.96-.48.38-.12.805-.18 1.275-.18.51 0 .95.06 1.32.18.38.11.695.27.945.48.25.2.435.44.555.72.12.28.18.59.18.93 0 .38-.095.715-.285 1.005-.19.28-.495.5-.915.66.56.15.95.39 1.17.72.22.33.33.715.33 1.155 0 .33-.07.64-.21.93-.14.29-.35.545-.63.765-.27.21-.615.38-1.035.51-.41.13-.885.195-1.425.195zm7.446 0c-.44 0-.83-.06-1.17-.18-.33-.13-.61-.305-.84-.525-.23-.22-.405-.48-.525-.78-.12-.3-.18-.63-.18-.99 0-.79.23-1.36.69-1.71.47-.35 1.14-.525 2.01-.525h2.58v-.54c0-.68-.155-1.15-.465-1.41-.3-.26-.755-.39-1.365-.39-.57 0-.985.11-1.245.33-.26.21-.405.45-.435.72h-1.32c.02-.32.105-.615.255-.885.16-.28.37-.52.63-.72.27-.2.59-.355.96-.465.37-.12.78-.18 1.23-.18.94 0 1.685.225 2.235.675.56.44.84 1.165.84 2.175v4.335c.01.31.035.615.075.915h-1.155c-.03-.23-.05-.445-.06-.645-.01-.21-.015-.445-.015-.705-.21.42-.55.775-1.02 1.065-.47.29-1.04.435-1.71.435zm.285-1.2c.31 0 .6-.04.87-.12.28-.09.525-.215.735-.375.21-.17.375-.375.495-.615s.18-.52.18-.84v-.54h-2.355c-.49 0-.875.1-1.155.3-.28.19-.42.495-.42.915 0 .37.13.675.39.915.27.24.69.36 1.26.36zm12.756 1.2c-.51 0-.985-.08-1.425-.24-.44-.17-.82-.42-1.14-.75a3.736 3.736 0 0 1-.765-1.275c-.18-.51-.27-1.105-.27-1.785v-.3c0-.64.1-1.205.3-1.695.2-.49.465-.895.795-1.215.33-.33.71-.575 1.14-.735.44-.17.895-.255 1.365-.255s.89.065 1.26.195c.38.13.705.31.975.54.28.23.505.5.675.81.18.31.31.645.39 1.005h-1.35a2.931 2.931 0 0 0-.285-.525c-.1-.17-.23-.315-.39-.435-.15-.12-.33-.215-.54-.285a2.327 2.327 0 0 0-.735-.105c-.29 0-.57.055-.84.165-.27.1-.51.26-.72.48-.21.21-.38.485-.51.825-.12.34-.18.75-.18 1.23v.3c0 .51.06.95.18 1.32.13.36.3.655.51.885.21.22.45.385.72.495.27.1.55.15.84.15.49 0 .9-.12 1.23-.36.34-.24.58-.57.72-.99h1.35c-.19.79-.58 1.415-1.17 1.875-.59.45-1.3.675-2.13.675zm5.099-8.1h1.23v1.5c.27-.53.645-.935 1.125-1.215.49-.29 1.055-.435 1.695-.435 1 0 1.8.33 2.4.99.6.65.9 1.62.9 2.91v.3c0 .68-.08 1.275-.24 1.785-.16.5-.385.92-.675 1.26-.29.33-.64.58-1.05.75-.4.17-.845.255-1.335.255-.68 0-1.25-.15-1.71-.45-.45-.3-.79-.675-1.02-1.125V150h-1.32v-10.95zm3.75 6.93c.32 0 .62-.06.9-.18.28-.13.52-.315.72-.555.21-.24.37-.54.48-.9.12-.36.18-.775.18-1.245v-.3c0-.43-.06-.815-.18-1.155-.11-.34-.27-.625-.48-.855-.2-.24-.44-.42-.72-.54a2.26 2.26 0 0 0-.9-.18c-.36 0-.69.06-.99.18-.3.11-.555.27-.765.48-.21.2-.375.44-.495.72-.12.28-.18.58-.18.9v1.2c0 .36.06.69.18.99.12.3.285.555.495.765.21.21.465.375.765.495s.63.18.99.18zm8.779 1.17c-.51 0-.995-.08-1.455-.24a3.54 3.54 0 0 1-1.215-.75c-.35-.34-.63-.765-.84-1.275-.21-.51-.315-1.105-.315-1.785v-.3c0-.64.105-1.205.315-1.695a3.47 3.47 0 0 1 2.055-1.95c.46-.17.945-.255 1.455-.255.51 0 .995.085 1.455.255a3.47 3.47 0 0 1 2.055 1.95c.21.49.315 1.055.315 1.695v.3c0 .68-.105 1.275-.315 1.785-.21.51-.49.935-.84 1.275-.35.33-.755.58-1.215.75-.46.16-.945.24-1.455.24zm0-1.2c.3 0 .6-.05.9-.15.3-.11.565-.275.795-.495.23-.23.415-.525.555-.885.15-.36.225-.8.225-1.32v-.3c0-.48-.075-.89-.225-1.23-.14-.34-.325-.62-.555-.84-.23-.22-.495-.38-.795-.48-.3-.1-.6-.15-.9-.15-.3 0-.6.05-.9.15-.3.1-.565.26-.795.48-.23.22-.42.5-.57.84-.14.34-.21.75-.21 1.23v.3c0 .52.07.96.21 1.32.15.36.34.655.57.885.23.22.495.385.795.495.3.1.6.15.9.15zm5.694-6.9h1.32v3.33h1.05l2.97-3.33h1.56l-3.45 3.81 3.6 4.14h-1.68l-3-3.48h-1.05V147h-1.32v-7.95zm8.628 0h1.32v6l4.11-6h1.32V147h-1.32v-6l-4.11 6h-1.32v-7.95zm12.005 6.78h.975c.11-.15.21-.38.3-.69.09-.31.17-.675.24-1.095.07-.42.12-.875.15-1.365.04-.5.06-1.01.06-1.53v-2.1h5.55v6.78h1.125v3.045h-1.26V147h-5.88v1.875h-1.26v-3.045zm5.955 0v-5.61h-2.94v1.23c0 .42-.015.84-.045 1.26-.03.41-.075.805-.135 1.185-.06.37-.135.725-.225 1.065-.08.33-.175.62-.285.87h3.63zm7.327 1.32c-.51 0-.995-.08-1.455-.24a3.54 3.54 0 0 1-1.215-.75c-.35-.34-.63-.765-.84-1.275-.21-.51-.315-1.105-.315-1.785v-.3c0-.64.105-1.205.315-1.695a3.47 3.47 0 0 1 2.055-1.95c.46-.17.945-.255 1.455-.255.51 0 .995.085 1.455.255a3.47 3.47 0 0 1 2.055 1.95c.21.49.315 1.055.315 1.695v.3c0 .68-.105 1.275-.315 1.785-.21.51-.49.935-.84 1.275-.35.33-.755.58-1.215.75-.46.16-.945.24-1.455.24zm0-1.2c.3 0 .6-.05.9-.15.3-.11.565-.275.795-.495.23-.23.415-.525.555-.885.15-.36.225-.8.225-1.32v-.3c0-.48-.075-.89-.225-1.23-.14-.34-.325-.62-.555-.84-.23-.22-.495-.38-.795-.48-.3-.1-.6-.15-.9-.15-.3 0-.6.05-.9.15-.3.1-.565.26-.795.48-.23.22-.42.5-.57.84-.14.34-.21.75-.21 1.23v.3c0 .52.07.96.21 1.32.15.36.34.655.57.885.23.22.495.385.795.495.3.1.6.15.9.15zm8.769 1.2c-.51 0-.985-.08-1.425-.24-.44-.17-.82-.42-1.14-.75a3.736 3.736 0 0 1-.765-1.275c-.18-.51-.27-1.105-.27-1.785v-.3c0-.64.1-1.205.3-1.695.2-.49.465-.895.795-1.215.33-.33.71-.575 1.14-.735.44-.17.895-.255 1.365-.255s.89.065 1.26.195c.38.13.705.31.975.54.28.23.505.5.675.81.18.31.31.645.39 1.005h-1.35a2.931 2.931 0 0 0-.285-.525c-.1-.17-.23-.315-.39-.435-.15-.12-.33-.215-.54-.285a2.327 2.327 0 0 0-.735-.105c-.29 0-.57.055-.84.165-.27.1-.51.26-.72.48-.21.21-.38.485-.51.825-.12.34-.18.75-.18 1.23v.3c0 .51.06.95.18 1.32.13.36.3.655.51.885.21.22.45.385.72.495.27.1.55.15.84.15.49 0 .9-.12 1.23-.36.34-.24.58-.57.72-.99h1.35c-.19.79-.58 1.415-1.17 1.875-.59.45-1.3.675-2.13.675zm6.914-6.93h-2.715v-1.17h6.75v1.17H246.5V147h-1.32v-6.78zm7.511 6.93c-.44 0-.83-.06-1.17-.18-.33-.13-.61-.305-.84-.525-.23-.22-.405-.48-.525-.78-.12-.3-.18-.63-.18-.99 0-.79.23-1.36.69-1.71.47-.35 1.14-.525 2.01-.525h2.58v-.54c0-.68-.155-1.15-.465-1.41-.3-.26-.755-.39-1.365-.39-.57 0-.985.11-1.245.33-.26.21-.405.45-.435.72h-1.32c.02-.32.105-.615.255-.885.16-.28.37-.52.63-.72.27-.2.59-.355.96-.465.37-.12.78-.18 1.23-.18.94 0 1.685.225 2.235.675.56.44.84 1.165.84 2.175v4.335c.01.31.035.615.075.915h-1.155c-.03-.23-.05-.445-.06-.645-.01-.21-.015-.445-.015-.705-.21.42-.55.775-1.02 1.065-.47.29-1.04.435-1.71.435zm.285-1.2c.31 0 .6-.04.87-.12.28-.09.525-.215.735-.375.21-.17.375-.375.495-.615s.18-.52.18-.84v-.54h-2.355c-.49 0-.875.1-1.155.3-.28.19-.42.495-.42.915 0 .37.13.675.39.915.27.24.69.36 1.26.36zm5.931-6.9h3.45c.98 0 1.7.205 2.16.615.46.4.69.92.69 1.56 0 .17-.03.345-.09.525-.06.17-.145.33-.255.48-.1.15-.225.28-.375.39-.14.11-.3.195-.48.255.49.12.86.35 1.11.69.26.33.39.72.39 1.17 0 .69-.23 1.24-.69 1.65-.46.41-1.18.615-2.16.615h-3.75v-7.95zm3.75 6.78c.56 0 .955-.1 1.185-.3.23-.2.345-.485.345-.855 0-.38-.115-.67-.345-.87-.23-.21-.625-.315-1.185-.315h-2.43v2.34h2.43zm-.3-3.42c.57 0 .965-.1 1.185-.3.23-.2.345-.475.345-.825 0-.33-.115-.59-.345-.78-.22-.19-.615-.285-1.185-.285h-2.13v2.19h2.13zm5.031-3.36h1.32v3.33h1.05l2.97-3.33h1.56l-3.45 3.81 3.6 4.14h-1.68l-3-3.48h-1.05V147h-1.32v-7.95zm8.628 0h1.32v6l4.11-6h1.32V147h-1.32v-6l-4.11 6h-1.32v-7.95zm-256.816 18h6.6V165h-1.32v-6.78h-3.96V165H19.2v-7.95zm12.294 8.1c-.51 0-.995-.08-1.455-.24a3.54 3.54 0 0 1-1.215-.75c-.35-.34-.63-.765-.84-1.275-.21-.51-.315-1.105-.315-1.785v-.3c0-.64.105-1.205.315-1.695a3.47 3.47 0 0 1 2.055-1.95c.46-.17.945-.255 1.455-.255.51 0 .995.085 1.455.255a3.47 3.47 0 0 1 2.055 1.95c.21.49.315 1.055.315 1.695v.3c0 .68-.105 1.275-.315 1.785-.21.51-.49.935-.84 1.275-.35.33-.755.58-1.215.75-.46.16-.945.24-1.455.24zm0-1.2c.3 0 .6-.05.9-.15.3-.11.565-.275.795-.495.23-.23.415-.525.555-.885.15-.36.225-.8.225-1.32v-.3c0-.48-.075-.89-.225-1.23-.14-.34-.325-.62-.555-.84-.23-.22-.495-.38-.795-.48-.3-.1-.6-.15-.9-.15-.3 0-.6.05-.9.15-.3.1-.565.26-.795.48-.23.22-.42.5-.57.84-.14.34-.21.75-.21 1.23v.3c0 .52.07.96.21 1.32.15.36.34.655.57.885.23.22.495.385.795.495.3.1.6.15.9.15zm9.444-6.9h1.32v6l4.11-6h1.32V165h-1.32v-6l-4.11 6h-1.32v-7.95zm9.156 0h1.32v3.315h4.11v-3.315h1.32V165h-1.32v-3.465h-4.11V165h-1.32v-7.95zm8.255 6.78h.975c.11-.15.21-.38.3-.69.09-.31.17-.675.24-1.095.07-.42.12-.875.15-1.365.04-.5.06-1.01.06-1.53v-2.1h5.55v6.78h1.125v3.045h-1.26V165h-5.88v1.875h-1.26v-3.045zm5.955 0v-5.61h-2.94v1.23c0 .42-.015.84-.045 1.26-.03.41-.075.805-.135 1.185-.06.37-.135.725-.225 1.065-.08.33-.175.62-.285.87h3.63zm4.027-6.78h1.32v6l4.11-6h1.32V165h-1.32v-6l-4.11 6h-1.32v-7.95zm9.155 0h3.45c.98 0 1.7.205 2.16.615.46.4.69.92.69 1.56 0 .17-.03.345-.09.525-.06.17-.145.33-.255.48-.1.15-.225.28-.375.39-.14.11-.3.195-.48.255.49.12.86.35 1.11.69.26.33.39.72.39 1.17 0 .69-.23 1.24-.69 1.65-.46.41-1.18.615-2.16.615h-3.75v-7.95zm3.75 6.78c.56 0 .955-.1 1.185-.3.23-.2.345-.485.345-.855 0-.38-.115-.67-.345-.87-.23-.21-.625-.315-1.185-.315h-2.43v2.34h2.43zm-.3-3.42c.57 0 .965-.1 1.185-.3.23-.2.345-.475.345-.825 0-.33-.115-.59-.345-.78-.22-.19-.615-.285-1.185-.285h-2.13v2.19h2.13zm5.032-3.36h1.32v6l4.11-6h1.32V165h-1.32v-6l-4.11 6h-1.32v-7.95zm8.255 6.78h.975c.11-.15.21-.38.3-.69.09-.31.17-.675.24-1.095.07-.42.12-.875.15-1.365.04-.5.06-1.01.06-1.53v-2.1h5.55v6.78h1.125v3.045h-1.26V165h-5.88v1.875h-1.26v-3.045zm5.955 0v-5.61h-2.94v1.23c0 .42-.015.84-.045 1.26-.03.41-.075.805-.135 1.185-.06.37-.135.725-.225 1.065-.08.33-.175.62-.285.87h3.63zm4.93 4.32c-.15 0-.3-.015-.45-.045v-1.2c.15.03.3.045.45.045.15 0 .28-.025.39-.075a.826.826 0 0 0 .315-.285c.1-.14.205-.34.315-.6.12-.25.255-.58.405-.99l-3.375-7.95h1.47l2.58 6.45 2.34-6.45h1.41l-3 7.95c-.21.56-.41 1.04-.6 1.44a4.2 4.2 0 0 1-.615.975c-.21.26-.445.445-.705.555-.26.12-.57.18-.93.18zm9.155-3c-.44 0-.83-.06-1.17-.18-.33-.13-.61-.305-.84-.525-.23-.22-.405-.48-.525-.78-.12-.3-.18-.63-.18-.99 0-.79.23-1.36.69-1.71.47-.35 1.14-.525 2.01-.525h2.58v-.54c0-.68-.155-1.15-.465-1.41-.3-.26-.755-.39-1.365-.39-.57 0-.985.11-1.245.33-.26.21-.405.45-.435.72h-1.32c.02-.32.105-.615.255-.885.16-.28.37-.52.63-.72.27-.2.59-.355.96-.465.37-.12.78-.18 1.23-.18.94 0 1.685.225 2.235.675.56.44.84 1.165.84 2.175v4.335c.01.31.035.615.075.915h-1.155c-.03-.23-.05-.445-.06-.645-.01-.21-.015-.445-.015-.705-.21.42-.55.775-1.02 1.065-.47.29-1.04.435-1.71.435zm.285-1.2c.31 0 .6-.04.87-.12.28-.09.525-.215.735-.375.21-.17.375-.375.495-.615s.18-.52.18-.84v-.54h-2.355c-.49 0-.875.1-1.155.3-.28.19-.42.495-.42.915 0 .37.13.675.39.915.27.24.69.36 1.26.36zm5.556 1.2c-.15 0-.3-.015-.45-.045v-1.32c.05.01.125.015.225.015.22 0 .41-.07.57-.21.17-.14.305-.385.405-.735.1-.35.175-.825.225-1.425.05-.6.075-1.36.075-2.28v-2.1h5.7V165h-1.32v-6.78h-3.06v1.23c0 1.11-.05 2.03-.15 2.76-.1.73-.25 1.315-.45 1.755-.19.43-.435.735-.735.915-.3.18-.645.27-1.035.27zm9.15-8.1h1.32v3h1.905c1 0 1.735.22 2.205.66.48.44.72 1.05.72 1.83 0 .76-.24 1.36-.72 1.8-.47.44-1.205.66-2.205.66h-3.225v-7.95zm3.15 6.78c.62 0 1.055-.11 1.305-.33.25-.22.375-.545.375-.975 0-.43-.125-.755-.375-.975-.25-.22-.685-.33-1.305-.33h-1.83v2.61h1.83zm4.731-6.78h1.32v3.315h4.11v-3.315h1.32V165h-1.32v-3.465h-4.11V165h-1.32v-7.95zm12.455 8.1c-.51 0-.995-.08-1.455-.24a3.54 3.54 0 0 1-1.215-.75c-.35-.34-.63-.765-.84-1.275-.21-.51-.315-1.105-.315-1.785v-.3c0-.64.105-1.205.315-1.695a3.47 3.47 0 0 1 2.055-1.95c.46-.17.945-.255 1.455-.255.51 0 .995.085 1.455.255a3.47 3.47 0 0 1 2.055 1.95c.21.49.315 1.055.315 1.695v.3c0 .68-.105 1.275-.315 1.785-.21.51-.49.935-.84 1.275-.35.33-.755.58-1.215.75-.46.16-.945.24-1.455.24zm0-1.2c.3 0 .6-.05.9-.15.3-.11.565-.275.795-.495.23-.23.415-.525.555-.885.15-.36.225-.8.225-1.32v-.3c0-.48-.075-.89-.225-1.23-.14-.34-.325-.62-.555-.84-.23-.22-.495-.38-.795-.48-.3-.1-.6-.15-.9-.15-.3 0-.6.05-.9.15-.3.1-.565.26-.795.48-.23.22-.42.5-.57.84-.14.34-.21.75-.21 1.23v.3c0 .52.07.96.21 1.32.15.36.34.655.57.885.23.22.495.385.795.495.3.1.6.15.9.15zm5.694-6.9h1.41l2.835 4.95 2.835-4.95h1.32V165h-1.32v-5.775l-2.355 4.05h-1.05l-2.355-4.05V165h-1.32v-7.95zm11.846 11.1c-.15 0-.3-.015-.45-.045v-1.2c.15.03.3.045.45.045.15 0 .28-.025.39-.075a.826.826 0 0 0 .315-.285c.1-.14.205-.34.315-.6.12-.25.255-.58.405-.99l-3.375-7.95h1.47l2.58 6.45 2.34-6.45h1.41l-3 7.95c-.21.56-.41 1.04-.6 1.44a4.2 4.2 0 0 1-.615.975c-.21.26-.445.445-.705.555-.26.12-.57.18-.93.18zm14.168-3c-.51 0-.985-.08-1.425-.24-.44-.17-.82-.42-1.14-.75a3.736 3.736 0 0 1-.765-1.275c-.18-.51-.27-1.105-.27-1.785v-.3c0-.64.1-1.205.3-1.695.2-.49.465-.895.795-1.215.33-.33.71-.575 1.14-.735.44-.17.895-.255 1.365-.255s.89.065 1.26.195c.38.13.705.31.975.54.28.23.505.5.675.81.18.31.31.645.39 1.005h-1.35a2.931 2.931 0 0 0-.285-.525c-.1-.17-.23-.315-.39-.435-.15-.12-.33-.215-.54-.285a2.327 2.327 0 0 0-.735-.105c-.29 0-.57.055-.84.165-.27.1-.51.26-.72.48-.21.21-.38.485-.51.825-.12.34-.18.75-.18 1.23v.3c0 .51.06.95.18 1.32.13.36.3.655.51.885.21.22.45.385.72.495.27.1.55.15.84.15.49 0 .9-.12 1.23-.36.34-.24.58-.57.72-.99h1.35c-.19.79-.58 1.415-1.17 1.875-.59.45-1.3.675-2.13.675zm8.399 0c-.51 0-.995-.08-1.455-.24a3.54 3.54 0 0 1-1.215-.75c-.35-.34-.63-.765-.84-1.275-.21-.51-.315-1.105-.315-1.785v-.3c0-.64.105-1.205.315-1.695a3.47 3.47 0 0 1 2.055-1.95c.46-.17.945-.255 1.455-.255.51 0 .995.085 1.455.255a3.47 3.47 0 0 1 2.055 1.95c.21.49.315 1.055.315 1.695v.3c0 .68-.105 1.275-.315 1.785-.21.51-.49.935-.84 1.275-.35.33-.755.58-1.215.75-.46.16-.945.24-1.455.24zm0-1.2c.3 0 .6-.05.9-.15.3-.11.565-.275.795-.495.23-.23.415-.525.555-.885.15-.36.225-.8.225-1.32v-.3c0-.48-.075-.89-.225-1.23-.14-.34-.325-.62-.555-.84-.23-.22-.495-.38-.795-.48-.3-.1-.6-.15-.9-.15-.3 0-.6.05-.9.15-.3.1-.565.26-.795.48-.23.22-.42.5-.57.84-.14.34-.21.75-.21 1.23v.3c0 .52.07.96.21 1.32.15.36.34.655.57.885.23.22.495.385.795.495.3.1.6.15.9.15zm5.694-6.9h5.4v1.17h-4.08V165h-1.32v-7.95zm5.924 8.1c-.15 0-.3-.015-.45-.045v-1.32c.05.01.125.015.225.015.22 0 .41-.07.57-.21.17-.14.305-.385.405-.735.1-.35.175-.825.225-1.425.05-.6.075-1.36.075-2.28v-2.1h5.7V165h-1.32v-6.78h-3.06v1.23c0 1.11-.05 2.03-.15 2.76-.1.73-.25 1.315-.45 1.755-.19.43-.435.735-.735.915-.3.18-.645.27-1.035.27zm11.415 0c-.44 0-.83-.06-1.17-.18-.33-.13-.61-.305-.84-.525-.23-.22-.405-.48-.525-.78-.12-.3-.18-.63-.18-.99 0-.79.23-1.36.69-1.71.47-.35 1.14-.525 2.01-.525h2.58v-.54c0-.68-.155-1.15-.465-1.41-.3-.26-.755-.39-1.365-.39-.57 0-.985.11-1.245.33-.26.21-.405.45-.435.72h-1.32c.02-.32.105-.615.255-.885.16-.28.37-.52.63-.72.27-.2.59-.355.96-.465.37-.12.78-.18 1.23-.18.94 0 1.685.225 2.235.675.56.44.84 1.165.84 2.175v4.335c.01.31.035.615.075.915h-1.155c-.03-.23-.05-.445-.06-.645-.01-.21-.015-.445-.015-.705-.21.42-.55.775-1.02 1.065-.47.29-1.04.435-1.71.435zm.285-1.2c.31 0 .6-.04.87-.12.28-.09.525-.215.735-.375.21-.17.375-.375.495-.615s.18-.52.18-.84v-.54h-2.355c-.49 0-.875.1-1.155.3-.28.19-.42.495-.42.915 0 .37.13.675.39.915.27.24.69.36 1.26.36zm9.006 1.2c-.51 0-.985-.08-1.425-.24-.44-.17-.82-.42-1.14-.75a3.736 3.736 0 0 1-.765-1.275c-.18-.51-.27-1.105-.27-1.785v-.3c0-.64.1-1.205.3-1.695.2-.49.465-.895.795-1.215.33-.33.71-.575 1.14-.735.44-.17.895-.255 1.365-.255s.89.065 1.26.195c.38.13.705.31.975.54.28.23.505.5.675.81.18.31.31.645.39 1.005h-1.35a2.931 2.931 0 0 0-.285-.525c-.1-.17-.23-.315-.39-.435-.15-.12-.33-.215-.54-.285a2.327 2.327 0 0 0-.735-.105c-.29 0-.57.055-.84.165-.27.1-.51.26-.72.48-.21.21-.38.485-.51.825-.12.34-.18.75-.18 1.23v.3c0 .51.06.95.18 1.32.13.36.3.655.51.885.21.22.45.385.72.495.27.1.55.15.84.15.49 0 .9-.12 1.23-.36.34-.24.58-.57.72-.99h1.35c-.19.79-.58 1.415-1.17 1.875-.59.45-1.3.675-2.13.675zm8.399 0c-.51 0-.995-.08-1.455-.24a3.54 3.54 0 0 1-1.215-.75c-.35-.34-.63-.765-.84-1.275-.21-.51-.315-1.105-.315-1.785v-.3c0-.64.105-1.205.315-1.695a3.47 3.47 0 0 1 2.055-1.95c.46-.17.945-.255 1.455-.255.51 0 .995.085 1.455.255a3.47 3.47 0 0 1 2.055 1.95c.21.49.315 1.055.315 1.695v.3c0 .68-.105 1.275-.315 1.785-.21.51-.49.935-.84 1.275-.35.33-.755.58-1.215.75-.46.16-.945.24-1.455.24zm0-1.2c.3 0 .6-.05.9-.15.3-.11.565-.275.795-.495.23-.23.415-.525.555-.885.15-.36.225-.8.225-1.32v-.3c0-.48-.075-.89-.225-1.23-.14-.34-.325-.62-.555-.84-.23-.22-.495-.38-.795-.48-.3-.1-.6-.15-.9-.15-.3 0-.6.05-.9.15-.3.1-.565.26-.795.48-.23.22-.42.5-.57.84-.14.34-.21.75-.21 1.23v.3c0 .52.07.96.21 1.32.15.36.34.655.57.885.23.22.495.385.795.495.3.1.6.15.9.15zm5.694-6.9h3.45c.98 0 1.7.205 2.16.615.46.4.69.92.69 1.56 0 .17-.03.345-.09.525-.06.17-.145.33-.255.48-.1.15-.225.28-.375.39-.14.11-.3.195-.48.255.49.12.86.35 1.11.69.26.33.39.72.39 1.17 0 .69-.23 1.24-.69 1.65-.46.41-1.18.615-2.16.615h-3.75v-7.95zm3.75 6.78c.56 0 .955-.1 1.185-.3.23-.2.345-.485.345-.855 0-.38-.115-.67-.345-.87-.23-.21-.625-.315-1.185-.315h-2.43v2.34h2.43zm-.3-3.42c.57 0 .965-.1 1.185-.3.23-.2.345-.475.345-.825 0-.33-.115-.59-.345-.78-.22-.19-.615-.285-1.185-.285h-2.13v2.19h2.13zm7.297 4.74c-.44 0-.83-.06-1.17-.18-.33-.13-.61-.305-.84-.525-.23-.22-.405-.48-.525-.78-.12-.3-.18-.63-.18-.99 0-.79.23-1.36.69-1.71.47-.35 1.14-.525 2.01-.525h2.58v-.54c0-.68-.155-1.15-.465-1.41-.3-.26-.755-.39-1.365-.39-.57 0-.985.11-1.245.33-.26.21-.405.45-.435.72h-1.32c.02-.32.105-.615.255-.885.16-.28.37-.52.63-.72.27-.2.59-.355.96-.465.37-.12.78-.18 1.23-.18.94 0 1.685.225 2.235.675.56.44.84 1.165.84 2.175v4.335c.01.31.035.615.075.915h-1.155c-.03-.23-.05-.445-.06-.645-.01-.21-.015-.445-.015-.705-.21.42-.55.775-1.02 1.065-.47.29-1.04.435-1.71.435zm.285-1.2c.31 0 .6-.04.87-.12.28-.09.525-.215.735-.375.21-.17.375-.375.495-.615s.18-.52.18-.84v-.54h-2.355c-.49 0-.875.1-1.155.3-.28.19-.42.495-.42.915 0 .37.13.675.39.915.27.24.69.36 1.26.36zm5.931-6.9h1.32v3.315h4.11v-3.315h1.32V165h-1.32v-3.465h-4.11V165h-1.32v-7.95zm9.155 0h1.32v6l4.11-6h1.32V165h-1.32v-6l-4.11 6h-1.32v-7.95zm9.156 0h1.32v3.315h1.125c.04-.57.165-1.07.375-1.5.21-.44.475-.805.795-1.095.33-.29.705-.505 1.125-.645a3.94 3.94 0 0 1 1.335-.225c.51 0 .985.085 1.425.255.45.16.84.405 1.17.735.33.32.59.725.78 1.215.2.49.3 1.055.3 1.695v.3c0 .68-.1 1.275-.3 1.785-.19.51-.45.935-.78 1.275-.33.33-.72.58-1.17.75-.44.16-.915.24-1.425.24-.47 0-.92-.07-1.35-.21a3.313 3.313 0 0 1-1.125-.675c-.32-.3-.585-.675-.795-1.125-.2-.46-.32-.995-.36-1.605h-1.125V165h-1.32v-7.95zm6.075 6.9c.3 0 .59-.05.87-.15.28-.11.525-.275.735-.495.22-.23.395-.525.525-.885s.195-.8.195-1.32v-.3c0-.48-.065-.89-.195-1.23a2.36 2.36 0 0 0-.525-.84c-.21-.22-.455-.38-.735-.48-.28-.1-.57-.15-.87-.15-.3 0-.59.05-.87.15-.28.1-.53.26-.75.48-.21.22-.38.5-.51.84-.13.34-.195.75-.195 1.23v.3c0 .52.065.96.195 1.32.13.36.3.655.51.885.22.22.47.385.75.495.28.1.57.15.87.15z" fill="#000"></path>
  <circle cx="5" cy="202" r="5" fill="#145FF5"></circle>
  <path d="M19.5 196.5h8.25V207h-1.41v-9.27h-5.43V207H19.5v-10.5zm10.95 2.55h1.23v1.5c.27-.53.645-.935 1.125-1.215.49-.29 1.055-.435 1.695-.435 1 0 1.8.33 2.4.99.6.65.9 1.62.9 2.91v.3c0 .68-.08 1.275-.24 1.785-.16.5-.385.92-.675 1.26-.29.33-.64.58-1.05.75-.4.17-.845.255-1.335.255-.68 0-1.25-.15-1.71-.45-.45-.3-.79-.675-1.02-1.125V210h-1.32v-10.95zm3.75 6.93c.32 0 .62-.06.9-.18.28-.13.52-.315.72-.555.21-.24.37-.54.48-.9.12-.36.18-.775.18-1.245v-.3c0-.43-.06-.815-.18-1.155-.11-.34-.27-.625-.48-.855-.2-.24-.44-.42-.72-.54a2.26 2.26 0 0 0-.9-.18c-.36 0-.69.06-.99.18-.3.11-.555.27-.765.48-.21.2-.375.44-.495.72-.12.28-.18.58-.18.9v1.2c0 .36.06.69.18.99.12.3.285.555.495.765.21.21.465.375.765.495s.63.18.99.18zm8.778 1.17c-.51 0-.995-.08-1.455-.24a3.359 3.359 0 0 1-1.215-.735c-.35-.34-.63-.765-.84-1.275-.21-.51-.315-1.11-.315-1.8v-.3c0-.66.1-1.23.3-1.71.2-.49.465-.895.795-1.215.34-.33.73-.575 1.17-.735.45-.16.92-.24 1.41-.24 1.17 0 2.075.32 2.715.96.64.64.96 1.545.96 2.715v.84h-6.03c0 .47.075.865.226 1.185a2.225 2.225 0 0 0 1.38 1.215c.3.09.6.135.9.135.6 0 1.06-.1 1.38-.3.33-.2.564-.475.704-.825h1.29c-.08.38-.224.715-.434 1.005-.2.29-.45.535-.75.735-.29.19-.625.335-1.005.435-.37.1-.766.15-1.186.15zm-.075-7.05c-.31 0-.61.045-.9.135a2.075 2.075 0 0 0-1.32 1.095c-.14.28-.21.615-.21 1.005h4.785c-.01-.41-.08-.755-.21-1.035-.12-.29-.285-.52-.495-.69-.21-.18-.46-.31-.75-.39-.28-.08-.58-.12-.9-.12zm7.145.12h-2.715v-1.17h6.75v1.17h-2.715V207h-1.32v-6.78zm8.692 6.93c-.51 0-.995-.08-1.455-.24a3.359 3.359 0 0 1-1.215-.735c-.35-.34-.63-.765-.84-1.275-.21-.51-.315-1.11-.315-1.8v-.3c0-.66.1-1.23.3-1.71.2-.49.465-.895.795-1.215.34-.33.73-.575 1.17-.735.45-.16.92-.24 1.41-.24 1.17 0 2.075.32 2.715.96.64.64.96 1.545.96 2.715v.84h-6.03c0 .47.075.865.225 1.185a2.225 2.225 0 0 0 1.38 1.215c.3.09.6.135.9.135.6 0 1.06-.1 1.38-.3.33-.2.565-.475.705-.825h1.29c-.08.38-.225.715-.435 1.005-.2.29-.45.535-.75.735-.29.19-.625.335-1.005.435-.37.1-.765.15-1.185.15zm-.075-7.05c-.31 0-.61.045-.9.135a2.075 2.075 0 0 0-1.32 1.095c-.14.28-.21.615-.21 1.005h4.785c-.01-.41-.08-.755-.21-1.035-.12-.29-.285-.52-.495-.69-.21-.18-.46-.31-.75-.39-.28-.08-.58-.12-.9-.12zm5.476-1.05h1.32v3.315h4.11v-3.315h1.32V207h-1.32v-3.465h-4.11V207h-1.32v-7.95zm11.856 8.1c-1 0-1.785-.21-2.355-.63-.57-.42-.885-1.01-.945-1.77h1.32c.07.39.275.69.615.9.35.2.805.3 1.365.3.69 0 1.19-.115 1.5-.345.32-.24.48-.525.48-.855 0-.39-.13-.695-.39-.915-.26-.23-.71-.345-1.35-.345h-1.365v-1.08h1.275c.55 0 .94-.105 1.17-.315.24-.21.36-.505.36-.885 0-.3-.14-.56-.42-.78-.28-.22-.7-.33-1.26-.33-.61 0-1.055.1-1.335.3-.27.19-.435.465-.495.825h-1.32c.03-.33.12-.635.27-.915.16-.29.375-.54.645-.75.27-.21.59-.37.96-.48.38-.12.805-.18 1.275-.18.51 0 .95.06 1.32.18.38.11.695.27.945.48.25.2.435.44.555.72.12.28.18.59.18.93 0 .38-.095.715-.285 1.005-.19.28-.495.5-.915.66.56.15.95.39 1.17.72.22.33.33.715.33 1.155 0 .33-.07.64-.21.93-.14.29-.35.545-.63.765-.27.21-.615.38-1.035.51-.41.13-.885.195-1.425.195zm5.18-8.1h1.32v6l4.11-6h1.32V207h-1.32v-6l-4.11 6h-1.32v-7.95zm9.156 0h1.32v6l4.11-6h1.32V207h-1.32v-6l-4.11 6h-1.32v-7.95zm12.305 3.135h9.75v1.23h-9.75v-1.23zm17.122-1.965h-2.715v-1.17h6.75v1.17h-2.715V207h-1.32v-6.78zm8.692 6.93c-.51 0-.995-.08-1.455-.24a3.54 3.54 0 0 1-1.215-.75c-.35-.34-.63-.765-.84-1.275-.21-.51-.315-1.105-.315-1.785v-.3c0-.64.105-1.205.315-1.695a3.47 3.47 0 0 1 2.055-1.95c.46-.17.945-.255 1.455-.255.51 0 .995.085 1.455.255a3.47 3.47 0 0 1 2.055 1.95c.21.49.315 1.055.315 1.695v.3c0 .68-.105 1.275-.315 1.785-.21.51-.49.935-.84 1.275-.35.33-.755.58-1.215.75-.46.16-.945.24-1.455.24zm0-1.2c.3 0 .6-.05.9-.15.3-.11.565-.275.795-.495.23-.23.415-.525.555-.885.15-.36.225-.8.225-1.32v-.3c0-.48-.075-.89-.225-1.23-.14-.34-.325-.62-.555-.84-.23-.22-.495-.38-.795-.48-.3-.1-.6-.15-.9-.15-.3 0-.6.05-.9.15-.3.1-.565.26-.795.48-.23.22-.42.5-.57.84-.14.34-.21.75-.21 1.23v.3c0 .52.07.96.21 1.32.15.36.34.655.57.885.23.22.495.385.795.495.3.1.6.15.9.15zm5.173 1.2c-.15 0-.3-.015-.45-.045v-1.32c.05.01.125.015.225.015.22 0 .41-.07.57-.21.17-.14.305-.385.405-.735.1-.35.175-.825.225-1.425.05-.6.075-1.36.075-2.28v-2.1h5.7V207h-1.32v-6.78h-3.06v1.23c0 1.11-.05 2.03-.15 2.76-.1.73-.25 1.315-.45 1.755-.19.43-.435.735-.735.915-.3.18-.645.27-1.035.27zm9.149-8.1h1.32v3h1.905c1 0 1.735.22 2.205.66.48.44.72 1.05.72 1.83 0 .76-.24 1.36-.72 1.8-.47.44-1.205.66-2.205.66h-3.225v-7.95zm3.15 6.78c.62 0 1.055-.11 1.305-.33.25-.22.375-.545.375-.975 0-.43-.125-.755-.375-.975-.25-.22-.685-.33-1.305-.33h-1.83v2.61h1.83zm4.731-6.78h1.32v3.33h1.05l2.97-3.33h1.56l-3.45 3.81 3.6 4.14h-1.68l-3-3.48h-1.05V207h-1.32v-7.95zm11.635 8.1c-.51 0-.995-.08-1.455-.24a3.54 3.54 0 0 1-1.215-.75c-.35-.34-.63-.765-.84-1.275-.21-.51-.315-1.105-.315-1.785v-.3c0-.64.105-1.205.315-1.695a3.47 3.47 0 0 1 2.055-1.95c.46-.17.945-.255 1.455-.255.51 0 .995.085 1.455.255a3.47 3.47 0 0 1 2.055 1.95c.21.49.315 1.055.315 1.695v.3c0 .68-.105 1.275-.315 1.785-.21.51-.49.935-.84 1.275-.35.33-.755.58-1.215.75-.46.16-.945.24-1.455.24zm0-1.2c.3 0 .6-.05.9-.15.3-.11.565-.275.795-.495.23-.23.415-.525.555-.885.15-.36.225-.8.225-1.32v-.3c0-.48-.075-.89-.225-1.23-.14-.34-.325-.62-.555-.84-.23-.22-.495-.38-.795-.48-.3-.1-.6-.15-.9-.15-.3 0-.6.05-.9.15-.3.1-.565.26-.795.48-.23.22-.42.5-.57.84-.14.34-.21.75-.21 1.23v.3c0 .52.07.96.21 1.32.15.36.34.655.57.885.23.22.495.385.795.495.3.1.6.15.9.15zm9.444-6.9h1.32v3.33h1.05l2.97-3.33h1.56l-3.45 3.81 3.6 4.14h-1.68l-3-3.48h-1.05V207h-1.32v-7.95zm8.628 0h1.23v1.5c.27-.53.645-.935 1.125-1.215.49-.29 1.055-.435 1.695-.435 1 0 1.8.33 2.4.99.6.65.9 1.62.9 2.91v.3c0 .68-.08 1.275-.24 1.785-.16.5-.385.92-.675 1.26-.29.33-.64.58-1.05.75-.4.17-.845.255-1.335.255-.68 0-1.25-.15-1.71-.45-.45-.3-.79-.675-1.02-1.125V210h-1.32v-10.95zm3.75 6.93c.32 0 .62-.06.9-.18.28-.13.52-.315.72-.555.21-.24.37-.54.48-.9.12-.36.18-.775.18-1.245v-.3c0-.43-.06-.815-.18-1.155-.11-.34-.27-.625-.48-.855-.2-.24-.44-.42-.72-.54a2.26 2.26 0 0 0-.9-.18c-.36 0-.69.06-.99.18-.3.11-.555.27-.765.48-.21.2-.375.44-.495.72-.12.28-.18.58-.18.9v1.2c0 .36.06.69.18.99.12.3.285.555.495.765.21.21.465.375.765.495s.63.18.99.18zm7.744 1.17c-.44 0-.83-.06-1.17-.18-.33-.13-.61-.305-.84-.525-.23-.22-.405-.48-.525-.78-.12-.3-.18-.63-.18-.99 0-.79.23-1.36.69-1.71.47-.35 1.14-.525 2.01-.525h2.58v-.54c0-.68-.155-1.15-.465-1.41-.3-.26-.755-.39-1.365-.39-.57 0-.985.11-1.245.33-.26.21-.405.45-.435.72h-1.32c.02-.32.105-.615.255-.885.16-.28.37-.52.63-.72.27-.2.59-.355.96-.465.37-.12.78-.18 1.23-.18.94 0 1.685.225 2.235.675.56.44.84 1.165.84 2.175v4.335c.01.31.035.615.075.915h-1.155c-.03-.23-.05-.445-.06-.645-.01-.21-.015-.445-.015-.705-.21.42-.55.775-1.02 1.065-.47.29-1.04.435-1.71.435zm.285-1.2c.31 0 .6-.04.87-.12.28-.09.525-.215.735-.375.21-.17.375-.375.495-.615s.18-.52.18-.84v-.54h-2.355c-.49 0-.875.1-1.155.3-.28.19-.42.495-.42.915 0 .37.13.675.39.915.27.24.69.36 1.26.36zm8.106-3.045-2.85-3.855h1.47l2.43 3.33h.915v-3.33h1.32v3.33h.9l2.475-3.33h1.44l-2.85 3.81 3 4.14h-1.56l-2.505-3.48h-.9V207h-1.32v-3.48h-.915l-2.52 3.48h-1.53l3-4.095zm9.822-3.855h1.32v6l4.11-6h1.32V207h-1.32v-6l-4.11 6h-1.32v-7.95zm12.905 0h1.32v6l4.11-6h1.32V207h-1.32v-6l-4.11 6h-1.32v-7.95zm12.006 6.72h1.125c.19-.38.35-.85.48-1.41.13-.56.23-1.16.3-1.8.07-.65.12-1.315.15-1.995.03-.69.045-1.345.045-1.965v-2.1h6.825v9.27h1.275v3.18h-1.35V207h-7.5v1.95h-1.35v-3.18zm7.515 0v-8.04h-4.035v1.17c0 1.52-.07 2.835-.21 3.945-.13 1.11-.345 2.085-.645 2.925h4.89zm6.794-8.04h-3.645v-1.23h8.7v1.23h-3.645V207h-1.41v-9.27zm6.857-1.23h8.25V207h-1.41v-9.27h-5.43V207h-1.41v-10.5zm11.175 10.5v-1.65h1.65V207l-1.5 2.25h-.75l.6-2.25zM22.275 225.15c-.51 0-.985-.08-1.425-.24-.44-.17-.82-.42-1.14-.75a3.736 3.736 0 0 1-.765-1.275c-.18-.51-.27-1.105-.27-1.785v-.3c0-.64.1-1.205.3-1.695.2-.49.465-.895.795-1.215.33-.33.71-.575 1.14-.735.44-.17.895-.255 1.365-.255s.89.065 1.26.195c.38.13.705.31.975.54.28.23.505.5.675.81.18.31.31.645.39 1.005h-1.35a2.931 2.931 0 0 0-.285-.525c-.1-.17-.23-.315-.39-.435-.15-.12-.33-.215-.54-.285a2.327 2.327 0 0 0-.735-.105c-.29 0-.57.055-.84.165-.27.1-.51.26-.72.48-.21.21-.38.485-.51.825-.12.34-.18.75-.18 1.23v.3c0 .51.06.95.18 1.32.13.36.3.655.51.885.21.22.45.385.72.495.27.1.55.15.84.15.49 0 .9-.12 1.23-.36.34-.24.58-.57.72-.99h1.35c-.19.79-.58 1.415-1.17 1.875-.59.45-1.3.675-2.13.675zm8.849-8.1h6.6V225h-1.32v-6.78h-3.96V225h-1.32v-7.95zm8.994 0h1.23v1.5c.27-.53.645-.935 1.125-1.215.49-.29 1.055-.435 1.695-.435 1 0 1.8.33 2.4.99.6.65.9 1.62.9 2.91v.3c0 .68-.08 1.275-.24 1.785-.16.5-.385.92-.675 1.26-.29.33-.64.58-1.05.75-.4.17-.845.255-1.335.255-.68 0-1.25-.15-1.71-.45-.45-.3-.79-.675-1.02-1.125V228h-1.32v-10.95zm3.75 6.93c.32 0 .62-.06.9-.18.28-.13.52-.315.72-.555.21-.24.37-.54.48-.9.12-.36.18-.775.18-1.245v-.3c0-.43-.06-.815-.18-1.155-.11-.34-.27-.625-.48-.855-.2-.24-.44-.42-.72-.54a2.26 2.26 0 0 0-.9-.18c-.36 0-.69.06-.99.18-.3.11-.555.27-.765.48-.21.2-.375.44-.495.72-.12.28-.18.58-.18.9v1.2c0 .36.06.69.18.99.12.3.285.555.495.765.21.21.465.375.765.495s.63.18.99.18zm8.779 1.17c-.51 0-.995-.08-1.456-.24a3.359 3.359 0 0 1-1.215-.735c-.35-.34-.63-.765-.84-1.275-.21-.51-.315-1.11-.315-1.8v-.3c0-.66.1-1.23.3-1.71.2-.49.465-.895.795-1.215.34-.33.73-.575 1.17-.735.45-.16.92-.24 1.41-.24 1.17 0 2.075.32 2.715.96.64.64.96 1.545.96 2.715v.84h-6.03c0 .47.076.865.226 1.185a2.225 2.225 0 0 0 1.38 1.215c.3.09.6.135.9.135.6 0 1.06-.1 1.38-.3.33-.2.565-.475.704-.825h1.29c-.08.38-.224.715-.434 1.005-.2.29-.45.535-.75.735-.29.19-.626.335-1.006.435-.37.1-.765.15-1.184.15zm-.075-7.05c-.31 0-.61.045-.9.135a2.075 2.075 0 0 0-1.32 1.095c-.14.28-.21.615-.21 1.005h4.784c-.01-.41-.08-.755-.21-1.035-.12-.29-.285-.52-.495-.69-.21-.18-.46-.31-.75-.39-.28-.08-.58-.12-.9-.12zm4.43 5.73h.974c.11-.15.21-.38.3-.69.09-.31.17-.675.24-1.095.07-.42.12-.875.15-1.365.04-.5.06-1.01.06-1.53v-2.1h5.55v6.78h1.125v3.045h-1.26V225h-5.88v1.875h-1.26v-3.045zm5.954 0v-5.61h-2.94v1.23c0 .42-.015.84-.045 1.26-.03.41-.075.805-.135 1.185-.06.37-.135.725-.225 1.065-.08.33-.175.62-.285.87h3.63zm7.327 1.32c-.51 0-.995-.08-1.455-.24a3.54 3.54 0 0 1-1.215-.75c-.35-.34-.63-.765-.84-1.275-.21-.51-.315-1.105-.315-1.785v-.3c0-.64.105-1.205.315-1.695a3.47 3.47 0 0 1 2.055-1.95c.46-.17.945-.255 1.455-.255.51 0 .995.085 1.455.255a3.47 3.47 0 0 1 2.055 1.95c.21.49.315 1.055.315 1.695v.3c0 .68-.105 1.275-.315 1.785-.21.51-.49.935-.84 1.275-.35.33-.755.58-1.215.75-.46.16-.945.24-1.455.24zm0-1.2c.3 0 .6-.05.9-.15.3-.11.565-.275.795-.495.23-.23.415-.525.555-.885.15-.36.225-.8.225-1.32v-.3c0-.48-.075-.89-.225-1.23-.14-.34-.325-.62-.555-.84-.23-.22-.495-.38-.795-.48-.3-.1-.6-.15-.9-.15-.3 0-.6.05-.9.15-.3.1-.565.26-.795.48-.23.22-.42.5-.57.84-.14.34-.21.75-.21 1.23v.3c0 .52.07.96.21 1.32.15.36.34.655.57.885.23.22.495.385.795.495.3.1.6.15.9.15zm8.77 1.2c-.51 0-.986-.08-1.426-.24-.44-.17-.82-.42-1.14-.75a3.736 3.736 0 0 1-.765-1.275c-.18-.51-.27-1.105-.27-1.785v-.3c0-.64.1-1.205.3-1.695.2-.49.465-.895.795-1.215.33-.33.71-.575 1.14-.735.44-.17.895-.255 1.365-.255s.89.065 1.26.195c.38.13.705.31.975.54.28.23.505.5.675.81.18.31.31.645.39 1.005h-1.35a2.931 2.931 0 0 0-.285-.525c-.1-.17-.23-.315-.39-.435-.15-.12-.33-.215-.54-.285a2.327 2.327 0 0 0-.735-.105c-.29 0-.57.055-.84.165-.27.1-.51.26-.72.48-.21.21-.38.485-.51.825-.12.34-.18.75-.18 1.23v.3c0 .51.06.95.18 1.32.13.36.3.655.51.885.21.22.45.385.72.495.27.1.55.15.84.15.49 0 .9-.12 1.23-.36.34-.24.58-.57.72-.99h1.35c-.19.79-.58 1.415-1.17 1.875-.59.45-1.3.675-2.13.675zm6.913-6.93h-2.715v-1.17h6.75v1.17h-2.715V225h-1.32v-6.78zm7.51 6.93c-.44 0-.83-.06-1.17-.18-.33-.13-.61-.305-.84-.525-.23-.22-.404-.48-.524-.78-.12-.3-.18-.63-.18-.99 0-.79.23-1.36.69-1.71.47-.35 1.14-.525 2.01-.525h2.58v-.54c0-.68-.155-1.15-.465-1.41-.3-.26-.755-.39-1.365-.39-.57 0-.985.11-1.245.33-.26.21-.405.45-.435.72h-1.32c.02-.32.105-.615.255-.885.16-.28.37-.52.63-.72.27-.2.59-.355.96-.465.37-.12.78-.18 1.23-.18.94 0 1.685.225 2.235.675.56.44.84 1.165.84 2.175v4.335c.01.31.035.615.075.915h-1.155c-.03-.23-.05-.445-.06-.645-.01-.21-.015-.445-.015-.705-.21.42-.55.775-1.02 1.065-.47.29-1.04.435-1.71.435zm.286-1.2c.31 0 .6-.04.87-.12.28-.09.525-.215.735-.375.21-.17.375-.375.495-.615s.18-.52.18-.84v-.54h-2.355c-.49 0-.875.1-1.155.3-.28.19-.42.495-.42.915 0 .37.13.675.39.915.27.24.69.36 1.26.36zm5.931-6.9h3.45c.98 0 1.7.205 2.16.615.46.4.69.92.69 1.56 0 .17-.03.345-.09.525-.06.17-.145.33-.255.48-.1.15-.225.28-.375.39-.14.11-.3.195-.48.255.49.12.86.35 1.11.69.26.33.39.72.39 1.17 0 .69-.23 1.24-.69 1.65-.46.41-1.18.615-2.16.615h-3.75v-7.95zm3.75 6.78c.56 0 .955-.1 1.185-.3.23-.2.345-.485.345-.855 0-.38-.115-.67-.345-.87-.23-.21-.625-.315-1.185-.315h-2.43v2.34h2.43zm-.3-3.42c.57 0 .965-.1 1.185-.3.23-.2.345-.475.345-.825 0-.33-.115-.59-.345-.78-.22-.19-.615-.285-1.185-.285h-2.13v2.19h2.13zm4.657 4.74c-.15 0-.3-.015-.45-.045v-1.32c.05.01.125.015.225.015.22 0 .41-.07.57-.21.17-.14.305-.385.405-.735.1-.35.175-.825.225-1.425.05-.6.075-1.36.075-2.28v-2.1h5.7V225h-1.32v-6.78h-3.06v1.23c0 1.11-.05 2.03-.15 2.76-.1.73-.25 1.315-.45 1.755-.19.43-.435.735-.735.915-.3.18-.645.27-1.035.27zm12.449 0c-.51 0-.995-.08-1.455-.24a3.359 3.359 0 0 1-1.215-.735c-.35-.34-.63-.765-.84-1.275-.21-.51-.315-1.11-.315-1.8v-.3c0-.66.1-1.23.3-1.71.2-.49.465-.895.795-1.215.34-.33.73-.575 1.17-.735.45-.16.92-.24 1.41-.24 1.17 0 2.075.32 2.715.96.64.64.96 1.545.96 2.715v.84h-6.03c0 .47.075.865.225 1.185a2.225 2.225 0 0 0 1.38 1.215c.3.09.6.135.9.135.6 0 1.06-.1 1.38-.3.33-.2.565-.475.705-.825h1.29c-.08.38-.225.715-.435 1.005-.2.29-.45.535-.75.735-.29.19-.625.335-1.005.435-.37.1-.765.15-1.185.15zm-.075-7.05c-.31 0-.61.045-.9.135a2.075 2.075 0 0 0-1.32 1.095c-.14.28-.21.615-.21 1.005h4.785c-.01-.41-.08-.755-.21-1.035-.12-.29-.285-.52-.495-.69-.21-.18-.46-.31-.75-.39-.28-.08-.58-.12-.9-.12zm5.476-1.05h1.32v3.315h4.11v-3.315h1.32V225h-1.32v-3.465h-4.11V225h-1.32v-7.95zm9.155 0h1.32v6l4.11-6h1.32V225h-1.32v-6l-4.11 6h-1.32v-7.95zm12.456 8.1c-.51 0-.995-.08-1.455-.24a3.359 3.359 0 0 1-1.215-.735c-.35-.34-.63-.765-.84-1.275-.21-.51-.315-1.11-.315-1.8v-.3c0-.66.1-1.23.3-1.71.2-.49.465-.895.795-1.215.34-.33.73-.575 1.17-.735.45-.16.92-.24 1.41-.24 1.17 0 2.075.32 2.715.96.64.64.96 1.545.96 2.715v.84h-6.03c0 .47.075.865.225 1.185a2.225 2.225 0 0 0 1.38 1.215c.3.09.6.135.9.135.6 0 1.06-.1 1.38-.3.33-.2.565-.475.705-.825h1.29c-.08.38-.225.715-.435 1.005-.2.29-.45.535-.75.735-.29.19-.625.335-1.005.435-.37.1-.765.15-1.185.15zm-.075-7.05c-.31 0-.61.045-.9.135a2.075 2.075 0 0 0-1.32 1.095c-.14.28-.21.615-.21 1.005h4.785c-.01-.41-.08-.755-.21-1.035-.12-.29-.285-.52-.495-.69-.21-.18-.46-.31-.75-.39-.28-.08-.58-.12-.9-.12zm5.476-1.05h1.41l2.835 4.95 2.835-4.95h1.32V225h-1.32v-5.775l-2.355 4.05h-1.05l-2.355-4.05V225h-1.32v-7.95zm14.546 0h6.6V225h-1.32v-6.78h-3.96V225h-1.32v-7.95zm12.294 8.1c-.51 0-.995-.08-1.455-.24a3.54 3.54 0 0 1-1.215-.75c-.35-.34-.63-.765-.84-1.275-.21-.51-.315-1.105-.315-1.785v-.3c0-.64.105-1.205.315-1.695a3.47 3.47 0 0 1 2.055-1.95c.46-.17.945-.255 1.455-.255.51 0 .995.085 1.455.255a3.47 3.47 0 0 1 2.055 1.95c.21.49.315 1.055.315 1.695v.3c0 .68-.105 1.275-.315 1.785-.21.51-.49.935-.84 1.275-.35.33-.755.58-1.215.75-.46.16-.945.24-1.455.24zm0-1.2c.3 0 .6-.05.9-.15.3-.11.565-.275.795-.495.23-.23.415-.525.555-.885.15-.36.225-.8.225-1.32v-.3c0-.48-.075-.89-.225-1.23-.14-.34-.325-.62-.555-.84-.23-.22-.495-.38-.795-.48-.3-.1-.6-.15-.9-.15-.3 0-.6.05-.9.15-.3.1-.565.26-.795.48-.23.22-.42.5-.57.84-.14.34-.21.75-.21 1.23v.3c0 .52.07.96.21 1.32.15.36.34.655.57.885.23.22.495.385.795.495.3.1.6.15.9.15zm5.173 1.2c-.15 0-.3-.015-.45-.045v-1.32c.05.01.125.015.225.015.22 0 .41-.07.57-.21.17-.14.305-.385.405-.735.1-.35.175-.825.225-1.425.05-.6.075-1.36.075-2.28v-2.1h5.7V225h-1.32v-6.78h-3.06v1.23c0 1.11-.05 2.03-.15 2.76-.1.73-.25 1.315-.45 1.755-.19.43-.435.735-.735.915-.3.18-.645.27-1.035.27zm9.149-8.1h1.32v3.315h4.11v-3.315h1.32V225h-1.32v-3.465h-4.11V225h-1.32v-7.95zm12.455 8.1c-.51 0-.995-.08-1.455-.24a3.54 3.54 0 0 1-1.215-.75c-.35-.34-.63-.765-.84-1.275-.21-.51-.315-1.105-.315-1.785v-.3c0-.64.105-1.205.315-1.695a3.47 3.47 0 0 1 2.055-1.95c.46-.17.945-.255 1.455-.255.51 0 .995.085 1.455.255a3.47 3.47 0 0 1 2.055 1.95c.21.49.315 1.055.315 1.695v.3c0 .68-.105 1.275-.315 1.785-.21.51-.49.935-.84 1.275-.35.33-.755.58-1.215.75-.46.16-.945.24-1.455.24zm0-1.2c.3 0 .6-.05.9-.15.3-.11.565-.275.795-.495.23-.23.415-.525.555-.885.15-.36.225-.8.225-1.32v-.3c0-.48-.075-.89-.225-1.23-.14-.34-.325-.62-.555-.84-.23-.22-.495-.38-.795-.48-.3-.1-.6-.15-.9-.15-.3 0-.6.05-.9.15-.3.1-.565.26-.795.48-.23.22-.42.5-.57.84-.14.34-.21.75-.21 1.23v.3c0 .52.07.96.21 1.32.15.36.34.655.57.885.23.22.495.385.795.495.3.1.6.15.9.15zm5.694-6.9h5.4v1.17h-4.08V225h-1.32v-7.95zm10.053 8.1c-.51 0-.995-.08-1.455-.24a3.54 3.54 0 0 1-1.215-.75c-.35-.34-.63-.765-.84-1.275-.21-.51-.315-1.105-.315-1.785v-.3c0-.64.105-1.205.315-1.695a3.47 3.47 0 0 1 2.055-1.95c.46-.17.945-.255 1.455-.255.51 0 .995.085 1.455.255a3.47 3.47 0 0 1 2.055 1.95c.21.49.315 1.055.315 1.695v.3c0 .68-.105 1.275-.315 1.785-.21.51-.49.935-.84 1.275-.35.33-.755.58-1.215.75-.46.16-.945.24-1.455.24zm0-1.2c.3 0 .6-.05.9-.15.3-.11.565-.275.795-.495.23-.23.415-.525.555-.885.15-.36.225-.8.225-1.32v-.3c0-.48-.075-.89-.225-1.23-.14-.34-.325-.62-.555-.84-.23-.22-.495-.38-.795-.48-.3-.1-.6-.15-.9-.15-.3 0-.6.05-.9.15-.3.1-.565.26-.795.48-.23.22-.42.5-.57.84-.14.34-.21.75-.21 1.23v.3c0 .52.07.96.21 1.32.15.36.34.655.57.885.23.22.495.385.795.495.3.1.6.15.9.15zM19.2 235.05h6.6V243h-1.32v-6.78h-3.96V243H19.2v-7.95zm11.26 8.1c-.44 0-.83-.06-1.17-.18-.33-.13-.61-.305-.84-.525-.23-.22-.406-.48-.526-.78-.12-.3-.18-.63-.18-.99 0-.79.23-1.36.69-1.71.47-.35 1.14-.525 2.01-.525h2.58v-.54c0-.68-.155-1.15-.465-1.41-.3-.26-.755-.39-1.365-.39-.57 0-.985.11-1.245.33-.26.21-.405.45-.435.72h-1.32c.02-.32.105-.615.255-.885.16-.28.37-.52.63-.72.27-.2.59-.355.96-.465.37-.12.78-.18 1.23-.18.94 0 1.685.225 2.235.675.56.44.84 1.165.84 2.175v4.335c.01.31.035.615.075.915h-1.155c-.03-.23-.05-.445-.06-.645-.01-.21-.015-.445-.015-.705-.21.42-.55.775-1.02 1.065-.47.29-1.04.435-1.71.435zm.284-1.2c.31 0 .6-.04.87-.12.28-.09.525-.215.735-.375.21-.17.375-.375.495-.615s.18-.52.18-.84v-.54H30.67c-.49 0-.875.1-1.155.3-.28.19-.42.495-.42.915 0 .37.13.675.39.915.27.24.69.36 1.26.36zm5.932-6.9h1.32v3.33h1.05l2.97-3.33h1.56l-3.45 3.81 3.6 4.14h-1.68l-3-3.48h-1.05V243h-1.32v-7.95zm11.634 8.1c-.51 0-.995-.08-1.455-.24a3.359 3.359 0 0 1-1.214-.735c-.35-.34-.63-.765-.84-1.275-.21-.51-.316-1.11-.316-1.8v-.3c0-.66.1-1.23.3-1.71.2-.49.466-.895.796-1.215.34-.33.73-.575 1.17-.735.45-.16.92-.24 1.41-.24 1.17 0 2.075.32 2.715.96.64.64.96 1.545.96 2.715v.84h-6.03c0 .47.075.865.225 1.185a2.225 2.225 0 0 0 1.38 1.215c.3.09.6.135.9.135.6 0 1.06-.1 1.38-.3.33-.2.564-.475.704-.825h1.29c-.08.38-.224.715-.434 1.005-.2.29-.45.535-.75.735-.29.19-.625.335-1.005.435-.37.1-.766.15-1.186.15zm-.075-7.05c-.31 0-.61.045-.9.135a2.075 2.075 0 0 0-1.32 1.095c-.14.28-.21.615-.21 1.005h4.785c-.01-.41-.08-.755-.21-1.035-.12-.29-.285-.52-.495-.69-.21-.18-.46-.31-.75-.39-.28-.08-.58-.12-.9-.12zm7.145.12h-2.715v-1.17h6.75v1.17H56.7V243h-1.32v-6.78zm7.51 6.93c-.44 0-.83-.06-1.17-.18-.33-.13-.61-.305-.84-.525-.23-.22-.404-.48-.524-.78-.12-.3-.18-.63-.18-.99 0-.79.23-1.36.69-1.71.47-.35 1.14-.525 2.01-.525h2.58v-.54c0-.68-.155-1.15-.465-1.41-.3-.26-.755-.39-1.365-.39-.57 0-.985.11-1.245.33-.26.21-.405.45-.435.72h-1.32c.02-.32.105-.615.255-.885.16-.28.37-.52.63-.72.27-.2.59-.355.96-.465.37-.12.78-.18 1.23-.18.94 0 1.685.225 2.235.675.56.44.84 1.165.84 2.175v4.335c.01.31.035.615.075.915h-1.155c-.03-.23-.05-.445-.06-.645-.01-.21-.015-.445-.015-.705-.21.42-.55.775-1.02 1.065-.47.29-1.04.435-1.71.435zm.286-1.2c.31 0 .6-.04.87-.12.28-.09.525-.215.735-.375.21-.17.375-.375.495-.615s.18-.52.18-.84v-.54H63.1c-.49 0-.875.1-1.155.3-.28.19-.42.495-.42.915 0 .37.13.675.39.915.27.24.69.36 1.26.36zm8.781-.12h.975c.11-.15.21-.38.3-.69.09-.31.17-.675.24-1.095.07-.42.12-.875.15-1.365.04-.5.06-1.01.06-1.53v-2.1h5.55v6.78h1.125v3.045h-1.26V243h-5.88v1.875h-1.26v-3.045zm5.955 0v-5.61h-2.94v1.23c0 .42-.015.84-.045 1.26-.03.41-.075.805-.135 1.185-.06.37-.135.725-.225 1.065-.08.33-.175.62-.285.87h3.63zm7.327 1.32c-.51 0-.995-.08-1.455-.24a3.54 3.54 0 0 1-1.215-.75c-.35-.34-.63-.765-.84-1.275-.21-.51-.315-1.105-.315-1.785v-.3c0-.64.105-1.205.315-1.695a3.47 3.47 0 0 1 2.055-1.95c.46-.17.945-.255 1.455-.255.51 0 .995.085 1.455.255a3.47 3.47 0 0 1 2.055 1.95c.21.49.315 1.055.315 1.695v.3c0 .68-.105 1.275-.315 1.785-.21.51-.49.935-.84 1.275-.35.33-.755.58-1.215.75-.46.16-.945.24-1.455.24zm0-1.2c.3 0 .6-.05.9-.15.3-.11.565-.275.795-.495.23-.23.415-.525.555-.885.15-.36.225-.8.225-1.32v-.3c0-.48-.075-.89-.225-1.23-.14-.34-.325-.62-.555-.84-.23-.22-.495-.38-.795-.48-.3-.1-.6-.15-.9-.15-.3 0-.6.05-.9.15-.3.1-.565.26-.795.48-.23.22-.42.5-.57.84-.14.34-.21.75-.21 1.23v.3c0 .52.07.96.21 1.32.15.36.34.655.57.885.23.22.495.385.795.495.3.1.6.15.9.15zm5.694-6.9h1.32v3.33h1.05l2.97-3.33h1.56l-3.45 3.81 3.6 4.14h-1.68l-3-3.48h-1.05V243h-1.32v-7.95zm9.825 11.1c-.15 0-.3-.015-.45-.045v-1.2c.15.03.3.045.45.045.15 0 .28-.025.39-.075a.826.826 0 0 0 .315-.285c.1-.14.205-.34.315-.6.12-.25.255-.58.405-.99l-3.375-7.95h1.47l2.58 6.45 2.34-6.45h1.41l-3 7.95c-.21.56-.41 1.04-.6 1.44a4.2 4.2 0 0 1-.615.975c-.21.26-.445.445-.705.555-.26.12-.57.18-.93.18zm7.343-11.1h1.41l2.835 4.95 2.835-4.95h1.32V243h-1.32v-5.775l-2.355 4.05h-1.05l-2.355-4.05V243h-1.32v-7.95zm14.096 8.1c-.51 0-.995-.08-1.455-.24a3.359 3.359 0 0 1-1.215-.735c-.35-.34-.63-.765-.84-1.275-.21-.51-.315-1.11-.315-1.8v-.3c0-.66.1-1.23.3-1.71.2-.49.465-.895.795-1.215.34-.33.73-.575 1.17-.735.45-.16.92-.24 1.41-.24 1.17 0 2.075.32 2.715.96.64.64.96 1.545.96 2.715v.84h-6.03c0 .47.075.865.225 1.185a2.225 2.225 0 0 0 1.38 1.215c.3.09.6.135.9.135.6 0 1.06-.1 1.38-.3.33-.2.565-.475.705-.825h1.29c-.08.38-.225.715-.435 1.005-.2.29-.45.535-.75.735-.29.19-.625.335-1.005.435-.37.1-.765.15-1.185.15zm-.075-7.05c-.31 0-.61.045-.9.135a2.075 2.075 0 0 0-1.32 1.095c-.14.28-.21.615-.21 1.005h4.785c-.01-.41-.08-.755-.21-1.035-.12-.29-.285-.52-.495-.69-.21-.18-.46-.31-.75-.39-.28-.08-.58-.12-.9-.12zm5.476-1.05h1.32v3.315h4.11v-3.315h1.32V243h-1.32v-3.465h-4.11V243h-1.32v-7.95zm10.971 1.17h-2.715v-1.17h6.75v1.17h-2.715V243h-1.32v-6.78zm8.692 6.93c-.51 0-.995-.08-1.455-.24a3.54 3.54 0 0 1-1.215-.75c-.35-.34-.63-.765-.84-1.275-.21-.51-.315-1.105-.315-1.785v-.3c0-.64.105-1.205.315-1.695a3.47 3.47 0 0 1 2.055-1.95c.46-.17.945-.255 1.455-.255.51 0 .995.085 1.455.255a3.47 3.47 0 0 1 2.055 1.95c.21.49.315 1.055.315 1.695v.3c0 .68-.105 1.275-.315 1.785-.21.51-.49.935-.84 1.275-.35.33-.755.58-1.215.75-.46.16-.945.24-1.455.24zm0-1.2c.3 0 .6-.05.9-.15.3-.11.565-.275.795-.495.23-.23.415-.525.555-.885.15-.36.225-.8.225-1.32v-.3c0-.48-.075-.89-.225-1.23-.14-.34-.325-.62-.555-.84-.23-.22-.495-.38-.795-.48-.3-.1-.6-.15-.9-.15-.3 0-.6.05-.9.15-.3.1-.565.26-.795.48-.23.22-.42.5-.57.84-.14.34-.21.75-.21 1.23v.3c0 .52.07.96.21 1.32.15.36.34.655.57.885.23.22.495.385.795.495.3.1.6.15.9.15zm5.694-6.9h3.45c.98 0 1.7.205 2.16.615.46.4.69.92.69 1.56 0 .17-.03.345-.09.525-.06.17-.145.33-.255.48-.1.15-.225.28-.375.39-.14.11-.3.195-.48.255.49.12.86.35 1.11.69.26.33.39.72.39 1.17 0 .69-.23 1.24-.69 1.65-.46.41-1.18.615-2.16.615h-3.75v-7.95zm3.75 6.78c.56 0 .955-.1 1.185-.3.23-.2.345-.485.345-.855 0-.38-.115-.67-.345-.87-.23-.21-.625-.315-1.185-.315h-2.43v2.34h2.43zm-.3-3.42c.57 0 .965-.1 1.185-.3.23-.2.345-.475.345-.825 0-.33-.115-.59-.345-.78-.22-.19-.615-.285-1.185-.285h-2.13v2.19h2.13z" fill="#000"></path>
  <circle cx="5" cy="280" r="5" fill="#145FF5"></circle>
  <path d="M23.325 285.15c-.59 0-1.15-.1-1.68-.3-.53-.21-1-.53-1.41-.96-.41-.44-.735-.995-.975-1.665s-.36-1.47-.36-2.4v-.3c0-.9.12-1.675.36-2.325.24-.65.565-1.185.975-1.605.41-.42.88-.73 1.41-.93.53-.21 1.09-.315 1.68-.315.57 0 1.09.075 1.56.225.48.15.9.365 1.26.645s.65.625.87 1.035c.23.41.375.875.435 1.395h-1.5c-.14-.68-.435-1.19-.885-1.53-.45-.34-1.03-.51-1.74-.51-.37 0-.73.07-1.08.21-.35.14-.665.365-.945.675-.27.3-.49.7-.66 1.2-.16.5-.24 1.11-.24 1.83v.3c0 .76.09 1.4.27 1.92.18.51.41.925.69 1.245.28.32.595.55.945.69.35.14.69.21 1.02.21.78 0 1.39-.19 1.83-.57.44-.38.705-.87.795-1.47h1.5c-.08.58-.24 1.08-.48 1.5-.24.41-.545.75-.915 1.02-.36.27-.775.47-1.245.6-.46.12-.955.18-1.485.18zm6.07-8.1h1.23v1.5c.27-.53.645-.935 1.125-1.215.49-.29 1.055-.435 1.695-.435 1 0 1.8.33 2.4.99.6.65.9 1.62.9 2.91v.3c0 .68-.08 1.275-.24 1.785-.16.5-.385.92-.675 1.26-.29.33-.64.58-1.05.75-.4.17-.845.255-1.335.255-.68 0-1.25-.15-1.71-.45-.45-.3-.79-.675-1.02-1.125V288h-1.32v-10.95zm3.75 6.93c.32 0 .62-.06.9-.18.28-.13.52-.315.72-.555.21-.24.37-.54.48-.9.12-.36.18-.775.18-1.245v-.3c0-.43-.06-.815-.18-1.155-.11-.34-.27-.625-.48-.855-.2-.24-.44-.42-.72-.54a2.26 2.26 0 0 0-.9-.18c-.36 0-.69.06-.99.18-.3.11-.555.27-.765.48-.21.2-.375.44-.495.72-.12.28-.18.58-.18.9v1.2c0 .36.06.69.18.99.12.3.285.555.495.765.21.21.465.375.765.495s.63.18.99.18zm8.779 1.17c-.51 0-.995-.08-1.455-.24a3.54 3.54 0 0 1-1.215-.75c-.35-.34-.63-.765-.84-1.275-.21-.51-.315-1.105-.315-1.785v-.3c0-.64.105-1.205.315-1.695a3.47 3.47 0 0 1 2.055-1.95c.46-.17.945-.255 1.455-.255.51 0 .995.085 1.455.255a3.47 3.47 0 0 1 2.055 1.95c.21.49.315 1.055.315 1.695v.3c0 .68-.105 1.275-.315 1.785-.21.51-.49.935-.84 1.275-.35.33-.755.58-1.215.75-.46.16-.945.24-1.455.24zm0-1.2c.3 0 .6-.05.9-.15.3-.11.565-.275.795-.495.23-.23.415-.525.555-.885.15-.36.225-.8.225-1.32v-.3c0-.48-.075-.89-.225-1.23-.14-.34-.325-.62-.555-.84-.23-.22-.495-.38-.795-.48-.3-.1-.6-.15-.9-.15-.3 0-.6.05-.9.15-.3.1-.565.26-.795.48-.23.22-.42.5-.57.84-.14.34-.21.75-.21 1.23v.3c0 .52.07.96.21 1.32.15.36.34.655.57.885.23.22.495.385.795.495.3.1.6.15.9.15zm5.694-6.9h1.32v3.33h1.05l2.97-3.33h1.56l-3.45 3.81 3.6 4.14h-1.68l-3-3.48h-1.05V285h-1.32v-7.95zm12.378 0h1.23v1.5c.27-.53.645-.935 1.125-1.215.49-.29 1.055-.435 1.695-.435 1 0 1.8.33 2.4.99.6.65.9 1.62.9 2.91v.3c0 .68-.08 1.275-.24 1.785-.16.5-.385.92-.675 1.26-.29.33-.64.58-1.05.75-.4.17-.845.255-1.335.255-.68 0-1.25-.15-1.71-.45-.45-.3-.79-.675-1.02-1.125V288h-1.32v-10.95zm3.75 6.93c.32 0 .62-.06.9-.18.28-.13.52-.315.72-.555.21-.24.37-.54.48-.9.12-.36.18-.775.18-1.245v-.3c0-.43-.06-.815-.18-1.155-.11-.34-.27-.625-.48-.855-.2-.24-.44-.42-.72-.54a2.26 2.26 0 0 0-.9-.18c-.36 0-.69.06-.99.18-.3.11-.555.27-.765.48-.21.2-.375.44-.495.72-.12.28-.18.58-.18.9v1.2c0 .36.06.69.18.99.12.3.285.555.495.765.21.21.465.375.765.495s.63.18.99.18zm7.743 1.17c-.44 0-.83-.06-1.17-.18-.33-.13-.61-.305-.84-.525-.23-.22-.405-.48-.525-.78-.12-.3-.18-.63-.18-.99 0-.79.23-1.36.69-1.71.47-.35 1.14-.525 2.01-.525h2.58v-.54c0-.68-.155-1.15-.465-1.41-.3-.26-.755-.39-1.365-.39-.57 0-.985.11-1.245.33-.26.21-.405.45-.435.72h-1.32c.02-.32.105-.615.255-.885.16-.28.37-.52.63-.72.27-.2.59-.355.96-.465.37-.12.78-.18 1.23-.18.94 0 1.685.225 2.235.675.56.44.84 1.165.84 2.175v4.335c.01.31.035.615.075.915h-1.155c-.03-.23-.05-.445-.06-.645-.01-.21-.015-.445-.015-.705-.21.42-.55.775-1.02 1.065-.47.29-1.04.435-1.71.435zm.285-1.2c.31 0 .6-.04.87-.12.28-.09.525-.215.735-.375.21-.17.375-.375.495-.615s.18-.52.18-.84v-.54H71.7c-.49 0-.875.1-1.155.3-.28.19-.42.495-.42.915 0 .37.13.675.39.915.27.24.69.36 1.26.36zm9.007 1.2c-.51 0-.985-.08-1.425-.24-.44-.17-.82-.42-1.14-.75a3.736 3.736 0 0 1-.765-1.275c-.18-.51-.27-1.105-.27-1.785v-.3c0-.64.1-1.205.3-1.695.2-.49.465-.895.795-1.215.33-.33.71-.575 1.14-.735.44-.17.895-.255 1.365-.255s.89.065 1.26.195c.38.13.705.31.975.54.28.23.505.5.675.81.18.31.31.645.39 1.005h-1.35a2.931 2.931 0 0 0-.285-.525c-.1-.17-.23-.315-.39-.435-.15-.12-.33-.215-.54-.285a2.327 2.327 0 0 0-.735-.105c-.29 0-.57.055-.84.165-.27.1-.51.26-.72.48-.21.21-.38.485-.51.825-.12.34-.18.75-.18 1.23v.3c0 .51.06.95.18 1.32.13.36.3.655.51.885.21.22.45.385.72.495.27.1.55.15.84.15.49 0 .9-.12 1.23-.36.34-.24.58-.57.72-.99h1.35c-.19.79-.58 1.415-1.17 1.875-.59.45-1.3.675-2.13.675zm8.174 0c-.51 0-.985-.08-1.425-.24-.44-.17-.82-.42-1.14-.75a3.736 3.736 0 0 1-.765-1.275c-.18-.51-.27-1.105-.27-1.785v-.3c0-.64.1-1.205.3-1.695.2-.49.465-.895.795-1.215.33-.33.71-.575 1.14-.735.44-.17.895-.255 1.365-.255s.89.065 1.26.195c.38.13.705.31.975.54.28.23.505.5.675.81.18.31.31.645.39 1.005h-1.35a2.931 2.931 0 0 0-.285-.525c-.1-.17-.23-.315-.39-.435-.15-.12-.33-.215-.54-.285a2.327 2.327 0 0 0-.735-.105c-.29 0-.57.055-.84.165-.27.1-.51.26-.72.48-.21.21-.38.485-.51.825-.12.34-.18.75-.18 1.23v.3c0 .51.06.95.18 1.32.13.36.3.655.51.885.21.22.45.385.72.495.27.1.55.15.84.15.49 0 .9-.12 1.23-.36.34-.24.58-.57.72-.99h1.35c-.19.79-.58 1.415-1.17 1.875-.59.45-1.3.675-2.13.675zm5.099-8.1h1.41l2.835 4.95 2.835-4.95h1.32V285h-1.32v-5.775l-2.356 4.05h-1.05l-2.354-4.05V285h-1.32v-7.95zm14.095 8.1c-.51 0-.995-.08-1.455-.24a3.54 3.54 0 0 1-1.215-.75c-.35-.34-.63-.765-.84-1.275-.21-.51-.315-1.105-.315-1.785v-.3c0-.64.105-1.205.315-1.695a3.47 3.47 0 0 1 2.055-1.95c.46-.17.945-.255 1.455-.255.51 0 .995.085 1.455.255a3.47 3.47 0 0 1 2.055 1.95c.21.49.315 1.055.315 1.695v.3c0 .68-.105 1.275-.315 1.785-.21.51-.49.935-.84 1.275-.35.33-.755.58-1.215.75-.46.16-.945.24-1.455.24zm0-1.2c.3 0 .6-.05.9-.15.3-.11.565-.275.795-.495.23-.23.415-.525.555-.885.15-.36.225-.8.225-1.32v-.3c0-.48-.075-.89-.225-1.23-.14-.34-.325-.62-.555-.84-.23-.22-.495-.38-.795-.48-.3-.1-.6-.15-.9-.15-.3 0-.6.05-.9.15-.3.1-.565.26-.795.48-.23.22-.42.5-.57.84-.14.34-.21.75-.21 1.23v.3c0 .52.07.96.21 1.32.15.36.34.655.57.885.23.22.495.385.795.495.3.1.6.15.9.15zm7.363-5.73h-2.715v-1.17h6.75v1.17h-2.715V285h-1.32v-6.78zm5.539-1.17h1.23v1.5c.27-.53.645-.935 1.125-1.215.49-.29 1.055-.435 1.695-.435 1 0 1.8.33 2.4.99.6.65.9 1.62.9 2.91v.3c0 .68-.08 1.275-.24 1.785-.16.5-.385.92-.675 1.26-.29.33-.64.58-1.05.75-.4.17-.845.255-1.335.255-.68 0-1.25-.15-1.71-.45-.45-.3-.79-.675-1.02-1.125V288h-1.32v-10.95zm3.75 6.93c.32 0 .62-.06.9-.18.28-.13.52-.315.72-.555.21-.24.37-.54.48-.9.12-.36.18-.775.18-1.245v-.3c0-.43-.06-.815-.18-1.155-.11-.34-.27-.625-.48-.855-.2-.24-.44-.42-.72-.54a2.26 2.26 0 0 0-.9-.18c-.36 0-.69.06-.99.18-.3.11-.555.27-.765.48-.21.2-.375.44-.495.72-.12.28-.18.58-.18.9v1.2c0 .36.06.69.18.99.12.3.285.555.495.765.21.21.465.375.765.495s.63.18.99.18zm8.778 1.17c-.51 0-.995-.08-1.455-.24a3.359 3.359 0 0 1-1.215-.735c-.35-.34-.63-.765-.84-1.275-.21-.51-.315-1.11-.315-1.8v-.3c0-.66.1-1.23.3-1.71.2-.49.465-.895.795-1.215.34-.33.73-.575 1.17-.735.45-.16.92-.24 1.41-.24 1.17 0 2.075.32 2.715.96.64.64.96 1.545.96 2.715v.84h-6.03c0 .47.075.865.225 1.185a2.225 2.225 0 0 0 1.38 1.215c.3.09.6.135.9.135.6 0 1.06-.1 1.38-.3.33-.2.565-.475.705-.825h1.29c-.08.38-.225.715-.435 1.005-.2.29-.45.535-.75.735-.29.19-.625.335-1.005.435-.37.1-.765.15-1.185.15zm-.075-7.05c-.31 0-.61.045-.9.135a2.075 2.075 0 0 0-1.32 1.095c-.14.28-.21.615-.21 1.005h4.785c-.01-.41-.08-.755-.21-1.035-.12-.29-.285-.52-.495-.69-.21-.18-.46-.31-.75-.39-.28-.08-.58-.12-.9-.12zm5.476-1.05h1.32v3.315h4.11v-3.315h1.32V285h-1.32v-3.465h-4.11V285h-1.32v-7.95zm9.156 0h1.32v6l4.11-6h1.32V285h-1.32v-6l-4.11 6h-1.32v-7.95zm10.715 4.8c-.66-.15-1.135-.42-1.425-.81-.29-.4-.435-.91-.435-1.53 0-.78.235-1.385.705-1.815.48-.43 1.245-.645 2.295-.645h3.45V285h-1.32v-3.03h-2.025l-1.935 3.03h-1.47l2.16-3.15zm-.54-2.34c0 .42.12.74.36.96.25.22.665.33 1.245.33h2.205v-2.58h-2.205c-.58 0-.995.11-1.245.33-.24.22-.36.54-.36.96zM19.2 295.05h6.6V303h-1.32v-6.78h-3.96V303H19.2v-7.95zm8.994 0h1.23v1.5c.27-.53.645-.935 1.125-1.215.49-.29 1.055-.435 1.695-.435 1 0 1.8.33 2.4.99.6.65.9 1.62.9 2.91v.3c0 .68-.08 1.275-.24 1.785-.16.5-.385.92-.675 1.26-.29.33-.64.58-1.05.75-.4.17-.845.255-1.335.255-.68 0-1.25-.15-1.71-.45-.45-.3-.79-.675-1.02-1.125V306h-1.32v-10.95zm3.75 6.93c.32 0 .62-.06.9-.18.28-.13.52-.315.72-.555.21-.24.37-.54.48-.9.12-.36.18-.775.18-1.245v-.3c0-.43-.06-.815-.18-1.155-.11-.34-.27-.625-.48-.855-.2-.24-.44-.42-.72-.54a2.26 2.26 0 0 0-.9-.18c-.36 0-.69.06-.99.18-.3.11-.555.27-.765.48-.21.2-.375.44-.495.72-.12.28-.18.58-.18.9v1.2c0 .36.06.69.18.99.12.3.285.555.495.765.21.21.465.375.765.495s.63.18.99.18zm8.779 1.17c-.51 0-.995-.08-1.455-.24a3.359 3.359 0 0 1-1.215-.735c-.35-.34-.63-.765-.84-1.275-.21-.51-.315-1.11-.315-1.8v-.3c0-.66.1-1.23.3-1.71.2-.49.465-.895.795-1.215.34-.33.73-.575 1.17-.735.45-.16.92-.24 1.41-.24 1.17 0 2.075.32 2.715.96.64.64.96 1.545.96 2.715v.84h-6.03c0 .47.075.865.225 1.185a2.225 2.225 0 0 0 1.38 1.215c.3.09.6.135.9.135.6 0 1.06-.1 1.38-.3.33-.2.565-.475.705-.825h1.29c-.08.38-.225.715-.435 1.005-.2.29-.45.535-.75.735-.29.19-.625.335-1.005.435-.37.1-.765.15-1.185.15zm-.075-7.05c-.31 0-.61.045-.9.135a2.075 2.075 0 0 0-1.32 1.095c-.14.28-.21.615-.21 1.005h4.785c-.01-.41-.08-.755-.21-1.035-.12-.29-.285-.52-.495-.69-.21-.18-.46-.31-.75-.39-.28-.08-.58-.12-.9-.12zm7.144.12h-2.715v-1.17h6.75v1.17h-2.715V303h-1.32v-6.78zm8.692 6.93c-.51 0-.995-.08-1.455-.24a3.359 3.359 0 0 1-1.215-.735c-.35-.34-.63-.765-.84-1.275-.21-.51-.315-1.11-.315-1.8v-.3c0-.66.1-1.23.3-1.71.2-.49.465-.895.795-1.215.34-.33.73-.575 1.17-.735.45-.16.92-.24 1.41-.24 1.17 0 2.075.32 2.715.96.64.64.96 1.545.96 2.715v.84h-6.03c0 .47.075.865.225 1.185a2.225 2.225 0 0 0 1.38 1.215c.3.09.6.135.9.135.6 0 1.06-.1 1.38-.3.33-.2.565-.475.705-.825h1.29c-.08.38-.225.715-.435 1.005-.2.29-.45.535-.75.735-.29.19-.625.335-1.005.435-.37.1-.765.15-1.185.15zm-.075-7.05c-.31 0-.61.045-.9.135a2.075 2.075 0 0 0-1.32 1.095c-.14.28-.21.615-.21 1.005h4.785c-.01-.41-.08-.755-.21-1.035-.12-.29-.285-.52-.495-.69-.21-.18-.46-.31-.75-.39-.28-.08-.58-.12-.9-.12zm5.477-1.05h1.32v3.315h4.11v-3.315h1.32V303h-1.32v-3.465h-4.11V303h-1.32v-7.95zm11.855 8.1c-1 0-1.785-.21-2.355-.63-.57-.42-.885-1.01-.945-1.77h1.32c.07.39.275.69.615.9.35.2.805.3 1.365.3.69 0 1.19-.115 1.5-.345.32-.24.48-.525.48-.855 0-.39-.13-.695-.39-.915-.26-.23-.71-.345-1.35-.345h-1.365v-1.08h1.275c.55 0 .94-.105 1.17-.315.24-.21.36-.505.36-.885 0-.3-.14-.56-.42-.78-.28-.22-.7-.33-1.26-.33-.61 0-1.055.1-1.335.3-.27.19-.435.465-.495.825h-1.32c.03-.33.12-.635.27-.915.16-.29.375-.54.645-.75.27-.21.59-.37.96-.48.38-.12.805-.18 1.275-.18.51 0 .95.06 1.32.18.38.11.695.27.945.48.25.2.435.44.555.72.12.28.18.59.18.93 0 .38-.095.715-.285 1.005-.19.28-.495.5-.915.66.56.15.95.39 1.17.72.22.33.33.715.33 1.155 0 .33-.07.64-.21.93-.14.29-.35.545-.63.765-.27.21-.615.38-1.035.51-.41.13-.885.195-1.425.195zm5.18-8.1h1.32v6l4.11-6h1.32V303h-1.32v-6l-4.11 6h-1.32v-7.95zm9.156 0h1.32v6l4.11-6h1.32V303h-1.32v-6l-4.11 6h-1.32v-7.95zm3.375-.975c-.78 0-1.35-.165-1.71-.495-.36-.34-.54-.825-.54-1.455h1.29c0 .68.32 1.02.96 1.02.66 0 .99-.34.99-1.02h1.26c0 .63-.18 1.115-.54 1.455-.36.33-.93.495-1.71.495zm8.93 4.11h9.75v1.23h-9.75v-1.23zm18.382 4.965c-.57 0-1.08-.075-1.53-.225a3.528 3.528 0 0 1-1.125-.645 2.695 2.695 0 0 1-.705-.945c-.16-.37-.24-.765-.24-1.185h1.41c0 .51.175.93.525 1.26.35.32.905.48 1.665.48s1.315-.165 1.665-.495c.35-.34.525-.78.525-1.32 0-.56-.18-1.01-.54-1.35-.35-.35-.9-.525-1.65-.525h-1.125V297h1.125c.72 0 1.24-.15 1.56-.45.32-.31.48-.735.48-1.275 0-.52-.155-.925-.465-1.215-.31-.3-.835-.45-1.575-.45-.71 0-1.23.155-1.56.465-.32.3-.48.675-.48 1.125h-1.41c0-.39.075-.76.225-1.11.16-.35.385-.65.675-.9.3-.26.66-.465 1.08-.615.43-.15.92-.225 1.47-.225.55 0 1.04.075 1.47.225.43.15.79.35 1.08.6.3.25.525.545.675.885.15.34.225.695.225 1.065 0 .6-.16 1.11-.48 1.53-.31.41-.75.7-1.32.87.6.19 1.075.5 1.425.93.35.43.525 1.02.525 1.77 0 .4-.08.78-.24 1.14-.16.35-.395.66-.705.93-.3.26-.675.47-1.125.63-.45.15-.96.225-1.53.225zm9.15 0c-.51 0-.995-.085-1.455-.255-.45-.17-.845-.46-1.185-.87-.34-.42-.61-.975-.81-1.665-.2-.7-.3-1.57-.3-2.61v-.3c0-.97.1-1.78.3-2.43.2-.65.47-1.17.81-1.56.34-.4.735-.685 1.185-.855.46-.17.945-.255 1.455-.255.51 0 .99.085 1.44.255.46.17.86.455 1.2.855.34.39.61.91.81 1.56.2.65.3 1.46.3 2.43v.3c0 1.04-.1 1.91-.3 2.61-.2.69-.47 1.245-.81 1.665-.34.41-.74.7-1.2.87-.45.17-.93.255-1.44.255zm0-1.23c.31 0 .605-.055.885-.165.29-.12.54-.33.75-.63.22-.31.39-.735.51-1.275.13-.54.195-1.24.195-2.1v-.3c0-.78-.065-1.42-.195-1.92-.12-.5-.29-.895-.51-1.185-.21-.29-.46-.49-.75-.6a2.399 2.399 0 0 0-.885-.165c-.32 0-.62.055-.9.165-.28.11-.53.31-.75.6-.21.29-.38.685-.51 1.185-.12.5-.18 1.14-.18 1.92v.3c0 .86.06 1.56.18 2.1.13.54.3.965.51 1.275.22.3.47.51.75.63.28.11.58.165.9.165zm8.116-3.705h-2.715v-1.23h2.715v-2.76h1.32v2.76h2.715v1.23h-2.715v2.76h-1.32v-2.76zm8.833 3.615h.975c.11-.15.21-.38.3-.69.09-.31.17-.675.24-1.095.07-.42.12-.875.15-1.365.04-.5.06-1.01.06-1.53v-2.1h5.549v6.78h1.126v3.045h-1.26V303h-5.88v1.875h-1.26v-3.045zm5.955 0v-5.61h-2.94v1.23c0 .42-.015.84-.045 1.26-.03.41-.075.805-.135 1.185-.06.37-.135.725-.225 1.065-.08.33-.175.62-.285.87h3.63zm4.027-6.78h1.32v3.315h4.11v-3.315h1.32V303h-1.32v-3.465h-4.11V303h-1.32v-7.95zm12.455 8.1c-.51 0-.995-.08-1.455-.24a3.359 3.359 0 0 1-1.215-.735c-.35-.34-.63-.765-.84-1.275-.21-.51-.315-1.11-.315-1.8v-.3c0-.66.1-1.23.3-1.71.2-.49.465-.895.795-1.215.34-.33.73-.575 1.17-.735.45-.16.92-.24 1.41-.24 1.17 0 2.075.32 2.715.96.64.64.96 1.545.96 2.715v.84h-6.03c0 .47.075.865.225 1.185a2.225 2.225 0 0 0 1.38 1.215c.3.09.6.135.9.135.6 0 1.06-.1 1.38-.3.33-.2.565-.475.705-.825h1.29c-.08.38-.225.715-.435 1.005-.2.29-.45.535-.75.735-.29.19-.625.335-1.005.435-.37.1-.765.15-1.185.15zm-.075-7.05c-.31 0-.61.045-.9.135a2.075 2.075 0 0 0-1.32 1.095c-.14.28-.21.615-.21 1.005h4.785c-.01-.41-.08-.755-.21-1.035-.12-.29-.285-.52-.495-.69-.21-.18-.46-.31-.75-.39-.28-.08-.58-.12-.9-.12zm5.476-1.05h1.32v6l4.11-6h1.32V303h-1.32v-6l-4.11 6h-1.32v-7.95zm3.375-.975c-.78 0-1.35-.165-1.71-.495-.36-.34-.54-.825-.54-1.455h1.29c0 .68.32 1.02.96 1.02.66 0 .99-.34.99-1.02h1.26c0 .63-.18 1.115-.54 1.455-.36.33-.93.495-1.71.495z" fill="#000"></path>
  <circle cx="5" cy="340" r="5" fill="#145FF5"></circle>
  <path d="M18.3 343.77h1.125c.19-.38.35-.85.48-1.41.13-.56.23-1.16.3-1.8.07-.65.12-1.315.15-1.995.03-.69.045-1.345.045-1.965v-2.1h6.825v9.27H28.5v3.18h-1.35V345h-7.5v1.95H18.3v-3.18zm7.515 0v-8.04H21.78v1.17c0 1.52-.07 2.835-.21 3.945-.13 1.11-.345 2.085-.645 2.925h4.89zm7.495 1.38c-.51 0-.995-.08-1.455-.24a3.54 3.54 0 0 1-1.215-.75c-.35-.34-.63-.765-.84-1.275-.21-.51-.315-1.105-.315-1.785v-.3c0-.64.105-1.205.316-1.695a3.47 3.47 0 0 1 2.055-1.95c.46-.17.944-.255 1.454-.255s.995.085 1.456.255a3.47 3.47 0 0 1 2.055 1.95c.21.49.314 1.055.314 1.695v.3c0 .68-.104 1.275-.314 1.785-.21.51-.49.935-.84 1.275-.35.33-.756.58-1.215.75-.46.16-.945.24-1.456.24zm0-1.2c.3 0 .6-.05.9-.15.3-.11.566-.275.795-.495.23-.23.415-.525.555-.885.15-.36.225-.8.225-1.32v-.3c0-.48-.074-.89-.224-1.23-.14-.34-.325-.62-.556-.84-.23-.22-.495-.38-.794-.48-.3-.1-.6-.15-.9-.15-.3 0-.6.05-.9.15-.3.1-.566.26-.796.48-.23.22-.42.5-.57.84-.14.34-.21.75-.21 1.23v.3c0 .52.07.96.21 1.32.15.36.34.655.57.885.23.22.496.385.796.495.3.1.6.15.9.15zm5.173 1.2c-.15 0-.3-.015-.45-.045v-1.32c.05.01.125.015.225.015.22 0 .41-.07.57-.21.17-.14.305-.385.405-.735.1-.35.175-.825.225-1.425.05-.6.075-1.36.075-2.28v-2.1h5.7V345h-1.32v-6.78h-3.06v1.23c0 1.11-.05 2.03-.15 2.76-.1.73-.25 1.315-.45 1.755-.19.43-.435.735-.735.915-.3.18-.645.27-1.035.27zm10.71-3.3c-.66-.15-1.135-.42-1.425-.81-.29-.4-.435-.91-.435-1.53 0-.78.235-1.385.705-1.815.48-.43 1.245-.645 2.295-.645h3.45V345h-1.32v-3.03h-2.025L48.503 345h-1.47l2.16-3.15zm-.54-2.34c0 .42.12.74.36.96.25.22.665.33 1.245.33h2.205v-2.58h-2.205c-.58 0-.995.11-1.245.33-.24.22-.36.54-.36.96zm13.984 5.64c-1 0-1.785-.21-2.355-.63-.57-.42-.885-1.01-.945-1.77h1.32c.07.39.275.69.615.9.35.2.805.3 1.365.3.69 0 1.19-.115 1.5-.345.32-.24.48-.525.48-.855 0-.39-.13-.695-.39-.915-.26-.23-.71-.345-1.35-.345h-1.365v-1.08h1.275c.55 0 .94-.105 1.17-.315.24-.21.36-.505.36-.885 0-.3-.14-.56-.42-.78-.28-.22-.7-.33-1.26-.33-.61 0-1.055.1-1.335.3-.27.19-.435.465-.495.825h-1.32c.03-.33.12-.635.27-.915.16-.29.375-.54.645-.75.27-.21.59-.37.96-.48.38-.12.805-.18 1.275-.18.51 0 .95.06 1.32.18.38.11.695.27.945.48.25.2.435.44.555.72.12.28.18.59.18.93 0 .38-.095.715-.285 1.005-.19.28-.495.5-.915.66.56.15.95.39 1.17.72.22.33.33.715.33 1.155 0 .33-.07.64-.21.93-.14.29-.35.545-.63.765-.27.21-.615.38-1.035.51-.41.13-.885.195-1.425.195zm7.446 0c-.44 0-.83-.06-1.17-.18-.33-.13-.61-.305-.84-.525-.23-.22-.405-.48-.525-.78-.12-.3-.18-.63-.18-.99 0-.79.23-1.36.69-1.71.47-.35 1.14-.525 2.01-.525h2.58v-.54c0-.68-.155-1.15-.465-1.41-.3-.26-.755-.39-1.365-.39-.57 0-.985.11-1.245.33-.26.21-.405.45-.435.72h-1.32c.02-.32.105-.615.255-.885.16-.28.37-.52.63-.72.27-.2.59-.355.96-.465.37-.12.78-.18 1.23-.18.94 0 1.685.225 2.235.675.56.44.84 1.165.84 2.175v4.335c.01.31.035.615.075.915h-1.155c-.03-.23-.05-.445-.06-.645-.01-.21-.015-.445-.015-.705-.21.42-.55.775-1.02 1.065-.47.29-1.04.435-1.71.435zm.285-1.2c.31 0 .6-.04.87-.12.28-.09.525-.215.735-.375.21-.17.375-.375.495-.615s.18-.52.18-.84v-.54h-2.355c-.49 0-.875.1-1.155.3-.28.19-.42.495-.42.915 0 .37.13.675.39.915.27.24.69.36 1.26.36zm9.007 1.2c-.51 0-.985-.08-1.425-.24-.44-.17-.82-.42-1.14-.75a3.736 3.736 0 0 1-.765-1.275c-.18-.51-.27-1.105-.27-1.785v-.3c0-.64.1-1.205.3-1.695.2-.49.465-.895.795-1.215.33-.33.71-.575 1.14-.735.44-.17.895-.255 1.365-.255s.89.065 1.26.195c.38.13.705.31.975.54.28.23.505.5.675.81.18.31.31.645.39 1.005h-1.35a2.931 2.931 0 0 0-.285-.525c-.1-.17-.23-.315-.39-.435-.15-.12-.33-.215-.54-.285a2.327 2.327 0 0 0-.735-.105c-.29 0-.57.055-.84.165-.27.1-.51.26-.72.48-.21.21-.38.485-.51.825-.12.34-.18.75-.18 1.23v.3c0 .51.06.95.18 1.32.13.36.3.655.51.885.21.22.45.385.72.495.27.1.55.15.84.15.49 0 .9-.12 1.23-.36.34-.24.58-.57.72-.99h1.35c-.19.79-.58 1.415-1.17 1.875-.59.45-1.3.675-2.13.675zm6.913-6.93h-2.715v-1.17h6.75v1.17h-2.715V345h-1.32v-6.78zm5.539-1.17h1.23v1.5c.27-.53.645-.935 1.125-1.215.49-.29 1.055-.435 1.695-.435 1 0 1.8.33 2.4.99.6.65.9 1.62.9 2.91v.3c0 .68-.08 1.275-.24 1.785-.16.5-.385.92-.675 1.26-.29.33-.64.58-1.05.75-.4.17-.845.255-1.335.255-.68 0-1.25-.15-1.71-.45-.45-.3-.79-.675-1.02-1.125V348h-1.32v-10.95zm3.75 6.93c.32 0 .62-.06.9-.18.28-.13.52-.315.72-.555.21-.24.37-.54.48-.9.12-.36.18-.775.18-1.245v-.3c0-.43-.06-.815-.18-1.155-.11-.34-.27-.625-.48-.855-.2-.24-.44-.42-.72-.54a2.26 2.26 0 0 0-.9-.18c-.36 0-.69.06-.99.18-.3.11-.555.27-.765.48-.21.2-.375.44-.495.72-.12.28-.18.58-.18.9v1.2c0 .36.06.69.18.99.12.3.285.555.495.765.21.21.465.375.765.495s.63.18.99.18zm7.743 1.17c-.44 0-.83-.06-1.17-.18-.33-.13-.61-.305-.84-.525-.23-.22-.405-.48-.525-.78-.12-.3-.18-.63-.18-.99 0-.79.23-1.36.69-1.71.47-.35 1.14-.525 2.01-.525h2.58v-.54c0-.68-.155-1.15-.465-1.41-.3-.26-.755-.39-1.365-.39-.57 0-.985.11-1.245.33-.26.21-.405.45-.435.72h-1.32c.02-.32.105-.615.255-.885.16-.28.37-.52.63-.72.27-.2.59-.355.96-.465.37-.12.78-.18 1.23-.18.94 0 1.685.225 2.235.675.56.44.84 1.165.84 2.175v4.335c.01.31.035.615.075.915h-1.155c-.03-.23-.05-.445-.06-.645-.01-.21-.015-.445-.015-.705-.21.42-.55.775-1.02 1.065-.47.29-1.04.435-1.71.435zm.285-1.2c.31 0 .6-.04.87-.12.28-.09.525-.215.735-.375.21-.17.375-.375.495-.615s.18-.52.18-.84v-.54h-2.355c-.49 0-.875.1-1.155.3-.28.19-.42.495-.42.915 0 .37.13.675.39.915.27.24.69.36 1.26.36zm8.092-2.985-2.835-3.915h1.53l2.1 2.895 2.1-2.895h1.47l-2.835 3.84 2.985 4.11h-1.56l-2.22-3.105-2.22 3.105h-1.5l2.985-4.035zm9.094 4.185c-.51 0-.995-.08-1.455-.24a3.54 3.54 0 0 1-1.215-.75c-.35-.34-.63-.765-.84-1.275-.21-.51-.315-1.105-.315-1.785v-.3c0-.64.105-1.205.315-1.695a3.47 3.47 0 0 1 2.055-1.95c.46-.17.945-.255 1.455-.255.51 0 .995.085 1.455.255a3.47 3.47 0 0 1 2.055 1.95c.21.49.315 1.055.315 1.695v.3c0 .68-.105 1.275-.315 1.785-.21.51-.49.935-.84 1.275-.35.33-.755.58-1.215.75-.46.16-.945.24-1.455.24zm0-1.2c.3 0 .6-.05.9-.15.3-.11.565-.275.795-.495.23-.23.415-.525.555-.885.15-.36.225-.8.225-1.32v-.3c0-.48-.075-.89-.225-1.23-.14-.34-.325-.62-.555-.84-.23-.22-.495-.38-.795-.48-.3-.1-.6-.15-.9-.15-.3 0-.6.05-.9.15-.3.1-.565.26-.795.48-.23.22-.42.5-.57.84-.14.34-.21.75-.21 1.23v.3c0 .52.07.96.21 1.32.15.36.34.655.57.885.23.22.495.385.795.495.3.1.6.15.9.15zm5.694-6.9h3.45c.98 0 1.7.205 2.16.615.46.4.69.92.69 1.56 0 .17-.03.345-.09.525-.06.17-.145.33-.255.48-.1.15-.225.28-.375.39-.14.11-.3.195-.48.255.49.12.86.35 1.11.69.26.33.39.72.39 1.17 0 .69-.23 1.24-.69 1.65-.46.41-1.18.615-2.16.615h-3.75v-7.95zm3.75 6.78c.56 0 .955-.1 1.185-.3.23-.2.345-.485.345-.855 0-.38-.115-.67-.345-.87-.23-.21-.625-.315-1.185-.315h-2.43v2.34h2.43zm-.3-3.42c.57 0 .965-.1 1.185-.3.23-.2.345-.475.345-.825 0-.33-.115-.59-.345-.78-.22-.19-.615-.285-1.185-.285h-2.13v2.19h2.13zm7.297 4.74c-.44 0-.83-.06-1.17-.18-.33-.13-.61-.305-.84-.525-.23-.22-.405-.48-.525-.78-.12-.3-.18-.63-.18-.99 0-.79.23-1.36.69-1.71.47-.35 1.14-.525 2.01-.525h2.58v-.54c0-.68-.155-1.15-.465-1.41-.3-.26-.755-.39-1.365-.39-.57 0-.985.11-1.245.33-.26.21-.405.45-.435.72h-1.32c.02-.32.105-.615.255-.885.16-.28.37-.52.63-.72.27-.2.59-.355.96-.465.37-.12.78-.18 1.23-.18.94 0 1.685.225 2.235.675.56.44.84 1.165.84 2.175v4.335c.01.31.035.615.075.915h-1.155c-.03-.23-.05-.445-.06-.645-.01-.21-.015-.445-.015-.705-.21.42-.55.775-1.02 1.065-.47.29-1.04.435-1.71.435zm.285-1.2c.31 0 .6-.04.87-.12.28-.09.525-.215.735-.375.21-.17.375-.375.495-.615s.18-.52.18-.84v-.54h-2.355c-.49 0-.875.1-1.155.3-.28.19-.42.495-.42.915 0 .37.13.675.39.915.27.24.69.36 1.26.36zm5.931-6.9h1.32v3.315h4.11v-3.315h1.32V345h-1.32v-3.465h-4.11V345h-1.32v-7.95zm9.155 0h1.32v3.315h4.11v-3.315h1.32V345h-1.32v-3.465h-4.11V345h-1.32v-7.95zm9.156 0h1.32v3h1.605c1 0 1.735.22 2.205.66.48.44.72 1.05.72 1.83 0 .76-.24 1.36-.72 1.8-.47.44-1.205.66-2.205.66h-2.925v-7.95zm2.85 6.78c.62 0 1.055-.11 1.305-.33.25-.22.375-.545.375-.975 0-.43-.125-.755-.375-.975-.25-.22-.685-.33-1.305-.33h-1.53v2.61h1.53zm4.23-6.78h1.32V345h-1.32v-7.95zm5.875 3.915-2.835-3.915h1.53l2.1 2.895 2.1-2.895h1.47l-2.835 3.84 2.985 4.11h-1.56l-2.22-3.105-2.22 3.105h-1.5l2.985-4.035zM19.2 355.05h5.4v1.17h-4.08V363H19.2v-7.95zm6.9 0h1.23v1.5c.27-.53.644-.935 1.124-1.215.49-.29 1.055-.435 1.695-.435 1 0 1.8.33 2.4.99.6.65.9 1.62.9 2.91v.3c0 .68-.08 1.275-.24 1.785-.16.5-.385.92-.675 1.26-.29.33-.64.58-1.05.75-.4.17-.845.255-1.335.255-.68 0-1.25-.15-1.71-.45-.45-.3-.79-.675-1.02-1.125V366H26.1v-10.95zm3.75 6.93c.32 0 .62-.06.9-.18.28-.13.52-.315.72-.555.21-.24.37-.54.48-.9.12-.36.18-.775.18-1.245v-.3c0-.43-.06-.815-.18-1.155-.11-.34-.27-.625-.48-.855-.2-.24-.44-.42-.72-.54a2.26 2.26 0 0 0-.9-.18c-.36 0-.69.06-.99.18-.3.11-.556.27-.766.48-.21.2-.375.44-.495.72-.12.28-.18.58-.18.9v1.2c0 .36.06.69.18.99.12.3.285.555.495.765.21.21.465.375.765.495s.63.18.99.18zm6.235 4.17c-.15 0-.3-.015-.45-.045v-1.2c.15.03.3.045.45.045.15 0 .28-.025.39-.075a.826.826 0 0 0 .315-.285c.1-.14.205-.34.315-.6.12-.25.255-.58.405-.99l-3.375-7.95h1.47l2.58 6.45 2.34-6.45h1.41l-3 7.95c-.21.56-.41 1.04-.6 1.44a4.2 4.2 0 0 1-.615.975c-.21.26-.445.445-.705.555-.26.12-.57.18-.93.18zm9.75-3c-1 0-1.785-.21-2.355-.63-.57-.42-.884-1.01-.944-1.77h1.32c.07.39.274.69.614.9.35.2.806.3 1.366.3.69 0 1.19-.115 1.5-.345.32-.24.48-.525.48-.855 0-.39-.13-.695-.39-.915-.26-.23-.71-.345-1.35-.345H44.71v-1.08h1.275c.55 0 .94-.105 1.17-.315.24-.21.36-.505.36-.885 0-.3-.14-.56-.42-.78-.28-.22-.7-.33-1.26-.33-.61 0-1.055.1-1.335.3-.27.19-.435.465-.495.825h-1.32c.03-.33.12-.635.27-.915.16-.29.374-.54.644-.75.27-.21.59-.37.96-.48.38-.12.805-.18 1.276-.18.51 0 .95.06 1.32.18.38.11.694.27.944.48.25.2.435.44.556.72.12.28.18.59.18.93 0 .38-.096.715-.285 1.005-.19.28-.495.5-.916.66.56.15.95.39 1.17.72.22.33.33.715.33 1.155 0 .33-.07.64-.21.93-.14.29-.35.545-.63.765-.27.21-.614.38-1.035.51-.41.13-.884.195-1.424.195zm8.481 0c-.51 0-.995-.08-1.455-.24a3.54 3.54 0 0 1-1.215-.75c-.35-.34-.63-.765-.84-1.275-.21-.51-.315-1.105-.315-1.785v-.3c0-.64.105-1.205.315-1.695a3.47 3.47 0 0 1 2.055-1.95c.46-.17.945-.255 1.455-.255.51 0 .995.085 1.455.255a3.47 3.47 0 0 1 2.055 1.95c.21.49.315 1.055.315 1.695v.3c0 .68-.105 1.275-.315 1.785-.21.51-.49.935-.84 1.275-.35.33-.755.58-1.215.75-.46.16-.945.24-1.455.24zm0-1.2c.3 0 .6-.05.9-.15.3-.11.565-.275.795-.495.23-.23.415-.525.555-.885.15-.36.225-.8.225-1.32v-.3c0-.48-.075-.89-.225-1.23-.14-.34-.325-.62-.555-.84-.23-.22-.495-.38-.795-.48-.3-.1-.6-.15-.9-.15-.3 0-.6.05-.9.15-.3.1-.565.26-.795.48-.23.22-.42.5-.57.84-.14.34-.21.75-.21 1.23v.3c0 .52.07.96.21 1.32.15.36.34.655.57.885.23.22.495.385.795.495.3.1.6.15.9.15zm5.694-6.9h3.45c.98 0 1.7.205 2.16.615.46.4.69.92.69 1.56 0 .17-.03.345-.09.525-.06.17-.144.33-.254.48-.1.15-.225.28-.375.39-.14.11-.3.195-.48.255.49.12.86.35 1.11.69.26.33.39.72.39 1.17 0 .69-.23 1.24-.69 1.65-.46.41-1.18.615-2.16.615h-3.75v-7.95zm3.75 6.78c.56 0 .956-.1 1.185-.3.23-.2.346-.485.346-.855 0-.38-.115-.67-.346-.87-.23-.21-.624-.315-1.184-.315h-2.43v2.34h2.43zm-.3-3.42c.57 0 .965-.1 1.185-.3.23-.2.346-.475.346-.825 0-.33-.115-.59-.346-.78-.22-.19-.614-.285-1.184-.285h-2.13v2.19h2.13zm8.182-.225h9.75v1.23h-9.75v-1.23zm14.707 3.66 4.2-3.645c.32-.27.58-.515.78-.735.21-.22.375-.425.495-.615.12-.2.2-.395.24-.585.05-.19.075-.395.075-.615 0-.59-.175-1.075-.525-1.455-.35-.39-.83-.585-1.44-.585-.73 0-1.29.2-1.68.6-.39.39-.585.945-.585 1.665h-1.41c0-.51.085-.98.255-1.41.18-.44.43-.815.75-1.125.33-.31.72-.55 1.17-.72.45-.18.95-.27 1.5-.27.53 0 1.005.085 1.425.255.42.16.775.39 1.065.69.29.29.51.635.66 1.035.15.4.225.84.225 1.32 0 .36-.055.695-.165 1.005-.11.31-.265.605-.465.885-.19.28-.425.555-.705.825-.27.26-.57.53-.9.81l-3.135 2.595h5.52V363h-7.35v-1.155zm12.376 1.305c-.57 0-1.08-.075-1.53-.225a3.528 3.528 0 0 1-1.125-.645 2.695 2.695 0 0 1-.705-.945c-.16-.37-.24-.765-.24-1.185h1.41c0 .51.175.93.525 1.26.35.32.905.48 1.665.48s1.315-.165 1.665-.495c.35-.34.525-.78.525-1.32 0-.56-.18-1.01-.54-1.35-.35-.35-.9-.525-1.65-.525H97.6V357h1.125c.72 0 1.24-.15 1.56-.45.32-.31.48-.735.48-1.275 0-.52-.155-.925-.465-1.215-.31-.3-.835-.45-1.575-.45-.71 0-1.23.155-1.56.465-.32.3-.48.675-.48 1.125h-1.41c0-.39.075-.76.225-1.11.16-.35.385-.65.675-.9.3-.26.66-.465 1.08-.615.43-.15.92-.225 1.47-.225.55 0 1.04.075 1.47.225.43.15.79.35 1.08.6.3.25.525.545.675.885.15.34.225.695.225 1.065 0 .6-.16 1.11-.48 1.53-.31.41-.75.7-1.32.87.6.19 1.075.5 1.425.93.35.43.525 1.02.525 1.77 0 .4-.08.78-.24 1.14-.16.35-.395.66-.705.93-.3.26-.675.47-1.125.63-.45.15-.96.225-1.53.225zm13.65-10.65h1.5l-7.2 10.5h-1.5l7.2-10.5zm-6.3 4.95c-.35 0-.675-.06-.975-.18a2.28 2.28 0 0 1-.75-.495c-.21-.22-.375-.48-.495-.78-.12-.31-.18-.65-.18-1.02v-.15c0-.37.06-.705.18-1.005.12-.3.285-.56.495-.78.21-.22.46-.39.75-.51.3-.12.625-.18.975-.18s.67.06.96.18c.3.12.555.29.765.51.21.22.375.48.495.78.12.3.18.635.18 1.005v.15c0 .37-.06.71-.18 1.02-.12.3-.285.56-.495.78-.21.21-.465.375-.765.495-.29.12-.61.18-.96.18zm0-1.14c.34 0 .61-.11.81-.33.2-.22.3-.555.3-1.005v-.15c0-.45-.1-.785-.3-1.005-.2-.22-.47-.33-.81-.33-.34 0-.61.11-.81.33-.2.22-.3.555-.3 1.005v.15c0 .45.1.785.3 1.005.2.22.47.33.81.33zm6.9 6.825c-.35 0-.675-.06-.975-.18a2.28 2.28 0 0 1-.75-.495c-.21-.22-.375-.48-.495-.78-.12-.31-.18-.65-.18-1.02v-.15c0-.37.06-.705.18-1.005.12-.3.285-.56.495-.78.21-.22.46-.39.75-.51.3-.12.625-.18.975-.18s.67.06.96.18c.3.12.555.29.765.51.21.22.375.48.495.78.12.3.18.635.18 1.005v.15c0 .37-.06.71-.18 1.02-.12.3-.285.56-.495.78-.21.21-.465.375-.765.495-.29.12-.61.18-.96.18zm0-1.14c.34 0 .61-.11.81-.33.2-.22.3-.555.3-1.005v-.15c0-.45-.1-.785-.3-1.005-.2-.22-.47-.33-.81-.33-.34 0-.61.11-.81.33-.2.22-.3.555-.3 1.005v.15c0 .45.1.785.3 1.005.2.22.47.33.81.33z" fill="#000"></path>
</svg>
