<?xml version="1.0" encoding="UTF-8"?>
<svg xmlns="http://www.w3.org/2000/svg" width="500" height="500" viewBox="0 0 500 500" fill="none">
  <path fill-rule="evenodd" clip-rule="evenodd" d="M292.435 89.5411C293.683 88.8165 295.224 88.8199 296.469 89.55L366.322 130.536L211.366 222.362L137.559 179.495L292.435 89.5411ZM219.29 226.965L294.455 270.621L449.765 179.495L373.703 134.866C373.371 135.442 372.89 135.943 372.278 136.306L219.29 226.965ZM298.465 277.543L453.67 186.479V366.429C453.67 367.848 452.918 369.161 451.694 369.879L298.465 459.784V277.543ZM290.465 277.555V459.819L135.586 369.864C134.353 369.148 133.595 367.831 133.595 366.405V186.443L290.465 277.555ZM300.517 82.65C296.784 80.4596 292.16 80.4494 288.417 82.6233L127.586 176.036L125.595 177.192V179.495V366.405C125.595 370.681 127.87 374.634 131.568 376.782L292.456 470.227L294.475 471.4L296.489 470.218L455.742 376.779C459.414 374.624 461.67 370.686 461.67 366.429V179.495V177.204L459.694 176.045L300.517 82.65Z" fill="#FF5A00"></path>
  <path d="M120.435 242.109C163.753 242.109 198.87 206.992 198.87 163.674C198.87 120.356 163.753 85.239 120.435 85.239C77.1165 85.239 42 120.356 42 163.674C42 206.992 77.1165 242.109 120.435 242.109Z" fill="#F5F6FC" stroke="#145FF5" stroke-width="8"></path>
  <path d="M117.104 109.55V161.503C117.104 165.921 120.686 169.503 125.104 169.503H157.906" stroke="#145FF5" stroke-width="8" stroke-linecap="round"></path>
</svg>
