<?xml version="1.0" encoding="UTF-8"?>
<svg xmlns="http://www.w3.org/2000/svg" width="500" height="500" viewBox="0 0 500 500" fill="none">
  <path fill-rule="evenodd" clip-rule="evenodd" d="M445.555 250.048C444.035 248.236 441.791 247.189 439.426 247.189H392.368V247.666V301.333V302.916H489.91L445.555 250.048ZM390.497 239.189C389.811 239.189 389.166 239.362 388.602 239.666H384.368H325.025C320.607 239.666 317.025 243.248 317.025 247.666V301.333V309.333H317.182C317.079 309.844 317.025 310.374 317.025 310.916V385.417H288.65V361.334C288.65 356.916 285.068 353.334 280.65 353.334H8C3.58172 353.334 0 356.916 0 361.334V409.501C0 413.919 3.58172 417.501 7.99999 417.501H280.65C280.674 417.501 280.699 417.501 280.723 417.5H322.896V417.499H325.025H492C496.418 417.499 500 413.918 500 409.499V310.916V302.916H499.692C499.562 302.301 499.283 301.706 498.847 301.187L447.313 239.762C447.26 239.699 447.231 239.62 447.231 239.538C447.231 239.346 447.075 239.189 446.883 239.189H390.497ZM325.025 247.666H384.368V301.333H325.025V247.666ZM325.025 310.916H492V409.499H325.025V310.916Z" fill="#F5F6FC"></path>
  <mask id="mask0_280_163" style="mask-type:luminance" maskUnits="userSpaceOnUse" x="0" y="239" width="500" height="179">
    <path fill-rule="evenodd" clip-rule="evenodd" d="M445.555 250.048C444.035 248.236 441.791 247.189 439.426 247.189H392.368V247.666V301.333V302.916H489.91L445.555 250.048ZM390.497 239.189C389.811 239.189 389.166 239.362 388.602 239.666H384.368H325.025C320.607 239.666 317.025 243.248 317.025 247.666V301.333V309.333H317.182C317.079 309.844 317.025 310.374 317.025 310.916V385.417H288.65V361.334C288.65 356.916 285.068 353.334 280.65 353.334H8C3.58172 353.334 0 356.916 0 361.334V409.501C0 413.919 3.58172 417.501 7.99999 417.501H280.65C280.674 417.501 280.699 417.501 280.723 417.5H322.896V417.499H325.025H492C496.418 417.499 500 413.918 500 409.499V310.916V302.916H499.692C499.562 302.301 499.283 301.706 498.847 301.187L447.313 239.762C447.26 239.699 447.231 239.62 447.231 239.538C447.231 239.346 447.075 239.189 446.883 239.189H390.497ZM325.025 247.666H384.368V301.333H325.025V247.666ZM325.025 310.916H492V409.499H325.025V310.916Z" fill="white"></path>
  </mask>
  <g mask="url(#mask0_280_163)">
    <path d="M392.368 247.189V239.189H384.368V247.189H392.368ZM392.368 302.916H384.368V310.916H392.368V302.916ZM489.91 302.916V310.916H507.065L496.039 297.774L489.91 302.916ZM388.602 239.666V247.666H390.62L392.397 246.708L388.602 239.666ZM317.025 309.333H309.025V317.333H317.025V309.333ZM317.182 309.333L325.025 310.907L326.948 301.333H317.182V309.333ZM317.025 385.417V393.417H325.025V385.417H317.025ZM288.65 385.417H280.65V393.417H288.65V385.417ZM280.723 417.5V409.5H280.686L280.648 409.501L280.723 417.5ZM322.896 417.5V425.5H330.896V417.5H322.896ZM322.896 417.499V409.499H314.896V417.499H322.896ZM500 302.916H508V294.916H500V302.916ZM499.692 302.916L491.865 304.573L493.208 310.916H499.692V302.916ZM447.313 239.762L441.184 244.903V244.904L447.313 239.762ZM384.368 247.666H392.368V239.666H384.368V247.666ZM325.025 247.666V239.666H317.025V247.666H325.025ZM384.368 301.333V309.333H392.368V301.333H384.368ZM325.025 301.333H317.025V309.333H325.025V301.333ZM492 310.916H500V302.916H492V310.916ZM325.025 310.916V302.916H317.025V310.916H325.025ZM492 409.499V417.499H500V409.499H492ZM325.025 409.499H317.025V417.499H325.025V409.499ZM439.426 255.189L451.684 244.906C448.643 241.282 444.156 239.189 439.426 239.189V255.189ZM392.368 255.189H439.426V239.189H392.368V255.189ZM400.368 247.666V247.189H384.368V247.666H400.368ZM400.368 301.333V247.666H384.368V301.333H400.368ZM400.368 302.916V301.333H384.368V302.916H400.368ZM489.91 294.916H392.368V310.916H489.91V294.916ZM439.426 255.189L483.782 308.058L496.039 297.774L451.684 244.906L439.426 255.189ZM392.397 246.708C391.824 247.017 391.169 247.189 390.497 247.189V231.189C388.454 231.189 386.507 231.707 384.806 232.624L392.397 246.708ZM384.368 247.666H388.602V231.666H384.368V247.666ZM325.025 247.666H384.368V231.666H325.025V247.666ZM325.025 247.666V231.666C316.189 231.666 309.025 238.829 309.025 247.666H325.025ZM325.025 301.333V247.666H309.025V301.333H325.025ZM325.025 309.333V301.333H309.025V309.333H325.025ZM317.182 301.333H317.025V317.333H317.182V301.333ZM325.025 310.916C325.025 310.91 325.026 310.907 325.026 310.907C325.026 310.906 325.026 310.906 325.025 310.907L309.338 307.758C309.132 308.785 309.025 309.842 309.025 310.916H325.025ZM325.025 385.417V310.916H309.025V385.417H325.025ZM317.025 377.417H288.65V393.417H317.025V377.417ZM296.65 385.417V361.334H280.65V385.417H296.65ZM296.65 361.334C296.65 352.497 289.487 345.334 280.65 345.334V361.334H296.65ZM280.65 345.334H8V361.334H280.65V345.334ZM8 345.334C-0.836559 345.334 -8 352.497 -8 361.334H8V345.334ZM-8 361.334V409.501H8V361.334H-8ZM-8 409.501C-8 418.337 -0.836561 425.501 7.99999 425.501L8 409.501H-8ZM7.99999 425.501H280.65V409.501H8L7.99999 425.501ZM280.65 425.501C280.694 425.501 280.744 425.5 280.798 425.5L280.648 409.501C280.654 409.501 280.655 409.501 280.65 409.501V425.501ZM280.723 425.5H322.896V409.5H280.723V425.5ZM330.896 417.5V417.499H314.896V417.5H330.896ZM325.025 409.499H322.896V425.499H325.025V409.499ZM492 409.499H325.025V425.499H492V409.499ZM492 409.499V425.499C500.837 425.499 508 418.336 508 409.499H492ZM492 310.916V409.499H508V310.916H492ZM492 302.916V310.916H508V302.916H492ZM499.692 310.916H500V294.916H499.692V310.916ZM492.718 306.329C492.291 305.819 492 305.21 491.865 304.573L507.518 301.259C507.123 299.391 506.274 297.593 504.976 296.045L492.718 306.329ZM441.184 244.904L492.718 306.329L504.976 296.045L453.442 234.62L441.184 244.904ZM439.231 239.538C439.231 241.5 439.922 243.4 441.184 244.903L453.442 234.621C454.598 235.999 455.231 237.74 455.231 239.538H439.231ZM446.883 247.189C442.657 247.189 439.231 243.764 439.231 239.538H455.231C455.231 234.927 451.493 231.189 446.883 231.189V247.189ZM390.497 247.189H446.883V231.189H390.497V247.189ZM384.368 239.666H325.025V255.666H384.368V239.666ZM392.368 301.333V247.666H376.368V301.333H392.368ZM325.025 309.333H384.368V293.333H325.025V309.333ZM317.025 247.666V301.333H333.025V247.666H317.025ZM492 302.916H325.025V318.916H492V302.916ZM500 409.499V310.916H484V409.499H500ZM325.025 417.499H492V401.499H325.025V417.499ZM317.025 310.916V409.499H333.025V310.916H317.025Z" fill="#FF5A00"></path>
  </g>
  <path d="M279.844 330.417V308.417H3.914V330.417H279.844Z" fill="#F5F6FC"></path>
  <mask id="mask1_280_163" style="mask-type:luminance" maskUnits="userSpaceOnUse" x="0" y="183" width="288" height="158">
    <path d="M280 183H8C3.58172 183 0 186.582 0 191V333C0 337.418 3.58172 341 8 341H280C284.418 341 288 337.418 288 333V191C288 186.582 284.418 183 280 183Z" fill="white"></path>
  </mask>
  <g mask="url(#mask1_280_163)">
    <path fill-rule="evenodd" clip-rule="evenodd" d="M0 341L6.90639e-06 183H8.00001L8 341H0Z" fill="black"></path>
  </g>
  <path d="M280 187H8C5.79086 187 4 188.791 4 191V333C4 335.209 5.79086 337 8 337H280C282.209 337 284 335.209 284 333V191C284 188.791 282.209 187 280 187Z" stroke="#145FF5" stroke-width="8"></path>
  <path fill-rule="evenodd" clip-rule="evenodd" d="M31.2246 183V341H39.2246V183H31.2246ZM74.4248 183V341H82.4248V183H74.4248ZM117.625 341V183H125.625V341H117.625ZM160.824 183V341H168.824V183H160.824ZM204.024 341V183H212.024V341H204.024ZM247.225 183V341H255.225V183H247.225Z" fill="#145FF5"></path>
  <path d="M101.675 407.875C101.675 425.928 85.974 441 66.0472 441C46.1204 441 30.4189 425.928 30.4189 407.875C30.4189 389.822 46.1204 374.75 66.0472 374.75C85.974 374.75 101.675 389.822 101.675 407.875Z" fill="#F5F6FC" stroke="#145FF5" stroke-width="8"></path>
  <path d="M206.372 407.875C206.372 425.928 190.67 441 170.743 441C150.817 441 135.115 425.928 135.115 407.875C135.115 389.822 150.817 374.75 170.743 374.75C190.67 374.75 206.372 389.822 206.372 407.875Z" fill="#F5F6FC" stroke="#145FF5" stroke-width="8"></path>
  <path d="M447.077 407.875C447.077 425.928 431.375 441 411.449 441C391.522 441 375.82 425.928 375.82 407.875C375.82 389.822 391.522 374.75 411.449 374.75C431.375 374.75 447.077 389.822 447.077 407.875Z" fill="#F5F6FC" stroke="#145FF5" stroke-width="8"></path>
</svg>
