<?xml version="1.0" encoding="UTF-8"?>
<svg xmlns="http://www.w3.org/2000/svg" width="500" height="500" viewBox="0 0 500 500" fill="none">
  <path d="M103.332 263.374H82.5928V422.376H103.332V263.374Z" fill="#F5F6FC"></path>
  <path d="M416.152 423.24V402.501H91.234V423.24H416.152Z" fill="#F5F6FC"></path>
  <path d="M412.473 260.46H88C85.7909 260.46 84 262.251 84 264.46V421.289C84 423.498 85.7909 425.289 88 425.289H412.473C414.682 425.289 416.473 423.498 416.473 421.289V264.46C416.473 262.251 414.682 260.46 412.473 260.46Z" stroke="#FF5A00" stroke-width="8"></path>
  <path d="M85.2306 259.234L247.825 208.888" stroke="#FF5A00" stroke-width="8" stroke-linecap="round"></path>
  <path d="M413.514 259.234L250.92 208.887" stroke="#FF5A00" stroke-width="8" stroke-linecap="round"></path>
  <path d="M250.236 186.465V208.933" stroke="#FF5A00" stroke-width="8" stroke-linecap="round"></path>
  <path d="M127.528 286.706V399.909" stroke="#FF5A00" stroke-width="8" stroke-linecap="round"></path>
  <path d="M188.883 286.706V399.909" stroke="#FF5A00" stroke-width="8" stroke-linecap="round"></path>
  <path d="M250.237 286.706V399.909" stroke="#FF5A00" stroke-width="8" stroke-linecap="round"></path>
  <path d="M311.591 286.706V399.909" stroke="#FF5A00" stroke-width="8" stroke-linecap="round"></path>
  <path d="M372.945 286.706V399.909" stroke="#FF5A00" stroke-width="8" stroke-linecap="round"></path>
  <path fill-rule="evenodd" clip-rule="evenodd" d="M231.503 92.3992C230.468 87.4314 234.261 82.7676 239.335 82.7676H262.001C267.076 82.7676 270.868 87.4314 269.833 92.3992L264.525 117.878C263.752 121.588 260.483 124.246 256.693 124.246H254.78V129.792C268.369 131.969 278.752 143.746 278.752 157.949C278.752 173.699 265.985 186.466 250.235 186.466C234.486 186.466 221.719 173.699 221.719 157.949C221.719 157.734 221.721 157.519 221.726 157.305C221.721 157.232 221.719 157.159 221.719 157.085C221.719 155.176 223.267 153.628 225.176 153.628C227.085 153.628 228.632 155.176 228.632 157.085H229.737C229.725 157.372 229.719 157.66 229.719 157.949C229.719 169.28 238.904 178.466 250.235 178.466C261.567 178.466 270.752 169.28 270.752 157.949C270.752 146.908 262.03 137.903 251.1 137.45V136.332C250.994 136.341 250.887 136.345 250.78 136.345C248.571 136.345 246.78 134.554 246.78 132.345V124.246H244.643C240.854 124.246 237.584 121.588 236.811 117.878L231.503 92.3992Z" fill="#145FF5"></path>
</svg>
