<?xml version="1.0" encoding="UTF-8"?>
<svg xmlns="http://www.w3.org/2000/svg" width="500" height="500" viewBox="0 0 500 500" fill="none">
  <rect x="104.228" y="379.994" width="232.923" height="34.9618" rx="8" stroke="#FF5A00" stroke-width="8"></rect>
  <rect x="181.728" y="332.82" width="77.9237" height="45.9129" stroke="#FF5A00" stroke-width="8"></rect>
  <path fill-rule="evenodd" clip-rule="evenodd" d="M90.9618 132.755C88.7527 132.755 86.9618 134.546 86.9618 136.755C86.9618 138.965 88.7527 140.755 90.9618 140.755H110.953L126.501 241.149L127.026 244.537H130.454H210.815C213.024 244.537 214.815 242.746 214.815 240.537C214.815 238.327 213.024 236.537 210.815 236.537H133.882L133.272 232.597H211.772C214.203 232.597 216.394 231.13 217.32 228.882L244.603 162.623C246.229 158.674 243.326 154.338 239.055 154.338H121.152L118.334 136.143L117.81 132.755H114.381H90.9618ZM122.391 162.338L125.846 184.646H226.883L236.069 162.338H122.391ZM127.41 194.749L127.085 192.646H223.589L222.723 194.749H127.41ZM128.649 202.749L132.033 224.597H210.433L219.429 202.749H128.649ZM141.016 266.977C143.952 266.977 146.333 264.597 146.333 261.66C146.333 258.724 143.952 256.343 141.016 256.343C138.079 256.343 135.699 258.724 135.699 261.66C135.699 264.597 138.079 266.977 141.016 266.977ZM141.016 274.977C148.37 274.977 154.333 269.015 154.333 261.66C154.333 254.305 148.37 248.343 141.016 248.343C133.661 248.343 127.699 254.305 127.699 261.66C127.699 269.015 133.661 274.977 141.016 274.977ZM206.03 261.66C206.03 264.597 203.649 266.977 200.713 266.977C197.776 266.977 195.396 264.597 195.396 261.66C195.396 258.724 197.776 256.343 200.713 256.343C203.649 256.343 206.03 258.724 206.03 261.66ZM214.03 261.66C214.03 269.015 208.068 274.977 200.713 274.977C193.358 274.977 187.396 269.015 187.396 261.66C187.396 254.305 193.358 248.343 200.713 248.343C208.068 248.343 214.03 254.305 214.03 261.66Z" fill="#145FF5"></path>
  <path fill-rule="evenodd" clip-rule="evenodd" d="M390.523 168.113L468.534 181.84C471.403 182.345 473.494 184.837 473.494 187.749V294.957C473.494 295.468 473.431 295.994 473.283 296.534C470.053 308.269 462.134 325.843 448.674 341.182C435.186 356.553 415.967 369.85 390.227 372.483C390.066 372.503 389.903 372.513 389.739 372.512C389.574 372.513 389.411 372.503 389.251 372.483C363.51 369.85 344.292 356.553 330.803 341.182C317.343 325.843 309.424 308.269 306.194 296.534C306.046 295.994 305.983 295.468 305.983 294.957V187.749C305.983 184.837 308.075 182.345 310.943 181.84L388.954 168.113C389.209 168.062 389.472 168.035 389.739 168.036C390.005 168.035 390.268 168.062 390.523 168.113ZM389.739 364.491C412.825 362.034 430.205 350.101 442.661 335.905C455.128 321.698 462.498 305.394 465.494 294.683V189.428L389.739 176.098L313.983 189.428V294.683C316.979 305.394 324.349 321.698 336.816 335.905C349.272 350.101 366.652 362.034 389.739 364.491Z" fill="#FF5A00"></path>
  <path d="M334.412 237.842L381.405 325.347C382.18 326.789 384.265 326.74 384.972 325.263L438.868 212.57" stroke="#145FF5" stroke-width="8" stroke-linecap="round"></path>
  <path fill-rule="evenodd" clip-rule="evenodd" d="M60 90H381.379C383.589 90 385.379 91.7909 385.379 94V175.505H393.379V94C393.379 87.3726 388.007 82 381.379 82H60C53.3726 82 48 87.3726 48 94V323.559C48 330.186 53.3726 335.559 60 335.559H336.284C331.068 335.551 326.632 332.214 324.986 327.559H60C57.7909 327.559 56 325.768 56 323.559V94C56 91.7909 57.7909 90 60 90Z" fill="#FF5A00"></path>
  <path d="M269.548 160.342H346.206" stroke="#FF5A00" stroke-width="8" stroke-linecap="round"></path>
  <path d="M269.548 198.25H306.613M269.548 231.103H306.613" stroke="#FF5A00" stroke-width="8" stroke-linecap="round"></path>
  <path d="M269.548 269.01H306.613" stroke="#FF5A00" stroke-width="8" stroke-linecap="round"></path>
</svg>
