<?xml version="1.0" encoding="UTF-8"?>
<svg xmlns="http://www.w3.org/2000/svg" width="59" height="43" viewBox="0 0 59 43" fill="none">
  <path fill-rule="evenodd" clip-rule="evenodd" d="M51 1H8C4.13401 1 1 4.13401 1 8V34.6111C1 38.4771 4.13401 41.6111 8 41.6111H51C54.866 41.6111 58 38.4771 58 34.6111V8C58 4.13401 54.866 1 51 1ZM8 0C3.58172 0 0 3.58173 0 8V34.6111C0 39.0294 3.58172 42.6111 8 42.6111H51C55.4183 42.6111 59 39.0294 59 34.6111V8C59 3.58172 55.4183 0 51 0H8ZM54.3241 26.6266C54.3241 26.3483 54.4083 26.07 54.5556 25.8345C54.787 25.4813 54.9028 25.0745 54.9028 24.6464C54.9028 23.8757 54.5135 23.1799 53.8717 22.7839C53.4508 22.527 53.1878 22.0453 53.1878 21.5422V21.5422C53.1878 21.478 53.1878 21.4138 53.1983 21.3603C53.2089 21.2639 53.2194 21.1676 53.2194 21.082C53.2194 20.5468 53.0195 20.033 52.6723 19.6262C52.3145 19.2195 51.82 18.9733 51.294 18.9198C51.0204 18.8984 50.7574 18.7913 50.547 18.6094C50.326 18.4381 50.1682 18.2026 50.084 17.935C49.7894 17.0466 48.9793 16.4472 48.0534 16.4472C47.8009 16.4472 47.5589 16.49 47.3169 16.5863C46.7804 16.7897 46.1912 16.6505 45.8019 16.2331C45.3916 15.8049 44.855 15.5694 44.2658 15.5694C43.6766 15.5694 43.14 15.8049 42.7297 16.2331C42.3404 16.6398 41.7302 16.779 41.2146 16.5863C40.9726 16.5007 40.7306 16.4472 40.4781 16.4472C39.5523 16.4472 38.7421 17.0466 38.4475 17.935C38.3634 18.2026 38.2055 18.4381 37.9846 18.6094C37.7636 18.7806 37.5111 18.8877 37.2271 18.9198C36.6905 18.9733 36.2065 19.2195 35.8488 19.6262C35.491 20.0223 35.3017 20.5468 35.3017 21.082C35.3017 21.1783 35.3017 21.2746 35.3227 21.3603C35.3227 21.3938 35.3256 21.4274 35.3283 21.4594L35.3283 21.4595C35.3308 21.4887 35.3332 21.5167 35.3332 21.5422C35.3332 22.0453 35.0702 22.5163 34.6493 22.7839C34.0075 23.1799 33.6183 23.8757 33.6183 24.6464C33.6183 25.0638 33.734 25.4813 33.9655 25.8345C34.1128 26.07 34.1969 26.3483 34.1969 26.6266C34.1969 26.9049 34.1128 27.1832 33.9655 27.4187C33.734 27.7719 33.6183 28.1787 33.6183 28.6068C33.6183 29.3775 34.0075 30.0733 34.6493 30.4693C35.0702 30.7262 35.3332 31.2079 35.3332 31.711C35.3332 31.7752 35.3332 31.8394 35.3227 31.8929L35.3198 31.9192C35.3103 32.005 35.3017 32.0837 35.3017 32.1712C35.3017 32.7064 35.5016 33.2202 35.8488 33.627C36.2065 34.0337 36.701 34.2799 37.2271 34.3334C37.5006 34.3655 37.7636 34.4726 37.9846 34.6438C38.2055 34.8151 38.3634 35.0506 38.4475 35.3182C38.7421 36.2066 39.5523 36.806 40.4781 36.806C40.7306 36.806 40.9726 36.7632 41.2146 36.6669C41.7407 36.4742 42.3509 36.6133 42.7297 37.0201C43.14 37.4483 43.6766 37.6837 44.2658 37.6837C44.855 37.6837 45.3916 37.4483 45.8019 37.0201C46.1806 36.6133 46.7909 36.4742 47.3169 36.6669C47.5589 36.7525 47.8009 36.806 48.0534 36.806C48.9793 36.806 49.7894 36.2066 50.084 35.3182C50.1682 35.0506 50.326 34.8151 50.547 34.6438C50.7679 34.4726 51.0204 34.3655 51.294 34.3334C51.8306 34.2799 52.3145 34.0337 52.6723 33.627C53.03 33.2309 53.2194 32.7064 53.2194 32.1712C53.2194 32.0749 53.2194 31.9786 53.1983 31.8929C53.1983 31.8593 53.1955 31.8258 53.1927 31.7937C53.1902 31.7645 53.1878 31.7365 53.1878 31.711C53.1878 31.2079 53.4508 30.7369 53.8717 30.4693C54.5135 30.0733 54.9028 29.3775 54.9028 28.6068C54.9028 28.1894 54.787 27.7719 54.5556 27.4187C54.4083 27.1832 54.3241 26.9049 54.3241 26.6266ZM52.4934 31.9786C52.4934 32.0107 52.496 32.0428 52.4987 32.0749C52.5013 32.107 52.5039 32.1391 52.5039 32.1712C52.5039 32.5245 52.3777 32.8777 52.1357 33.1346C51.8937 33.4022 51.5675 33.5734 51.2098 33.6055C50.7995 33.6484 50.4102 33.8089 50.084 34.0658C49.7579 34.3334 49.5159 34.6759 49.3896 35.0827C49.2003 35.6821 48.6531 36.0782 48.0324 36.0782C47.8641 36.0782 47.6957 36.046 47.5379 35.9925C46.7593 35.7035 45.8335 35.9176 45.2653 36.517C44.9917 36.806 44.634 36.9559 44.2447 36.9559C43.8554 36.9559 43.4872 36.7953 43.2242 36.517C42.8244 36.0996 42.2667 35.8534 41.6881 35.8534C41.4356 35.8534 41.1831 35.8962 40.9516 35.9818C40.7938 36.046 40.6254 36.0674 40.4571 36.0674C39.8363 36.0674 39.2997 35.6714 39.0998 35.072C38.9736 34.6652 38.7316 34.3227 38.4054 34.0551C38.0793 33.7875 37.69 33.627 37.2797 33.5948C36.9219 33.5627 36.5958 33.3915 36.3538 33.1239C36.1118 32.8563 35.9855 32.5137 35.9855 32.1605C35.9855 32.0963 35.9855 32.0321 35.9961 31.9678C36.0066 31.8715 36.0171 31.7752 36.0171 31.6895C36.0171 30.9296 35.6173 30.2231 34.986 29.8271C34.5547 29.5595 34.3021 29.0992 34.3021 28.5854C34.3021 28.3071 34.3863 28.0288 34.5336 27.7933C34.7546 27.4401 34.8808 27.0333 34.8808 26.6052C34.8808 26.177 34.7651 25.7703 34.5336 25.417C34.3863 25.1816 34.3021 24.9033 34.3021 24.625C34.3021 24.1112 34.5547 23.6509 34.986 23.3833C35.6173 22.9873 36.0171 22.2808 36.0171 21.5208C36.0171 21.4245 36.0171 21.3389 35.9961 21.2425C35.9961 21.2104 35.9934 21.1783 35.9908 21.1462C35.9882 21.1141 35.9855 21.082 35.9855 21.0499C35.9855 20.6966 36.1118 20.3434 36.3538 20.0758C36.5958 19.8082 36.9219 19.6369 37.2797 19.6048C37.69 19.562 38.0793 19.4014 38.4054 19.1446C38.7316 18.877 38.9736 18.5344 39.0998 18.1277C39.2892 17.5283 39.8363 17.1322 40.4571 17.1322C40.6254 17.1322 40.7938 17.1643 40.9516 17.2178C41.7302 17.5069 42.6455 17.2928 43.2242 16.6934C43.4977 16.4044 43.8554 16.2545 44.2447 16.2545C44.634 16.2545 45.0023 16.4151 45.2653 16.6934C45.8545 17.3142 46.7488 17.5176 47.5379 17.2178C47.6957 17.1536 47.8641 17.1322 48.0324 17.1322C48.6426 17.1322 49.1897 17.5283 49.3896 18.1277C49.5159 18.5344 49.7579 18.877 50.084 19.1446C50.4102 19.4122 50.7995 19.5727 51.2098 19.6048C51.5675 19.6369 51.8937 19.8082 52.1357 20.0758C52.3777 20.3434 52.5039 20.6859 52.5039 21.0499C52.5039 21.1141 52.5039 21.1783 52.4934 21.2425L52.4905 21.2687C52.481 21.3546 52.4724 21.4333 52.4724 21.5208C52.4724 22.2808 52.8722 22.9873 53.5034 23.3833C53.9348 23.6509 54.1873 24.1112 54.1873 24.625C54.1873 24.9033 54.1032 25.1816 53.9559 25.417C53.7244 25.7703 53.6087 26.177 53.6087 26.6052C53.6087 27.0333 53.7244 27.4401 53.9559 27.7933C54.1032 28.0288 54.1873 28.3071 54.1873 28.5854C54.1873 29.0992 53.9348 29.5595 53.5034 29.8271C52.8722 30.2231 52.4724 30.9296 52.4724 31.6895V31.6896C52.4724 31.7859 52.4724 31.8715 52.4934 31.9678V31.9786ZM47.6326 18.4916C48.6637 18.9412 49.5895 19.5727 50.3892 20.3862C51.1888 21.1997 51.8095 22.1416 52.2514 23.1906C52.7038 24.2824 52.9353 25.4385 52.9353 26.6266C52.9353 27.8147 52.7038 28.9707 52.2514 30.0625C51.8095 31.1115 51.1888 32.0535 50.3892 32.867C49.6001 33.6805 48.6637 34.312 47.6326 34.7616C46.5594 35.2218 45.4231 35.4573 44.2553 35.4573C43.0874 35.4573 41.9511 35.2218 40.8779 34.7616C39.8469 34.312 38.921 33.6805 38.1214 32.867C37.3217 32.0535 36.701 31.1115 36.2591 30.0625C35.8067 28.9707 35.5752 27.8147 35.5752 26.6266C35.5752 25.4385 35.8067 24.2824 36.2591 23.1906C36.701 22.1416 37.3217 21.1997 38.1214 20.3862C38.9105 19.5727 39.8469 18.9412 40.8779 18.4916C41.9511 18.0313 43.0874 17.7959 44.2553 17.7959C45.4231 17.7959 46.5594 18.0313 47.6326 18.4916ZM49.8841 32.3532C51.3887 30.8225 52.2199 28.7888 52.2199 26.6266C52.2199 24.4537 51.3887 22.42 49.8841 20.8893C48.3901 19.3586 46.3911 18.513 44.2553 18.513C42.1194 18.513 40.1204 19.3479 38.6159 20.8893C37.1113 22.4307 36.2801 24.4644 36.2801 26.6266C36.2801 28.7888 37.1113 30.8225 38.6159 32.3532C40.1309 33.8839 42.13 34.7295 44.2553 34.7295C46.3806 34.7295 48.3796 33.8839 49.8841 32.3532ZM47.6957 21.7777C47.5379 21.6493 47.3169 21.6814 47.2012 21.8312L42.4456 27.7933L40.9095 26.2305C40.7727 26.0914 40.5413 26.0914 40.4045 26.2305L38.9105 27.7505C38.8473 27.8147 38.8052 27.9111 38.8052 28.0074C38.8052 28.1037 38.8473 28.1894 38.9105 28.2643L42.3825 31.7966C42.4456 31.8608 42.5403 31.9036 42.6455 31.9036C42.7507 31.9036 42.8454 31.8501 42.9085 31.7752L49.3896 23.6616C49.4528 23.5867 49.4738 23.4903 49.4633 23.394C49.4633 23.2977 49.4107 23.212 49.337 23.1478L47.6957 21.7991V21.7777ZM48.6111 23.4689L42.6034 30.9938L39.6575 27.9967L40.6465 26.9905L42.2141 28.5854C42.2878 28.6603 42.3825 28.6817 42.4877 28.6924C42.5929 28.6924 42.6876 28.6389 42.7507 28.564L47.5379 22.5698L48.6216 23.4689H48.6111ZM4.91667 5.73611H54.0833V4.73611H4.91667V5.73611ZM54.0834 9.01392H4.91671V8.01392H54.0834V9.01392ZM4.91671 17.2084H29.5V16.2084H4.91671V17.2084ZM29.5 22.125H4.91671V21.125H29.5V22.125ZM4.91671 27.0417H29.5V26.0417H4.91671V27.0417ZM29.5 31.9584H4.91671V30.9584H29.5V31.9584ZM4.91671 36.875H29.5V35.875H4.91671V36.875Z" fill="#145FF5"></path>
</svg>
