<?xml version="1.0" encoding="UTF-8"?>
<svg xmlns="http://www.w3.org/2000/svg" width="500" height="500" viewBox="0 0 500 500" fill="none">
  <path fill-rule="evenodd" clip-rule="evenodd" d="M73 140.186C70.7909 140.186 69 141.976 69 144.186C69 146.395 70.7909 148.186 73 148.186H124.42C126.406 148.186 128.092 149.643 128.379 151.608L135.37 199.51C135.169 200.413 135.124 201.37 135.26 202.348L156.893 357.383C157.135 359.114 157.919 360.652 159.06 361.833L162.179 383.202C163.039 389.097 168.095 393.469 174.053 393.469H355.407C357.616 393.469 359.407 391.678 359.407 389.469C359.407 387.26 357.616 385.469 355.407 385.469H174.053C172.067 385.469 170.382 384.012 170.095 382.046L167.502 364.277H356.751C359.957 364.277 362.853 362.364 364.11 359.415L430.21 204.38C432.46 199.102 428.588 193.242 422.851 193.242H143.183C142.968 193.242 142.754 193.251 142.543 193.267L136.295 150.453C135.434 144.557 130.378 140.186 124.42 140.186H73ZM166.334 356.277L143.707 201.242H422.851L356.751 356.277H166.334Z" fill="#FF5A00"></path>
  <path d="M191.557 459.716C203.279 459.716 212.781 450.214 212.781 438.492C212.781 426.77 203.279 417.268 191.557 417.268C179.835 417.268 170.333 426.77 170.333 438.492C170.333 450.214 179.835 459.716 191.557 459.716Z" fill="#F5F6FC" stroke="#145FF5" stroke-width="8"></path>
  <path d="M331.825 459.716C343.547 459.716 353.049 450.214 353.049 438.492C353.049 426.77 343.547 417.268 331.825 417.268C320.103 417.268 310.601 426.77 310.601 438.492C310.601 450.214 320.103 459.716 331.825 459.716Z" fill="#F5F6FC" stroke="#145FF5" stroke-width="8"></path>
  <path d="M151.567 269.309H396.424" stroke="#FF5A00" stroke-width="8" stroke-linecap="round"></path>
  <path d="M154.029 292.686H382.89" stroke="#FF5A00" stroke-width="8" stroke-linecap="round"></path>
</svg>
