<?xml version="1.0" encoding="UTF-8"?>
<svg xmlns="http://www.w3.org/2000/svg" width="1000" height="400" viewBox="0 0 1000 400" fill="none">
  <g clip-path="url(#clip0_498_7085)">
    <path fill-rule="evenodd" clip-rule="evenodd" d="M20.7517 148.158C33.9532 135.205 52.6163 128.516 71.002 128.852C90.7166 128.735 111.176 135.774 124.567 150.684C132.672 159.461 137.448 171.012 138.455 182.885C126.364 182.943 114.287 182.943 102.21 182.899C96.1491 161.914 67.1467 155.153 50.3674 167.478C33.4859 179.555 30.0687 205.403 41.2987 222.416C48.3667 233.617 62.0209 240.539 75.2808 238.29C88.1756 237.122 100.004 227.454 102.195 214.428C114.17 214.18 126.159 214.428 138.134 214.311C138.265 231.251 129.313 247.709 115.674 257.581C102.502 267.322 85.8099 271.396 69.6001 271.148C51.9592 271.075 34.1138 264.693 21.3358 252.368C-6.95099 225.614 -7.08241 175.262 20.7517 148.158ZM210.552 130.78C228.748 126.443 248.711 129.349 264.614 139.337C280.619 149.034 292.39 165.375 296.625 183.6C300.977 202.015 297.735 222.168 287.468 238.115C277.611 253.828 261.343 265.35 243.249 269.395C225.214 273.514 205.558 270.447 189.874 260.56C172.905 250.192 160.725 232.376 157.279 212.778C153.789 193.94 158.257 173.728 169.619 158.263C179.403 144.609 194.211 134.679 210.552 130.78ZM215.415 164.82C197.73 169.8 183.959 187.777 186.719 206.498C198.548 209.507 209.369 216.692 215.999 227.031C222.556 236.319 225.316 247.519 227.361 258.501C229.464 245.168 233.757 231.66 242.972 221.452C249.456 213.946 258.422 209.054 267.914 206.484C268.192 200.964 268.265 195.254 266.264 190.011C259.415 170.019 235.466 158.19 215.415 164.82ZM596.418 144.01C608.67 133.978 624.968 130.605 640.477 130.59C655.328 130.707 671.115 133.16 683.192 142.477C692.231 149.268 697.459 160.673 696.7 171.961C696.393 183.25 689.69 193.794 679.891 199.27C688.478 202.775 696.276 209.551 698.788 218.765C702.381 232.215 697.883 247.753 686.828 256.471C674.298 266.46 657.636 269.118 642.039 269.352C624.866 269.571 606.305 266.504 593.001 254.792C582.311 245.548 577.419 231.105 577.828 217.217C590.051 217.174 602.289 217.217 614.512 217.217C614.658 224.037 616.439 231.47 622.076 235.881C629.553 241.795 640.009 242.087 649.005 240.335C656.351 238.962 662.966 232.449 662.323 224.607C663.054 217.67 657.446 211.58 650.743 210.719C641.864 209.521 632.839 209.945 623.916 210.237C623.639 202.249 623.829 194.261 623.785 186.273C632.24 186.2 640.725 186.433 649.166 185.937C656.555 185.338 661.71 177.934 660.454 170.779C659.958 163.813 652.846 160.191 646.683 159.49C638.856 158.745 629.991 158.57 623.508 163.74C618.265 167.756 616.6 174.634 616.498 180.928C604.216 181.205 591.92 180.928 579.624 181.074C579.274 167.04 585.378 152.831 596.418 144.025V144.01ZM438.161 149.326C452.56 134.723 474.684 128.516 494.632 132.897C504.3 134.971 512.624 140.929 518.962 148.362C518.859 143.66 518.859 138.958 518.889 134.255C531.506 134.372 544.138 134.343 556.77 134.27C556.843 178.109 556.726 221.949 556.814 265.788C544.153 265.847 531.491 265.832 518.83 265.803C518.903 261.057 518.903 256.311 518.889 251.565C510.667 262.079 497.611 268.373 484.279 268.373C466.915 269.162 449.318 262.4 437.285 249.812C423.046 235.223 417.205 214.005 418.738 194.013C419.761 177.496 426.215 160.994 438.161 149.326ZM477.561 165.565C472.158 167.288 467.222 170.399 463.264 174.444C451.333 186.652 449.931 207.389 459.789 221.248C466.886 231.792 480.336 237.75 492.895 235.457C503.818 233.734 513.442 226.096 518.012 216.078C524.438 202.526 521.999 185.017 511.368 174.24C502.898 165.361 489.288 161.739 477.561 165.565ZM317.157 134.241C348.087 134.445 379.017 134.212 409.933 134.358C409.933 144.872 410.02 155.372 409.918 165.872C391.605 165.813 373.293 165.901 354.98 165.828C354.951 199.153 354.98 232.478 354.98 265.803C342.348 265.847 329.716 265.803 317.07 265.832C317.099 221.963 316.909 178.095 317.172 134.241H317.157Z" fill="#272D6B"></path>
  </g>
  <defs>
    <clipPath id="clip0_498_7085">
      <rect width="700" height="142.354" fill="white" transform="translate(0 128.823)"></rect>
    </clipPath>
  </defs>
</svg>
