<?xml version="1.0" encoding="UTF-8"?>
<svg xmlns="http://www.w3.org/2000/svg" width="105" height="106" viewBox="0 0 105 106" fill="none">
  <mask id="path-1-inside-1_277_2563" fill="white">
    <path fill-rule="evenodd" clip-rule="evenodd" d="M67.3187 62.5696L95.2749 63.3546V42.421L68.0562 43.368L83.3187 20.989L65.5312 10.8088L53.125 34.9198L41.0499 10.977L22.2312 20.0046L37.2437 43.3742L9.81871 42.4272V63.3608L37.2437 61.6724L22.2312 86.1572L41.2187 94.811L53.2125 70.3262L65.6187 94.811L83.1937 84.4626L67.3125 62.582M104.956 0.666016H0.25V105.041H104.956V0.666016Z"></path>
  </mask>
  <path d="M95.2749 63.3546L95.2574 63.9793L95.8999 63.9974V63.3546H95.2749ZM95.2749 42.421H95.8999V41.7739L95.2532 41.7964L95.2749 42.421ZM68.0562 43.368L67.5399 43.0158L66.8445 44.0355L68.078 43.9926L68.0562 43.368ZM83.3187 20.989L83.835 21.3412L84.2161 20.7825L83.6292 20.4466L83.3187 20.989ZM65.5312 10.8088L65.8417 10.2664L65.2745 9.94177L64.9755 10.5229L65.5312 10.8088ZM53.125 34.9198L52.5669 35.2012L53.1194 36.2967L53.6807 35.2058L53.125 34.9198ZM41.0499 10.977L41.608 10.6956L41.3321 10.1485L40.7796 10.4135L41.0499 10.977ZM22.2312 20.0046L21.9609 19.4411L21.3229 19.7472L21.7054 20.3424L22.2312 20.0046ZM37.2437 43.3742L37.2221 43.9989L38.4143 44.04L37.7696 43.0364L37.2437 43.3742ZM9.81871 42.4272L9.84028 41.8026L9.19371 41.7803V42.4272H9.81871ZM9.81871 63.3608H9.19371V64.0255L9.85711 63.9846L9.81871 63.3608ZM37.2437 61.6724L37.7765 61.9991L38.4046 60.9748L37.2053 61.0486L37.2437 61.6724ZM22.2312 86.1572L21.6984 85.8305L21.329 86.4329L21.972 86.7259L22.2312 86.1572ZM41.2187 94.811L40.9595 95.3797L41.5126 95.6318L41.78 95.0859L41.2187 94.811ZM53.2125 70.3262L53.77 70.0437L53.203 68.9247L52.6512 70.0512L53.2125 70.3262ZM65.6187 94.811L65.0612 95.0935L65.3621 95.6874L65.9358 95.3496L65.6187 94.811ZM83.1937 84.4626L83.5108 85.0011L84.1036 84.6521L83.6995 84.0955L83.1937 84.4626ZM104.956 0.666016H105.581V0.0410156H104.956V0.666016ZM0.25 0.666016V0.0410156H-0.375V0.666016H0.25ZM0.25 105.041H-0.375V105.666H0.25V105.041ZM104.956 105.041V105.666H105.581V105.041H104.956ZM67.3012 63.1943L95.2574 63.9793L95.2925 62.7298L67.3363 61.9448L67.3012 63.1943ZM95.8999 63.3546V42.421H94.6499V63.3546H95.8999ZM95.2532 41.7964L68.0345 42.7434L68.078 43.9926L95.2967 43.0456L95.2532 41.7964ZM68.5726 43.7201L83.835 21.3412L82.8023 20.6369L67.5399 43.0158L68.5726 43.7201ZM83.6292 20.4466L65.8417 10.2664L65.2208 11.3513L83.0082 21.5315L83.6292 20.4466ZM64.9755 10.5229L52.5692 34.6338L53.6807 35.2058L66.087 11.0948L64.9755 10.5229ZM53.683 34.6384L41.608 10.6956L40.4919 11.2585L52.5669 35.2012L53.683 34.6384ZM40.7796 10.4135L21.9609 19.4411L22.5015 20.5682L41.3203 11.5406L40.7796 10.4135ZM21.7054 20.3424L36.7179 43.712L37.7696 43.0364L22.757 19.6668L21.7054 20.3424ZM37.2653 42.7496L9.84028 41.8026L9.79714 43.0519L37.2221 43.9989L37.2653 42.7496ZM9.19371 42.4272V63.3608H10.4437V42.4272H9.19371ZM9.85711 63.9846L37.2821 62.2962L37.2053 61.0486L9.78031 62.737L9.85711 63.9846ZM36.7109 61.3457L21.6984 85.8305L22.764 86.4839L37.7765 61.9991L36.7109 61.3457ZM21.972 86.7259L40.9595 95.3797L41.4779 94.2423L22.4904 85.5885L21.972 86.7259ZM41.78 95.0859L53.7738 70.6011L52.6512 70.0512L40.6574 94.536L41.78 95.0859ZM52.655 70.6087L65.0612 95.0935L66.1762 94.5285L53.77 70.0437L52.655 70.6087ZM65.9358 95.3496L83.5108 85.0011L82.8766 83.924L65.3016 94.2724L65.9358 95.3496ZM83.6995 84.0955L67.8183 62.2149L66.8066 62.9491L82.6879 84.8297L83.6995 84.0955ZM104.956 0.0410156H0.25V1.29102H104.956V0.0410156ZM-0.375 0.666016V105.041H0.875V0.666016H-0.375ZM0.25 105.666H104.956V104.416H0.25V105.666ZM105.581 105.041V0.666016H104.331V105.041H105.581Z" fill="#145FF5" mask="url(#path-1-inside-1_277_2563)"></path>
</svg>
