<?xml version="1.0" encoding="UTF-8"?>
<svg xmlns="http://www.w3.org/2000/svg" width="106" height="105" viewBox="0 0 106 105" fill="none">
  <mask id="path-1-inside-1_277_2541" fill="white">
    <path fill-rule="evenodd" clip-rule="evenodd" d="M17.1571 51.4672L0.75 36.1626V0.25H34.0688L53.1 18.0004V51.4672H69.511L53.1 36.1626V0.25H86.4188L105.456 18.0004V52.3221L104.744 53.258H87.22L105.456 70.2658V104.587L105.425 104.625H70.4749L53.1 88.4219V104.587L53.0687 104.625H18.1187L0.75 88.4218V51.4672H17.1571ZM34.5494 52.9647L53.0999 70.2657V52.3223L52.6187 52.9647H34.5494Z"></path>
  </mask>
  <path d="M0.75 36.1626H0.125V36.4343L0.323681 36.6197L0.75 36.1626ZM17.1571 51.4672V52.0922H18.7434L17.5834 51.0102L17.1571 51.4672ZM0.75 0.25V-0.375H0.125V0.25H0.75ZM34.0688 0.25L34.495 -0.207054L34.315 -0.375H34.0688V0.25ZM53.1 18.0004H53.725V17.7287L53.5263 17.5434L53.1 18.0004ZM53.1 51.4672H52.475V52.0922H53.1V51.4672ZM69.511 51.4672V52.0922H71.0976L69.9373 51.0101L69.511 51.4672ZM53.1 36.1626H52.475V36.4344L52.6737 36.6197L53.1 36.1626ZM53.1 0.25V-0.375H52.475V0.25H53.1ZM86.4188 0.25L86.845 -0.207124L86.6649 -0.375H86.4188V0.25ZM105.456 18.0004H106.081V17.7286L105.882 17.5433L105.456 18.0004ZM105.456 52.3221L105.954 52.7007L106.081 52.5329V52.3221H105.456ZM104.744 53.258V53.883H105.053L105.241 53.6366L104.744 53.258ZM87.22 53.258V52.633H85.6335L86.7937 53.715L87.22 53.258ZM105.456 70.2658H106.081V69.9941L105.882 69.8087L105.456 70.2658ZM105.456 104.587L105.936 104.988L106.081 104.814V104.587H105.456ZM105.425 104.625V105.25H105.717L105.905 105.025L105.425 104.625ZM70.4749 104.625L70.0486 105.082L70.2287 105.25H70.4749V104.625ZM53.1 88.4219L53.5263 87.9648L52.475 86.9845V88.4219H53.1ZM53.1 104.587L53.5798 104.988L53.725 104.814V104.587H53.1ZM53.0687 104.625V105.25H53.3612L53.5486 105.025L53.0687 104.625ZM18.1187 104.625L17.6924 105.082L17.8725 105.25H18.1187V104.625ZM0.75 88.4218H0.125V88.6935L0.32366 88.8788L0.75 88.4218ZM0.75 51.4672V50.8422H0.125V51.4672H0.75ZM34.5494 52.9647V52.3397H32.9629L34.1231 53.4218L34.5494 52.9647ZM53.0999 70.2657L52.6736 70.7227L53.7249 71.7032V70.2657H53.0999ZM53.0999 52.3223H53.7249V50.445L52.5996 51.9476L53.0999 52.3223ZM52.6187 52.9647V53.5897H52.9315L53.119 53.3394L52.6187 52.9647ZM0.323681 36.6197L16.7308 51.9242L17.5834 51.0102L1.17632 35.7056L0.323681 36.6197ZM0.125 0.25V36.1626H1.375V0.25H0.125ZM34.0688 -0.375H0.75V0.875H34.0688V-0.375ZM53.5263 17.5434L34.495 -0.207054L33.6425 0.707054L52.6737 18.4575L53.5263 17.5434ZM53.725 51.4672V18.0004H52.475V51.4672H53.725ZM69.511 50.8422H53.1V52.0922H69.511V50.8422ZM52.6737 36.6197L69.0848 51.9243L69.9373 51.0101L53.5263 35.7056L52.6737 36.6197ZM52.475 0.25V36.1626H53.725V0.25H52.475ZM86.4188 -0.375H53.1V0.875H86.4188V-0.375ZM105.882 17.5433L86.845 -0.207124L85.9925 0.707124L105.03 18.4576L105.882 17.5433ZM106.081 52.3221V18.0004H104.831V52.3221H106.081ZM105.241 53.6366L105.954 52.7007L104.959 51.9435L104.246 52.8794L105.241 53.6366ZM87.22 53.883H104.744V52.633H87.22V53.883ZM105.882 69.8087L87.6462 52.8009L86.7937 53.715L105.03 70.7229L105.882 69.8087ZM106.081 104.587V70.2658H104.831V104.587H106.081ZM105.905 105.025L105.936 104.988L104.976 104.187L104.945 104.224L105.905 105.025ZM70.4749 105.25H105.425V104H70.4749V105.25ZM52.6737 88.879L70.0486 105.082L70.9011 104.168L53.5263 87.9648L52.6737 88.879ZM52.475 88.4219V104.587H53.725V88.4219H52.475ZM52.6201 104.187L52.5889 104.224L53.5486 105.025L53.5798 104.988L52.6201 104.187ZM53.0687 104H18.1187V105.25H53.0687V104ZM18.5451 104.168L1.17634 87.9648L0.32366 88.8788L17.6924 105.082L18.5451 104.168ZM1.375 88.4218V51.4672H0.125V88.4218H1.375ZM0.75 52.0922H17.1571V50.8422H0.75V52.0922ZM34.1231 53.4218L52.6736 70.7227L53.5261 69.8086L34.9757 52.5077L34.1231 53.4218ZM52.4749 52.3223V70.2657H53.7249V52.3223H52.4749ZM53.119 53.3394L53.6001 52.6969L52.5996 51.9476L52.1185 52.5901L53.119 53.3394ZM34.5494 53.5897H52.6187V52.3397H34.5494V53.5897Z" fill="#145FF5" mask="url(#path-1-inside-1_277_2541)"></path>
</svg>
