<?xml version="1.0" encoding="UTF-8"?>
<svg xmlns="http://www.w3.org/2000/svg" width="1000" height="400" viewBox="0 0 1000 400" fill="none">
  <g clip-path="url(#clip0_498_7065)">
    <path fill-rule="evenodd" clip-rule="evenodd" d="M65.1054 165.613C59.0209 165.613 54.5085 168.301 50.9083 174.046C47.0751 180.17 45.1343 188.738 45.1343 199.52C45.1343 211.281 46.9684 220.287 50.588 226.303C54.0427 232.048 58.7298 234.823 64.9308 234.823C70.2584 234.823 74.9843 232.029 78.5942 226.73C82.1557 221.529 85.0766 212.494 88.0752 197.559C85.688 186.516 82.3594 177.918 78.4195 172.717C74.7417 167.865 70.5107 165.613 65.0957 165.613H65.1054Z" fill="#DD1E35"></path>
    <path fill-rule="evenodd" clip-rule="evenodd" d="M102.156 127.292H43.2709C19.3986 127.292 0 146.7 0 170.553V229.447C0 253.29 19.3986 272.708 43.2612 272.708H102.146C125.989 272.708 145.407 253.29 145.407 229.447V170.553C145.407 146.7 125.999 127.292 102.146 127.292H102.156ZM128.871 222.499C128.871 230.117 128.008 234.755 125.892 238.482C123.505 242.693 118.837 245.314 113.733 245.314C108.628 245.314 104.252 242.917 101.205 238.734C99.3221 236.153 97.7403 232.688 96.1779 227.633C92.4612 232.756 88.5117 236.706 84.203 239.559C77.5265 243.974 70.3066 246.216 62.7665 246.216C49.8018 246.216 39.9132 242.034 31.6356 233.057C23.7073 224.459 19.68 213.047 19.68 199.151C19.68 186.681 23.9111 175.463 31.9364 166.71C40.0006 157.918 50.1899 153.464 62.2425 153.464C70.9762 153.464 78.2058 156.278 84.3583 162.062C87.8906 165.39 91.0638 170.116 93.0532 174.357C93.1502 174.57 93.257 174.803 93.3637 175.036C95.3531 165.584 97.5559 155.181 97.5559 155.181H121.428C121.428 155.181 108.842 199.51 104.766 213.348C106.202 217.307 107.629 219.5 109.211 221.325C110.53 222.848 112.141 223.596 114.15 223.596C116.77 223.596 118.362 221.043 118.565 218.52L118.614 217.87H128.871V222.499Z" fill="#DD1E35"></path>
    <path fill-rule="evenodd" clip-rule="evenodd" d="M189.493 187.7L191.007 180.858H212.162L213.666 187.7C214.064 189.476 215.869 190.931 217.684 190.931H225.67L218.188 157.297C216.539 149.873 211.852 144.681 201.565 144.681C191.89 144.681 186.592 149.873 184.942 157.297L177.479 190.931H185.466C187.29 190.931 189.095 189.476 189.484 187.7H189.493ZM195.723 159.461C196.15 157.539 197.645 154.589 201.585 154.589C205.525 154.589 207.019 157.529 207.446 159.461L210.066 171.377H193.093L195.723 159.461Z" fill="#DD1E35"></path>
    <path fill-rule="evenodd" clip-rule="evenodd" d="M274.191 190.931V145.758H240.945C237.306 145.758 234.326 148.737 234.326 152.377V175.201C234.326 178.258 232.919 180.198 230.474 180.693L228.203 181.227L230.251 190.931H232.347C239.887 190.931 245.341 185.322 245.341 175.764V155.899H263.148V190.921H274.172L274.191 190.931Z" fill="#DD1E35"></path>
    <path fill-rule="evenodd" clip-rule="evenodd" d="M350.941 190.922H354.959V196.395H362.674C364.498 196.395 365.983 194.901 365.983 193.096V190.922H370C383.625 190.922 392.145 181.635 392.145 168.34C392.145 155.046 383.625 145.759 370 145.759H365.983V140.509H358.258C356.434 140.509 354.949 141.994 354.949 143.808V145.759H350.932C337.307 145.759 328.787 155.046 328.787 168.34C328.787 181.635 337.307 190.922 350.932 190.922H350.941ZM365.983 155.735H370C377.55 155.735 381.111 160.509 381.111 168.34C381.111 176.172 377.55 180.946 370 180.946H365.983V155.735ZM350.941 155.735H354.959V180.946H350.941C343.391 180.946 339.82 176.172 339.82 168.34C339.82 160.509 343.391 155.735 350.941 155.735Z" fill="#DD1E35"></path>
    <path fill-rule="evenodd" clip-rule="evenodd" d="M284.866 190.922H308.408C318.015 190.922 325.254 183.682 325.254 174.065C325.254 164.449 319.18 157.209 308.408 157.209H292.581V145.768H281.557V187.622C281.557 189.437 283.041 190.931 284.866 190.931V190.922ZM292.581 167.35H308.408C311.096 167.35 314.231 169.757 314.231 174.065C314.231 178.374 311.086 180.781 308.408 180.781H292.581V167.35Z" fill="#DD1E35"></path>
    <path fill-rule="evenodd" clip-rule="evenodd" d="M404.557 187.7L406.071 180.858H427.226L428.73 187.7C429.118 189.476 430.933 190.931 432.757 190.931H440.734L433.271 157.297C431.612 149.873 426.935 144.681 416.648 144.681C406.983 144.681 401.675 149.873 400.025 157.297L392.553 190.931H400.539C402.354 190.931 404.169 189.476 404.557 187.7ZM410.777 159.461C411.214 157.539 412.708 154.589 416.648 154.589C420.588 154.589 422.073 157.529 422.51 159.461L425.13 171.377H408.157L410.777 159.461Z" fill="#DD1E35"></path>
    <path fill-rule="evenodd" clip-rule="evenodd" d="M497.183 230.873C499.124 228.952 500.376 226.351 500.376 222.732C500.376 214.726 494.175 209.126 486.169 209.126H459.21C457.396 209.126 455.901 210.611 455.901 212.436V250.99C455.901 252.805 457.386 254.299 459.21 254.299H487.867C496.309 254.299 501.918 248.263 501.918 240.257C501.918 236.23 499.997 233.076 497.183 230.873ZM466.712 218.51H486.159C487.624 218.51 489.633 220.16 489.633 222.965C489.633 225.769 487.624 227.234 486.159 227.419H466.712V218.51ZM487.042 244.935H466.712V236.026H487.042C488.507 236.211 490.506 237.647 490.506 240.481C490.506 243.314 488.507 244.935 487.042 244.935Z" fill="#DD1E35"></path>
    <path fill-rule="evenodd" clip-rule="evenodd" d="M428.119 208.088H424.344C410.709 208.088 401.189 217.793 401.189 231.708C401.189 245.624 410.709 255.338 424.344 255.338H428.119C441.753 255.338 451.273 245.624 451.273 231.708C451.273 217.793 441.753 208.088 428.119 208.088ZM427.459 246.003H425.013C417.415 246.003 413.106 239.802 413.106 231.708C413.106 223.615 417.425 217.414 425.013 217.414H427.459C435.047 217.414 439.366 223.605 439.366 231.708C439.366 239.811 435.047 246.003 427.459 246.003Z" fill="#DD1E35"></path>
    <path fill-rule="evenodd" clip-rule="evenodd" d="M220.042 215.968C220.43 217.792 222.235 219.277 224.059 219.277H234.336V254.309H245.36V219.277H255.316C257.131 219.277 258.936 217.792 259.324 215.968L260.78 209.136H218.596L220.042 215.968Z" fill="#DD1E35"></path>
    <path fill-rule="evenodd" clip-rule="evenodd" d="M589.993 227.069H568.528V209.126H557.504V254.299H568.528V236.754H589.993V254.299H601.017V209.126H589.993V227.069Z" fill="#DD1E35"></path>
    <path fill-rule="evenodd" clip-rule="evenodd" d="M330.291 208.04C320.625 208.04 315.327 213.232 313.677 220.665L306.205 254.3H314.192C316.006 254.3 317.821 252.854 318.209 251.078L319.713 244.227H340.859L342.372 251.078C342.761 252.854 344.566 254.3 346.39 254.3H354.377L346.914 220.665C345.255 213.232 340.577 208.04 330.281 208.04H330.291ZM321.809 234.736L324.439 222.819C324.866 220.898 326.361 217.948 330.291 217.948C334.221 217.948 335.725 220.898 336.152 222.829L338.772 234.736H321.8H321.809Z" fill="#DD1E35"></path>
    <path fill-rule="evenodd" clip-rule="evenodd" d="M528.537 208.04C518.872 208.04 513.573 213.232 511.923 220.665L504.461 254.3H512.447C514.262 254.3 516.077 252.854 516.455 251.078L517.969 244.227H539.114L540.628 251.078C541.016 252.854 542.831 254.3 544.646 254.3H552.642L545.17 220.665C543.51 213.232 538.833 208.04 528.537 208.04ZM520.055 234.736L522.685 222.819C523.122 220.898 524.607 217.948 528.537 217.948C532.467 217.948 533.971 220.898 534.408 222.829L537.028 234.736H520.055Z" fill="#DD1E35"></path>
    <path fill-rule="evenodd" clip-rule="evenodd" d="M216.403 244.159H200.478C193.511 244.159 189.357 238.957 189.357 231.718C189.357 224.479 193.511 219.267 200.478 219.267H211.172C212.997 219.267 214.821 217.821 215.229 216.055L216.83 209.136H200.488C187.446 209.136 178.343 218.423 178.343 231.718C178.343 245.013 187.446 254.309 200.488 254.309H222.031V254.183L220.459 247.39C220.052 245.614 218.227 244.168 216.413 244.168L216.403 244.159Z" fill="#DD1E35"></path>
    <path fill-rule="evenodd" clip-rule="evenodd" d="M290.319 209.127H266.787C264.962 209.127 263.478 210.621 263.478 212.436V254.29H274.501V242.829H290.319C301.11 242.829 307.175 235.58 307.175 225.983C307.175 216.386 299.936 209.117 290.319 209.117V209.127ZM290.319 232.698H274.501V219.277H290.319C293.017 219.277 296.151 221.684 296.151 225.993C296.151 230.301 293.007 232.698 290.319 232.698Z" fill="#DD1E35"></path>
    <path fill-rule="evenodd" clip-rule="evenodd" d="M694.488 244.76H670.732V236.085H696.555V227.37H670.732V218.656H694.488C696.438 218.656 697.991 217.802 698.525 215.434L700 209.126H663.017C661.202 209.126 659.708 210.611 659.708 212.436V250.99C659.708 252.805 661.202 254.299 663.017 254.299H700L698.525 247.992C697.991 245.624 696.438 244.76 694.488 244.76Z" fill="#DD1E35"></path>
    <path fill-rule="evenodd" clip-rule="evenodd" d="M638.709 211.796L619.611 238.928V209.127H608.577V254.29H616.758C618.572 254.29 620.95 253.087 622.017 251.621L641.125 224.489V254.28H652.159V209.117H643.988C642.163 209.117 639.795 210.321 638.718 211.786L638.709 211.796Z" fill="#DD1E35"></path>
    <path fill-rule="evenodd" clip-rule="evenodd" d="M403.033 209.136H392.902C390.709 209.136 389.175 209.796 387.817 211.921L379.617 224.799H378.151L369.951 211.921C368.602 209.796 367.069 209.136 364.866 209.136H354.405L370.126 231.96L354.735 254.309H364.866C367.069 254.309 368.593 253.649 369.951 251.524L378.151 238.647H379.617L387.817 251.524C389.166 253.649 390.709 254.309 392.902 254.309H403.353L387.642 231.485L403.033 209.146V209.136Z" fill="#DD1E35"></path>
  </g>
  <defs>
    <clipPath id="clip0_498_7065">
      <rect width="700" height="145.417" fill="white" transform="translate(0 127.292)"></rect>
    </clipPath>
  </defs>
</svg>
