<?xml version="1.0" encoding="UTF-8"?>
<svg xmlns="http://www.w3.org/2000/svg" width="1000" height="400" viewBox="0 0 1000 400" fill="none">
  <g clip-path="url(#clip0_498_8704)">
    <path fill-rule="evenodd" clip-rule="evenodd" d="M65.2869 236.472H49.5884V188.612L15.1223 236.472H0V163.529H15.8866V211.401L50.5409 163.529H65.2869V236.483V236.472ZM76.7756 163.718H92.8622V192.433H125.024V163.718H141.11V236.472H125.024V207.179H92.8622V236.472H76.7756V163.718ZM168.485 236.472H152.599V163.529H201.999V178.075H168.497V236.472H168.485ZM279.151 200.089C279.151 177.876 263.064 162.753 240.863 162.365H240.475C218.262 162.553 202.187 177.876 202.187 199.889C202.187 221.902 218.274 237.224 240.475 237.412H240.863C263.076 237.412 279.151 222.09 279.151 200.077V200.089ZM240.663 222.878C227.834 222.878 218.838 214.07 218.838 200.089C218.838 186.107 227.834 177.299 240.663 177.299C253.492 177.299 262.488 186.107 262.488 200.089C262.488 214.07 253.492 222.878 240.663 222.878ZM446.684 178.464H423.13V163.718H486.124V178.464H462.77V236.472H446.684V178.464ZM495.896 163.718H528.634C546.061 163.718 556.585 174.054 556.585 188.988C556.585 205.839 543.568 214.647 527.105 214.647H511.983V236.472H495.896V163.718ZM527.493 200.289C535.536 200.289 540.134 195.503 540.134 188.988C540.134 181.909 535.16 177.887 527.117 177.887H511.794V200.1H527.493V200.289ZM700 236.472L674.153 199.136L698.848 163.529H680.468L664.958 185.931L649.447 163.529H630.491L655.386 199.524L629.539 236.472H647.919L664.581 212.542L681.044 236.472H700ZM611.547 236.472H627.822L596.602 163.141H581.856L550.647 236.472H566.921L573.812 219.621H604.633L611.524 236.472H611.547ZM579.574 205.451L589.334 182.662L599.095 205.451H579.563H579.574ZM324.541 222.878C311.712 222.878 302.716 214.07 302.716 200.089C302.716 186.107 311.712 177.299 324.541 177.299C331.244 177.299 336.794 179.216 341.58 183.238L351.54 173.278C344.838 166.763 335.842 162.553 324.73 162.553H324.341C302.128 162.742 286.054 178.064 286.054 200.077C286.054 222.09 302.14 237.412 324.341 237.6H324.73C335.642 237.412 344.638 233.202 351.54 226.876L341.58 216.916C336.794 220.938 331.244 222.854 324.541 222.854V222.878ZM391.357 222.878C378.528 222.878 369.532 214.07 369.532 200.089C369.532 186.107 378.528 177.299 391.357 177.299C398.06 177.299 403.61 179.216 408.396 183.238L418.356 173.278C411.653 166.763 402.658 162.553 391.557 162.553H391.169C368.956 162.742 352.881 178.064 352.881 200.077C352.881 222.09 368.968 237.412 391.169 237.6H391.557C402.469 237.412 411.465 233.202 418.356 226.876L408.396 216.916C403.61 220.938 398.06 222.854 391.357 222.854V222.878Z" fill="#0047BB"></path>
  </g>
  <defs>
    <clipPath id="clip0_498_8704">
      <rect width="700" height="75.2469" fill="white" transform="translate(0 162.377)"></rect>
    </clipPath>
  </defs>
</svg>
