<?xml version="1.0" encoding="UTF-8"?>
<svg xmlns="http://www.w3.org/2000/svg" width="1000" height="400" viewBox="0 0 1000 400" fill="none">
  <g clip-path="url(#clip0_498_7088)">
    <path fill-rule="evenodd" clip-rule="evenodd" d="M609.069 109.441C639.374 109.441 669.695 109.441 700 109.441C684.848 137.678 669.695 165.899 654.543 194.12C639.39 165.899 624.222 137.662 609.069 109.441Z" fill="#CEDC00"></path>
    <path fill-rule="evenodd" clip-rule="evenodd" d="M2.68132 133.349C10.8875 133.349 19.0938 133.349 27.3 133.349C34.02 133.462 40.8047 135.853 45.7478 140.505C48.6878 143.251 50.9332 146.724 52.2417 150.52C54.584 157.402 54.2448 165.237 51.0302 171.795C49.5117 174.848 47.3632 177.611 44.6978 179.759C40.7401 183.006 35.7323 184.848 30.6761 185.381C28.2369 185.671 25.7815 185.591 23.3261 185.591H16.0568C16.0568 196.381 16.0407 207.188 16.0568 217.979C11.5983 218.028 7.12366 217.979 2.66517 217.995C2.66517 189.774 2.66517 161.554 2.66517 133.333L2.68132 133.349ZM15.7983 148.259V171.617H28.8831C32.3077 171.569 35.7 170.002 37.8001 167.288C39.7547 164.849 40.4008 161.586 40.0778 158.533C39.8516 156.126 38.8824 153.783 37.2508 151.974C35.2316 149.616 32.1623 148.291 29.0769 148.259H15.7983ZM413.267 158.775C418.501 156.659 424.316 155.9 429.889 156.869C435.091 157.838 440.034 160.31 443.846 163.993C443.846 161.99 443.846 159.97 443.846 157.967C448.03 157.967 452.198 157.967 456.382 157.967C456.382 177.901 456.382 197.835 456.382 217.769C452.279 217.769 448.159 217.769 444.056 217.769C444.056 215.718 444.056 213.666 444.056 211.615C441.617 214.215 438.612 216.251 435.317 217.608C431.634 219.126 427.579 219.659 423.621 219.32C414.446 218.642 405.561 213.715 400.489 205.977C396.935 200.646 395.32 194.168 395.433 187.804C395.384 181.326 396.887 174.687 400.473 169.227C403.526 164.526 408.098 160.891 413.283 158.791L413.267 158.775ZM420.601 171.197C416.433 172.441 412.669 175.22 410.504 179.032C407.516 184.185 407.354 190.905 410.262 196.123C412.378 200.097 416.11 203.166 420.423 204.475C424.785 205.815 429.55 205.718 433.912 204.475C437.611 203.376 441.116 201.325 443.588 198.336C443.588 191.632 443.588 184.928 443.588 178.224C443.556 177.804 443.701 177.304 443.313 177.013C441.003 174.509 438.047 172.635 434.832 171.537C430.277 170.018 425.221 169.808 420.601 171.197ZM72.5149 161.214C78.3627 157.596 85.5189 156.433 92.2874 157.289C98.2482 158.048 103.934 160.859 108.07 165.22C113.53 170.826 116.357 178.644 116.664 186.382C116.777 188.498 116.664 190.631 116.357 192.731C101.35 192.731 86.3427 192.731 71.3518 192.731C72.3049 198.239 76.4242 202.94 81.5289 205.105C86.2458 207.092 91.6089 207.108 96.5359 205.912C101.011 204.782 105.259 202.455 108.328 198.95C108.377 198.95 108.458 198.918 108.49 198.918C109.75 202.229 110.978 205.557 112.238 208.868C110.444 211.324 108.038 213.246 105.55 214.942C102.044 217.252 98.0705 218.884 93.9028 219.53C89.8966 220.128 85.8097 219.869 81.8519 219.078C77.038 218.076 72.418 216.009 68.6218 212.859C64.0179 209.062 60.8195 203.699 59.3495 197.916C57.5887 191.002 57.7987 183.539 60.2379 176.803C62.4833 170.47 66.7157 164.736 72.4826 161.214H72.5149ZM84.9696 170.664C81.6258 171.052 78.3465 172.393 75.8427 174.687C73.678 176.674 72.0142 179.274 71.3842 182.166C82.1589 182.166 92.9497 182.166 103.724 182.166C102.723 177.934 99.7182 174.283 95.8251 172.361C92.4974 170.664 88.6366 170.244 84.9535 170.664H84.9696ZM225.945 157.208C230.388 156.756 234.959 157.143 239.192 158.646C244.91 160.649 249.821 164.736 253.003 169.873C257.203 176.593 258.738 184.864 257.656 192.682C256.541 192.844 255.346 192.698 254.199 192.747C240.339 192.747 226.495 192.747 212.634 192.747C213.184 196.091 215.009 199.144 217.4 201.518C220.324 204.394 224.265 206.106 228.32 206.575C233.263 207.124 238.4 206.316 242.875 204.087C245.459 202.778 247.882 201.066 249.756 198.821C251.016 202.181 252.276 205.541 253.552 208.885C251.824 211.275 249.482 213.149 247.075 214.813C243.279 217.365 238.901 219.11 234.362 219.659C229.887 220.144 225.332 219.724 220.986 218.545C214.718 216.849 208.968 213.085 205.22 207.754C200.923 201.777 199.275 194.233 199.566 186.964C199.889 180.001 202.296 173.087 206.625 167.627C208.693 165.043 211.181 162.797 214.024 161.085C217.642 158.888 221.778 157.612 225.962 157.192L225.945 157.208ZM218.628 173.491C215.704 175.543 213.442 178.644 212.667 182.166C223.458 182.166 234.232 182.166 245.023 182.166C244.232 178.951 242.325 176.044 239.725 174.008C236.688 171.617 232.778 170.487 228.95 170.519C225.331 170.454 221.616 171.375 218.628 173.475V173.491ZM283.05 161.15C290.319 156.917 299.333 155.77 307.41 158.097C311.206 159.195 314.776 161.053 317.813 163.573C319.025 164.607 320.204 165.721 321.028 167.094C319.816 170.632 318.669 174.186 317.458 177.724C314.55 175.187 311.19 173.12 307.555 171.827C303.856 170.454 299.785 170.341 295.94 171.117C292.79 171.731 289.754 173.055 287.282 175.123C283.938 177.901 281.709 181.972 281.192 186.301C280.772 190.211 281.563 194.314 283.712 197.658C285.166 199.951 287.234 201.825 289.592 203.15C293.081 205.121 297.136 205.928 301.126 205.945C305.552 205.912 309.898 204.523 313.726 202.358C315.374 201.405 316.989 200.355 318.314 198.966C319.574 202.52 320.834 206.074 322.11 209.628C317.231 215.023 310.35 218.545 303.129 219.482C295.23 220.58 286.991 218.399 280.562 213.715C275.166 209.838 271.144 204.135 269.351 197.738C267.235 190.13 267.687 181.73 270.983 174.509C273.503 168.952 277.767 164.203 283.033 161.15H283.05ZM353.594 158.323C359.7 156.465 366.404 156.384 372.478 158.387C375.838 159.502 379.02 161.198 381.767 163.444C383.027 164.51 384.27 165.657 385.143 167.078C383.947 170.632 382.784 174.186 381.589 177.724C379.117 175.575 376.339 173.766 373.318 172.474C370.685 171.343 367.842 170.616 364.966 170.632C361.235 170.632 357.455 171.407 354.159 173.217C349.249 175.882 345.808 181.035 345.259 186.592C344.935 190.114 345.598 193.748 347.326 196.85C348.716 199.338 350.799 201.422 353.239 202.875C356.292 204.717 359.813 205.638 363.351 205.864C368.811 206.3 374.271 204.572 378.875 201.728C380.135 200.921 381.379 200.065 382.397 198.966C383.657 202.536 384.933 206.09 386.193 209.66C383.043 213.165 379.004 215.831 374.627 217.592C367.971 220.241 360.379 220.515 353.562 218.27C347.262 216.251 341.592 212.229 337.763 206.833C334.242 201.89 332.384 195.865 332.174 189.807C331.851 182.828 333.676 175.672 337.699 169.921C341.479 164.429 347.181 160.293 353.562 158.371L353.594 158.323ZM559.638 159.938C566.81 156.578 575.275 155.932 582.803 158.436C586.147 159.567 589.329 161.279 592.059 163.524C593.271 164.574 594.466 165.689 595.322 167.062C594.127 170.616 592.947 174.17 591.768 177.724C587.6 174.154 582.56 171.343 577.036 170.729C573.433 170.422 569.734 170.907 566.358 172.264C562.949 173.637 559.961 176.076 558.006 179.21C556.052 182.328 555.082 186.091 555.422 189.758C555.68 193.328 557.021 196.85 559.412 199.548C561.786 202.278 565.082 204.119 568.555 205.056C573.175 206.3 578.167 206.252 582.706 204.701C586.34 203.473 589.846 201.664 592.608 198.982C593.852 202.536 595.128 206.09 596.388 209.644C591.397 215.152 584.321 218.69 576.955 219.546C568.943 220.532 560.639 218.157 554.243 213.262C548.912 209.24 545.035 203.376 543.419 196.898C541.449 189.015 542.175 180.357 545.956 173.104C548.912 167.369 553.79 162.668 559.622 159.922L559.638 159.938ZM130.475 158.21C134.788 158.21 139.085 158.21 143.399 158.21C143.399 165.608 143.399 172.991 143.399 180.389C152.962 180.389 162.509 180.389 172.072 180.389C172.072 172.991 172.072 165.608 172.072 158.21C176.369 158.21 180.65 158.21 184.947 158.21C184.947 178.144 184.947 198.078 184.947 218.012C180.65 218.012 176.369 218.012 172.072 218.012C172.072 210.048 172.072 202.068 172.072 194.104C162.509 194.104 152.946 194.104 143.382 194.104C143.382 202.068 143.382 210.048 143.382 218.012C139.069 218.012 134.756 218.012 130.459 218.012C130.459 198.078 130.459 178.144 130.459 158.21H130.475ZM475.185 158.21C479.482 158.21 483.763 158.21 488.06 158.21C488.06 165.608 488.06 172.991 488.06 180.389C497.623 180.389 507.17 180.389 516.733 180.389C516.733 172.991 516.733 165.608 516.733 158.21C521.03 158.21 525.343 158.21 529.656 158.21C529.672 178.144 529.656 198.078 529.656 218.012C525.343 218.012 521.046 218.012 516.733 218.012C516.733 210.048 516.733 202.068 516.733 194.104C507.17 194.104 497.607 194.104 488.044 194.104V218.012C483.747 218.012 479.45 218.012 475.169 218.012C475.169 198.078 475.169 178.144 475.169 158.21H475.185ZM609.118 201.518C614.61 201.518 620.118 201.518 625.627 201.518C625.627 207.011 625.627 212.519 625.627 218.012C620.118 218.012 614.626 218.012 609.118 218.012V201.518ZM5.81519 258.17C11.9375 252.42 21.8561 251.677 29.0123 255.877C30.7246 256.91 32.2754 258.251 33.2931 259.996C32.8085 261.482 32.2915 262.968 31.8069 264.454C29.0446 260.852 24.6507 258.574 20.1276 258.3C16.6868 258.138 13.0845 258.833 10.2091 260.803C7.7052 262.484 5.97673 265.181 5.29826 268.089C4.42595 271.934 4.84595 276.231 7.0752 279.558C8.80367 282.191 11.5983 284.001 14.6353 284.76C18.5122 285.745 22.7284 285.535 26.3953 283.92C28.7054 282.886 30.8054 281.335 32.34 279.3C32.7923 280.657 33.2123 282.03 33.6808 283.387C32.0654 286.472 28.9154 288.459 25.6846 289.525C22.1792 290.608 18.383 290.834 14.7645 290.139C10.6775 289.315 6.83289 287.118 4.18364 283.871C1.63131 280.802 0.209762 276.861 0.0482219 272.887C-0.274858 267.459 1.7767 261.853 5.83134 258.154L5.81519 258.17ZM186.901 253.373C190.827 252.807 194.93 253.324 198.516 255.053C201.779 256.603 204.574 259.123 206.431 262.225C208.741 265.973 209.549 270.577 208.838 274.906C208.241 278.621 206.464 282.111 203.831 284.792C201.197 287.522 197.692 289.38 193.977 290.107C189.922 290.898 185.625 290.478 181.829 288.814C178.372 287.296 175.416 284.695 173.493 281.448C169.875 275.407 170.036 267.314 173.962 261.466C176.821 257.056 181.7 254.1 186.901 253.373ZM187.693 258.542C183.573 259.059 179.632 261.369 177.435 264.939C175.109 268.622 174.818 273.484 176.692 277.426C178.065 280.463 180.682 282.854 183.735 284.13C187.531 285.713 191.941 285.761 195.754 284.211C198.467 283.128 200.81 281.174 202.361 278.702C204.251 275.697 204.816 271.901 203.863 268.493C202.991 265.149 200.681 262.273 197.741 260.513C194.752 258.703 191.134 258.057 187.693 258.526V258.542ZM37.8485 253.857C47.5894 253.857 57.3302 253.857 67.0711 253.857C67.0711 255.521 67.0711 257.169 67.0711 258.833H54.891C54.891 269.155 54.891 279.477 54.891 289.8C53.2917 289.8 51.7086 289.8 50.1094 289.8C50.1094 279.477 50.1094 269.155 50.1094 258.833C46.0224 258.833 41.9193 258.833 37.8324 258.833C37.8324 257.169 37.8324 255.521 37.8324 253.857H37.8485ZM74.195 253.857C77.0542 253.857 79.9296 253.857 82.7889 253.857C84.7112 253.89 86.6658 253.712 88.5558 254.213C91.6574 254.907 94.4359 257.007 95.7443 259.931C97.489 263.84 96.9721 268.816 94.0482 272.047C91.9159 274.389 88.6851 275.52 85.5673 275.455C83.3381 275.455 81.125 275.455 78.9119 275.455C78.9119 280.237 78.9119 285.018 78.9119 289.816C77.345 289.832 75.7619 289.816 74.1788 289.816C74.1788 277.83 74.1788 265.86 74.1788 253.873L74.195 253.857ZM78.815 258.833C78.815 262.774 78.815 266.716 78.815 270.674C81.2058 270.674 83.5804 270.674 85.9712 270.674C86.9889 270.674 88.0227 270.415 88.8951 269.882C90.7689 268.751 91.9482 266.554 91.7866 264.357C91.6735 261.514 89.2343 258.962 86.3589 258.849C83.8389 258.817 81.3189 258.849 78.815 258.849V258.833ZM112.674 253.857C114.418 253.857 116.179 253.857 117.924 253.857C122.867 265.827 127.794 277.814 132.721 289.8C131.008 289.8 129.296 289.8 127.584 289.8C126.469 286.989 125.338 284.194 124.208 281.4C118.295 281.4 112.383 281.4 106.454 281.4C105.307 284.194 104.161 286.989 103.03 289.784C101.317 289.8 99.6051 289.784 97.8767 289.784C102.804 277.797 107.747 265.827 112.674 253.841V253.857ZM108.49 276.424C113.029 276.424 117.568 276.424 122.108 276.424C119.846 270.964 117.568 265.488 115.323 260.012C112.981 265.456 110.784 270.948 108.49 276.408V276.424ZM136.63 253.873C138.617 253.857 140.604 253.873 142.591 253.873C145.595 258.138 148.616 262.419 151.621 266.7C154.706 262.451 157.679 258.122 160.764 253.873C162.719 253.906 164.673 253.857 166.644 253.906C162.622 259.673 158.616 265.44 154.593 271.207C158.89 277.41 163.187 283.613 167.484 289.816C165.529 289.816 163.559 289.832 161.604 289.8C158.325 285.083 154.981 280.398 151.702 275.697C148.471 280.398 145.192 285.067 141.993 289.8C139.958 289.864 137.939 289.8 135.903 289.832C140.152 283.613 144.416 277.426 148.665 271.207C144.642 265.44 140.636 259.657 136.614 253.89L136.63 253.873ZM217.658 253.873C220.098 253.873 222.537 253.873 224.96 253.873C227.609 253.89 230.355 253.663 232.908 254.6C235.444 255.44 237.609 257.379 238.594 259.883C240.064 263.501 239.305 268.154 236.122 270.625C239.095 272.144 241.033 275.374 241.082 278.702C241.259 281.901 240.112 285.277 237.56 287.296C235.492 288.992 232.795 289.735 230.162 289.816C226.01 289.848 221.842 289.816 217.675 289.816C217.675 277.83 217.675 265.86 217.675 253.873H217.658ZM222.391 258.849C222.391 262.177 222.391 265.504 222.391 268.848C224.443 268.848 226.511 268.848 228.562 268.848C229.952 268.88 231.389 268.574 232.52 267.734C233.974 266.732 234.669 264.858 234.394 263.146C234.2 261.611 233.198 260.222 231.825 259.511C230.888 259.01 229.822 258.849 228.772 258.849C226.656 258.849 224.524 258.849 222.408 258.849H222.391ZM222.343 273.824C222.343 277.442 222.343 281.077 222.343 284.695C224.685 284.695 227.012 284.695 229.354 284.744C230.662 284.776 232.035 284.744 233.215 284.13C235.04 283.241 236.235 281.254 236.284 279.235C236.284 277.749 235.622 276.263 234.523 275.261C233.457 274.276 231.987 273.791 230.549 273.791C227.803 273.791 225.073 273.791 222.327 273.791L222.343 273.824ZM260.693 253.89C262.437 253.857 264.198 253.89 265.943 253.873C270.918 265.844 275.813 277.846 280.772 289.832C279.06 289.832 277.363 289.816 275.651 289.832C274.504 287.038 273.39 284.227 272.259 281.416C266.346 281.416 260.434 281.432 254.522 281.4C253.342 284.194 252.212 287.005 251.065 289.816C249.352 289.816 247.64 289.816 245.928 289.816C250.822 277.83 255.798 265.876 260.693 253.89ZM263.342 259.996C261.08 265.488 258.803 270.964 256.541 276.441C261.08 276.441 265.603 276.441 270.143 276.441C267.881 270.948 265.603 265.472 263.342 259.996ZM287.718 253.89C289.317 253.857 290.9 253.89 292.5 253.89C292.5 258.865 292.5 263.84 292.5 268.8C299.607 268.8 306.715 268.8 313.823 268.8C313.823 263.824 313.823 258.849 313.823 253.89C315.39 253.89 316.957 253.89 318.54 253.89C318.54 265.876 318.54 277.846 318.54 289.832H313.823C313.823 284.485 313.823 279.122 313.823 273.775C306.715 273.775 299.607 273.775 292.516 273.775C292.484 279.138 292.516 284.485 292.484 289.848C290.9 289.832 289.317 289.848 287.734 289.848C287.734 277.878 287.734 265.892 287.734 253.922L287.718 253.89ZM329.783 253.89C331.366 253.89 332.965 253.89 334.549 253.89C334.549 263.356 334.549 272.838 334.549 282.304C341.624 272.838 348.683 263.372 355.759 253.906C357.487 253.873 359.216 253.906 360.944 253.906C360.944 265.892 360.944 277.862 360.944 289.848C359.361 289.848 357.794 289.848 356.227 289.848C356.227 280.382 356.227 270.9 356.227 261.433C349.184 270.9 342.125 280.366 335.098 289.848C333.321 289.848 331.56 289.848 329.783 289.848C329.783 277.862 329.783 265.892 329.783 253.906V253.89ZM372.236 253.89C378.988 253.873 385.724 253.89 392.477 253.89C392.477 255.553 392.477 257.201 392.477 258.865C387.307 258.865 382.138 258.865 376.969 258.865C376.969 262.177 376.969 265.488 376.969 268.8C381.621 268.8 386.274 268.816 390.926 268.8C390.958 270.464 390.926 272.127 390.926 273.775C386.274 273.775 381.621 273.775 376.953 273.775V284.808C382.122 284.808 387.291 284.808 392.46 284.808C392.46 286.472 392.46 288.152 392.46 289.832H372.22C372.22 277.846 372.22 265.876 372.22 253.89H372.236Z" fill="#50287D"></path>
  </g>
  <defs>
    <clipPath id="clip0_498_7088">
      <rect width="700" height="181.118" fill="white" transform="translate(0 109.441)"></rect>
    </clipPath>
  </defs>
</svg>
