<?xml version="1.0" encoding="UTF-8"?>
<svg xmlns="http://www.w3.org/2000/svg" width="1000" height="400" viewBox="0 0 1000 400" fill="none">
  <g clip-path="url(#clip0_498_7092)">
    <path fill-rule="evenodd" clip-rule="evenodd" d="M253.931 171.133V125.307H267.662C284.974 125.307 292.793 135.232 292.793 147.477C292.793 158.671 285.829 171.133 267.662 171.133H253.931ZM223.941 102.084V249.9H253.931V194.365H273.151C310.95 194.365 324.465 167.759 324.465 148.333C324.465 139.038 321.298 102.084 267.662 102.084H223.951H223.941Z" fill="#00793A"></path>
    <path fill-rule="evenodd" clip-rule="evenodd" d="M424.547 102.084V128.267H366.268V161.631H419.274V185.916H366.268V223.716H424.547V249.9H336.278V102.084H424.547Z" fill="#00793A"></path>
    <path fill-rule="evenodd" clip-rule="evenodd" d="M548.294 245.257C535.202 249.693 521.894 251.592 510.071 251.592C473.324 251.592 433.203 230.69 433.203 176.838C433.203 125.946 469.104 100.393 515.56 100.393C527.176 100.393 537.101 101.868 548.294 105.458L547.025 130.796C538.369 127.422 528.868 125.307 517.675 125.307C484.518 125.307 464.885 146.209 464.885 176.415C464.885 212.1 488.963 226.677 515.569 226.677C528.661 226.677 539.009 223.51 546.405 220.126L548.303 245.257H548.294Z" fill="#00793A"></path>
    <path fill-rule="evenodd" clip-rule="evenodd" d="M627.568 121.51C638.761 121.51 668.328 125.946 668.328 175.992C668.328 226.038 638.761 230.474 627.568 230.474C616.375 230.474 586.808 226.038 586.808 175.992C586.808 125.946 616.375 121.51 627.568 121.51ZM627.568 100.393C591.037 100.393 555.136 122.356 555.136 175.992C555.136 229.628 591.037 251.592 627.568 251.592C664.099 251.592 700 229.628 700 175.992C700 122.356 664.108 100.393 627.568 100.393Z" fill="#00793A"></path>
    <path fill-rule="evenodd" clip-rule="evenodd" d="M240.905 271.479V276.46H229.392V299.607H223.716V271.479H240.905Z" fill="#00793A"></path>
    <path fill-rule="evenodd" clip-rule="evenodd" d="M289.409 288.63L293.281 277.136H293.366L297.482 288.63H289.409ZM290.33 271.469L279.184 299.598H285.255L287.614 293.291H299.165L301.524 299.598H307.915L296.806 271.469H290.33Z" fill="#00793A"></path>
    <path fill-rule="evenodd" clip-rule="evenodd" d="M354.266 284.617V275.895H356.86C360.14 275.895 361.616 277.784 361.616 280.115C361.616 282.249 360.3 284.617 356.86 284.617H354.266ZM348.59 271.478V299.607H354.266V289.034H357.904C365.056 289.034 367.612 283.968 367.612 280.275C367.612 278.508 367.01 271.469 356.86 271.469H348.59V271.478Z" fill="#00793A"></path>
    <path fill-rule="evenodd" clip-rule="evenodd" d="M417.32 288.63L421.192 277.136H421.277L425.393 288.63H417.32ZM418.241 271.469L407.095 299.598H413.166L415.525 293.291H427.075L429.434 299.598H435.825L424.716 271.469H418.241Z" fill="#00793A"></path>
    <path fill-rule="evenodd" clip-rule="evenodd" d="M482.177 271.479V282.803H493.52V271.479H499.197V299.607H493.52V287.427H482.177V299.607H476.5V271.479H482.177Z" fill="#00793A"></path>
    <path fill-rule="evenodd" clip-rule="evenodd" d="M561.696 271.479V276.46H553.623V299.607H547.946V276.46H539.873V271.479H561.696Z" fill="#00793A"></path>
    <path fill-rule="evenodd" clip-rule="evenodd" d="M608.048 271.479V285.942L607.925 292.775H608.048L610.049 288.677L619.833 271.479H626.628V299.607H620.951V285.097L621.074 278.302H620.951L619.034 282.568L609.166 299.607H602.371V271.479H608.048Z" fill="#00793A"></path>
    <path fill-rule="evenodd" clip-rule="evenodd" d="M683.731 284.74H680.536C679.812 284.74 675.263 284.702 675.263 280.322C675.263 278.79 675.865 275.905 680.498 275.905H683.731V284.749V284.74ZM689.408 271.479H680.338C678.384 271.479 669.267 271.356 669.267 280.163C669.267 285.388 672.585 287.352 674.784 288.038L668.111 299.617H674.906L680.338 289.166H683.731V299.617H689.408V271.488V271.479Z" fill="#00793A"></path>
    <path fill-rule="evenodd" clip-rule="evenodd" d="M109.02 200.483V129.047C95.9466 131.951 85.1199 136.914 76.3889 143.784C65.2708 152.543 57.3199 164.592 52.2636 179.629L32.1514 172.9C38.561 153.878 48.7957 138.474 63.2596 127.083C77.5919 115.796 95.8621 108.616 118.418 105.937L130.307 104.527V200.493H109.029L109.02 200.483Z" fill="#00793A"></path>
    <path fill-rule="evenodd" clip-rule="evenodd" d="M95.1008 188.453H24.52C27.4241 201.526 32.3863 212.353 39.2565 221.084C48.0156 232.202 60.0642 240.153 75.1014 245.219L68.3722 265.331C49.3502 258.921 33.9465 248.677 22.5558 234.223C11.2685 219.881 4.08824 201.62 1.40974 179.065L0 167.176H95.1008V188.453Z" fill="#00793A"></path>
    <path fill-rule="evenodd" clip-rule="evenodd" d="M83.9359 202.466V272.953C97.0089 270.049 107.836 265.087 116.567 258.207C127.685 249.448 135.636 237.4 140.692 222.363L160.804 229.092C154.395 248.114 144.16 263.517 129.696 274.908C115.364 286.195 97.0935 293.376 74.5377 296.054L62.6489 297.464V202.457H83.9265L83.9359 202.466Z" fill="#00793A"></path>
    <path fill-rule="evenodd" clip-rule="evenodd" d="M98.5314 213.538H168.426C165.522 200.465 160.56 189.638 153.68 180.907C144.921 169.78 132.873 161.838 117.835 156.772L124.564 136.66C143.587 143.07 158.99 153.304 170.381 167.768C181.668 182.101 188.848 200.371 191.527 222.927L192.937 234.815H98.522V213.538H98.5314Z" fill="#00793A"></path>
  </g>
  <defs>
    <clipPath id="clip0_498_7092">
      <rect width="700" height="199.215" fill="white" transform="translate(0 100.393)"></rect>
    </clipPath>
  </defs>
</svg>
