<?xml version="1.0" encoding="UTF-8"?>
<svg xmlns="http://www.w3.org/2000/svg" width="55" height="55" viewBox="0 0 55 55" fill="none">
  <path fill-rule="evenodd" clip-rule="evenodd" d="M1 27.07C1 12.6858 12.6665 1 27.06 1C41.454 1 53.13 12.6663 53.13 27.07C53.13 41.4736 41.4641 53.13 27.06 53.13C12.6564 53.13 1 41.4541 1 27.07ZM27.06 0C12.1135 0 0 12.1342 0 27.07C0 42.0059 12.1036 54.13 27.06 54.13C42.0159 54.13 54.13 42.0264 54.13 27.07C54.13 12.1137 42.006 0 27.06 0ZM47.945 33.4539C47.9364 34.0295 47.9278 34.6 47.95 35.06L48.03 35.07C48.0976 36.2778 48.5107 36.5706 48.7911 36.7694C48.8009 36.7764 48.8105 36.7832 48.82 36.79C48.47 36.88 48.02 36.82 47.7 36.58C47.46 36.4 47.32 36.39 47.01 36.39C46.48 36.38 46.06 36.13 45.68 35.79C45.54 35.66 45.33 35.58 45.14 35.56C44.57 35.51 44.32 35.29 43.93 34.89C43.8783 34.8297 43.7822 34.7991 43.6991 34.7726C43.6856 34.7683 43.6725 34.7642 43.66 34.76C41.6302 34.2835 41.5256 32.245 41.4857 31.4658C41.4837 31.4274 41.4819 31.392 41.48 31.36C41.16 31.31 40.78 30.96 40.61 30.69C40.58 30.64 40.52 30.58 40.44 30.6C39.57 30.87 39 29.41 38.81 28.9C38.64 28.46 38.52 27.95 38.48 27.49C38.45 27.89 37.74 28.57 37.09 27.49C37.09 29.07 35.87 28.79 35.57 27.75C35.26 29.66 33.9 28.75 33.91 27.32C33.9 29.5 32.57 29.19 32.64 28.53C32.56 28.85 32.21 29.23 32.21 29.23C34.1852 29.5834 34.5555 30.3589 34.9042 31.0891C35.1081 31.516 35.3046 31.9275 35.81 32.23C35.5226 32.3339 35.2465 32.2734 35.0958 32.2404C35.0001 32.2194 34.955 32.2095 34.99 32.26C35.33 32.77 35.47 33.21 35.55 33.73C35.55 33.73 37.16 35.31 37.8 35.89C38.0139 36.0868 38.2424 36.2616 38.4668 36.4332C38.5047 36.4622 38.5424 36.4911 38.58 36.52L38.5941 36.5288C38.6727 36.578 38.7763 36.6429 38.88 36.69C38.9 36.61 38.91 36.53 38.91 36.49C39.03 35.96 39.18 35.45 39.5 35.01C39.94 34.42 40.59 34.26 41.23 34.66C41.48 34.82 41.71 34.87 42 34.87C42.5 34.88 42.92 35.34 42.91 35.83C42.54 35.59 42.11 35.71 41.94 35.91C42.73 36.06 43.14 36.78 42.91 37.24C42.86 37.14 42.78 37.05 42.68 36.99C42.34 36.81 42.04 36.92 41.97 37.1C41.8 37.51 41.45 37.63 41.07 37.68C40.7074 37.7214 40.3529 37.7548 39.9953 37.7885C39.6625 37.8198 39.3271 37.8514 38.98 37.89C38.1931 37.9944 38.0638 38.4405 37.9451 38.8504C37.9159 38.951 37.8874 39.0494 37.85 39.14C37.72 39.44 37.42 39.65 37.07 39.65C36.9 39.65 36.74 39.6 36.61 39.52C36.53 39.78 36.61 40.08 36.9 40.14C36.66 40.23 36.2 40.08 36.05 39.76C35.77 39.18 35.9 38.71 36.38 38.3C36.42 38.27 36.46 38.24 36.5 38.2C36.515 38.19 36.5275 38.18 36.54 38.17C36.5525 38.16 36.565 38.15 36.58 38.14C36.6233 38.1033 36.6678 38.0678 36.7122 38.0322C36.8011 37.9611 36.89 37.89 36.97 37.81C37.19 37.6 37.23 37.36 37.07 37.11C36.92 36.89 36.75 36.67 36.55 36.49C36.0019 36.0348 35.4452 35.5969 34.8798 35.1521L34.75 35.05C34.57 34.91 34.37 34.78 34.16 34.67C33.99 34.58 33.76 34.53 33.55 34.61C33.0825 34.7756 32.8237 34.5807 32.6996 34.4872C32.6963 34.4848 32.6931 34.4823 32.69 34.48C32.6872 34.4777 32.6832 34.4741 32.6778 34.4693C32.5672 34.3707 31.8899 33.7675 30.03 33.51C30.31 33.69 30.43 33.96 30.54 34.23C30.6094 34.4152 30.6848 34.5944 30.7616 34.7768C30.7843 34.8309 30.8072 34.8852 30.83 34.94C31.6063 36.7609 32.3727 38.5668 33.1432 40.3823C33.4644 41.1393 33.7863 41.8979 34.11 42.66C34.47 43.51 34.15 44.26 33.26 44.67C32.61 44.97 31.88 44.81 31.45 44.19C31.57 44.62 31.63 44.98 31.46 45.34C31.28 45.7 31 45.95 30.64 46.11C30.28 46.26 29.86 46.32 29.48 46.24C29.09 46.16 28.83 45.9 28.63 45.52C28.6 46.36 28.07 46.86 27.34 46.98H27.17H27.11H27.06C27 46.98 26.94 46.98 26.89 46.96C26.16 46.85 25.64 46.35 25.61 45.51C25.4 45.9 25.14 46.16 24.75 46.23C24.37 46.31 23.95 46.26 23.6 46.1C23.23 45.94 22.95 45.69 22.78 45.33C22.6 44.98 22.66 44.61 22.78 44.18C22.35 44.8 21.62 44.96 20.97 44.66C20.09 44.25 19.77 43.51 20.13 42.65C21.1119 40.3169 22.0857 38.0243 23.0733 35.6992C23.182 35.4432 23.2909 35.1869 23.4 34.93C23.49 34.7001 23.5899 34.4601 23.6899 34.2202L23.69 34.22C23.81 33.94 23.93 33.67 24.2 33.5C22.3926 33.7503 21.702 34.327 21.5549 34.4498C21.5433 34.4595 21.5351 34.4663 21.53 34.47C21.5273 34.472 21.5244 34.4741 21.5215 34.4762C21.4065 34.5602 21.1383 34.756 20.68 34.6C20.47 34.52 20.23 34.57 20.07 34.66C19.87 34.77 19.66 34.9 19.48 35.04C18.87 35.51 18.27 35.99 17.68 36.48C17.48 36.65 17.31 36.87 17.17 37.1C17.02 37.35 17.06 37.59 17.27 37.8C17.35 37.8733 17.4389 37.9467 17.5278 38.02C17.5722 38.0567 17.6167 38.0933 17.66 38.13C17.69 38.15 17.71 38.17 17.73 38.19C17.75 38.205 17.7725 38.2225 17.795 38.24C17.8175 38.2575 17.84 38.275 17.86 38.29C18.34 38.7 18.46 39.16 18.18 39.75C18.03 40.06 17.57 40.22 17.33 40.13C17.61 40.07 17.69 39.77 17.61 39.51C17.48 39.59 17.33 39.64 17.16 39.64C16.81 39.64 16.51 39.43 16.39 39.13C16.3533 39.0412 16.3248 38.9449 16.2957 38.8465C16.1739 38.4349 16.0408 37.9849 15.25 37.88C14.8613 37.8307 14.4817 37.7965 14.1044 37.7624C13.7925 37.7342 13.4823 37.7062 13.17 37.67C12.79 37.63 12.44 37.51 12.27 37.09C12.19 36.91 11.89 36.8 11.56 36.98C11.46 37.04 11.38 37.13 11.33 37.23C11.1 36.78 11.52 36.05 12.31 35.9C12.14 35.7 11.71 35.57 11.33 35.82C11.32 35.33 11.74 34.86 12.24 34.86C12.53 34.86 12.76 34.81 13.01 34.65C13.64 34.25 14.3 34.41 14.74 35C15.06 35.44 15.21 35.96 15.33 36.48C15.33 36.52 15.34 36.6 15.36 36.68C15.46 36.64 15.57 36.57 15.65 36.51L15.6501 36.5099C15.9201 36.31 16.19 36.11 16.43 35.88C17.08 35.3 18.69 33.72 18.69 33.72C18.77 33.2 18.91 32.76 19.25 32.25C19.285 32.1995 19.2399 32.2094 19.1442 32.2304C18.9935 32.2634 18.7174 32.3239 18.43 32.22C18.9363 31.9207 19.1325 31.5094 19.3367 31.0815C19.6852 30.3514 20.0566 29.5731 22.03 29.22C22.03 29.22 21.68 28.84 21.6 28.52C21.67 29.17 20.34 29.49 20.33 27.31C20.34 28.75 18.99 29.66 18.67 27.74C18.37 28.78 17.15 29.06 17.15 27.48C16.5 28.56 15.78 27.87 15.75 27.48C15.7 27.94 15.59 28.45 15.43 28.89C15.24 29.4 14.67 30.86 13.8 30.59C13.72 30.56 13.66 30.63 13.63 30.68C13.45 30.95 13.08 31.31 12.76 31.35C12.7581 31.382 12.7562 31.4175 12.7542 31.4563C12.7142 32.229 12.6083 34.2739 10.58 34.75C10.5675 34.7542 10.5544 34.7583 10.5409 34.7626C10.4578 34.7891 10.3617 34.8197 10.31 34.88C9.92 35.28 9.67 35.5 9.1 35.55C8.92 35.57 8.71 35.66 8.57 35.78C8.19 36.12 7.76 36.37 7.24 36.38C6.92 36.38 6.79 36.39 6.55 36.57C6.23 36.81 5.78 36.87 5.43 36.78C5.44295 36.7704 5.4563 36.7607 5.46998 36.7507C5.74137 36.5527 6.14336 36.2595 6.21 35.06C6.25044 34.4939 6.23637 33.7687 6.22289 33.0744C6.21638 32.7386 6.21 32.4099 6.21 32.11C6.21 31.29 6.46 30.28 6.69 29.91C6.54 30.04 6.28 30.11 6.08 30.11C6.19 29.89 6.5 28.97 6.38 27.55C6.24156 25.7318 6.56311 24.9613 6.66065 24.7276C6.66879 24.7081 6.67538 24.6923 6.68 24.68C6.5 24.74 6.37 24.76 6.17 24.78C6.23 24.45 6.29 24.14 6.35 23.84C6.39215 23.6352 6.43794 23.3793 6.48872 23.0954C6.69092 21.9651 6.97241 20.3915 7.42 19.84H7.22C7.25 19.41 7.63 17.78 8.29 16.77C8.51 16.44 8.97 15.88 9.39 15.69C9.36 15.65 9.33 15.6 9.32 15.56C9.22 15.31 9.3 15.13 9.56 15.05C9.6227 15.0321 9.68942 15.0222 9.75655 15.0122C9.83931 15 9.9227 14.9876 10 14.96C10.0742 14.9353 10.1484 14.9108 10.2226 14.8864C10.5678 14.7728 10.9107 14.66 11.24 14.52C11.3795 14.4627 11.5178 14.4032 11.6559 14.3438C12.2407 14.0923 12.8209 13.8428 13.46 13.77C14.51 13.64 15.53 13.7 16.42 14.36C17.64 15.26 18.23 16.79 17.52 18.51C17.5069 18.5363 17.4957 18.5644 17.4847 18.592C17.4706 18.6274 17.4569 18.6619 17.44 18.69C17.2 19.1 17.3 19.45 17.61 19.77C18.19 20.34 18.85 20.73 19.66 20.82C20.17 20.87 20.59 20.65 20.93 20.3C21.7 19.5 22.25 18.57 22.42 17.47C22.52 16.81 22.58 16.35 22.54 15.68C22.51 15.22 22.39 14.7 22.29 14.59C22.29 14.59 22.12 14.89 21.91 15C22.17 14.15 21.9 13.68 21.9 13.68C21.9 13.68 21.8 13.96 21.61 14.15C21.7 13.46 21.25 12.84 20.39 12.62C20.285 12.5926 20.1404 12.5673 19.9915 12.5412C19.8141 12.5102 19.6304 12.478 19.5 12.44C17.91 11.98 17.66 12.38 17.66 12.38C17.73 12.19 17.98 11.83 18.21 11.75C18.0916 11.7895 17.9628 11.8432 17.8223 11.9018C17.2862 12.1254 16.5787 12.4205 15.62 12.27C14.62 12.11 14.4 11.01 15.14 10.57C15.14 10.57 14.76 11.19 15.31 11.62C15.59 11.84 16.27 11.76 16.49 11.71C16.94 11.59 17.65 11.17 17.65 11.17C17.04 10.88 16.43 11.11 15.88 11.4C15.78 10.93 16.1 10.29 16.54 10.03C17.02 9.76 17.42 9.67 18.27 9.58C18.27 9.58 18.81 9.01 19.77 8.82C20.08 8.76 20.67 8.77 21.18 8.87C21.6621 8.95928 21.9812 9.05918 22.3209 9.1655C22.5519 9.23781 22.7923 9.31308 23.1 9.39C23.69 9.53 25.1 9.86 26.21 9.12C26.21 9.12 25.8 10.05 24.74 10.32C25.03 10.4 25.59 10.33 26 10.11C25.81 10.37 25.45 10.76 24.9 10.94C25.06 11.1 25.6 11.13 25.9 10.97C25.57 11.36 25.33 11.51 24.97 11.58C26.03 12.77 26.65 14.27 27.07 17.08C27.43 14.29 28.11 12.77 29.17 11.58C28.82 11.51 28.57 11.36 28.24 10.97C28.55 11.14 29.08 11.11 29.25 10.94C28.69 10.76 28.34 10.37 28.15 10.11C28.57 10.32 29.11 10.41 29.41 10.32C28.36 10.05 27.95 9.12 27.95 9.12C29.04 9.86 30.47 9.54 31.05 9.39C31.3517 9.31357 31.5903 9.24037 31.8205 9.16976C32.1625 9.06484 32.4859 8.96563 32.97 8.87C33.48 8.77 34.06 8.76 34.38 8.82C35.35 9.01 35.88 9.58 35.88 9.58C36.73 9.67 37.13 9.75 37.61 10.03C38.05 10.29 38.37 10.93 38.27 11.4C37.71 11.11 37.1 10.88 36.49 11.17C36.49 11.17 37.2 11.6 37.65 11.71C37.88 11.76 38.54 11.84 38.83 11.62C39.37 11.19 39 10.57 39 10.57C39.74 11.01 39.52 12.11 38.52 12.27C37.5701 12.4204 36.8646 12.1259 36.3291 11.9024C36.188 11.8435 36.0588 11.7896 35.94 11.75C36.17 11.84 36.42 12.19 36.48 12.38C36.48 12.38 36.23 11.98 34.64 12.44C34.5107 12.4793 34.3214 12.5124 34.1378 12.5444C33.9947 12.5694 33.8551 12.5937 33.75 12.62C32.89 12.84 32.45 13.45 32.53 14.15C32.34 13.96 32.24 13.68 32.24 13.68C32.24 13.68 31.98 14.15 32.24 15C32.03 14.89 31.86 14.59 31.86 14.59C31.77 14.7 31.64 15.23 31.62 15.68C31.59 16.35 31.64 16.8 31.74 17.47C31.91 18.57 32.45 19.51 33.22 20.3C33.57 20.65 33.99 20.88 34.49 20.82C35.3 20.73 35.97 20.34 36.54 19.77C36.85 19.45 36.95 19.1 36.71 18.69C36.68 18.63 36.66 18.57 36.64 18.51C35.93 16.79 36.52 15.26 37.74 14.36C38.63 13.7 39.65 13.65 40.7 13.77C41.3464 13.8436 41.9325 14.098 42.5186 14.3524C42.6488 14.4089 42.7791 14.4655 42.91 14.52C43.2431 14.6581 43.5827 14.7698 43.9236 14.8819C44.0024 14.9078 44.0812 14.9337 44.16 14.96C44.2375 14.9877 44.3181 15 44.3984 15.0123C44.4631 15.0223 44.5275 15.0321 44.59 15.05C44.86 15.13 44.94 15.31 44.84 15.56C44.8323 15.5754 44.8231 15.5908 44.8136 15.6068C44.7984 15.6323 44.7823 15.6593 44.77 15.69C45.19 15.89 45.66 16.44 45.87 16.77C46.53 17.78 46.91 19.4 46.94 19.84C46.86 19.85 46.74 19.84 46.74 19.84C47.1818 20.3942 47.4687 21.9807 47.6733 23.1122C47.7235 23.3894 47.7687 23.6393 47.81 23.84C47.8533 24.0257 47.889 24.2113 47.9265 24.4065C47.9495 24.5266 47.9733 24.6504 48 24.78C47.8 24.76 47.67 24.74 47.49 24.68C47.4947 24.6925 47.5014 24.7085 47.5097 24.7282C47.6075 24.9616 47.9275 25.7246 47.78 27.55C47.67 28.97 47.97 29.88 48.08 30.11C47.88 30.11 47.62 30.04 47.47 29.91C47.7 30.28 47.95 31.3 47.95 32.11C47.9589 32.5246 47.9519 32.9909 47.945 33.4539Z" fill="#145FF5"></path>
</svg>
