<?xml version="1.0" encoding="UTF-8"?>
<svg xmlns="http://www.w3.org/2000/svg" width="105" height="105" viewBox="0 0 105 105" fill="none">
  <path d="M104.394 3.5252L0.3125 2.77585V0.713379H104.394V3.5252ZM104.394 5.64998V9.53115L0.3125 8.78179V6.39934L104.394 5.64998ZM0.3125 14.7877V12.4053L104.394 11.6621V15.5371L0.3125 14.7877ZM0.3125 20.7937V18.4112L104.394 17.6681V21.543L0.3125 20.7937ZM0.3125 26.8058V24.4172L104.394 23.674V27.549L0.3125 26.8058ZM0.3125 32.8117V30.4293L104.394 29.68V33.5549L0.3125 32.8117ZM0.3125 38.8177V36.4353L104.394 35.6921V39.5608L0.3125 38.8177ZM0.3125 44.8236V42.4412L104.394 41.698V45.573L0.3125 44.8236ZM0.3125 50.8358V48.4471L104.394 47.704V51.579L0.3125 50.8358ZM0.3125 56.8355V54.4593L104.394 53.7099V57.5849L0.3125 56.8355ZM0.3125 62.8477V60.4652L104.394 59.7159V63.5908L0.3125 62.8477ZM0.3125 68.8536V66.4712L104.394 65.7218V69.603L0.3125 68.8536ZM0.3125 74.8596V72.4771L104.394 71.734V75.6089L0.3125 74.8596ZM0.3125 80.8655V78.4831L104.394 77.7399V81.6149L0.3125 80.8655ZM0.3125 86.8776V84.489L104.394 83.7459V87.6208L0.3125 86.8776ZM0.3125 92.8836V90.4949L104.394 89.7518V93.6268L0.3125 92.8836ZM0.3125 98.8896V96.5071L104.394 95.7577V99.6389L0.3125 98.8896ZM104.394 101.77V104.463H0.3125V102.513L104.394 101.77Z" stroke="#145FF5" stroke-width="0.625"></path>
</svg>
