<?xml version="1.0" encoding="UTF-8"?>
<svg xmlns="http://www.w3.org/2000/svg" width="323" height="94" viewBox="0 0 323 94" fill="none">
  <g clip-path="url(#clip0_497_7037)">
    <path fill-rule="evenodd" clip-rule="evenodd" d="M116.1 54.3C117.05 54.34 118.19 54.37 119.21 54.37C123.54 54.37 126.06 52.35 126.06 48.58C126.06 44.51 123.06 43.19 116.1 43.19V54.29V54.3ZM119.58 30.12C121.63 30.12 125.8 29.94 128.19 29.79C128.12 30.23 128.08 30.92 128.08 31.11C128.08 31.37 128.16 31.95 128.19 32.36C126.06 32.07 122.55 31.85 121.45 31.85C120.68 31.85 117.71 31.92 116.1 32.07V41.27H117.97C121.79 41.27 129.82 42 129.82 48.63C129.82 54.01 125.31 56.47 119.37 56.43C118.71 56.43 116.22 56.32 114.63 56.32C113.94 56.32 113.09 56.36 112.51 56.43C112.74 52.4 112.8 46.83 112.8 42.22C112.8 38.08 112.77 31.82 112.51 29.8C114.86 29.91 118.74 30.13 119.59 30.13L119.58 30.12ZM144.6 47.23L142.18 47.59C139.54 48 136.62 48.91 136.62 51.7C136.62 53.82 137.79 54.96 140.17 54.96C141.64 54.96 143.1 54.45 144.6 52.88V47.23ZM134.76 40.31C136.19 38.55 138.82 37.78 141.02 37.78C144.86 37.78 147.53 39.68 147.53 44.26V53.35C147.53 55.22 147.93 55.66 148.7 55.66C148.96 55.66 149.36 55.59 149.58 55.51L149.8 56.39C148.63 56.98 147.54 57.09 147.06 57.09C145.85 57.09 145.09 56.54 144.8 55.48L144.58 54.67C142.6 56.25 140.45 57.09 138.66 57.09C135.33 57.09 133.17 55.33 133.17 52.25C133.17 48.95 135.63 47.41 138.99 46.79L142.72 46.09C143.97 45.87 144.63 45.5 144.63 44.59C144.63 40.6 142.94 39.57 140.17 39.57C138.01 39.57 136.4 40.19 135.23 42.58H134.79V40.31H134.76ZM154.98 37.89C155.38 37.89 156.14 37.82 156.69 37.78C156.4 40.57 156.36 45.22 156.36 45.4C157.89 45.48 160.1 45.55 161.28 45.55C162.46 45.55 164.77 45.48 165.87 45.4C165.87 45.18 165.83 40.54 165.54 37.78C166.15 37.82 166.96 37.89 167.39 37.89C167.8 37.89 168.56 37.82 169.11 37.78C168.82 40.54 168.78 45.18 168.78 47.1C168.78 48.65 168.82 53.62 169.11 56.42C168.56 56.34 167.99 56.31 167.43 56.31C166.82 56.31 166.08 56.34 165.54 56.42C165.83 53.62 165.87 48.65 165.87 47.47C164.27 47.35 162.09 47.21 161.25 47.21C160.26 47.21 157.83 47.28 156.37 47.39C156.37 48.64 156.41 53.61 156.7 56.42C156.15 56.34 155.57 56.31 155.03 56.31C154.41 56.31 153.68 56.34 153.14 56.42C153.43 53.62 153.46 48.65 153.46 47.1C153.46 45.22 153.42 40.55 153.14 37.78C153.75 37.82 154.56 37.89 155 37.89H154.98ZM176.34 37.89C176.75 37.89 177.54 37.82 178.09 37.78C177.8 40.54 177.76 45.22 177.76 45.89H178.36C179.6 45.89 185.95 38.81 186.55 37.78C187.07 37.82 187.93 37.89 188.39 37.89C188.77 37.89 189.67 37.82 190.23 37.78L181.25 45.66C182.38 46.99 188.35 53.58 191.05 56.42C190.04 56.34 189.33 56.31 188.8 56.31C188.12 56.31 187.1 56.34 186.32 56.42C184.93 54.28 180.68 49.38 178.36 46.87H177.76C177.76 48.24 177.79 53.61 178.09 56.42C177.53 56.34 176.94 56.31 176.37 56.31C175.74 56.31 174.99 56.34 174.42 56.42C174.73 53.62 174.77 48.65 174.77 47.1C174.77 45.22 174.73 40.55 174.42 37.78C175.06 37.82 175.89 37.89 176.34 37.89ZM212.26 42.39C217.48 42.39 220.55 40.34 220.55 36.46C220.55 32.83 217.64 31.85 214.02 31.85C213.39 31.85 211.23 31.89 210.7 31.96V42.25C211.16 42.33 211.9 42.4 212.27 42.4L212.26 42.39ZM210.81 29.9C212.11 29.9 213.8 29.79 214.76 29.79C221.66 29.79 224.35 31.84 224.35 36.46C224.35 42.43 219.24 44.34 213.17 44.34C212.83 44.34 211.41 44.26 210.7 44.19V50.52C210.7 52.35 210.78 54.59 211.01 56.42C210.37 56.35 209.74 56.31 209.11 56.31C208.43 56.31 207.65 56.35 207.06 56.42C207.29 52.39 207.36 46.82 207.36 42.21C207.36 38.08 207.32 31.81 207.06 29.8C208.3 29.84 209.97 29.91 210.83 29.91L210.81 29.9ZM227.85 47.7C227.85 51.84 229.58 55.65 233.48 55.65C237.38 55.65 239.48 52.06 239.48 47.15C239.48 43.19 237.93 39.2 233.77 39.2C229.61 39.2 227.84 43.34 227.84 47.7H227.85ZM242.99 47.3C242.99 41.81 239.49 37.78 233.89 37.78C228.29 37.78 224.35 41.74 224.35 47.82C224.35 52.95 227.89 57.09 233.56 57.09C239.23 57.09 242.99 52.91 242.99 47.31V47.3ZM261.36 42.13H260.91C259.6 40.04 257.77 39.2 255.7 39.2C251.31 39.2 249.21 43.34 249.21 47.37C249.21 52.02 251.83 55.65 256.48 55.65C258.02 55.65 259.41 55.43 261.58 53.12L261.92 53.52L261.47 55.32C259.67 56.5 257.65 57.08 255.32 57.08C249.47 57.08 245.65 53.09 245.65 47.44C245.65 41.79 249.77 37.77 255.81 37.77C257.76 37.77 259.9 38.13 262.29 39.38L261.36 42.13ZM280.65 42.13H280.2C278.89 40.04 277.06 39.2 275 39.2C270.61 39.2 268.51 43.34 268.51 47.37C268.51 52.02 271.14 55.65 275.79 55.65C277.32 55.65 278.71 55.43 280.88 53.12L281.21 53.52L280.77 55.32C278.97 56.5 276.95 57.08 274.62 57.08C268.78 57.08 264.95 53.09 264.95 47.44C264.95 41.79 269.07 37.77 275.11 37.77C277.06 37.77 279.19 38.13 281.59 39.38L280.64 42.13H280.65ZM285.43 56.31C285.21 56.31 284.55 56.38 284.26 56.42C284.55 53.62 284.59 48.65 284.59 47.1C284.59 45.22 284.55 40.55 284.26 37.78C284.88 37.82 285.67 37.89 286.11 37.89C286.51 37.89 287.27 37.82 287.82 37.78C287.53 40.54 287.5 45.18 287.5 47.1C287.5 48.65 287.53 50.82 287.57 51.85C289.57 49.39 296.71 40.21 298.42 37.78C298.81 37.85 299.07 37.89 299.51 37.89C299.72 37.89 300.49 37.82 300.9 37.78C300.6 40.54 300.56 45.18 300.56 47.1C300.56 48.65 300.6 53.62 300.9 56.42C300.35 56.35 299.76 56.31 299.22 56.31C298.6 56.31 297.87 56.35 297.32 56.42C297.61 53.62 297.65 48.65 297.65 47.1C297.65 45.19 297.61 42.83 297.58 42.05C295.1 44.59 288.54 53.29 286.47 56.42C286.14 56.35 285.81 56.31 285.42 56.31H285.43ZM306.67 56.42C306.44 56.42 305.77 56.49 305.48 56.53C305.77 53.7 305.81 48.66 305.81 47.1C305.81 45.2 305.77 40.47 305.48 37.67C306.11 37.71 306.92 37.78 307.37 37.78C307.78 37.78 308.56 37.71 309.12 37.67C308.82 40.47 308.79 45.16 308.79 47.1C308.79 48.67 308.82 50.86 308.86 51.91C310.91 49.42 318.21 40.13 319.96 37.67C320.37 37.74 320.63 37.78 321.08 37.78C321.3 37.78 322.09 37.71 322.5 37.67C322.21 40.47 322.17 45.16 322.17 47.1C322.17 48.67 322.21 53.7 322.5 56.53C321.94 56.46 321.34 56.42 320.78 56.42C320.15 56.42 319.4 56.46 318.85 56.53C319.15 53.7 319.18 48.66 319.18 47.1C319.18 45.16 319.15 42.78 319.11 41.99C316.58 44.56 309.86 53.36 307.73 56.53C307.4 56.46 307.06 56.42 306.66 56.42H306.67ZM46.85 90.08C22.97 90.08 3.63 70.73 3.63 46.85C3.63 22.97 22.97 3.62 46.85 3.62C70.73 3.62 90.09 22.97 90.09 46.85C90.09 70.73 70.74 90.08 46.85 90.08ZM46.85 0C20.98 0 0 20.98 0 46.85C0 72.72 20.98 93.7 46.85 93.7C72.72 93.7 93.71 72.72 93.71 46.85C93.71 20.98 72.73 0 46.85 0ZM83.82 60.73C83.74 59.27 83.86 57.17 83.84 55.55C83.83 54.12 83.4 52.33 82.99 51.69C83.26 51.93 83.72 52.05 84.06 52.05C83.86 51.65 83.33 50.04 83.52 47.54C83.79 44.06 83.11 42.77 83 42.48C83.32 42.59 83.56 42.63 83.9 42.66C83.78 42.07 83.68 41.54 83.57 41.01C83.21 39.2 82.66 35.18 81.67 33.96C81.67 33.96 81.88 33.98 82.03 33.97C81.98 33.2 81.31 30.34 80.15 28.57C79.77 27.99 78.95 27.01 78.2 26.67C78.24 26.59 78.28 26.52 78.32 26.44C78.5 25.99 78.35 25.68 77.88 25.54C77.64 25.46 77.36 25.46 77.11 25.38C76.37 25.14 75.63 24.9 74.91 24.61C73.64 24.08 72.4 23.45 71 23.28C69.15 23.06 67.34 23.16 65.78 24.32C63.62 25.91 62.59 28.59 63.83 31.63C63.87 31.74 63.91 31.84 63.97 31.94C64.39 32.66 64.21 33.29 63.66 33.84C62.66 34.85 61.47 35.52 60.04 35.69C59.16 35.8 58.4 35.4 57.81 34.79C56.46 33.39 55.49 31.75 55.19 29.81C55.01 28.64 54.92 27.85 54.98 26.66C55.02 25.86 55.24 24.94 55.41 24.75C55.41 24.75 55.71 25.28 56.09 25.47C55.63 23.97 56.1 23.14 56.1 23.14C56.1 23.14 56.28 23.62 56.61 23.96C56.46 22.73 57.25 21.66 58.78 21.26C59.19 21.15 59.94 21.07 60.35 20.95C63.16 20.14 63.6 20.84 63.6 20.84C63.49 20.51 63.04 19.88 62.64 19.73C63.64 20.07 65.08 20.98 67.2 20.65C68.97 20.37 69.36 18.43 68.05 17.65C68.05 17.65 68.71 18.74 67.74 19.49C67.23 19.88 66.06 19.74 65.65 19.64C64.85 19.45 63.6 18.7 63.6 18.7C64.68 18.2 65.75 18.6 66.74 19.11C66.91 18.28 66.36 17.14 65.57 16.69C64.72 16.2 64.01 16.06 62.51 15.89C62.51 15.89 61.57 14.9 59.87 14.57C59.31 14.46 58.27 14.48 57.37 14.66C55.94 14.93 55.31 15.23 53.97 15.57C52.94 15.83 50.43 16.4 48.48 15.1C48.48 15.1 49.2 16.74 51.07 17.21C50.55 17.36 49.58 17.23 48.85 16.85C49.18 17.31 49.81 18 50.78 18.31C50.49 18.6 49.54 18.66 49.01 18.37C49.59 19.07 50.02 19.33 50.65 19.45C48.77 21.54 47.57 24.21 46.93 29.12C46.2 24.19 45.1 21.54 43.22 19.45C43.86 19.33 44.29 19.06 44.86 18.37C44.33 18.66 43.37 18.6 43.09 18.31C44.06 18 44.7 17.31 45.02 16.85C44.3 17.23 43.32 17.36 42.8 17.21C44.67 16.74 45.4 15.1 45.39 15.1C43.44 16.4 40.93 15.82 39.9 15.57C38.56 15.23 37.94 14.93 36.51 14.66C35.61 14.49 34.57 14.46 34.01 14.57C32.31 14.9 31.37 15.89 31.37 15.89C29.86 16.06 29.17 16.2 28.31 16.69C27.53 17.14 26.96 18.28 27.14 19.11C28.12 18.6 29.2 18.2 30.27 18.7C30.27 18.7 29.02 19.46 28.22 19.64C27.82 19.74 26.63 19.88 26.12 19.49C25.16 18.74 25.81 17.65 25.81 17.65C24.51 18.42 24.9 20.36 26.65 20.65C28.79 20.98 30.22 20.07 31.22 19.73C30.82 19.88 30.37 20.5 30.26 20.84C30.26 20.84 30.7 20.13 33.51 20.95C33.93 21.07 34.67 21.16 35.08 21.26C36.6 21.66 37.4 22.73 37.25 23.96C37.58 23.62 37.76 23.14 37.76 23.14C37.76 23.14 38.23 23.97 37.78 25.47C38.15 25.28 38.45 24.75 38.45 24.75C38.62 24.94 38.84 25.86 38.89 26.66C38.95 27.85 38.86 28.65 38.67 29.81C38.37 31.75 37.41 33.39 36.04 34.79C35.45 35.41 34.7 35.8 33.81 35.69C32.39 35.53 31.2 34.85 30.19 33.84C29.63 33.29 29.46 32.66 29.89 31.94C29.95 31.84 29.98 31.74 30.02 31.63C31.28 28.59 30.23 25.91 28.09 24.32C26.52 23.16 24.71 23.06 22.86 23.28C21.46 23.44 20.22 24.07 18.94 24.61C18.23 24.91 17.49 25.14 16.75 25.38C16.5 25.47 16.23 25.47 15.98 25.54C15.51 25.68 15.37 25.99 15.55 26.44C15.58 26.52 15.62 26.59 15.67 26.67C14.92 27.01 14.11 27.99 13.72 28.57C12.55 30.34 11.89 33.2 11.84 33.97C11.99 33.98 12.19 33.96 12.19 33.96C11.21 35.18 10.66 39.2 10.3 41.01C10.2 41.54 10.09 42.07 9.98 42.66C10.32 42.63 10.56 42.59 10.88 42.48C10.78 42.77 10.09 44.06 10.36 47.54C10.56 50.05 10.02 51.66 9.82 52.05C10.17 52.05 10.62 51.93 10.89 51.69C10.48 52.34 10.06 54.13 10.04 55.55C10.03 57.17 10.14 59.27 10.06 60.73C9.94 62.95 9.16 63.41 8.67 63.76C9.28 63.92 10.09 63.82 10.66 63.39C11.07 63.08 11.32 63.06 11.87 63.05C12.8 63.03 13.55 62.6 14.22 62C14.46 61.78 14.84 61.63 15.16 61.6C16.16 61.51 16.6 61.13 17.29 60.42C17.4 60.3 17.6 60.24 17.76 60.2C21.53 59.32 21.54 55.4 21.61 54.2C22.17 54.12 22.84 53.49 23.14 53.02C23.19 52.94 23.3 52.82 23.44 52.86C24.98 53.33 25.99 50.76 26.32 49.87C26.6 49.1 26.8 48.2 26.89 47.39C26.95 48.08 28.21 49.28 29.35 47.38C29.35 50.17 31.51 49.67 32.03 47.84C32.59 51.21 34.99 49.61 34.97 47.08C35 50.92 37.34 50.36 37.22 49.21C37.36 49.76 37.98 50.43 37.98 50.43C32.45 51.43 34.04 54.28 31.61 55.71C32.45 56.01 33.21 55.54 33.06 55.76C32.46 56.66 32.21 57.44 32.07 58.35C32.07 58.35 29.22 61.13 28.09 62.16C27.66 62.56 27.19 62.91 26.71 63.27C26.57 63.38 26.38 63.49 26.19 63.58C26.15 63.43 26.14 63.3 26.13 63.23C25.91 62.31 25.66 61.41 25.08 60.63C24.3 59.58 23.13 59.31 22.02 60.01C21.58 60.29 21.17 60.38 20.67 60.39C19.78 60.39 19.03 61.2 19.06 62.07C19.72 61.63 20.48 61.85 20.79 62.2C19.39 62.47 18.65 63.75 19.06 64.55C19.14 64.38 19.29 64.21 19.47 64.11C20.06 63.78 20.59 63.98 20.71 64.3C21 65.03 21.62 65.24 22.3 65.32C23.52 65.47 24.72 65.54 25.97 65.7C27.7 65.92 27.65 67.09 27.98 67.89C28.2 68.42 28.73 68.8 29.34 68.8C29.63 68.8 29.91 68.71 30.13 68.57C30.28 69.03 30.14 69.56 29.63 69.66C30.06 69.82 30.86 69.54 31.13 68.98C31.63 67.95 31.41 67.15 30.55 66.41C30.48 66.35 30.4 66.29 30.32 66.23C30.29 66.19 30.24 66.16 30.2 66.13C29.97 65.94 29.73 65.75 29.51 65.54C29.13 65.17 29.06 64.75 29.34 64.31C29.59 63.91 29.89 63.52 30.24 63.22C31.28 62.35 32.35 61.51 33.42 60.68C33.74 60.43 34.11 60.22 34.47 60.01C34.76 59.85 35.17 59.76 35.54 59.89C36.37 60.18 36.84 59.81 37.05 59.66C37.17 59.57 38.32 58.43 41.77 57.96C41.28 58.27 41.07 58.74 40.87 59.23C40.7 59.65 40.53 60.07 40.35 60.48C38.42 65.03 36.5 69.51 34.58 74.07C33.94 75.58 34.51 76.9 36.07 77.62C37.21 78.15 38.5 77.86 39.26 76.77C39.04 77.53 38.94 78.17 39.25 78.8C39.55 79.43 40.04 79.88 40.69 80.15C41.31 80.42 42.05 80.52 42.73 80.38C43.42 80.24 43.88 79.79 44.24 79.12C44.3 80.61 45.22 81.49 46.51 81.66V81.68C46.61 81.68 46.71 81.7 46.81 81.7C46.85 81.7 46.88 81.7 46.91 81.7C46.95 81.7 46.98 81.7 47.02 81.7C47.12 81.7 47.23 81.7 47.32 81.68V81.66C48.6 81.49 49.53 80.6 49.59 79.12C49.93 79.79 50.39 80.24 51.09 80.38C51.77 80.52 52.51 80.42 53.13 80.15C53.77 79.88 54.26 79.43 54.57 78.8C54.88 78.17 54.77 77.53 54.55 76.77C55.31 77.86 56.6 78.15 57.74 77.62C59.31 76.89 59.87 75.58 59.23 74.07C57.3 69.51 55.38 65.04 53.44 60.48C53.26 60.07 53.1 59.65 52.93 59.23C52.73 58.75 52.52 58.27 52.04 57.96C55.49 58.43 56.63 59.57 56.75 59.66C56.95 59.82 57.43 60.18 58.26 59.89C58.63 59.76 59.04 59.84 59.33 60.01C59.7 60.21 60.05 60.43 60.38 60.68C61.45 61.51 62.53 62.35 63.55 63.22C63.9 63.52 64.2 63.92 64.46 64.31C64.74 64.75 64.68 65.18 64.29 65.54C64.07 65.75 63.84 65.94 63.6 66.13C63.55 66.16 63.51 66.19 63.46 66.23C63.39 66.29 63.32 66.35 63.25 66.41C62.39 67.15 62.18 67.95 62.67 68.98C62.93 69.54 63.74 69.82 64.16 69.66C63.65 69.56 63.51 69.03 63.66 68.57C63.89 68.72 64.16 68.8 64.46 68.8C65.08 68.8 65.61 68.42 65.83 67.89C66.17 67.09 66.11 65.92 67.83 65.7C69.09 65.54 70.29 65.47 71.51 65.32C72.19 65.24 72.8 65.03 73.09 64.3C73.22 63.97 73.75 63.78 74.34 64.11C74.52 64.21 74.67 64.38 74.75 64.55C75.16 63.75 74.42 62.47 73.03 62.2C73.33 61.85 74.08 61.63 74.75 62.07C74.77 61.21 74.03 60.4 73.15 60.39C72.65 60.39 72.23 60.29 71.79 60.01C70.67 59.31 69.51 59.58 68.73 60.63C68.15 61.4 67.9 62.31 67.68 63.23C67.66 63.3 67.65 63.43 67.62 63.58C67.42 63.49 67.24 63.38 67.1 63.27C66.63 62.91 66.16 62.56 65.72 62.16C64.58 61.13 61.74 58.35 61.74 58.35C61.6 57.44 61.35 56.66 60.75 55.76C60.6 55.53 61.36 56 62.2 55.71C59.78 54.28 61.36 51.43 55.84 50.43C55.84 50.43 56.46 49.76 56.6 49.21C56.48 50.37 58.82 50.92 58.85 47.08C58.82 49.61 61.23 51.2 61.78 47.84C62.31 49.67 64.46 50.17 64.46 47.38C65.61 49.29 66.86 48.09 66.92 47.39C67.01 48.2 67.21 49.1 67.5 49.87C67.83 50.76 68.84 53.34 70.38 52.86C70.52 52.82 70.62 52.93 70.68 53.02C70.98 53.49 71.66 54.12 72.21 54.2C72.28 55.4 72.29 59.32 76.06 60.2C76.22 60.24 76.42 60.3 76.53 60.42C77.22 61.12 77.66 61.51 78.67 61.6C79 61.63 79.37 61.78 79.61 62C80.29 62.6 81.03 63.03 81.96 63.05C82.51 63.07 82.75 63.08 83.17 63.39C83.74 63.82 84.53 63.92 85.16 63.76C84.66 63.41 83.89 62.95 83.77 60.73H83.82Z" fill="#8A8A8D"></path>
  </g>
  <defs>
    <clipPath id="clip0_497_7037">
      <rect width="322.5" height="93.7" fill="white"></rect>
    </clipPath>
  </defs>
</svg>
