<?xml version="1.0" encoding="UTF-8"?>
<svg xmlns="http://www.w3.org/2000/svg" width="18" height="18" viewBox="0 0 18 18" fill="none">
	<path d="M9 18C4.0292 18 -1.76122e-07 13.9708 -3.93402e-07 9C-6.10683e-07 4.02921 4.0292 2.17223e-06 9 1.95495e-06C13.9708 1.73767e-06 18 4.02921 18 9C18 13.9708 13.9679 18 9 18Z" fill="#145FF5" class="btn-alt-arrow-bg"></path>
	<path d="M11.2247 9.39673C11.3552 9.25951 11.3552 9.03081 11.2247 8.89359L7.83552 5.32872C7.70506 5.1915 7.4886 5.1915 7.35813 5.32872C7.2247 5.46594 7.2247 5.69464 7.35813 5.83186L10.5071 9.14516L7.35813 12.4585C7.2247 12.5957 7.2247 12.8244 7.35813 12.9616C7.4886 13.0988 7.70506 13.0988 7.83553 12.9616L11.2247 9.39673Z" fill="#F5F6FC" class="btn-alt-arrow-color"></path>
</svg> 