<?xml version="1.0" encoding="UTF-8"?> <svg xmlns="http://www.w3.org/2000/svg" width="584" height="584" viewBox="0 0 584 584" fill="none"><rect width="584" height="584" rx="292" fill="#145FF5"></rect><path fill-rule="evenodd" clip-rule="evenodd" d="M196.641 201.865L119.896 382.959H119.649C103.924 369.33 92.6494 351.022 87.3583 330.579C82.0672 310.135 83.0562 288.522 90.1275 268.637C97.1987 248.753 110.105 231.615 126.967 219.511C143.829 207.408 163.955 200.949 184.526 201C188.581 201 192.636 201.305 196.641 201.865ZM408.929 382.959C459.176 382.959 499.909 342.226 499.909 291.98C499.909 241.733 459.176 201 408.929 201C358.682 201 317.949 241.733 317.949 291.98C317.949 342.226 358.682 382.959 408.929 382.959ZM255.859 382.959L326.611 216.809C315.854 209.247 303.581 204.274 290.721 202.143C277.862 200.011 264.758 200.874 252.24 204.629C239.723 208.385 228.184 214.88 218.404 223.761C208.625 232.642 200.802 243.655 195.57 255.987C190.338 268.319 187.747 281.716 187.991 295.215C188.285 308.714 191.365 321.96 197.135 334.088C202.904 346.217 211.119 356.824 221.289 365.299C231.411 373.723 243.243 379.762 255.859 382.959Z" fill="#F5F6FC"></path></svg> 