<?xml version="1.0" encoding="UTF-8"?> <svg xmlns="http://www.w3.org/2000/svg" width="124" height="69" viewBox="0 0 124 69" fill="none"><path d="M113.5 21C119.299 21 124 16.299 124 10.5C124 4.70101 119.299 0 113.5 0C107.701 0 103 4.70101 103 10.5C103 16.299 107.701 21 113.5 21Z" fill="white"></path><path d="M95.8344 21L104 1.82451C102.759 0.951832 101.342 0.377856 99.858 0.131867C98.3738 -0.114123 96.8615 -0.0145559 95.4169 0.418855C93.9722 0.852265 92.6404 1.60195 91.5118 2.62691C90.3832 3.65186 89.4803 4.92281 88.8765 6.34604C88.2727 7.76926 87.9736 9.31549 88.0018 10.8734C88.0357 12.4314 88.3912 13.96 89.0571 15.3598C89.723 16.7596 90.671 17.9837 91.8448 18.9618C93.0129 19.934 94.3785 20.631 95.8344 21Z" fill="white"></path><path d="M80.1428 21L89 0.0998106C88.5377 0.0352495 88.0698 3.43957e-05 87.6018 3.43957e-05C85.2277 -0.00583479 82.9049 0.739552 80.9589 2.13642C79.0128 3.53329 77.5233 5.5112 76.7072 7.80606C75.8911 10.1009 75.7769 12.5953 76.3876 14.9547C76.9982 17.3141 78.2994 19.4271 80.1142 21H80.1428Z" fill="white"></path><path d="M8.78455 41.9503H4.97542C4.87775 41.9619 4.78008 41.9386 4.69965 41.8863C4.61922 41.8339 4.55602 41.7524 4.52729 41.6593C4.5158 41.5721 4.52729 41.4906 4.56176 41.4092C4.59623 41.3335 4.65369 41.2637 4.72838 41.223C4.78008 41.1706 15.6846 32.1285 15.8513 31.954C16.3913 31.4012 16.8107 30.7379 17.0808 30.0106C17.2933 29.4113 17.4025 28.777 17.4082 28.137C17.4082 27.6424 17.3278 27.1478 17.1727 26.6765C16.8337 25.8794 16.2707 25.2044 15.5525 24.7273C14.8343 24.2502 14.0013 24 13.1452 24H0.522822V28.0497H12.4271C12.7143 28.0497 12.835 28.1545 12.858 28.3116C12.858 28.393 12.8407 28.4745 12.812 28.5501C12.7775 28.6258 12.7316 28.6898 12.6684 28.7421C12.565 28.8469 10.6748 30.4062 9.66933 31.2383L2.03958 37.5573C1.3444 38.1333 0.79285 38.8723 0.425152 39.6985C0.384935 39.78 0.344718 39.8614 0.310246 39.9429C0.114906 40.4491 0.00574529 40.9902 0 41.5372C0 42.7183 0.465369 43.8588 1.29269 44.6908C2.12001 45.5287 3.24035 46 4.40664 46H18V41.9503H8.78455Z" fill="white"></path><path d="M116 24H112V46H116V24Z" fill="white"></path><path d="M32.7905 24.0291V37.2942C32.779 38.5562 32.288 39.7658 31.4143 40.6672C30.5463 41.5686 29.3643 42.0862 28.1251 42.1211C26.886 42.1501 25.6811 41.6907 24.7674 40.8358C23.8538 39.981 23.2999 38.8004 23.2314 37.5385C23.2314 34.2876 23.2314 23.9709 23.2314 24.0233H19V36.3812C19 43.4296 23.5968 46 27.9995 46C32.4022 46 37.0789 43.0981 36.999 36.6661V24L32.7905 24.0174V24.0291Z" fill="white"></path><path d="M48.0004 24C43.5892 24 38.9266 26.9135 39.0009 33.3337V45.9997H43.2178V32.7406C43.2692 31.5077 43.7835 30.3388 44.652 29.4723C45.5206 28.6058 46.6748 28.1057 47.8919 28.0766C49.1032 28.0475 50.286 28.4837 51.1946 29.3037C52.1031 30.1236 52.6745 31.2634 52.783 32.4963C52.783 35.7471 52.783 46.0637 52.783 45.9997H57V33.6478C57.0114 26.582 52.4116 24 47.9947 24H48.0004Z" fill="white"></path><path d="M100.908 24.0044C99.6137 23.9811 98.3247 24.2369 97.1336 24.7486C95.9425 25.2602 94.8664 26.0219 93.9861 26.9871C93.1172 26.0103 92.0469 25.2428 90.85 24.7253C89.6531 24.2079 88.3642 23.9637 87.0638 24.0044C82.6215 24.0044 77.9261 26.9173 78.0009 33.3362V45.9997H82.2475V32.7432C82.3626 31.5571 82.9035 30.4582 83.7666 29.65C84.6297 28.8418 85.7518 28.3767 86.9314 28.3476C88.1053 28.3185 89.2561 28.7197 90.1538 29.4872C91.0514 30.2547 91.6498 31.3245 91.8282 32.499V45.9997H96.0748V32.7432C96.0863 31.4815 96.5812 30.2721 97.4616 29.3709C98.3362 28.4697 99.5274 27.9522 100.776 27.9174C102.025 27.8883 103.239 28.3476 104.159 29.2023C105.08 30.057 105.638 31.2373 105.707 32.499C105.707 35.7492 105.707 46.0637 105.707 45.9997H110V33.6502C110 26.5859 105.345 24.0044 100.903 24.0044H100.908Z" fill="white"></path><path d="M71.8602 39.7483C71.8488 40.5567 71.5242 41.3243 70.9661 41.8884C70.4024 42.4526 69.645 42.7666 68.8535 42.7666H64.7422C64.2354 42.7666 63.7399 42.6503 63.2844 42.4293C62.8288 42.2083 62.4245 41.8943 62.0943 41.4988C61.7697 41.1034 61.5305 40.6439 61.3939 40.1438C61.2572 39.6495 61.2344 39.1261 61.3141 38.6201C61.4736 37.7711 61.9177 37.0092 62.5726 36.4684C63.2275 35.9218 64.0474 35.631 64.8902 35.6484H71.8545V39.7483H71.8602ZM67.0313 24.0058C63.068 24.0058 58.9111 26.3785 58.1822 31.5543H62.4188C62.7207 30.4726 63.3755 29.5247 64.2809 28.8792C65.1863 28.2337 66.2797 27.9196 67.3787 28.0011C68.4777 28.0825 69.5198 28.5477 70.3227 29.3154C71.1256 30.0888 71.6438 31.1182 71.7918 32.2347V32.4615L64.4005 32.3976C62.6808 32.4615 61.0579 33.2001 59.8621 34.4679C58.6662 35.7298 58 37.4163 58 39.1726C58 40.9289 58.6662 42.6154 59.8621 43.8773C61.0579 45.1393 62.6808 45.8837 64.4005 45.9477H69.8102C70.5504 45.8837 71.2509 45.5755 71.8032 45.0753V46H76V33.6479C76.0114 26.5821 71.416 24 67.0256 24L67.0313 24.0058Z" fill="white"></path><path fill-rule="evenodd" clip-rule="evenodd" d="M83.0174 65.2127H80.8871V53.8799H83.0174V65.2127ZM87.2607 53.8799H89.7858L85.4612 59.3002L90.2792 65.2127H87.6148L83.0639 59.4218L87.2665 53.8799H87.2607ZM109.975 55.5187C112.273 55.5187 113.87 57.5456 113.87 59.5666C113.87 61.9582 112.047 63.5565 110.033 63.5565C107.879 63.5565 106.178 61.8193 106.178 59.5261C106.178 57.4587 107.74 55.5187 109.975 55.5187ZM104.089 53.8799V69H106.219V63.5797H106.26C106.689 64.2978 107.879 65.5023 110.259 65.5023C113.87 65.5023 116 62.5547 116 59.694C116 56.6653 113.968 53.5788 110.114 53.5788C108.64 53.5788 107.119 54.1521 106.074 55.623H106.033V53.8857H104.083L104.089 53.8799ZM99.828 58.8312H92.485C92.5894 57.1749 94.1045 55.5187 96.1536 55.5187C98.2026 55.5187 99.7235 57.1749 99.8222 58.8312H99.828ZM92.485 60.47H101.894C101.918 60.3252 101.958 59.7751 101.958 59.3871C101.958 56.0515 99.2301 53.5788 96.1768 53.5788C93.1235 53.5788 90.3546 56.1384 90.3546 59.5318C90.3546 62.7458 92.9203 65.5023 96.1362 65.5023C97.9008 65.5023 100.501 64.5815 101.593 61.6571H99.4623C98.9515 62.6416 97.8021 63.5623 96.2232 63.5623C94.7894 63.5623 93.0422 62.6416 92.4908 60.4758L92.485 60.47ZM72.6153 55.5187C75.0127 55.5187 76.6148 57.4819 76.6148 59.5087C76.6148 61.6571 74.914 63.5565 72.6153 63.5565C70.3166 63.5565 68.6158 61.5703 68.6158 59.5261C68.6158 57.4819 70.2179 55.5187 72.6153 55.5187ZM72.6153 65.5023C76.4697 65.5023 78.7451 62.271 78.7451 59.5087C78.7451 56.2774 76.0575 53.5788 72.6153 53.5788C69.1731 53.5788 66.4855 56.3816 66.4855 59.4682C66.4855 62.3347 68.7842 65.5023 72.6153 65.5023ZM62.7995 59.5724C62.7995 57.5456 61.1974 55.5245 58.9045 55.5245C56.6116 55.5245 55.1082 57.4703 55.1082 59.5318C55.1082 61.8251 56.809 63.5623 58.9625 63.5623C60.971 63.5623 62.7995 61.964 62.7995 59.5724ZM53.0185 69V53.8799H54.9689V55.6172H55.0095C56.0544 54.1463 57.5752 53.573 59.0496 53.573C62.904 53.573 64.9356 56.6596 64.9356 59.6882C64.9356 62.5547 62.8053 65.4965 59.1947 65.4965C56.8148 65.4965 55.6248 64.292 55.1952 63.5739H55.1546V68.9942H53.0243L53.0185 69ZM47.771 57.2792C48.2644 57.7714 48.7578 58.5879 48.7578 59.7519C48.7578 60.8174 48.305 61.8193 47.6491 62.491C47.0744 63.0817 46.1921 63.5565 45.0834 63.5565C44.1836 63.5565 43.2201 63.2265 42.5003 62.5547C41.7805 61.8772 41.3916 60.858 41.3916 59.8561C41.3916 58.9585 41.7398 57.9104 42.4364 57.1981C42.9472 56.6653 43.7715 56.1557 44.915 56.1557C45.9193 56.1557 47.0047 56.5032 47.7652 57.2792H47.771ZM50.1509 52.0037V50C49.5821 50.0695 48.9435 50.11 48.2005 50.1621C47.3646 50.2201 46.3952 50.2895 45.2517 50.4054C40.9678 50.8339 39 53.5962 39 58.2405C39 60.6958 39.8823 62.8037 40.8633 63.8229C41.5018 64.4773 42.8137 65.5023 44.9208 65.5023C46.581 65.5023 48.2412 64.8247 49.286 63.765C50.3309 62.6995 50.8881 61.1244 50.8881 59.694C50.8881 58.0146 50.1916 56.6248 49.2454 55.7272C48.2818 54.8065 46.8887 54.2158 45.2865 54.2158C44.2591 54.2158 43.3187 54.4822 42.4364 55.0149C41.676 55.484 41.1884 56.0399 40.7763 56.7522H40.695C41.0259 53.7873 43.0749 52.4959 45.391 52.27C45.8438 52.2237 46.61 52.1948 47.4227 52.1658C48.4617 52.1253 49.5588 52.0847 50.1509 52.0037Z" fill="white"></path></svg> 