<?xml version="1.0" encoding="UTF-8"?> <svg xmlns="http://www.w3.org/2000/svg" width="28" height="14" viewBox="0 0 28 14" fill="none"><path fill-rule="evenodd" clip-rule="evenodd" d="M0 7C0 7 6.26801 14 14 14C21.732 14 28 7 28 7C28 7 21.732 0 14 0C6.26801 0 0 7 0 7ZM1.30975 7C1.43457 7.12162 1.5774 7.25788 1.73729 7.40599C2.42083 8.03918 3.41112 8.8844 4.63332 9.72863C6.53688 11.0435 8.94788 12.3179 11.6043 12.8285C9.31309 11.8858 7.70004 9.63129 7.70004 7.00007C7.70004 4.3686 9.31341 2.11395 11.6049 1.17132C8.94829 1.68188 6.53704 2.95639 4.63332 4.27137C3.41112 5.11559 2.42083 5.96082 1.73729 6.59401C1.5774 6.74212 1.43457 6.87838 1.30975 7ZM23.3667 9.72863C21.4632 11.0435 19.0522 12.3179 16.3959 12.8285C18.687 11.8857 20.3 9.63126 20.3 7.00007C20.3 4.36863 18.6867 2.114 16.3952 1.17135C19.0518 1.68193 21.463 2.95642 23.3667 4.27137C24.5889 5.11559 25.5792 5.96082 26.2627 6.59401C26.4226 6.74212 26.5654 6.87838 26.6902 7C26.5654 7.12162 26.4226 7.25788 26.2627 7.40599C25.5792 8.03918 24.5889 8.8844 23.3667 9.72863ZM14 12.3626C16.9617 12.3626 19.3625 9.9617 19.3625 7.00007C19.3625 4.03845 16.9617 1.63757 14 1.63757C11.0384 1.63757 8.63754 4.03845 8.63754 7.00007C8.63754 9.9617 11.0384 12.3626 14 12.3626ZM15.8625 6.99998C15.8625 8.02861 15.0287 8.86248 14 8.86248C12.9714 8.86248 12.1375 8.02861 12.1375 6.99998C12.1375 5.97135 12.9714 5.13748 14 5.13748C15.0287 5.13748 15.8625 5.97135 15.8625 6.99998ZM16.8 6.99998C16.8 8.54638 15.5464 9.79998 14 9.79998C12.4536 9.79998 11.2 8.54638 11.2 6.99998C11.2 5.45358 12.4536 4.19998 14 4.19998C15.5464 4.19998 16.8 5.45358 16.8 6.99998Z" fill="#14141A"></path></svg> 