<?xml version="1.0" encoding="UTF-8"?> <svg xmlns="http://www.w3.org/2000/svg" width="62" height="62" viewBox="0 0 62 62" fill="none"><path d="M0 31C0 13.8784 13.8783 0 31 0C48.1216 0 62 13.8784 62 31C62 48.1216 48.1216 62 31 62C13.8783 62 0 48.1216 0 31Z" fill="#145FF5"></path><path d="M44.1707 16.3084C44.5817 15.8972 45.2633 15.8972 45.6843 16.3084C46.1052 16.7195 46.1052 17.4115 45.6843 17.8227L32.5235 31L45.6843 44.1773C46.1052 44.5885 46.1052 45.2704 45.6843 45.6916C45.2733 46.1028 44.5917 46.1028 44.1707 45.6916L31 32.5143L17.8293 45.6916C17.4083 46.1028 16.7267 46.1028 16.3157 45.6916C15.8948 45.2805 15.8948 44.5985 16.3157 44.1773L29.4864 31L16.3157 17.8227C15.8948 17.4115 15.8948 16.7195 16.3157 16.3084C16.7267 15.8972 17.4083 15.8972 17.8293 16.3084L31 29.4857L44.1707 16.3084Z" fill="#F5F6FC"></path></svg> 