<?xml version="1.0" encoding="UTF-8"?> <svg xmlns="http://www.w3.org/2000/svg" width="82" height="80" viewBox="0 0 82 80" fill="none"><mask id="path-1-inside-1_149_249" fill="white"><path fill-rule="evenodd" clip-rule="evenodd" d="M54 0L67.8564 8L54 32H82V48H54.7128L68 71.0141L54.1436 79.0141L40.5 55.3827L26.8564 79.0141L13 71.0141L26.2872 48H0V32H27L13.1436 8L27 0L40.5 23.3827L54 0Z"></path></mask><path d="M67.8564 8L69.5885 9L70.5885 7.26795L68.8564 6.26795L67.8564 8ZM54 0L55 -1.73205L53.2679 -2.73205L52.2679 -1L54 0ZM54 32L52.2679 31L50.5359 34H54V32ZM82 32H84V30H82V32ZM82 48V50H84V48H82ZM54.7128 48V46H51.2487L52.9808 49L54.7128 48ZM68 71.0141L69 72.7461L70.732 71.7461L69.732 70.0141L68 71.0141ZM54.1436 79.0141L52.4115 80.0141L53.4115 81.7461L55.1436 80.7461L54.1436 79.0141ZM40.5 55.3827L42.2321 54.3827L40.5 51.3827L38.7679 54.3827L40.5 55.3827ZM26.8564 79.0141L25.8564 80.7461L27.5885 81.7461L28.5885 80.0141L26.8564 79.0141ZM13 71.0141L11.2679 70.0141L10.2679 71.7461L12 72.7461L13 71.0141ZM26.2872 48L28.0192 49L29.7513 46H26.2872V48ZM0 48H-2V50H0V48ZM0 32V30H-2V32H0ZM27 32V34H30.4641L28.732 31L27 32ZM13.1436 8L12.1436 6.26795L10.4115 7.26795L11.4115 9L13.1436 8ZM27 0L28.732 -1L27.732 -2.73205L26 -1.73205L27 0ZM40.5 23.3827L38.7679 24.3827L40.5 27.3827L42.2321 24.3827L40.5 23.3827ZM68.8564 6.26795L55 -1.73205L53 1.73205L66.8564 9.73205L68.8564 6.26795ZM55.7321 33L69.5885 9L66.1244 7L52.2679 31L55.7321 33ZM82 30H54V34H82V30ZM84 48V32H80V48H84ZM54.7128 50H82V46H54.7128V50ZM69.732 70.0141L56.4449 47L52.9808 49L66.268 72.0141L69.732 70.0141ZM55.1436 80.7461L69 72.7461L67 69.282L53.1436 77.282L55.1436 80.7461ZM38.7679 56.3827L52.4115 80.0141L55.8756 78.0141L42.2321 54.3827L38.7679 56.3827ZM28.5885 80.0141L42.2321 56.3827L38.7679 54.3827L25.1244 78.0141L28.5885 80.0141ZM12 72.7461L25.8564 80.7461L27.8564 77.282L14 69.282L12 72.7461ZM24.5551 47L11.2679 70.0141L14.7321 72.0141L28.0192 49L24.5551 47ZM0 50H26.2872V46H0V50ZM-2 32V48H2V32H-2ZM27 30H0V34H27V30ZM11.4115 9L25.268 33L28.732 31L14.8756 7L11.4115 9ZM26 -1.73205L12.1436 6.26795L14.1436 9.73205L28 1.73205L26 -1.73205ZM42.2321 22.3827L28.732 -1L25.268 1L38.7679 24.3827L42.2321 22.3827ZM52.2679 -1L38.7679 22.3827L42.2321 24.3827L55.7321 1L52.2679 -1Z" fill="black" mask="url(#path-1-inside-1_149_249)"></path></svg> 