<?xml version="1.0" encoding="UTF-8"?> <svg xmlns="http://www.w3.org/2000/svg" width="14" height="15" viewBox="0 0 14 15" fill="none"><path fill-rule="evenodd" clip-rule="evenodd" d="M11.2629 6.10022C11.2629 8.95151 8.95151 11.2629 6.10022 11.2629C3.24893 11.2629 0.9375 8.95151 0.9375 6.10022C0.9375 3.24893 3.24893 0.9375 6.10022 0.9375C8.95151 0.9375 11.2629 3.24893 11.2629 6.10022ZM12.2004 6.10022C12.2004 9.46928 9.46928 12.2004 6.10022 12.2004C2.73116 12.2004 0 9.46928 0 6.10022C0 2.73116 2.73116 0 6.10022 0C9.46928 0 12.2004 2.73116 12.2004 6.10022ZM11.3118 11.259C11.1288 11.0759 10.832 11.0759 10.6489 11.259C10.4659 11.442 10.4659 11.7388 10.6489 11.9219L12.601 13.8739C12.7841 14.057 13.0809 14.057 13.2639 13.8739C13.447 13.6909 13.447 13.3941 13.2639 13.211L11.3118 11.259Z" fill="#14141A"></path></svg> 