<?xml version="1.0" encoding="UTF-8"?> <svg xmlns="http://www.w3.org/2000/svg" viewBox="0 0 50.00 50.00" data-guides="{&quot;vertical&quot;:[],&quot;horizontal&quot;:[]}"><defs></defs><path fill="#ffffff" stroke="none" fill-opacity="1" stroke-width="1" stroke-opacity="1" id="tSvg68c708dda1" title="Path 1" d="M24.9999 -0.0003C5.7549 -0.0003 -6.2732 20.833 3.3493 37.4997C12.9718 54.1664 37.028 54.1664 46.6505 37.4997C48.8447 33.6992 49.9999 29.3881 49.9999 24.9997C49.9999 11.1926 38.807 -0.0003 24.9999 -0.0003ZM39.409 34.7838C38.6817 34.8861 35.1249 34.7838 34.9402 34.7838C34.0207 34.7959 33.1336 34.4447 32.4715 33.8065C31.7215 33.0821 31.051 32.2866 30.3181 31.5338C30.1021 31.3027 29.8674 31.0899 29.6164 30.8974C29.0311 30.4486 28.4516 30.548 28.176 31.2412C27.9609 31.9872 27.8107 32.7505 27.7272 33.5224C27.6789 34.2213 27.2357 34.6588 26.4516 34.7071C25.9658 34.7327 25.48 34.744 24.9999 34.7298C23.25 34.7203 21.5274 34.2947 19.9743 33.4884C18.2934 32.5526 16.8288 31.2729 15.676 29.7327C13.7811 27.3122 12.2669 24.6531 10.9147 21.9116C10.8436 21.7724 9.4573 18.8236 9.4232 18.6844C9.2982 18.2213 9.4232 17.7753 9.8067 17.619C10.051 17.5253 14.6192 17.619 14.6959 17.619C15.3933 17.6143 16.0136 18.0612 16.23 18.7241C17.0752 20.8861 18.2313 22.9131 19.6618 24.7412C19.8622 24.9847 20.0966 25.1981 20.3579 25.3747C20.73 25.6304 21.0823 25.5423 21.2357 25.1105C21.4177 24.5154 21.5246 23.8998 21.5539 23.2781C21.5794 22.0452 21.5539 21.2355 21.4857 20.0026C21.4402 19.2128 21.1618 18.5224 19.9971 18.298C19.6391 18.2327 19.6079 17.9372 19.838 17.6418C20.3181 17.031 20.9743 16.9315 21.7101 16.8946C22.8067 16.8321 23.9033 16.8747 24.9999 16.8946C25.0794 16.8946 25.159 16.8946 25.2385 16.8946C25.7158 16.8929 26.1919 16.9414 26.659 17.0395C27.2265 17.1553 27.6505 17.6302 27.7016 18.2071C27.758 18.5182 27.7818 18.8343 27.7726 19.1503C27.7442 20.494 27.6789 21.8406 27.6647 23.1844C27.6515 23.7175 27.7001 24.2505 27.8096 24.7724C27.9658 25.4884 28.4573 25.6673 28.9459 25.1503C29.5792 24.4834 30.1595 23.7681 30.6817 23.0111C31.6072 21.6312 32.3699 20.1488 32.9544 18.5935C33.2726 17.7952 33.5226 17.619 34.3749 17.619C35.9904 17.619 37.606 17.619 39.2215 17.619C39.5097 17.614 39.797 17.6523 40.0738 17.7327C40.4879 17.8415 40.722 18.2796 40.5823 18.6844C40.3436 19.7469 39.7698 20.6531 39.1618 21.5253C38.176 22.9202 37.1363 24.281 36.1277 25.6588C36.0064 25.8369 35.8954 26.0219 35.7954 26.2128C35.4147 26.9003 35.4431 27.2838 35.9942 27.852C36.8749 28.7582 37.8152 29.6048 38.6647 30.5366C39.2877 31.2146 39.8504 31.9456 40.3465 32.7213C40.9516 33.6986 40.5681 34.619 39.409 34.7838Z"></path></svg> 